<?xml version="1.0" encoding="UTF-8"?>
<svg id="Layer_1" data-name="Layer 1" xmlns="http://www.w3.org/2000/svg" version="1.1" viewBox="0 0 1444.7 249.6">
  <defs>
    <style>
      .cls-1 {
        fill: #e2e2e2;
        stroke-width: 0px;
      }
    </style>
  </defs>
  <path class="cls-1" d="M170.2,122.2c15.4-8.9,24.5-23.9,24.5-41.8,0-34.6-24.3-55.4-66.7-57.2-6.9-.3-14.2-.3-24.8-.3H0v207.8h118.1c10.7,0,19.6-.6,27.1-1.7,36.7-5.5,56.1-26.3,56.1-60.2s-13.9-39.1-31.1-46.5h0ZM52.6,67.4h62.2c23.6,0,27.6,5.3,27.6,17.1s-4.8,19-30.1,19h-59.7v-36.1ZM113.1,185.7h-60.6v-38.5h66.6c26.7,0,30.4,8.7,30.4,18.1s-6.1,20.3-36.5,20.3h0Z"/>
  <path class="cls-1" d="M336.7,18.1c-72,0-109.7,54.6-109.7,108.6s37.7,108.6,109.7,108.6,109.4-37.3,109.4-108.6-55-108.6-109.4-108.6ZM336.7,189c-33.6,0-57.1-25.6-57.1-62.3s23.5-62.3,57.1-62.3,56.8,25.6,56.8,62.3-23.4,62.3-56.8,62.3Z"/>
  <path class="cls-1" d="M849.5,22.8h-111.5v207.8h111.8c69.9,0,111.6-39.7,111.6-106.1s-41.8-101.7-111.9-101.7h0ZM849.5,184.3h-58.9v-115.3h59.2c26.5,0,58.2,9.6,58.2,55.5s-20.2,59.8-58.5,59.8h0s0,0,0,0Z"/>
  <path class="cls-1" d="M651.1,225.6h-2l-66-202.8h-107.1v207.8h52.6V27.7h2l66,202.8h107.1V22.8h-52.5v202.8h0Z"/>
  <g>
    <path class="cls-1" d="M1323.8,101l-72.8-77.8h-33.1l52.3,57.2,53.6,20.6Z"/>
    <path class="cls-1" d="M1338.8,152.3l72.8,77.8h33l-52.3-57.2-53.6-20.6Z"/>
    <path class="cls-1" d="M1411.4,23.2l-193.4,206.9h33.2l193.6-206.9h-33.3Z"/>
    <polygon class="cls-1" points="1044.6 205.8 1044.6 22.8 1019.8 22.8 1019.8 230.5 1189 230.5 1189 205.8 1044.6 205.8"/>
  </g>
</svg>