<?xml version="1.0" encoding="UTF-8"?>
<svg id="Layer_1" data-name="Layer 1" xmlns="http://www.w3.org/2000/svg" version="1.1" viewBox="0 0 1738.4 249.6">
  <defs>
    <style>
      .cls-1 {
        fill: #e2e2e2;
        stroke-width: 0px;
      }
    </style>
  </defs>
  <path class="cls-1" d="M170.2,122.2c15.4-8.9,24.5-23.9,24.5-41.8,0-34.6-24.3-55.4-66.7-57.2-6.9-.3-14.2-.3-24.8-.3H0v207.8h118.1c10.7,0,19.6-.6,27.1-1.7,36.7-5.5,56.1-26.3,56.1-60.2s-13.9-39.1-31.1-46.5h0ZM52.6,67.4h62.2c23.6,0,27.6,5.3,27.6,17.1s-4.8,19-30.1,19h-59.7v-36.1ZM113.1,185.7h-60.6v-38.5h66.6c26.7,0,30.4,8.7,30.4,18.1s-6.1,20.3-36.5,20.3h0Z"/>
  <path class="cls-1" d="M336.7,18.1c-72,0-109.7,54.6-109.7,108.6s37.7,108.6,109.7,108.6,109.4-37.3,109.4-108.6-55-108.6-109.4-108.6ZM336.7,189c-33.6,0-57.1-25.6-57.1-62.3s23.5-62.3,57.1-62.3,56.8,25.6,56.8,62.3-23.4,62.3-56.8,62.3Z"/>
  <path class="cls-1" d="M849.5,22.8h-111.5v207.8h111.8c69.9,0,111.6-39.7,111.6-106.1s-41.8-101.7-111.9-101.7h0ZM849.5,184.3h-58.9v-115.3h59.2c26.5,0,58.2,9.6,58.2,55.5s-20.2,59.8-58.5,59.8h0s0,0,0,0Z"/>
  <path class="cls-1" d="M651.1,225.6h-2l-66-202.8h-107.1v207.8h52.6V27.7h2l66,202.8h107.1V22.8h-52.5v202.8h0Z"/>
  <polygon class="cls-1" points="1716.7 18 1716.7 18 1708.7 18 1708.7 18 1708.5 18 1685.5 18 1682.5 18 1603.2 220.6 1601.3 220.6 1522 18 1520 18 1496.7 18 1496.7 18 1488.8 18 1488.8 18 1470.1 18 1467.1 18 1467.1 225.6 1470.1 225.6 1490.7 225.6 1493.7 225.6 1493.7 23 1495.9 23 1575.1 225.6 1577.1 225.6 1599.2 225.6 1601.2 225.6 1601.2 225.6 1601.2 225.6 1604.2 225.6 1627.3 225.6 1630.3 225.6 1709.5 23 1711.8 23 1711.8 225.6 1714.8 225.6 1735.4 225.6 1738.4 225.6 1738.4 18 1735.4 18 1716.7 18"/>
  <path class="cls-1" d="M1200.6,158.9l-3.1,6.3c-12.9,25.9-38.1,40.7-69.2,40.7-45.8,0-83-37.2-83-83s37.2-83,83-83,55.8,14.3,69,40.3l3.2,6.2,22.6-11.4-3.2-6.2c-17.7-35-50.2-54.2-91.6-54.2-59.8,0-108.4,48.6-108.4,108.4s48.6,108.4,108.4,108.4,74.6-19.9,91.9-54.7l3.1-6.3-22.7-11.4h0Z"/>
  <path class="cls-1" d="M1434.4,225.6l-37.2-95.7c21.3-8.2,36.5-28.8,36.5-53s-25.5-56.8-56.8-56.8h-125.6v205.5h25.4v-92h77.2l16.4-.2,35.8,92.1h28.3,0ZM1376.8,108.3h-100.2v-62.8h100.2c17.3,0,31.4,14.1,31.4,31.4s-14.1,31.4-31.4,31.4h0Z"/>
</svg>