<?xml version="1.0" encoding="UTF-8"?><svg id="Layer_1" xmlns="http://www.w3.org/2000/svg" xmlns:xlink="http://www.w3.org/1999/xlink" viewBox="0 0 48 48"><defs><style>.cls-1{fill:url(#linear-gradient);}.cls-1,.cls-2{stroke-width:0px;}.cls-2{fill:#f3fffc;}</style><linearGradient id="linear-gradient" x1="15.56" y1="24" x2="32.44" y2="24" gradientUnits="userSpaceOnUse"><stop offset="0" stop-color="#11e9b7"/><stop offset="1" stop-color="#11d1ce"/></linearGradient></defs><circle class="cls-2" cx="24" cy="25" r="21.97"/><circle class="cls-2" cx="24" cy="24" r="21.97"/><path class="cls-1" d="m24.8,31.64c-.11,0-.23-.04-.31-.13l-1.6-1.6h0s0,0,0,0h0s0,0,0,0h0s0,0,0,0h0s0,0,0,0h0s0,0,0,0h0s0,0,0,0h0s0,0,0,0h0s0,0,0,0h0s0,0,0,0h0s0,0,0,0h0s0,0,0,0h0s0,0,0,0h0s0,0,0,0h0s0,0,0,0h0s0,0,0,0c0,0,0,0,0,0h0s0,0,0,0h0s0,0,0,0h0s0,0,0,0h0s0,0,0,0h0s0,0,0,0h0s0,0,0,0h0s0,0,0,0h0s0,0,0,0h0s0,0,0,0c0,0,0,0,0,0,0,0,0,0,0,0h0s0,0,0,0h0s0,0,0,0h0s0,0,0,0h0s0,0,0,0h0s0,0,0,0h0s0,0,0,0h0s0,0,0,0h0s0,0,0,0h0s0,0,0,0h0s0,0,0,0h0s0,0,0,0h0s0,0,0,0h0s0,0,0,0h0s0,0,0,0h0s0,0,0,0h0s0,0,0,0h0s0,0,0,0h0s0,0,0,0h0s0,0,0,0h0s0,0,0,0h0s0,0,0,0h0s0,0,0,0h0s0,0,0,0h0s0,0,0,0h0s0,0,0,0h0s-.02-.04-.03-.06h0s-.03-.1-.03-.15c0-.01,0-.02,0-.03h0c0-.05.01-.1.03-.15.02-.05.05-.09.08-.13h0s0,0,0,0h0s0,0,0,0h0s0,0,0,0h0s0,0,0,0h0s0,0,0,0h0s0,0,0,0h0s0,0,0,0h0s0,0,0,0c0,0,0,0,0,0,0,0,0,0,0,0h0s1.6-1.6,1.6-1.6c.17-.17.45-.17.62,0s.17.45,0,.62l-.85.85h5.18c.8,0,1.24,0,1.49-.13.22-.11.39-.29.51-.51.13-.25.13-.69.13-1.49v-4.2h-15.12v4.2c0,.8,0,1.24.13,1.49.11.22.29.39.51.51.25.12.69.12,1.49.12h1.44c.24,0,.44.2.44.44s-.2.44-.44.44h-1.44c-.96,0-1.45,0-1.89-.22-.38-.2-.69-.5-.89-.89-.22-.44-.22-.92-.22-1.89v-6.08c0-.97,0-1.45.22-1.89.2-.39.51-.69.89-.89.44-.22.92-.22,1.89-.22h5.18l-.85-.85c-.17-.17-.17-.45,0-.62s.45-.17.62,0l1.6,1.6s.08.09.1.15c.02.05.03.1.03.15h0v.02h0s0,0,0,0h0c0,.06-.01.11-.03.16h0s0,0,0,0h0s0,0,0,0h0s0,0,0,0h0s0,0,0,0h0s0,0,0,0h0s0,0,0,0h0s0,0,0,0h0s0,0,0,0h0s0,0,0,0h0s0,0,0,0h0s0,0,0,0h0s0,0,0,0h0s0,0,0,0h0s0,0,0,0h0s0,0,0,0h0s0,0,0,0h0s0,0,0,0h0s0,0,0,0h0s0,0,0,0h0s0,0,0,0h0s0,0,0,0h0s0,0,0,0h0s0,0,0,0h0s0,0,0,0h0s0,0,0,0h0s0,0,0,0h0s0,0,0,0h0s0,0,0,0h0s0,0,0,0h0s0,0,0,0h0s0,0,0,0h0s0,0,0,0h0s0,0,0,0h0s0,0,0,0h0s0,0,0,0h0s0,0,0,0h0s0,0,0,0h0s0,0,0,0h0s0,0,0,0h0s0,0,0,0h0s0,0,0,0c0,0,0,0,0,0h0s0,0,0,0h0s0,0,0,0h0s0,0,0,0h0s0,0,0,0h0s0,0,0,0h0s0,0,0,0h0s0,0,0,0h0s0,0,0,0h0s0,0,0,0h0s0,0,0,0h0s0,0,0,0h0s0,0,0,0h0s0,0,0,0h0s0,0,0,0h0s0,0,0,0c0,0,0,0,0,0h0s0,0,0,0h0s0,0,0,0h0s0,0,0,0h0s0,0,0,0h0s0,0,0,0h0s0,0,0,0h0s0,0,0,0h0s0,0,0,0c0,0,0,0,0,0h0s0,0,0,0h0s0,0,0,0h0s0,0,0,0h0s0,0,0,0h0s0,0,0,0h0s0,0,0,0h0s0,0,0,0h0s0,0,0,0,0,0,0,0c0,0,0,0,0,0h0s0,0,0,0h0s0,0,0,0h0s0,0,0,0h0s0,0,0,0h0s0,0,0,0h0s0,0,0,0h0s0,0,0,0h0s0,0,0,0h0s0,0,0,0h0s0,0,0,0h0s0,0,0,0h0s0,0,0,0h0s0,0,0,0h0s0,0,0,0h0s-1.6,1.6-1.6,1.6c-.17.17-.45.17-.62,0s-.17-.45,0-.62l.85-.85h-5.18c-.8,0-1.24,0-1.49.13-.22.11-.39.29-.51.51-.12.25-.12.69-.12,1.49v1h15.12v-1c0-.8,0-1.24-.13-1.49-.11-.22-.29-.4-.51-.51-.25-.13-.69-.13-1.49-.13h-1.44c-.24,0-.44-.2-.44-.44s.2-.44.44-.44h1.44c.97,0,1.45,0,1.89.22.39.2.69.51.89.89.22.44.22.92.22,1.89v6.08c0,.96,0,1.45-.22,1.89-.2.39-.5.7-.89.89-.44.22-.92.22-1.89.22h-5.18l.85.85c.17.17.17.45,0,.62-.09.09-.2.13-.31.13Z"/></svg>