<?xml version="1.0" encoding="UTF-8"?><svg id="Layer_1" xmlns="http://www.w3.org/2000/svg" xmlns:xlink="http://www.w3.org/1999/xlink" viewBox="0 0 48 48"><defs><style>.cls-1{fill:url(#linear-gradient);}.cls-1,.cls-2{stroke-width:0px;}.cls-2{fill:#ebf7f5;}</style><linearGradient id="linear-gradient" x1="15.56" y1="24" x2="32.44" y2="24" gradientUnits="userSpaceOnUse"><stop offset="0" stop-color="#11e9b7"/><stop offset="1" stop-color="#11d1ce"/></linearGradient></defs><circle class="cls-2" cx="24" cy="24" r="21.97"/><path class="cls-1" d="m28.16,31.64h-8.32c-1.41,0-2.12,0-2.73-.31-.54-.27-.97-.7-1.24-1.24-.31-.61-.31-1.32-.31-2.73v-8c0-.97,0-1.45.22-1.89.2-.39.51-.69.89-.89.44-.22.92-.22,1.89-.22h3.06c.6,0,.94,0,1.26.11.28.1.55.26.76.47.24.24.39.54.66,1.08l.77,1.54h3.09c1.41,0,2.12,0,2.73.31.54.27.97.7,1.24,1.24.31.61.31,1.32.31,2.73v3.52c0,1.41,0,2.12-.31,2.73-.27.54-.7.97-1.24,1.24-.61.31-1.32.31-2.73.31Zm-11.72-11.2v6.92c0,1.27,0,1.91.21,2.33.19.37.48.67.86.86.42.21,1.06.21,2.33.21h8.32c1.27,0,1.91,0,2.33-.21.37-.19.67-.49.86-.86.21-.42.21-1.06.21-2.33v-3.52c0-1.27,0-1.91-.21-2.33-.19-.37-.49-.67-.86-.86-.42-.21-1.06-.21-2.33-.21h-11.72Zm0-.88h7.65l-.57-1.15c-.23-.47-.35-.7-.49-.84-.12-.12-.27-.21-.43-.27-.18-.06-.45-.06-.97-.06h-3.06c-.8,0-1.24,0-1.49.13-.22.11-.4.29-.51.51-.13.25-.13.69-.13,1.49v.2Z"/></svg>