<?xml version="1.0" encoding="UTF-8"?><svg id="Layer_1" xmlns="http://www.w3.org/2000/svg" xmlns:xlink="http://www.w3.org/1999/xlink" viewBox="0 0 48 48"><defs><style>.cls-1{fill:url(#linear-gradient);}.cls-1,.cls-2{stroke-width:0px;}.cls-2{fill:#f3fffc;}</style><linearGradient id="linear-gradient" x1="16.56" y1="24" x2="33.44" y2="24" gradientUnits="userSpaceOnUse"><stop offset="0" stop-color="#11e9b7"/><stop offset="1" stop-color="#11d1ce"/></linearGradient></defs><circle class="cls-2" cx="24" cy="25" r="21.97"/><circle class="cls-2" cx="24" cy="24" r="21.97"/><path class="cls-1" d="m21.2,31.69c-.21,0-.31,0-.4,0-.97-.1-1.74-.87-1.83-1.83,0-.09-.01-.19-.01-.4v-2.96c-.52,0-.84-.03-1.14-.15-.5-.21-.9-.61-1.1-1.1-.16-.37-.16-.78-.16-1.58v-.96c0-1.41,0-2.12.31-2.73.27-.54.7-.97,1.24-1.24.61-.31,1.32-.31,2.73-.31h2.76c1.07,0,2.55-.49,4.26-1.43.89-.48,1.28-.71,1.69-.66.36.04.65.22.86.51.23.32.23.76.23,1.72v7.8c0,.96,0,1.39-.23,1.72-.21.29-.5.47-.86.51-.4.05-.8-.17-1.68-.65-1.72-.94-3.19-1.43-4.27-1.43h-.16v2.96c0,.21,0,.31-.01.4-.1.96-.87,1.73-1.83,1.83-.09,0-.19,0-.4,0Zm-.36-12.4c-1.27,0-1.91,0-2.33.21-.37.19-.67.49-.86.86-.21.42-.21,1.06-.21,2.33v.96c0,.66,0,1.03.09,1.24.12.28.35.51.63.63.21.09.58.09,1.24.09h.44v3.84c0,.16,0,.25,0,.31.05.55.49.99,1.04,1.04.07,0,.15,0,.31,0,.16,0,.25,0,.32,0,.54-.05.98-.49,1.04-1.04,0-.07,0-.15,0-.31v-3.84h1.04c1.24,0,2.81.52,4.69,1.54.53.29,1,.58,1.16.55.11-.01.18-.05.25-.15.07-.11.07-.64.07-1.21v-7.8c0-.56,0-1.1-.07-1.21-.07-.09-.13-.13-.25-.15-.18,0-.63.27-1.16.55-1.87,1.02-3.45,1.54-4.69,1.54h-2.76Zm12.16,5.2c-.24,0-.44-.2-.44-.44v-3.2c0-.24.2-.44.44-.44s.44.2.44.44v3.2c0,.24-.2.44-.44.44Z"/></svg>