<?xml version="1.0" encoding="UTF-8"?><svg id="Layer_1" xmlns="http://www.w3.org/2000/svg" xmlns:xlink="http://www.w3.org/1999/xlink" viewBox="0 0 48 48"><defs><style>.cls-1{fill:url(#linear-gradient);}.cls-1,.cls-2,.cls-3,.cls-4,.cls-5{stroke-width:0px;}.cls-2{fill:url(#linear-gradient-4);}.cls-3{fill:url(#linear-gradient-2);}.cls-4{fill:url(#linear-gradient-3);}.cls-5{fill:#f3fffc;}</style><linearGradient id="linear-gradient" x1="29.66" y1="27.56" x2="32.94" y2="27.56" gradientUnits="userSpaceOnUse"><stop offset="0" stop-color="#11e9b7"/><stop offset="1" stop-color="#11d1ce"/></linearGradient><linearGradient id="linear-gradient-2" x1="26.86" y1="18.71" x2="29.74" y2="18.71" xlink:href="#linear-gradient"/><linearGradient id="linear-gradient-3" x1="16.06" y1="27.51" x2="28.94" y2="27.51" xlink:href="#linear-gradient"/><linearGradient id="linear-gradient-4" x1="18.86" y1="18.71" x2="26.14" y2="18.71" xlink:href="#linear-gradient"/></defs><circle class="cls-5" cx="24" cy="24.94" r="21.97"/><circle class="cls-5" cx="24" cy="23.94" r="21.97"/><path class="cls-1" d="m32.5,30.35c-.24,0-.44-.2-.44-.44v-1.6c0-1.26-.85-2.36-2.07-2.67-.24-.06-.38-.3-.32-.54.06-.24.3-.38.54-.32,1.61.41,2.73,1.86,2.73,3.53v1.6c0,.24-.2.44-.44.44Z"/><path class="cls-3" d="m27.3,22.12c-.17,0-.34-.1-.41-.27-.09-.23.02-.48.24-.57,1.05-.42,1.72-1.43,1.72-2.56s-.68-2.14-1.72-2.56c-.23-.09-.33-.35-.24-.57.09-.23.35-.34.57-.24,1.38.56,2.28,1.88,2.28,3.38s-.89,2.82-2.28,3.38c-.05.02-.11.03-.17.03Z"/><path class="cls-4" d="m28.5,30.35c-.24,0-.44-.2-.44-.44,0-1.43,0-2.15-.21-2.66-.28-.68-.81-1.21-1.5-1.49-.51-.21-1.22-.21-2.66-.21h-2.4c-1.43,0-2.15,0-2.66.21-.68.28-1.21.81-1.49,1.49-.21.51-.21,1.23-.21,2.66,0,.24-.2.44-.44.44s-.44-.2-.44-.44c0-1.55,0-2.32.28-2.99.37-.9,1.07-1.6,1.97-1.97.67-.28,1.45-.28,2.99-.28h2.4c1.55,0,2.32,0,2.99.28.9.37,1.6,1.07,1.97,1.97.28.67.28,1.45.28,2.99,0,.24-.2.44-.44.44Z"/><path class="cls-2" d="m22.5,22.35c-2.01,0-3.64-1.63-3.64-3.64s1.63-3.64,3.64-3.64,3.64,1.63,3.64,3.64-1.63,3.64-3.64,3.64Zm0-6.4c-1.52,0-2.76,1.24-2.76,2.76s1.24,2.76,2.76,2.76,2.76-1.24,2.76-2.76-1.24-2.76-2.76-2.76Z"/></svg>