<?xml version="1.0" encoding="UTF-8"?><svg id="Layer_1" xmlns="http://www.w3.org/2000/svg" xmlns:xlink="http://www.w3.org/1999/xlink" viewBox="0 0 48 48"><defs><style>.cls-1{fill:url(#linear-gradient);}.cls-1,.cls-2{stroke-width:0px;}.cls-2{fill:#f3fffc;}</style><linearGradient id="linear-gradient" x1="16.36" y1="25.11" x2="31.64" y2="25.11" gradientUnits="userSpaceOnUse"><stop offset="0" stop-color="#11e9b7"/><stop offset="1" stop-color="#11d1ce"/></linearGradient></defs><circle class="cls-2" cx="24" cy="25" r="21.97"/><circle class="cls-2" cx="24" cy="24" r="21.97"/><path class="cls-1" d="m26.55,33.72l-2.55-2.54-2.55,2.54-1.94-1.94h-1.13c-1.12,0-2.04-.92-2.04-2.04v-11.2c0-1.12.92-2.04,2.04-2.04h11.2c1.12,0,2.04.92,2.04,2.04v11.2c0,1.12-.92,2.04-2.04,2.04h-1.11l-1.94,1.94Zm-1.64-2.89l1.64,1.64,1.64-1.64-1.58-1.58c-.32.74-.94,1.32-1.7,1.58Zm-5.09,0l1.64,1.64,1.64-1.64c-.77-.26-1.39-.83-1.71-1.57l-1.57,1.57Zm9.55.07h.23c.64,0,1.16-.52,1.16-1.16v-11.2c0-.64-.52-1.16-1.16-1.16h-11.2c-.64,0-1.16.52-1.16,1.16v11.2c0,.64.52,1.16,1.16,1.16h.25l-.07-.07,2.58-2.58s0-.07,0-.11c0-1.57,1.27-2.84,2.84-2.84s2.84,1.27,2.84,2.84c0,.03,0,.06,0,.09l2.6,2.6-.07.07Zm-5.37-4.72c-1.08,0-1.96.88-1.96,1.96s.88,1.96,1.96,1.96h0c1.08,0,1.96-.88,1.96-1.96s-.88-1.96-1.96-1.96Zm4-2.8h-8c-.24,0-.44-.2-.44-.44s.2-.44.44-.44h8c.24,0,.44.2.44.44s-.2.44-.44.44Zm-1.6-2.8h-4.8c-.24,0-.44-.2-.44-.44s.2-.44.44-.44h4.8c.24,0,.44.2.44.44s-.2.44-.44.44Z"/></svg>