<?xml version="1.0" encoding="UTF-8"?><svg id="Layer_1" xmlns="http://www.w3.org/2000/svg" xmlns:xlink="http://www.w3.org/1999/xlink" viewBox="0 0 48 48"><defs><style>.cls-1{fill:url(#linear-gradient);}.cls-1,.cls-2,.cls-3,.cls-4,.cls-5{stroke-width:0px;}.cls-2{fill:url(#linear-gradient-4);}.cls-3{fill:url(#linear-gradient-2);}.cls-4{fill:url(#linear-gradient-3);}.cls-5{fill:#ebf7f5;}</style><linearGradient id="linear-gradient" x1="21.96" y1="27.2" x2="32.44" y2="27.2" gradientUnits="userSpaceOnUse"><stop offset="0" stop-color="#11e9b7"/><stop offset="1" stop-color="#11d1ce"/></linearGradient><linearGradient id="linear-gradient-2" y1="20.8" x2="26.04" y2="20.8" xlink:href="#linear-gradient"/><linearGradient id="linear-gradient-3" x1="16.36" y1="25.6" x2="20.44" y2="25.6" xlink:href="#linear-gradient"/><linearGradient id="linear-gradient-4" x1="15.56" y1="17.6" x2="19.64" y2="17.6" xlink:href="#linear-gradient"/></defs><circle class="cls-5" cx="24" cy="24" r="21.97"/><path class="cls-1" d="m31.36,32.44h-8.32c-.27,0-.44,0-.62-.09-.16-.08-.28-.21-.37-.36-.09-.18-.09-.36-.09-.62v-1.92c0-.27,0-.44.09-.62.08-.16.21-.29.37-.37.18-.09.35-.09.62-.09h1.92c.09,0,.18,0,.23,0-.03-.01-.03-.1-.03-.2v-1.92c0-.27,0-.44.09-.62.08-.16.21-.29.37-.37.18-.09.36-.09.62-.09h1.92c.09,0,.18,0,.23,0-.03-.01-.03-.1-.03-.2v-1.92c0-.27,0-.44.09-.62.08-.16.21-.28.37-.37.18-.09.36-.09.62-.09h1.92c.27,0,.44,0,.62.09.16.08.29.21.37.37.09.18.09.35.09.62v8.32c0,.27,0,.44-.09.62-.08.16-.21.29-.37.37-.17.09-.35.09-.62.09Zm-8.55-3.2s.03.11.03.2v1.92c0,.09,0,.19,0,.23,0-.03.11-.03.2-.03h8.32c.09,0,.19,0,.23,0-.03,0-.03-.11-.03-.2v-8.32c0-.09,0-.19,0-.23-.01.03-.1.03-.2.03h-1.92c-.09,0-.19,0-.23,0,.03,0,.03.1.03.2v1.92c0,.26,0,.44-.09.62-.09.17-.21.29-.37.37-.18.09-.36.09-.62.09h-1.92c-.09,0-.19,0-.23,0,.03,0,.03.1.03.2v1.92c0,.26,0,.44-.09.62-.08.16-.21.29-.37.37-.19.09-.36.09-.62.09h-1.92c-.09,0-.18,0-.23,0Z"/><path class="cls-3" d="m24.96,22.84h-1.92c-.27,0-.44,0-.62-.09-.16-.08-.29-.21-.37-.36-.09-.18-.09-.36-.09-.62v-1.92c0-.27,0-.44.09-.62.09-.16.21-.29.37-.37.18-.09.36-.09.62-.09h1.92c.27,0,.44,0,.62.09.16.08.29.21.37.37.09.18.09.35.09.62v1.92c0,.27,0,.44-.09.62-.08.16-.21.29-.37.37-.18.09-.36.09-.62.09Zm-2.15-3.2s.03.1.03.2v1.92c0,.09,0,.19,0,.23.01-.03.1-.03.2-.03h1.92c.09,0,.18,0,.23,0-.03-.01-.03-.1-.03-.2v-1.92c0-.09,0-.18,0-.23-.01.03-.1.03-.2.03h-1.92c-.09,0-.18,0-.23,0Z"/><path class="cls-4" d="m19.36,27.64h-1.92c-.27,0-.44,0-.62-.09-.16-.08-.29-.21-.37-.37-.09-.18-.09-.35-.09-.62v-1.92c0-.27,0-.44.09-.62.08-.16.21-.28.37-.37.18-.09.36-.09.62-.09h1.92c.27,0,.44,0,.62.09.16.08.29.21.37.37.09.18.09.35.09.62v1.92c0,.27,0,.44-.09.62-.08.15-.21.29-.37.37-.18.09-.35.09-.62.09Zm-2.15-3.2s.03.1.03.2v1.92c0,.09,0,.19,0,.23,0-.03.1-.03.2-.03h1.92c.09,0,.18,0,.23,0-.03,0-.03-.1-.03-.2v-1.92c0-.09,0-.19,0-.23-.01.03-.1.03-.2.03h-1.92c-.09,0-.19,0-.23,0Z"/><path class="cls-2" d="m18.56,19.64h-1.92c-.27,0-.44,0-.62-.09-.15-.08-.29-.21-.37-.37-.09-.18-.09-.35-.09-.62v-1.92c0-.27,0-.44.09-.62.08-.16.21-.28.37-.37.18-.09.36-.09.62-.09h1.92c.27,0,.44,0,.62.09.16.08.29.21.37.37.09.18.09.35.09.62v1.92c0,.27,0,.44-.09.62-.08.16-.21.29-.37.37-.18.09-.35.09-.62.09Zm-2.15-3.2s.03.1.03.2v1.92c0,.09,0,.19,0,.23,0-.03.11-.03.2-.03h1.92c.09,0,.19,0,.23,0-.03,0-.03-.1-.03-.2v-1.92c0-.09,0-.19,0-.23-.01.03-.1.03-.2.03h-1.92c-.09,0-.19,0-.23,0Z"/></svg>