<?xml version="1.0" encoding="utf-8"?>
<!-- Generator: Adobe Illustrator 29.5.1, SVG Export Plug-In . SVG Version: 9.03 Build 0)  -->
<svg version="1.1" id="Layer_1" xmlns="http://www.w3.org/2000/svg" xmlns:xlink="http://www.w3.org/1999/xlink" x="0px" y="0px"
	 viewBox="0 0 300 134.9799957" style="enable-background:new 0 0 300 134.9799957;" xml:space="preserve">
<path style="fill:#6B6B6B;" d="M36.1599998,109.2099991c-0.0499992-0.3300018-0.0999985-0.6200027-0.1399994-0.9000015
	c-0.0600014-0.4300003-0.1199989-0.8499985-0.1399994-1.2900009c0-0.1500015,0.0200005-0.2399979,0.1899986-0.2300034
	c0.0400009,0,0.0699997,0,0.1100006-0.0199966c0.3400002-0.0800018,0.6599998-0.0800018,0.7200012-0.6200027
	c0.0600014-0.5999985,0.2999992-1.1800003,0.4199982-1.7900009c0.1300011-0.6800003,0.0699997-1.3700027,0.1500015-2.0500031
	c0.0200005-0.1399994,0.0299988-0.2799988,0.0600014-0.4100037c0.0800018-0.3899994,0.2799988-0.6299973,0.6699982-0.7600021
	c0.0400009,0.0299988,0,0.0500031,0,0.0699997c-0.0200005,0.0800018-0.1599998,0.1500015-0.0999985,0.2200012
	c0.0699997,0.0800018,0.1899986,0,0.2799988-0.0299988c0.25-0.0999985,0.4199982-0.2900009,0.6100006-0.4599991
	c0.5999985-0.5500031,1.2200012-0.6200027,1.9099998-0.1800003c0.8600006,0.5400009,1.3899994,1.3199997,1.6800003,2.2799988
	c0.4000015,1.3700027,0.4099998,2.75,0.0299988,4.1299973s-1.4700012,2.3099976-2.9000015,2.4800034
	c-0.7000008,0.0899963-1.4000015,0.0599976-2.0900002-0.0899963c-0.1699982-0.0400009-0.2000008,0.0199966-0.2400017,0.1600037
	c-0.3199997,1.2099991-0.4000015,2.4300003-0.2900009,3.6699982c0.0400009,0.4100037,0,0.8199997-0.1500015,1.2099991
	c-0.0900002,0.2600021-0.25,0.4599991-0.4700012,0.6100006c-0.2000008,0.1399994-0.2099991,0.1299973-0.2599983-0.0999985
	c-0.1399994-0.7600021-0.1800003-1.5199966-0.1599998-2.2900009c0.0200005-0.7600021,0.1100006-1.5199966,0.1800003-2.2699966
	c0.0200005-0.2600021,0-0.5199966,0-0.7900009c0-0.1399994-0.0600014-0.1600037-0.1899986-0.1500015
	c-0.7599983,0.0599976-1.4599991-0.1299973-2.079998-0.5899963c-0.3800011-0.2799988-0.6599998-0.6399994-0.8800011-1.0500031
	c-0.1199989-0.2300034-0.2000008-0.2399979-0.3899994-0.0500031c-0.4099998,0.3799973-0.6699982,0.8700027-1.0300007,1.2799988
	c-0.2199993,0.25-0.4200001,0.5-0.6800003,0.7200012c-0.8500004,0.7200012-1.6700001,0.0899963-1.8600006-0.5899963
	c-0.0900002-0.3300018-0.1299992-0.6600037-0.1599998-0.9899979c-0.1200008-1.4599991,0.2000008-2.8300018,0.8799992-4.1200027
	c0.3199997-0.5999985,0.6100006-1.2099991,0.9300003-1.8099976c0.2700005-0.5,0.6399994-0.9199982,1.1100006-1.2600021
	c0.1200008-0.0899963,0.25-0.1600037,0.3800011-0.2099991c0.4900017-0.1900024,0.9199982-0.0599976,1.1899986,0.4000015
	c0.3699989,0.6399994,0.5,1.3399963,0.5200005,2.0599976c0.0200005,0.8199997-0.1199989,1.6299973-0.1699982,2.4499969
	c-0.0299988,0.5100021-0.0099983,1.0199966,0.1599998,1.5199966c0.1500015,0.4400024,0.4199982,0.7799988,0.8199997,1.0199966
	c0.4500008,0.2699966,0.9000015,0.5400009,1.3899994,0.8300018L36.1599998,109.2099991z M42.2599983,105.1200027
	c0.0200005-0.5299988-0.0699997-1.0899963-0.2299995-1.6399994c-0.2200012-0.7600021-0.5800018-1.4400024-1.2400017-1.9100037
	c-0.6100006-0.4400024-1.1800003-0.3799973-1.6699982,0.1900024c-0.4900017,0.5599976-0.75,1.25-0.9700012,1.9499969
	c-0.3100014,0.9700012-0.4599991,1.9800034-0.6800003,2.9700012c-0.1100006,0.5-0.2099991,1-0.1199989,1.5199966
	c0.0900002,0.4899979,0.2900009,0.6699982,0.7799988,0.7399979c0.4500008,0.0599976,0.8899994,0.0400009,1.3300018,0
	c1.1899986-0.1200027,2.0299988-0.7099991,2.4599991-1.8499985c0.2299995-0.6200027,0.3300018-1.25,0.3199997-1.9599991
	L42.2599983,105.1200027z M29.5,107.1800003c0,0.8499985,0.2399998,1.5599976,0.7000008,2.1999969
	c0.0799999,0.1100006,0.1299992,0.1299973,0.2299995,0.0199966c0.0900002-0.0999985,0.1599998-0.2300034,0.2999992-0.2799988
	c0.3999996-0.1600037,0.6900005-0.4499969,0.9400005-0.8000031c0.4499989-0.6200027,0.7600002-1.3099976,0.9299984-2.0599976
	c0.2099991-0.9499969,0.5499992-1.8799973,0.6100006-2.8600006c0.0299988-0.4300003,0-0.8499985-0.1399994-1.25
	c-0.1500015-0.4499969-0.4900017-0.5699997-0.8899994-0.3199997c-0.2299995,0.1399994-0.4200001,0.3199997-0.5799999,0.5299988
	c-0.7000008,0.9700012-1.289999,2-1.7199993,3.1200027c-0.2199993,0.5800018-0.3600006,1.1699982-0.3700008,1.7200012
	L29.5,107.1800003z"/>
<path style="fill:#6B6B6B;" d="M60.3899994,109.5c-0.9799995,0.3700027-2.4099998-0.0199966-3.1100006-0.8399963
	c-0.1899986-0.2200012-0.3499985-0.4499969-0.4799995-0.6999969c-0.0999985-0.1999969-0.1899986-0.2099991-0.3499985-0.0500031
	c-0.1699982,0.1600037-0.3300018,0.3300018-0.4700012,0.5199966c-0.2900009,0.4100037-0.5999985,0.8099976-0.9500008,1.1800003
	c-0.0800018,0.0899963-0.1599998,0.1699982-0.25,0.25c-0.9000015,0.8300018-1.7999992,0.1800003-1.9599991-0.6299973
	c-0.0499992-0.2600021-0.0900002-0.5199966-0.1399994-0.8000031c-0.1300011,0.1200027-0.2400017,0.2300034-0.3600006,0.3399963
	c-0.4300003,0.3799973-0.9099998,0.6500015-1.4799995,0.6999969c-0.8699989,0.0599976-1.4900017-0.2900009-1.8699989-1.0800018
	c-0.2799988-0.5899963-0.3499985-1.2300034-0.4900017-1.8600006c-0.1100006-0.5-0.1599998-1.0100021-0.3300018-1.5
	c-0.0600014-0.1600037-0.1300011-0.3099976-0.2200012-0.4499969c-0.2700005-0.4000015-0.6100006-0.4499969-0.9799995-0.1299973
	c-0.2299995,0.1999969-0.4099998,0.4499969-0.5800018,0.7099991c-0.5999985,0.9400024-0.9700012,1.9599991-1.1899986,3.0400009
	c-0.0699997,0.3399963-0.1399994,0.6900024-0.2400017,1.0199966c-0.1599998,0.5699997-0.4599991,1.0199966-1.0600014,1.2200012
	c-0.2599983,0.0899963-0.2900009,0.0599976-0.2700005-0.2099991c0.0600014-0.8700027,0.1300011-1.7300034,0.1800003-2.5999985
	c0.0600014-0.9199982-0.0900002-1.8399963-0.1300011-2.7600021c-0.0299988-0.5-0.0400009-1.0100021,0.1500015-1.5199966
	c0.2400017,0.2399979,0.3800011,0.5299988,0.4900017,0.8300018c0.1899986,0.5299988,0.2299995,1.0999985,0.3300018,1.6500015
	c0.0499992,0.2799988,0.0900002,0.5699997,0.1399994,0.8700027c0.0999985-0.0299988,0.0999985-0.0999985,0.1300011-0.1600037
	c0.3499985-0.6699982,0.6500015-1.3799973,1.0499992-2.0199966c0.2900009-0.4599991,0.6500015-0.8700027,1.0800018-1.1999969
	c0.2999992-0.2300034,0.5800018-0.2300034,0.9000015,0c0.3400002,0.2399979,0.5400009,0.5899963,0.7099991,0.9599991
	c0.4000015,0.8399963,0.6100006,1.7300034,0.7299995,2.6500015c0.0499992,0.3799973,0.1100006,0.7699966,0.3100014,1.1100006
	c0.3199997,0.5299988,0.9300003,0.8099976,1.5800018,0.7099991c0.4500008-0.0699997,0.8800011-0.2099991,1.3100014-0.3499985
	c0.0800018-0.0199966,0.1300011-0.0500031,0.1199989-0.1399994c-0.1699982-1.6699982,0.3800011-3.1699982,1.1599998-4.5999985
	c0.3199997-0.5800018,0.5600014-1.2099991,0.9700012-1.7399979c0.2700005-0.3499985,0.5800018-0.6600037,0.9700012-0.8799973
	c0.6100006-0.3499985,1.1500015-0.1999969,1.4599991,0.4300003c0.4099998,0.8399963,0.5,1.7399979,0.4300003,2.6699982
	c-0.0699997,0.8499985-0.2200012,1.6999969-0.1399994,2.5599976c0.0699997,0.7799988,0.4000015,1.4000015,1.1199989,1.7900009
	c0.5800018,0.3199997,1.1399994,0.6699982,1.7299995,1.0100021L60.3899994,109.5z M56.9500008,103.1800003
	c-0.0200005-0.3499985-0.0299988-0.7300034-0.1699982-1.0800018c-0.1500015-0.4100037-0.4700012-0.5299988-0.8499985-0.3099976
	c-0.1899986,0.1100006-0.3400002,0.25-0.4900017,0.4100037c-0.3899994,0.4199982-0.6500015,0.9199982-0.9300003,1.4000015
	c-0.5499992,0.9400024-1.0400009,1.9100037-1.2200012,3.0100021c-0.1599998,1.0100021,0.0499992,1.9300003,0.6399994,2.7600021
	c0.0800018,0.1100006,0.1300011,0.1399994,0.2299995,0.0199966c0.1399994-0.1699982,0.3199997-0.3000031,0.5200005-0.3899994
	c0.1300011-0.0599976,0.2400017-0.1600037,0.3499985-0.2600021c0.3499985-0.3300018,0.5900002-0.7399979,0.8199997-1.1600037
	c0.3400002-0.6100006,0.4599991-1.2900009,0.6399994-1.9499969c0.2099991-0.8000031,0.4300003-1.5999985,0.4700012-2.4499969
	L56.9500008,103.1800003z"/>
<path style="fill:#8F8F8F;" d="M63.2000008,96.7399979c0-0.5699997,0.4300003-0.9899979,0.9999962-0.9899979
	c0.5500031,0,1,0.4499969,1,1.0100021c0,0.5500031-0.4599991,1-1.0100021,1c-0.5499992,0-0.9900017-0.4499969-0.9900017-1.0100021
	L63.2000008,96.7399979z"/>
<path style="fill:#8F8F8F;" d="M53.9799995,96.6200027c-0.5600014,0-1.0099983-0.4700012-0.9900017-1.0199966
	c0.0200005-0.5400009,0.4799995-0.9899979,1.0099983-0.9800034c0.5600014,0,1.0299988,0.4800034,1.0099983,1.0299988
	c-0.0200005,0.5599976-0.4599991,0.9800034-1.0299988,0.9800034L53.9799995,96.6200027z"/>
<path style="fill:#8F8F8F;" d="M75.3899994,109.5699997c0,0.5400009-0.4499969,1-0.9899979,0.9899979
	c-0.5599976,0-1.0199966-0.4700012-1.0100021-1.0199966c0-0.5400009,0.4700012-1,1.0199966-0.9899979
	C74.9699936,108.5500031,75.3899994,109,75.3899994,109.5699997z"/>
<path style="fill:#8F8F8F;" d="M72.0699997,94.8600006c-0.5599976,0-1-0.4400024-1-1c0-0.5500031,0.4599991-1.0100021,1.0100021-1
	c0.5500031,0,0.9899979,0.4499969,0.9899979,1.0100021C73.0699997,94.4300003,72.6399994,94.8600006,72.0699997,94.8600006z"/>
<path style="fill:#8F8F8F;" d="M63.6699982,94.1699982c0,0.5500031-0.4599991,1.0100021-1.0099983,1
	c-0.5499992,0-1-0.4599991-1-1.0100021s0.4599991-1,1.0099983-1C63.2299995,93.159996,63.6699982,93.6199951,63.6699982,94.1699982z
	"/>
<path style="fill:#8F8F8F;" d="M75.2799988,100.7399979c-0.5599976,0-1-0.4400024-1.0100021-1c0-0.5500031,0.4499969-1,1-1
	s1.0100021,0.4499969,1,1c0,0.5599976-0.4499969,1-1,1H75.2799988z"/>
<path style="fill:#8F8F8F;" d="M65.1600037,102.3099976c0,0.5500031-0.4499969,1.0100021-1,1.0100021
	c-0.5400009,0-1-0.4400024-1-0.9800034c0-0.5800018,0.4300003-1.0299988,0.9899979-1.0400009
	c0.5400009-0.0100021,1,0.4499969,1.0100021,1V102.3099976z"/>
<path style="fill:#8F8F8F;" d="M73.2399979,99.0299988c-0.5599976,0-1-0.4499969-1-1.0100021c0-0.5599976,0.4499969-1,1.0100021-1
	c0.5500031,0,1.0100021,0.4599991,1,1.0100021c0,0.5500031-0.4599991,1-1.0100021,0.9899979V99.0299988z"/>
<path style="fill:#8F8F8F;" d="M77.8899994,108.6100006c0.5500031,0,1,0.4499969,1,1.0100021
	c0,0.5400009-0.4700012,1.0100021-1.0100021,1c-0.5500031,0-1-0.4599991-1-1.0100021
	C76.8799973,109.0699997,77.3399963,108.6100006,77.8899994,108.6100006z"/>
<path style="fill:#8F8F8F;" d="M76.1500015,107.0299988c0-0.5599976,0.4499969-1,1-1s1.0100021,0.4599991,1,1.0100021
	c0,0.5500031-0.4599991,1-1.0100021,1c-0.5599976,0-1-0.4499969-1-1.0100021H76.1500015z"/>
<path style="fill:#8F8F8F;" d="M75.6999969,106.8700027c0,0.5500031-0.4599991,1-1.0100021,0.9899979
	c-0.5599976,0-1-0.4599991-1-1.0100021s0.4599991-1,1.0100021-1s1,0.4599991,0.9899979,1.0100021L75.6999969,106.8700027z"/>
<path style="fill:#8F8F8F;" d="M61.7900009,97.1699982c0,0.5599976-0.4500008,0.9899979-1.0099983,0.9800034
	c-0.5499992,0-0.9900017-0.4499969-0.9900017-0.9899979c0-0.5699997,0.4500008-1.0199966,1.0200005-1.0100021
	C61.3600006,96.1500015,61.8000031,96.5999985,61.7900009,97.1699982z"/>
<path style="fill:#8F8F8F;" d="M75.1399994,101.9000015c-0.0100021,0.5500031-0.4899979,1-1.0299988,0.9800034
	c-0.5500031-0.0199966-1-0.5-0.9800034-1.0400009c0.0199966-0.5500031,0.5-1,1.0400009-0.9800034
	c0.5599976,0.0199966,0.9899979,0.4800034,0.9800034,1.0299988L75.1399994,101.9000015z"/>
<path style="fill:#8F8F8F;" d="M71.9899979,107.4700012c-0.5599976,0-1.0100021-0.4599991-1-1.0100021s0.4700012-1,1.0199966-1
	c0.5400009,0,1.0100021,0.4800034,1,1.0199966C73.0099945,107.0299988,72.5499954,107.4699936,71.9899979,107.4700012z"/>
<path style="fill:#8F8F8F;" d="M68.4700012,102.9599991c0,0.5599976-0.4499969,1-1,1c-0.5599976,0-1-0.4499969-1-1.0100021
	c0-0.5500031,0.4499969-1,1.0100021-1c0.5500031,0,1,0.4499969,1,1.0100021H68.4700012z"/>
<path style="fill:#8F8F8F;" d="M54.0999985,97.9700012c0,0.5699997-0.4300003,1-0.9900017,1.0100021
	c-0.5400009,0-1.0099983-0.4700012-1.0099983-1.0100021s0.4700012-1.0199966,1.0099983-1.0100021
	c0.5600014,0,1,0.4499969,1,1.0100021H54.0999985z"/>
<path style="fill:#8F8F8F;" d="M84.6699982,110.9000015c-0.5500031-0.0100021-0.9899979-0.4599991-0.9899979-1
	c0-0.5599976,0.4800034-1.0199966,1.0299988-1.0100021c0.5500031,0.0199966,1,0.4800034,0.9800034,1.0199966
	c-0.0199966,0.5599976-0.4700012,0.9899979-1.0299988,0.9800034L84.6699982,110.9000015z"/>
<path style="fill:#8F8F8F;" d="M82.25,109.6100006c0,0.5500031-0.4499969,1-1,1s-1-0.4499969-1-1.0100021
	c0-0.5599976,0.4400024-1,1-1s1,0.4400024,1,1V109.6100006z"/>
<path style="fill:#8F8F8F;" d="M65.6699982,95.0800018c-0.5500031,0-1.0100021-0.4800034-1-1.0100021
	c0.0199966-0.5699997,0.4499969-0.9899979,1.0100021-0.9899979c0.5699997,0,1,0.4499969,1,1.0299988
	c0,0.5299988-0.4800034,0.9800034-1.0100021,0.9800034V95.0800018z"/>
<path style="fill:#8F8F8F;" d="M77.0899963,102.9000015c-0.5599976,0-1-0.4300003-1-0.9899979s0.4400024-1,1-1.0100021
	c0.5500031,0,1,0.4499969,1,1.0100021c0,0.5599976-0.4300003,1-1,1V102.9000015z"/>
<path style="fill:#8F8F8F;" d="M73.0999985,105.0400009c-0.5599976,0-1.0100021-0.4300003-1.0100021-0.9899979
	c0-0.5500031,0.4400024-1.0100021,0.9899979-1.0100021c0.5500031,0,1.0299988,0.4700012,1.0199966,1.0100021
	C74.0999908,104.590004,73.6399918,105.0300064,73.0999985,105.0400009z"/>
<path style="fill:#8F8F8F;" d="M69.6100006,94.9400024c0,0.5599976-0.4599991,1-1.0100021,0.9899979
	s-0.9899979-0.4599991-0.9800034-1c0-0.5800018,0.4499969-1.0100021,1.0199966-1.0100021
	c0.5500031,0,0.9899979,0.4599991,0.9800034,1.0199966L69.6100006,94.9400024z"/>
<path style="fill:#8F8F8F;" d="M82.3000031,107.4700012c0-0.5500031,0.4599991-1,1.0100021-0.9899979
	c0.5500031,0,1,0.4599991,0.9899979,1.0199966c0,0.5599976-0.4499969,1-1.0100021,0.9899979
	C82.7399979,108.4899979,82.3000031,108.0299988,82.3000031,107.4700012z"/>
<path style="fill:#8F8F8F;" d="M67.3300018,107.2900009c0-0.5599976,0.4400024-1,1-1c0.5500031,0,1.0100021,0.4599991,1,1.0100021
	c0,0.5500031-0.4700012,1-1.0100021,1C67.7600021,108.3000031,67.3300018,107.8500061,67.3300018,107.2900009z"/>
<path style="fill:#8F8F8F;" d="M60.2799988,94.6399994c-0.5600014,0-1.0200005-0.4400024-1.0200005-0.9899979
	c0-0.5500031,0.4500008-1.0100021,1-1.0199966c0.5499992,0,1,0.4400024,1.0099983,0.9899979
	c0,0.5699997-0.4199982,1-0.9900017,1.0100021L60.2799988,94.6399994z"/>
<path style="fill:#8F8F8F;" d="M56.6699982,92.2799988c0-0.5500031,0.4500008-1,1-1c0.5400009,0,1,0.4599991,1,1.0100021
	s-0.4500008,1-1.0099983,1c-0.5600014,0-1-0.4499969-1-1L56.6699982,92.2799988z"/>
<path style="fill:#8F8F8F;" d="M81.7799988,103.5c0.5299988,0,1,0.4400024,1.0199966,0.9800034
	c0.0199966,0.5500031-0.4400024,1.0299988-1,1.0400009c-0.5299988,0.0100021-1.0100021-0.4599991-1.0199966-1
	c0-0.5400009,0.4499969-1,1-1.0100021V103.5z"/>
<path style="fill:#8F8F8F;" d="M73.3799973,95.6600037c0-0.5599976,0.4400024-1,1-1.0100021
	c0.5699997,0,1.0100021,0.4499969,1,1.0199966c0,0.5400009-0.4499969,0.9800034-0.9899979,0.9800034c-0.5500031,0-1-0.4499969-1-1
	L73.3799973,95.6600037z"/>
<path style="fill:#8F8F8F;" d="M68.2900009,97.4300003c0,0.5500031-0.4599991,1-1.0100021,0.9899979
	c-0.5299988,0-0.9899979-0.4700012-0.9899979-1c0-0.5599976,0.4499969-1.0100021,1-1c0.5800018,0,1,0.4300003,1,1.0199966
	V97.4300003z"/>
<path style="fill:#8F8F8F;" d="M76.9400024,104.4499969c0,0.5599976-0.4400024,1.0100021-1,1.0100021s-1-0.4400024-1.0100021-1
	c0-0.5400009,0.4599991-1.0100021,1-1.0100021C76.4899979,103.4499969,76.9300003,103.8999939,76.9400024,104.4499969z"/>
<path style="fill:#8F8F8F;" d="M66,105.8499985c-0.5599976,0-1-0.4400024-1-1s0.4400024-1,1-1c0.5500031,0,1,0.4499969,1,1
	s-0.4499969,1-1.0100021,0.9899979L66,105.8499985z"/>
<path style="fill:#8F8F8F;" d="M80.2399979,105.8899994c0.5699997,0,1,0.4199982,1.0100021,0.9899979
	c0,0.5599976-0.4400024,1.0100021-0.9899979,1.0100021c-0.5400009,0-1.0100021-0.4499969-1.0100021-1s0.4499969-1,1-1H80.2399979z"
	/>
<path style="fill:#8F8F8F;" d="M80.1399994,101.1900024c0.5599976,0,1,0.4599991,1,1.0100021s-0.4599991,1.0100021-1.0100021,1
	c-0.5400009,0-1.0100021-0.4800034-1-1.0100021C79.1299973,101.6399994,79.5999985,101.1900024,80.1399994,101.1900024z"/>
<path style="fill:#8F8F8F;" d="M70.7699966,104.9899979c0,0.5500031-0.4599991,1.0199966-1,1.0100021
	c-0.5500031,0-1-0.4599991-1-1.0100021s0.4499969-1.0100021,1-1.0100021
	C70.3299942,103.9799957,70.7699966,104.4299927,70.7699966,104.9899979z"/>
<path style="fill:#8F8F8F;" d="M68.7900009,101.9400024c-0.5500031,0-1.0100021-0.4700012-1-1.0100021
	c0-0.5299988,0.4700012-0.9899979,1-1c0.5400009,0,1.0100021,0.4599991,1.0100021,1
	c0,0.5699997-0.4400024,1.0100021-1.0199966,1.0100021H68.7900009z"/>
<path style="fill:#8F8F8F;" d="M63.5499992,99.4800034c0,0.5599976-0.4500008,0.9899979-1.0099983,0.9899979
	c-0.5600014,0-1-0.4599991-0.9900017-1.0100021c0-0.5599976,0.4599991-0.9899979,1.0099983-0.9899979
	C63.1199989,98.4700012,63.5499992,98.9100037,63.5499992,99.4800034z"/>
<path style="fill:#8F8F8F;" d="M71.0100021,103.6100006c-0.5699997,0-1-0.4199982-1.0100021-0.9800034
	c0-0.5599976,0.4499969-1.0199966,1.0100021-1.0100021c0.5400009,0,1,0.4700012,0.9899979,1.0199966
	c0,0.5500031-0.4400024,0.9800034-0.9899979,0.9800034V103.6100006z"/>
<path style="fill:#8F8F8F;" d="M72.0199966,96.3600006c0,0.5500031-0.4499969,1-1,1c-0.5400009,0-1-0.4700012-1-1.0199966
	c0-0.5500031,0.4499969-0.9899979,1.0100021-0.9899979C71.5899963,95.3500061,72.0199966,95.7900085,72.0199966,96.3600006z"/>
<path style="fill:#8F8F8F;" d="M69.4700012,91.4800034c0.5699997,0,1.0100021,0.4300003,1.0100021,0.9899979s-0.4400024,1-1,1
	s-1-0.4300003-1.0100021-0.9899979C68.4700012,91.9300003,68.9100037,91.4800034,69.4700012,91.4800034z"/>
<path style="fill:#8F8F8F;" d="M76.5,96.7099991c0.5699997,0,1,0.4400024,1,1s-0.4499969,0.9899979-1.0100021,0.9899979
	c-0.5599976,0-1-0.4400024-1-1S75.9300003,96.7099991,76.5,96.7099991z"/>
<path style="fill:#8F8F8F;" d="M72.1600037,108.9599991c0,0.5500031-0.4599991,1.0100021-1,1
	c-0.5500031-0.0100021-1.0100021-0.4800034-1-1.0100021c0.0100021-0.5500031,0.4599991-0.9899979,1.0199966-0.9899979
	s0.9899979,0.4400024,0.9899979,1.0100021L72.1600037,108.9599991z"/>
<path style="fill:#8F8F8F;" d="M78.4800034,98.8199997c0.5599976,0,1,0.4400024,1,1c0,0.5500031-0.4499969,1.0100021-1,1.0100021
	c-0.5400009,0-1-0.4599991-1.0100021-1.0100021C77.4700012,99.2699966,77.9199982,98.8199997,78.4800034,98.8199997z"/>
<path style="fill:#8F8F8F;" d="M69.9800034,97.8199997c0.5599976,0,0.9899979,0.4400024,0.9899979,1
	c0,0.5500031-0.4599991,1-1.0100021,1c-0.5599976,0-1-0.4599991-0.9899979-1.0100021
	C68.9700012,98.25,69.4100037,97.8199997,69.9800034,97.8199997z"/>
<path style="fill:#8F8F8F;" d="M79.7099991,104.6100006c0,0.5500031-0.4599991,1-1.0100021,1.0100021
	c-0.5500031,0-1-0.4499969-1-1.0100021c0-0.5599976,0.4400024-1,1-1c0.5500031,0,1.0100021,0.4499969,1,1H79.7099991z"/>
<path style="fill:#8F8F8F;" d="M61.3499985,91.1699982c0,0.5500031-0.4500008,1.0100021-1,1c-0.5600014,0-1-0.4400024-1-1
	c0-0.5500031,0.4300003-1,0.9700012-1C60.9000015,90.1699982,61.3400002,90.5999985,61.3499985,91.1699982z"/>
<path style="fill:#8F8F8F;" d="M63.3699989,90.1699982c0.5600014,0,0.9900017,0.4499969,0.9900017,1.0100021
	c0,0.5400009-0.4500008,0.9800034-1,0.9800034c-0.5600014,0-1.0099983-0.4400024-1.0099983-0.9899979
	c0-0.5599976,0.4500008-1,1.0299988-0.9899979L63.3699989,90.1699982z"/>
<path style="fill:#8F8F8F;" d="M66.8000031,99.9199982c0,0.5599976-0.4400024,1-1,1c-0.5500031,0-1-0.4599991-0.9899979-1.0100021
	c0-0.5599976,0.4400024-0.9899979,1.0100021-0.9899979C66.3800049,98.9199982,66.8000107,99.3499985,66.8000031,99.9199982z"/>
<path style="fill:#8F8F8F;" d="M57.0099983,94.1299973c0,0.5599976-0.4300003,1-0.9900017,1.0100021
	c-0.5499992,0-0.9900017-0.4199982-1-0.9700012c0-0.5899963,0.4099998-1.0199966,0.9799995-1.0299988
	c0.5699997,0,1,0.4300003,1,0.9899979H57.0099983z"/>
<path style="fill:#8F8F8F;" d="M66.3700027,92.5500031c-0.5699997,0-0.9899979-0.4300003-0.9800034-1
	c0-0.5500031,0.4400024-0.9800034,0.9899979-0.9800034c0.5699997,0,1.0199966,0.4499969,1.0100021,1.0100021
	c0,0.5500031-0.4499969,0.9800034-1.0199966,0.9800034V92.5500031z"/>
<path style="fill:#8F8F8F;" d="M58.4599991,96.4599991c-0.5600014,0-1.0099983-0.4499969-1.0099983-0.9899979
	c0-0.5500031,0.4500008-0.9899979,1.0099983-0.9899979c0.5600014,0,1,0.4400024,1,1s-0.4399986,0.9899979-1.0099983,0.9899979
	L58.4599991,96.4599991z"/>
<path style="fill:#8F8F8F;" d="M73.0800018,100.25c0,0.5599976-0.4400024,0.9899979-1.0100021,0.9800034
	c-0.5500031,0-0.9899979-0.4499969-0.9899979-1.0100021c0-0.5599976,0.4499969-0.9800034,1.0400009-0.9800034
	c0.5500031,0,0.9599991,0.4400024,0.9599991,1V100.25z"/>
<path style="fill:#6B6B6B;" d="M137.7321777,104.9499969c-0.0299988,0.7099991,0.0500031,1.5800018-0.0399933,2.4499969
	c-0.1100006,0.9899979-0.6100006,1.7200012-1.5100098,2.1399994c-1.0699921,0.5-2.1999969,0.5400009-3.3499908,0.4599991
	c-0.6399994-0.0400009-1.2600098-0.1699982-1.8399963-0.4499969c-1.2100067-0.5999985-1.6900024-1.6200027-1.6000061-2.9300003
	c0.0800018-1.1999969,0.6900024-2.0199966,1.7799988-2.4800034c0.7100067-0.3000031,1.4600067-0.3899994,2.2200012-0.3899994
	c0.5299988,0,1.0700073-0.0199966,1.5899963-0.1800003c0.5100098-0.1600037,0.730011-0.4599991,0.6999969-0.9700012
	c-0.019989-0.4100037-0.2099915-0.6699982-0.6600037-0.8099976c-0.6999969-0.2200012-1.4100037-0.2200012-2.1299896-0.1600037
	c-0.3200073,0.0299988-0.6399994,0.0699997-0.9400024,0.2099991c-0.2900085,0.1299973-0.5,0.3199997-0.5200043,0.6600037
	c-0.0099945,0.1699982-0.0999908,0.2099991-0.2599945,0.2099991c-0.5,0-1.0100098-0.0199966-1.5100098,0
	c-0.269989,0.0100021-0.3000031-0.0999985-0.2799988-0.3199997c0.0899963-1.0100021,0.5500031-1.7900009,1.4400024-2.2699966
	c0.9600067-0.5199966,2-0.5800018,3.0599976-0.5500031c0.5899963,0.0100021,1.1699982,0.0800018,1.730011,0.2600021
	c1.4199982,0.4400024,2.0999908,1.3700027,2.1199951,2.8799973c0,0.6999969,0,1.3899994,0,2.25l0,0V104.9499969z
	 M135.6821747,105.5199966c-0.9499969,0.3199997-1.9100037,0.3000031-2.8600006,0.3399963
	c-0.3000031,0.0100021-0.5999908,0.0800018-0.8799896,0.1900024c-0.3500061,0.1399994-0.5100098,0.4100037-0.5200043,0.7799988
	c0,0.3899994,0.1000061,0.6999969,0.4700012,0.8799973c0.3500061,0.1600037,0.7100067,0.2099991,1.0800018,0.2399979
	c0.6800079,0.0500031,1.3500061,0.0400009,2.0100098-0.1500015c0.3699951-0.1100006,0.6699982-0.3300018,0.6900024-0.75
	c0.0299988-0.5,0-1,0-1.5299988l0,0L135.6821747,105.5199966z"/>
<path style="fill:#6B6B6B;" d="M153.8521881,104.7900009v2.0599976c0,1.5899963-0.7200012,2.5599976-2.25,2.9499969
	c-1.3399963,0.3399963-2.6999969,0.3600006-4.0299988-0.0699997c-1.3600006-0.4400024-2.0899963-1.4599991-2.0700073-2.8600006
	c0.0099945-1.4100037,0.7700043-2.4300003,2.1399994-2.8499985c0.6499939-0.1999969,1.3200073-0.2699966,2-0.2699966
	c0.4900055,0,0.9900055-0.0199966,1.4700012-0.1699982c0.5099945-0.1600037,0.7100067-0.4199982,0.7100067-0.9000015
	s-0.1999969-0.75-0.7200012-0.8899994c-0.9299927-0.25-1.8699951-0.2399979-2.8099976-0.0100021
	c-0.3999939,0.0999985-0.6999969,0.3199997-0.7299957,0.7799988c0,0.1200027-0.0599976,0.1500015-0.1699982,0.1500015
	c-0.5700073,0-1.1300049,0-1.6999969,0c-0.2100067,0-0.1900024-0.1100006-0.1799927-0.2600021
	c0.0899963-1.2099991,0.6900024-2.0800018,1.8000031-2.4899979c1.5800018-0.5800018,3.1900024-0.5699997,4.7700043,0
	c1.1699982,0.4199982,1.7599945,1.3600006,1.7700043,2.6200027c0,0.7399979,0,1.4800034,0,2.2099991l0,0H153.8521881z
	 M151.8221893,106.3600006c0-0.2099991,0-0.4300003,0-0.6500015c0-0.1200027-0.0099945-0.1999969-0.1699982-0.1500015
	c-0.7799988,0.2399979-1.5899963,0.2600021-2.3999939,0.2699966c-0.3899994,0-0.7599945,0.0599976-1.1300049,0.1900024
	c-0.3899994,0.1500015-0.5599976,0.4000015-0.5700073,0.8099976c0,0.5400009,0.1999969,0.8300018,0.7400055,0.9700012
	c0.8899994,0.2399979,1.8000031,0.2300034,2.6900024,0.0299988c0.6600037-0.1500015,0.8300018-0.4100037,0.8300018-1.1100006
	v-0.3700027l0,0L151.8221893,106.3600006z"/>
<path style="fill:#6B6B6B;" d="M163.5321808,102.75c-0.0899963,0-0.1799927,0-0.2700043,0
	c-0.4499969,0.0400009-0.8399963,0-1.1300049-0.4599991c-0.1999969-0.3199997-0.5899963-0.4499969-0.9600067-0.5500031
	c-0.6999969-0.1800003-1.3999939-0.1800003-2.1000061-0.0299988c-0.8999939,0.1999969-1.4499969,0.7699966-1.6399994,1.6800003
	c-0.1999969,0.9300003-0.1900024,1.8700027,0,2.8000031c0.1999969,0.9199982,0.7700043,1.4899979,1.6799927,1.6800003
	c0.7200012,0.1500015,1.4400024,0.1500015,2.1499939-0.0699997c0.4600067-0.1399994,0.8500061-0.3899994,1.1000061-0.8099976
	c0.0899963-0.1500015,0.1900024-0.1800003,0.3500061-0.1800003c0.5500031,0,1.0899963,0.0100021,1.6399994,0
	c0.2299957,0,0.3000031,0.0299988,0.2200012,0.2799988c-0.4700012,1.4499969-1.4100037,2.3899994-2.8800049,2.7399979
	c-1.1000061,0.2699966-2.1999969,0.2699966-3.3000031-0.0100021c-1.5200043-0.3799973-2.4700012-1.3799973-2.8699951-2.9000015
	c-0.3899994-1.4700012-0.3899994-2.9599991,0.0399933-4.4300003c0.4900055-1.6900024,1.6699982-2.6100006,3.3600006-2.8600006
	c1.1399994-0.1699982,2.2700043-0.1399994,3.3699951,0.2900009c1.1999969,0.4700012,1.9199982,1.3799973,2.2899933,2.5999985
	c0.0500031,0.1600037,0.0399933,0.2200012-0.1399994,0.2099991c-0.3000031-0.0100021-0.6100006,0-0.9100037,0L163.5321808,102.75z"
	/>
<path style="fill:#6B6B6B;" d="M139.202179,104.3700027c0-1.6699982,0-3.3399963,0-5.0100021
	c0-1.9599991,0.8800049-3.1200027,2.7400055-3.6399994c0.7200012-0.1999969,1.4700012-0.2699966,2.2200012-0.2799988
	c0.2100067,0,0.2599945,0.0699997,0.25,0.2600021c-0.0099945,0.5-0.0099945,1,0,1.5100021
	c0,0.2099991-0.0399933,0.2799988-0.2599945,0.2799988c-0.6000061,0-1.1900024,0.0599976-1.7599945,0.2399979
	c-0.7899933,0.25-1.1399994,0.7600021-1.1300049,1.5999985c0,0.1999969,0.0700073,0.2399979,0.25,0.2300034
	c0.8699951,0,1.7400055,0,2.6000061,0c0.2400055,0,0.3099976,0.0599976,0.3000031,0.3099976
	c-0.0200043,0.4800034-0.0200043,0.9599991,0,1.4400024c0.0099945,0.25-0.0800018,0.3000031-0.3099976,0.3000031
	c-0.8399963-0.0100021-1.6799927,0-2.5099945-0.0100021c-0.2599945,0-0.3399963,0.0500031-0.3300018,0.3300018
	c0.0099945,2.5899963,0,5.1900024,0.0099945,7.7799988c0,0.2799988-0.0700073,0.3399963-0.3300018,0.3300018
	c-0.480011-0.0199966-0.9700012-0.0199966-1.4499969,0c-0.2200012,0-0.2900085-0.0500031-0.2900085-0.2799988
	c0.0100098-1.7900009,0-3.5899963,0-5.3799973L139.202179,104.3700027z"/>
<g>
	<defs>
		<rect id="SVGID_1_" x="168.1321869" y="95.9400024" width="14.0899963" height="13.6199951"/>
	</defs>
	<clipPath id="SVGID_00000177486417435805601970000016498547588404900492_">
		<use xlink:href="#SVGID_1_"  style="overflow:visible;"/>
	</clipPath>
	<g style="clip-path:url(#SVGID_00000177486417435805601970000016498547588404900492_);">
		
			<linearGradient id="SVGID_00000106867625546658378940000008171408255816472225_" gradientUnits="userSpaceOnUse" x1="177.2121887" y1="320.8198242" x2="177.2121887" y2="334.7698364" gradientTransform="matrix(1 0 0 1 0 -224.0598145)">
			<stop  offset="0" style="stop-color:#787878"/>
			<stop  offset="1" style="stop-color:#3F3F3F"/>
		</linearGradient>
		<path style="fill:url(#SVGID_00000106867625546658378940000008171408255816472225_);" d="M182.2321777,99.9800034
			c-0.0700073,0.3199997-0.1399994,0.6399994-0.2299957,0.9599991c-0.3600006,1.3099976-0.9700012,2.5-1.6799927,3.6500015
			c-0.3999939,0.6500015-0.8399963,1.2900009-1.3200073,1.8899994c-0.0700073,0.0899963-0.1399994,0.1699982-0.2299957,0.2799988
			c-0.0399933-0.0999985-0.0200043-0.1699982,0-0.2300034c0.3099976-1.0999985,0.5599976-2.2099991,0.5800018-3.3499985
			c0.0299988-1.3199997-0.1499939-2.5999985-1.1199951-3.5899963c-1.0800018-1.0999985-2.4100037-1.5400009-3.9299927-1.1200027
			c-0.8500061,0.2399979-1.4400024,0.8399963-1.9199982,1.5599976c-0.0399933,0.0699997-0.0899963,0.1299973-0.1300049,0.1999969
			c0,0-0.0200043,0-0.0599976,0c0.1000061-0.2200012,0.1799927-0.4300003,0.2899933-0.6399994
			c0.5299988-1.0299988,1.3699951-1.7300034,2.4400024-2.1299973c1.6399994-0.6299973,3.3500061-0.8199997,5.0899963-0.5800018
			c0.6699982,0.0899963,1.2700043,0.3600006,1.7100067,0.9000015c0.2400055,0.2900009,0.3699951,0.6299973,0.4499969,1
			c0,0.0400009,0,0.0999985,0.0500031,0.1200027v1.1100006l0,0L182.2321777,99.9800034z"/>
		
			<linearGradient id="SVGID_00000036209513496067311210000013679253936351114889_" gradientUnits="userSpaceOnUse" x1="173.8297729" y1="324.2298584" x2="173.8297729" y2="333.6098328" gradientTransform="matrix(1 0 0 1 0 -224.0598145)">
			<stop  offset="0.33" style="stop-color:#A6A6A6"/>
			<stop  offset="0.91" style="stop-color:#8E8E8E"/>
		</linearGradient>
		<path style="fill:url(#SVGID_00000036209513496067311210000013679253936351114889_);" d="M174.7421875,109.5500031
			c-0.1600037-0.1100006-0.3500061-0.0699997-0.5200043-0.1299973c-0.8699951-0.2699966-1.5599976-0.8199997-2.1600037-1.4800034
			c-1.3999939-1.5299988-2.4100037-3.3099976-3.1999969-5.2200012c-0.0200043-0.0400009-0.0299988-0.0899963-0.0500031-0.1399994
			c0-0.0100021,0-0.0299988,0-0.0599976c0.4199982,0.3799973,0.8200073,0.7699966,1.25,1.1299973
			c0.9100037,0.7900009,1.9100037,1.4599991,3.0800018,1.8099976c1.2100067,0.3700027,2.3600006,0.2699966,3.4199982-0.4700012
			c0.8699951-0.6100006,1.5099945-1.3799973,1.6799927-2.4599991c0.1300049-0.8399963-0.0899963-1.6200027-0.4900055-2.3700027
			c0.1100006-0.0400009,0.1499939,0.0599976,0.1900024,0.1200027c0.6399994,0.8399963,0.9499969,1.8000031,0.8999939,2.8499985
			c-0.1100006,1.8899994-0.8099976,3.5800018-1.8800049,5.1200027c-0.4700012,0.6699982-1.0899963,1.1600037-1.9499969,1.2399979
			c0,0-0.0200043,0.0199966-0.0299988,0.0400009h-0.2400055L174.7421875,109.5500031z"/>
		
			<linearGradient id="SVGID_00000183930844104004733270000015507551950135786404_" gradientUnits="userSpaceOnUse" x1="168.1285095" y1="324.6473694" x2="177.462204" y2="324.6473694" gradientTransform="matrix(1 0 0 1 0 -224.0598145)">
			<stop  offset="0" style="stop-color:#929292"/>
			<stop  offset="1" style="stop-color:#C6C6C6"/>
		</linearGradient>
		<path style="fill:url(#SVGID_00000183930844104004733270000015507551950135786404_);" d="M175.4421844,105.0800018
			c-1.0299988,0.2600021-2.0200043,0.1800003-2.9799957-0.2799988c-0.7100067-0.3399963-1.3200073-0.8099976-1.8699951-1.3700027
			c-0.8200073-0.8499985-1.5200043-1.7799988-2.0599976-2.8300018c-0.2200012-0.4400024-0.3699951-0.9000015-0.3999939-1.4000015
			c-0.0500031-0.9499969,0.4100037-1.6299973,1.1900024-2.1200027c0.9600067-0.6100006,2.0599976-0.8399963,3.1699982-0.9899979
			c1.25-0.1699982,2.5-0.1699982,3.75-0.0899963c0.4100037,0.0299988,0.8200073,0.0599976,1.2200012,0.1800003
			c-0.2700043,0.0800018-0.5399933,0.1600037-0.8099976,0.25c-1.1799927,0.3700027-2.3300018,0.8399963-3.3300018,1.5999985
			c-0.8600006,0.6500015-1.5200043,1.4499969-1.75,2.5299988c-0.2700043,1.2900009,0.1699982,3.1900024,1.5700073,4
			c0.7100067,0.4100037,1.4799957,0.5500031,2.2799988,0.5299988l0,0L175.4421844,105.0800018z"/>
	</g>
</g>
<rect x="188.5800018" y="26.1800003" style="fill:none;" width="83.2799835" height="26.2200012"/>
<path style="fill:#6B6B6B;" d="M201.6900024,26.9599991l-12.3300018,12.3300018l12.3300018,12.3300018l12.3300018-12.3300018
	C214.0200043,39.2900009,201.6900024,26.960001,201.6900024,26.9599991z"/>
<path style="fill:#FFFFFF;" d="M201.6900024,52.4000015l-13.1100006-13.1100006l13.1100006-13.1100006l13.1100006,13.1100006
	L201.6900024,52.4000015z M190.1499939,39.2900009l11.5399933,11.5400009l11.5399933-11.5400009L201.6899872,27.75
	L190.1499939,39.2900009z"/>
<path style="fill:#8F8F8F;" d="M213.4299927,26.9599991l-12.3300018,12.3300018l12.3300018,12.3300018l12.3300018-12.3300018
	C225.7599945,39.2900009,213.4299927,26.960001,213.4299927,26.9599991z"/>
<path style="fill:#FFFFFF;" d="M213.4299927,52.4000015l-13.1100006-13.1100006l13.1100006-13.1100006l13.1100006,13.1100006
	L213.4299927,52.4000015z M201.8800049,39.2900009l11.5399933,11.5400009l11.5399933-11.5400009L213.4199982,27.75
	L201.8800049,39.2900009L201.8800049,39.2900009z"/>
<path style="fill:#6B6B6B;" d="M214.0200043,39.2900009l-6.1600037,6.1599998l6.1600037,6.1599998l6.1600037-6.1599998
	L214.0200043,39.2900009z"/>
<path style="fill:#FFFFFF;" d="M214.0200043,52.3899994l-6.9400024-6.9399986l6.9400024-6.9399986l6.9400024,6.9399986
	L214.0200043,52.3899994z M208.6499939,45.4399986l5.3699951,5.3699989l5.3699951-5.3699989l-5.3699951-5.3699989
	L208.6499939,45.4399986z"/>
<path style="fill:#6B6B6B;" d="M230.3899994,38.5499992c0,0.4000015,0.1999969,0.5099983,0.6900024,0.5099983h0.3899994
	c0.6000061,0,0.8500061-0.4000015,1.3099976-1.2599983H233l-0.25,1.5299988h-3.8699951v-0.2200012
	c0.5399933-0.0699997,0.6300049-0.1100006,0.6300049-0.5299988v-3.7200012c0-0.4199982-0.0899963-0.4599991-0.6300049-0.5299988
	v-0.2200012h2.1300049v0.2200012c-0.5399933,0.0699997-0.6300049,0.1100006-0.6300049,0.5299988v3.7000008l0,0
	L230.3899994,38.5499992z"/>
<path style="fill:#6B6B6B;" d="M236.6399994,38.5c0,0.2999992,0.0599976,0.4500008,0.2700043,0.4500008
	c0.1199951,0,0.2200012-0.0400009,0.3200073-0.0800018L237.2700043,39
	c-0.1900024,0.2599983-0.4600067,0.3899994-0.7700043,0.3899994c-0.3899994,0-0.6199951-0.25-0.6799927-0.6599998
	c-0.25,0.3100014-0.6600037,0.6599998-1.1799927,0.6599998c-0.6000061,0-0.9799957-0.3699989-0.9799957-0.9500008
	c0-0.6300011,0.4600067-0.8899994,1.0399933-1.1100006l1.0899963-0.4000015v-0.5699997
	c0-0.4700012-0.1699982-0.8100014-0.6199951-0.8100014c-0.3899994,0-0.5599976,0.2799988-0.5599976,0.6500015
	c0,0.1300011,0.0200043,0.2599983,0.0599976,0.4199982l-0.4900055,0.0699997
	c-0.1900024-0.0600014-0.3099976-0.2099991-0.3099976-0.4300003c0-0.5900002,0.6100006-0.9099998,1.3899994-0.9099998
	c0.8899994,0,1.3600006,0.3600006,1.3600006,1.1800003v1.9700012l0,0L236.6399994,38.5z M235.8000031,38.5699997v-1.4000015
	l-0.7799988,0.3199997c-0.3500061,0.1300011-0.5500031,0.3300018-0.5500031,0.7299995s0.1999969,0.6800003,0.6199951,0.6800003
	C235.3499908,38.8999977,235.5399933,38.7799988,235.8000031,38.5699997z"/>
<path style="fill:#6B6B6B;" d="M242.3899994,36.0900002c0.0299988-0.0699997,0.0399933-0.1300011,0.0399933-0.1899986
	c0-0.1899986-0.1699982-0.2200012-0.4900055-0.2599983V35.420002h1.2299957v0.2200012
	c-0.2700043,0.0699997-0.3200073,0.1199989-0.3800049,0.2799988l-1.3800049,3.4799995h-0.25l-0.8899994-2.4700012
	l-0.9700012,2.4700012h-0.2400055l-1.4199982-3.4799995c-0.0700073-0.1599998-0.1100006-0.2099991-0.3800049-0.2799988V35.420002
	h1.7700043v0.2200012c-0.3099976,0.0400009-0.4700012,0.0699997-0.4700012,0.25c0,0.0600014,0,0.1199989,0.0399933,0.1899986
	l0.8399963,2.2299995l0.6799927-1.7900009l-0.2200012-0.5999985c-0.0500031-0.1599998-0.1100006-0.2200012-0.3600006-0.2799988
	V35.420002h1.7100067v0.2200012c-0.3300018,0.0400009-0.5,0.0699997-0.5,0.2599983
	c0,0.0499992,0.0099945,0.1100006,0.0399933,0.1899986l0.7700043,2.2000008l0.8399963-2.2000008l0,0H242.3899994z"/>
<path style="fill:#6B6B6B;" d="M249.6199951,34.4599991v1.1399994h-0.2299957
	c-0.1699982-0.8600006-0.6399994-1.2999992-1.3800049-1.2999992c-1.0800018,0-1.6000061,1.0499992-1.6000061,2.3199997
	c0,1.3899994,0.5899963,2.4900017,1.6699982,2.4900017c0.7400055,0,1.2200012-0.4300003,1.4600067-1.5h0.2599945
	l-0.1000061,1.3600006c-0.4400024,0.2700005-0.9799957,0.4199982-1.6600037,0.4199982
	c-1.5800018,0-2.5700073-1.0400009-2.5700073-2.5699997c0-1.7099991,1.0899963-2.8100014,2.5399933-2.8100014
	c0.6499939,0,1.1999969,0.1599998,1.6199951,0.4399986l0,0L249.6199951,34.4599991z"/>
<path style="fill:#6B6B6B;" d="M250.5299988,37.4599991c0-1.2700005,0.8000031-2.1199989,1.8500061-2.1199989
	s1.8099976,0.7799988,1.8099976,1.9300003c0,1.2799988-0.8000031,2.1199989-1.8500061,2.1199989
	s-1.8099976-0.7700005-1.8099976-1.9399986l0,0V37.4599991z M253.3099976,37.5c0-1.0400009-0.3000031-1.9099998-0.9700012-1.9099998
	c-0.6100006,0-0.9199982,0.6599998-0.9199982,1.6500015s0.3000031,1.9099998,0.9600067,1.9099998
	C252.9900055,39.1500015,253.3099976,38.4900017,253.3099976,37.5z"/>
<path style="fill:#6B6B6B;" d="M258.3299866,38.5699997c0,0.25,0.0100098,0.3199997,0.3299866,0.3499985h0.1900024v0.2099991
	l-1.230011,0.2700005h-0.1499939l0.0299988-0.7099991c-0.3399963,0.3600006-0.7399902,0.7099991-1.2900085,0.7099991
	c-0.6499939,0-1.0399933-0.3600006-1.0399933-1.1800003v-2c0-0.2599983-0.0599976-0.3499985-0.3800049-0.4000015h-0.1199951
	v-0.2200012l1.2400055-0.2400017h0.1199951l-0.0399933,0.8499985v1.8800011c0,0.5099983,0.1899872,0.7999992,0.6299896,0.7999992
	c0.3500061,0,0.6099854-0.1599998,0.8800049-0.3600006v-2.3100014c0-0.2599983-0.0499878-0.3499985-0.3800049-0.4000015h-0.1099854
	V35.599987l1.230011-0.2400017h0.1199951l-0.0299988,0.8199997v2.4000015l0,0V38.5699997z"/>
<path style="fill:#6B6B6B;" d="M262.2399902,36.5800018c0-0.5-0.2000122-0.7200012-0.6300049-0.7200012
	c-0.3500061,0-0.6799927,0.1800003-0.9400024,0.3899994v2.5099983c0,0.2799988,0.1199951,0.3300018,0.480011,0.3499985v0.2200012
	h-1.8099976v-0.2200012c0.3699951-0.0200005,0.4899902-0.0699997,0.4899902-0.3499985v-2.6599998l-0.4700012-0.2599983v-0.0999985
	l1.2099915-0.3899994h0.1300049l-0.0299988,0.7099991c0.3399963-0.3800011,0.769989-0.7099991,1.3599854-0.7099991
	c0.6900024,0,1.0400085,0.3899994,1.0400085,1.2000008v2.2099991c0,0.2799988,0.1199951,0.3300018,0.4899902,0.3499985v0.2200012
	h-1.8200073v-0.2200012c0.3699951-0.0200005,0.4899902-0.0699997,0.4899902-0.3499985V36.590004l0,0L262.2399902,36.5800018z"/>
<path style="fill:#6B6B6B;" d="M266.0400085,38.7799988c0.480011,0,0.8200073-0.2200012,1.0599976-0.5900002l0.1099854,0.0499992
	c-0.230011,0.75-0.7399902,1.1500015-1.4599915,1.1500015c-0.980011,0-1.6799927-0.75-1.6799927-1.8899994
	c0-1.2400017,0.7200012-2.1599998,1.8599854-2.1599998c0.7099915,0,1.1700134,0.2999992,1.1700134,0.8199997
	c0,0.2200012-0.1099854,0.3899994-0.2600098,0.4799995h-0.4899902c0.0100098-0.0999985,0.0299988-0.2000008,0.0299988-0.3400002
	c0-0.3699989-0.1300049-0.7099991-0.5799866-0.7099991c-0.6199951,0-0.9899902,0.6699982-0.9899902,1.5299988
	c0,0.9799995,0.4599915,1.6500015,1.2200012,1.6500015L266.0400085,38.7799988z"/>
<path style="fill:#6B6B6B;" d="M269.0400085,38.7599983c0,0.2799988,0.1199951,0.3300018,0.4899902,0.3499985v0.2200012h-1.8200073
	v-0.2200012c0.3699951-0.0200005,0.4899902-0.0699997,0.4899902-0.3499985v-2.6599998l-0.4700012-0.2599983v-0.0999985
	l1.1799927-0.3899994h0.1199951v3.4099998l0,0L269.0400085,38.7599983z M268.0700073,34.2999992
	c0-0.2900009,0.2200012-0.5299988,0.5299988-0.5299988s0.5400085,0.2400017,0.5400085,0.5299988
	s-0.230011,0.5200005-0.5400085,0.5200005S268.0700073,34.579998,268.0700073,34.2999992z"/>
<path style="fill:#6B6B6B;" d="M271.3699951,38.7599983c0,0.2799988,0.1199951,0.3300018,0.4899902,0.3499985v0.2200012h-1.8200073
	v-0.2200012c0.3699951-0.0200005,0.4899902-0.0699997,0.4899902-0.3499985v-4.5400009l-0.4700012-0.25v-0.1100006
	l1.1799927-0.3600006h0.1300049v5.2599983l0,0L271.3699951,38.7599983z"/>
<path style="fill:#6B6B6B;" d="M228.7700043,43.6399994c0-0.7200012,0.4600067-1.1899986,1.0700073-1.1899986
	c0.6699982,0,1.0299988,0.5200005,1.0299988,1.0999985c0,0.7200012-0.4600067,1.1899986-1.0700073,1.1899986
	C229.1300049,44.7399979,228.7700043,44.2199974,228.7700043,43.6399994z M230.3699951,43.6100006
	c0-0.5299988-0.1699982-1.0299988-0.5700073-1.0299988c-0.3699951,0-0.5399933,0.4799995-0.5399933,0.9900017
	s0.1699982,1.0299988,0.5700073,1.0299988C230.1999969,44.6000023,230.3699951,44.1200027,230.3699951,43.6100006z"/>
<path style="fill:#6B6B6B;" d="M232.6799927,44.3499985c0,0.1800003,0.0899963,0.2200012,0.3800049,0.2400017v0.1100006h-1.1000061
	v-0.1100006c0.2200012-0.0299988,0.25-0.0400009,0.25-0.2200012v-1.5600014c0-0.1699982-0.0299988-0.1899986-0.25-0.2200012
	v-0.1100006h1.6900024l0.0200043,0.5900002h-0.0899963c-0.1499939-0.3499985-0.25-0.4599991-0.5-0.4599991h-0.3999939v0.9099998
	h0.3500061c0.1399994,0,0.1799927-0.0900002,0.2100067-0.2900009h0.1100006v0.7299995h-0.1100006
	c-0.0299988-0.2000008-0.0700073-0.2900009-0.2100067-0.2900009h-0.3500061v0.7000008l0,0L232.6799927,44.3499985z"/>
<path style="fill:#6B6B6B;" d="M237.5899963,43.9700012h-0.8500061l-0.1399994,0.3499985
	c0,0-0.0299988,0.0900002-0.0299988,0.1199989c0,0.0999985,0.0800018,0.1399994,0.2700043,0.1399994v0.1100006h-0.6499939V44.579998
	c0.0899963-0.0099983,0.1499939-0.0299988,0.1900024-0.1199989l0.6900024-1.7700005l-0.1000061-0.2400017h0.4900055
	l0.8099976,2.0099983c0.0299988,0.0900002,0.1000061,0.0999985,0.1900024,0.1199989v0.1100006h-0.9700012v-0.1100006
	c0.1900024,0,0.2700043-0.0400009,0.2700043-0.1399994c0-0.0299988,0-0.0800018-0.0299988-0.1199989l-0.1499939-0.3600006l0,0
	L237.5899963,43.9700012z M236.7899933,43.8400002h0.75l-0.3800049-0.9500008L236.7899933,43.8400002z"/>
<path style="fill:#6B6B6B;" d="M240.0200043,43.9000015c0,0.3899994,0.1699982,0.6199989,0.5200043,0.6199989
	s0.5899963-0.1800003,0.5899963-0.6399994v-1.0699997c0-0.1699982-0.0399933-0.2000008-0.3000031-0.2200012v-0.1100006h0.7200012
	v0.1100006c-0.2200012,0.0299988-0.25,0.0499992-0.25,0.2200012v1.1199989c0,0.5400009-0.3699951,0.7999992-0.8399963,0.7999992
	c-0.5599976,0-0.8999939-0.2599983-0.8999939-0.7999992v-1.1199989c0-0.1699982-0.0299988-0.1899986-0.25-0.2200012v-0.1100006
	h0.9700012v0.1100006c-0.2200012,0.0299988-0.25,0.0400009-0.25,0.2200012v1.0900002l0,0H240.0200043z"/>
<path style="fill:#6B6B6B;" d="M242.6100006,44.5299988l-0.0299988-0.5400009h0.1300049
	c0.0800018,0.3800011,0.2799988,0.6199989,0.6000061,0.6199989c0.2599945,0,0.4199982-0.1399994,0.4199982-0.3600006
	c0-0.2299995-0.1399994-0.3300018-0.5200043-0.4700012c-0.3699951-0.1300011-0.6100006-0.2999992-0.6100006-0.6699982
	s0.2899933-0.6599998,0.7400055-0.6599998c0.2700043,0,0.5,0.0699997,0.6600037,0.1899986v0.4700012h-0.1199951
	c-0.0599976-0.3400002-0.2400055-0.5299988-0.5399933-0.5299988c-0.2200012,0-0.3600006,0.1399994-0.3600006,0.3400002
	c0,0.2200012,0.1199951,0.3100014,0.4600067,0.4399986c0.4199982,0.1500015,0.6799927,0.3199997,0.6799927,0.7200012
	c0,0.4399986-0.3600006,0.6699982-0.8000031,0.6699982c-0.3000031,0-0.5599976-0.0900002-0.6999969-0.2099991l0,0
	L242.6100006,44.5299988z"/>
<path style="fill:#6B6B6B;" d="M247.1499939,42.4799995l0.0500031,0.7299995h-0.1000061
	c-0.1999969-0.4700012-0.2799988-0.6199989-0.5200043-0.6199989h-0.1699982v1.7900009
	c0,0.1699982,0.0700073,0.1800003,0.2899933,0.2099991v0.1100006h-1.0299988v-0.1100006
	c0.2100067-0.0299988,0.2799988-0.0299988,0.2799988-0.2099991v-1.7900009h-0.1699982
	c-0.2400055,0-0.3200073,0.1500015-0.5299988,0.6199989h-0.1000061l0.0500031-0.7299995h1.9499969l0,0H247.1499939z"/>
<path style="fill:#6B6B6B;" d="M248.9600067,44.3800011c0,0.1699982,0.0299988,0.1899986,0.25,0.2200012v0.1100006h-0.9700012
	v-0.1100006c0.2200012-0.0299988,0.25-0.0400009,0.25-0.2200012v-1.5600014c0-0.1699982-0.0299988-0.1899986-0.25-0.2200012
	v-0.1100006H249.25c0.5299988,0,0.8300018,0.25,0.8300018,0.6199989c0,0.3499985-0.2799988,0.5299988-0.5200043,0.5900002
	l0.4799957,0.6500015c0.1399994,0.1899986,0.2200012,0.2599983,0.3899994,0.2599983v0.1100006h-0.6000061
	c-0.0899963-0.0699997-0.1699982-0.1699982-0.2700043-0.3100014l-0.4400024-0.6399994h-0.1600037v0.6199989l0,0
	L248.9600067,44.3800011z M248.9600067,42.6100006v1.0099983h0.1499939c0.3300018,0,0.5-0.1899986,0.5-0.5200005
	c0-0.2900009-0.1699982-0.4900017-0.5-0.4900017C249.1100006,42.6099968,248.9600067,42.6099968,248.9600067,42.6100006z"/>
<path style="fill:#6B6B6B;" d="M252.7599945,43.9700012h-0.8500061l-0.1399994,0.3499985
	c0,0-0.0299988,0.0900002-0.0299988,0.1199989c0,0.0999985,0.0800018,0.1399994,0.2700043,0.1399994v0.1100006h-0.6499939V44.579998
	c0.0899963-0.0099983,0.1499939-0.0299988,0.1900024-0.1199989l0.6900024-1.7700005l-0.1000061-0.2400017h0.4900055
	l0.8099976,2.0099983c0.0299988,0.0900002,0.1000061,0.0999985,0.1900024,0.1199989v0.1100006h-0.9700012v-0.1100006
	c0.1900024,0,0.2700043-0.0400009,0.2700043-0.1399994c0-0.0299988,0-0.0800018-0.0299988-0.1199989l-0.1499939-0.3600006l0,0
	L252.7599945,43.9700012z M251.9600067,43.8400002h0.75l-0.3800049-0.9500008L251.9600067,43.8400002z"/>
<path style="fill:#6B6B6B;" d="M255.3699951,44.3600006c0,0.1699982,0.0800018,0.2200012,0.2799988,0.2200012h0.1399994
	c0.2400055,0,0.3499908-0.1500015,0.5800018-0.5600014h0.1099854l-0.1099854,0.6899986h-1.7100067v-0.1100006
	c0.2200012-0.0299988,0.25-0.0400009,0.25-0.2200012v-1.5600014c0-0.1699982-0.0299988-0.1899986-0.25-0.2200012V42.489994
	h0.9700012v0.1100006c-0.2200012,0.0299988-0.25,0.0400009-0.25,0.2200012v1.5499992l0,0L255.3699951,44.3600006z"/>
<path style="fill:#6B6B6B;" d="M258.230011,44.3800011c0,0.1699982,0.0299988,0.1899986,0.25,0.2200012v0.1100006h-0.9700012
	v-0.1100006c0.2200012-0.0299988,0.25-0.0400009,0.25-0.2200012v-1.5600014c0-0.1699982-0.0299988-0.1899986-0.25-0.2200012
	v-0.1100006h0.9700012v0.1100006c-0.2200012,0.0299988-0.25,0.0400009-0.25,0.2200012V44.3800011z"/>
<path style="fill:#6B6B6B;" d="M260.8900146,43.9700012h-0.8500061l-0.1400146,0.3499985
	c0,0-0.0299988,0.0900002-0.0299988,0.1199989c0,0.0999985,0.0799866,0.1399994,0.269989,0.1399994v0.1100006h-0.6499939V44.579998
	c0.0899963-0.0099983,0.1499939-0.0299988,0.1900024-0.1199989l0.6900024-1.7700005l-0.1000061-0.2400017h0.4899902
	l0.8099976,2.0099983c0.0299988,0.0900002,0.1000061,0.0999985,0.1900024,0.1199989v0.1100006h-0.9700012v-0.1100006
	c0.1900024,0,0.269989-0.0400009,0.269989-0.1399994c0-0.0299988,0-0.0800018-0.0299988-0.1199989l-0.1499939-0.3600006l0,0
	L260.8900146,43.9700012z M260.0899963,43.8400002h0.75l-0.3800049-0.9500008L260.0899963,43.8400002z"/>
<g>
	<defs>
		
			<rect id="SVGID_00000076602781638801342850000014290920356416420007_" x="28.9040012" y="27.4969616" width="77.1420059" height="22.7375965"/>
	</defs>
	<clipPath id="SVGID_00000049218645021279569460000016148170310375588519_">
		<use xlink:href="#SVGID_00000076602781638801342850000014290920356416420007_"  style="overflow:visible;"/>
	</clipPath>
	<g style="clip-path:url(#SVGID_00000049218645021279569460000016148170310375588519_);">
		<path style="fill:#6B6B6B;" d="M31.8443451,30.3998032l-1.0015373-2.3608398h-0.0117836l-1.0186806,2.3608398H31.8443451z
			 M28.951128,31.6884136l1.8038425-4.0768452c0.0117836-0.0235653,0.0407047-0.0407028,0.0706978-0.0407028h0.0171394
			c0.0289211,0,0.0589123,0.0053558,0.0760517,0.0407028l1.7867031,4.0768452
			c0.0117798,0.0353489,0.0117798,0.0706978-0.0524902,0.0706978h-0.1521034c-0.0407028,0-0.0706978-0.0289211-0.0824814-0.0524864
			L31.943964,30.629034h-2.2376652l-0.4680977,1.0775909c-0.0117836,0.0235653-0.0407047,0.0524864-0.0824814,0.0524864h-0.163887
			C28.951128,31.7591114,28.9329185,31.7355461,28.951128,31.6884136z"/>
		<path style="fill:#6B6B6B;" d="M37.2033653,31.5063267c1.0251045,0,1.8156242-0.7787361,1.8156242-1.8038387
			c0-1.0251045-0.7905197-1.792057-1.8156242-1.792057h-0.9897537v3.5969677h0.9897537V31.5063267z M35.938324,27.7347603
			c0-0.0407047,0.035347-0.0760517,0.070694-0.0760517h1.2414818c1.1365051,0,2.0619888,0.9201279,2.0619888,2.0448494
			c0,1.1247234-0.9254837,2.055563-2.0619888,2.055563h-1.2414818c-0.035347,0-0.070694-0.035347-0.070694-0.0760517V27.7347603z"/>
		<path style="fill:#6B6B6B;" d="M42.2292786,27.7347603c-0.0235672-0.0471306-0.0053558-0.0760517,0.0471306-0.0760517h0.1585312
			c0.0353508,0,0.0589142,0.0235653,0.06427,0.0407028l1.5810394,3.6376724h0.0117836l1.599247-3.6376724
			c0.0053558-0.0171375,0.028923-0.0407028,0.06427-0.0407028h0.1521034c0.0524864,0,0.0760536,0.035347,0.0524864,0.0824795
			l-1.798481,4.0243607c-0.0117836,0.0289211-0.0353508,0.0524864-0.0696259,0.0524864h-0.028923
			c-0.035347,0-0.0589142-0.035347-0.06427-0.0524864L42.2292786,27.7347603z"/>
		<path style="fill:#6B6B6B;" d="M51.2966805,30.3998032l-1.0015373-2.3608398h-0.0117836l-1.0186768,2.3608398H51.2966805z
			 M48.4034653,31.6884136l1.8038406-4.0768452c0.0117836-0.0235653,0.0407028-0.0407028,0.0706978-0.0407028h0.0171394
			c0.0289192,0,0.0589142,0.0053558,0.0760536,0.0407028l1.7866974,4.0768452
			c0.0117836,0.0353489,0.0117836,0.0706978-0.0524864,0.0706978h-0.1521034c-0.0407028,0-0.0706978-0.0289211-0.0824814-0.0524864
			l-0.4745255-1.0775909H49.158638l-0.4680977,1.0775909c-0.0117836,0.0235653-0.0407066,0.0524864-0.0824814,0.0524864h-0.163887
			C48.4034653,31.7591114,48.3852577,31.7355461,48.4034653,31.6884136z"/>
		<path style="fill:#6B6B6B;" d="M55.3906708,27.6758404c0-0.0471306,0.0407028-0.0760517,0.0878334-0.0760517h0.099617
			l2.8118057,3.6612415h0.0053558v-3.5262756c0-0.0407047,0.035347-0.0760517,0.0760536-0.0760517h0.1167564
			c0.0407028,0,0.0760498,0.035347,0.0760498,0.0760517v4.0061569c0,0.0524883-0.0471268,0.0760536-0.0942574,0.0760536h-0.0760574
			c-0.005352,0-0.0524864-0.0171394-2.8353691-3.6965904h-0.0053558v3.5616226c0,0.0407047-0.035347,0.0760536-0.0760536,0.0760536
			h-0.1114006c-0.0407028,0-0.0760536-0.0353489-0.0760536-0.0760536v-4.0061569H55.3906708z"/>
		<path style="fill:#6B6B6B;" d="M64.3113174,27.5997887c0.5977097,0,1.042244,0.1992359,1.4235764,0.5452213
			c0.028923,0.028923,0.0353546,0.0760536,0.0053635,0.1049747l-0.0942688,0.0996189
			c-0.035347,0.035347-0.06427,0.0289211-0.099617-0.0064278c-0.3342056-0.2988548-0.7551727-0.4798813-1.2361221-0.4798813
			c-1.0251045,0-1.827404,0.8376541-1.827404,1.850975s0.8022995,1.8391895,1.827404,1.8391895
			c0.5034485,0,0.8847809-0.1992378,1.2361221-0.4916649c0.035347-0.0289211,0.070694-0.0289211,0.0942612-0.0117836
			l0.0996246,0.0996189c0.0289154,0.0235653,0.0289154,0.0706959,0,0.0996189
			c-0.3984756,0.3866901-0.9083481,0.5677166-1.4289398,0.5677166c-1.1718521,0-2.1208992-0.9254856-2.1208992-2.1026955
			C62.1904182,28.537056,63.1405373,27.5997887,64.3113174,27.5997887z"/>
		<path style="fill:#6B6B6B;" d="M69.2665253,27.7347603c0-0.0407047,0.035347-0.0760517,0.0760498-0.0760517h2.3490677
			c0.0407028,0,0.0760498,0.035347,0.0760498,0.0760517v0.0996189c0,0.0407028-0.035347,0.0760517-0.0760498,0.0760517h-2.1434021
			v1.6163864h1.8563232c0.0407104,0,0.0760574,0.035347,0.0760574,0.0760517v0.0996189
			c0,0.0407028-0.035347,0.0760517-0.0760574,0.0760517h-1.8563232v1.7342148h2.1434021
			c0.0407028,0,0.0760498,0.0353489,0.0760498,0.0760517v0.0931911c0,0.0407047-0.035347,0.0760536-0.0760498,0.0760536h-2.3490677
			c-0.0407028,0-0.0760498-0.0353489-0.0760498-0.0760536V27.7347603z"/>
		<path style="fill:#6B6B6B;" d="M76.611496,31.5063267c1.0251007,0,1.8156204-0.7787361,1.8156204-1.8038387
			c0-1.0251045-0.7905197-1.792057-1.8156204-1.792057h-0.9897537v3.5969677h0.9897537V31.5063267z M75.3464508,27.7347603
			c0-0.0407047,0.035347-0.0760517,0.0707016-0.0760517h1.241478c1.1364975,0,2.0619888,0.9201279,2.0619888,2.0448494
			c0,1.1247234-0.9254913,2.055563-2.0619888,2.055563h-1.241478c-0.0353546,0-0.0707016-0.035347-0.0707016-0.0760517V27.7347603z"
			/>
		<path style="fill:#6B6B6B;" d="M30.8899479,38.7591782c0.3277779,0,0.6030655-0.2635078,0.6030655-0.6094818
			c0-0.322422-0.2752876-0.5677185-0.6030655-0.5677185h-0.6791172v1.1772003H30.8899479z M29.4492321,36.9735565
			c0-0.0589142,0.0471306-0.1114006,0.1114006-0.1114006h1.3764477c0.720892,0,1.3121758,0.5859261,1.3121758,1.2950401
			c0,0.7090988-0.5912838,1.3175201-1.3057499,1.3175201h-0.7326756v1.3764458c0,0.0589142-0.0524864,0.1114006-0.1114006,0.1114006
			h-0.5387974c-0.06427,0-0.1114006-0.0524864-0.1114006-0.1114006V36.9735565z"/>
		<path style="fill:#6B6B6B;" d="M35.4863014,36.9735565c0-0.0589142,0.0524864-0.1114006,0.1114006-0.1114006h0.5452232
			c0.06427,0,0.1114006,0.0524864,0.1114006,0.1114006v1.5521088h1.909874v-1.5521088
			c0-0.0589142,0.0471306-0.1114006,0.1114006-0.1114006h0.5387955c0.0589142,0,0.1114006,0.0524864,0.1114006,0.1114006v3.8776054
			c0,0.0589142-0.0524864,0.1114006-0.1114006,0.1114006h-0.5387955c-0.06427,0-0.1114006-0.0524864-0.1114006-0.1114006v-1.6163864
			h-1.909874v1.6163864c0,0.0589142-0.0471306,0.1114006-0.1114006,0.1114006H35.597702
			c-0.0589142,0-0.1114006-0.0524864-0.1114006-0.1114006V36.9735565z"/>
		<path style="fill:#6B6B6B;" d="M44.5569191,39.5625496L43.970993,38.273941h-0.0171394l-0.5741463,1.2886086H44.5569191z
			 M42.0268288,40.8093834l1.8220482-3.9418793c0.0171394-0.0353508,0.0471344-0.0642738,0.0996208-0.0642738H44.00634
			c0.0589142,0,0.0824776,0.028923,0.099617,0.0642738l1.8038406,3.9418793
			c0.035347,0.0760536-0.0117836,0.1521072-0.099617,0.1521072h-0.5098763c-0.0878334,0-0.12854-0.035347-0.1703148-0.1167564
			l-0.2870712-0.6330605h-1.7513542l-0.2870712,0.6330605c-0.0235634,0.0589142-0.0760536,0.1167564-0.1692429,0.1167564h-0.5098763
			c-0.0878334,0-0.134964-0.0760536-0.099617-0.1521072"/>
		<path style="fill:#6B6B6B;" d="M50.7353897,38.7302551c0.3106384,0,0.5795021-0.2699318,0.5795021-0.5976982
			c0-0.3106384-0.2699356-0.5677185-0.5795021-0.5677185H49.780983v1.1654167H50.7353897z M49.0129585,36.9735565
			c0-0.0589142,0.0471306-0.1114006,0.1114006-0.1114006h1.6753006c0.7026825,0,1.2768288,0.5623627,1.2768288,1.2596893
			c0,0.538784-0.357769,0.9779625-0.8665733,1.1836243l0.8023033,1.4878464c0.0407028,0.0760536,0,0.1703186-0.099617,0.1703186
			h-0.6148491c-0.0524864,0-0.0824814-0.028923-0.0931931-0.0524902l-0.7787361-1.5521164h-0.6501961v1.4932022
			c0,0.0589142-0.0524864,0.1114044-0.1114006,0.1114044h-0.5387955c-0.06427,0-0.1114006-0.0524902-0.1114006-0.1114044v-3.8776016
			L49.0129585,36.9735565z"/>
		<path style="fill:#6B6B6B;" d="M55.9112549,36.8910675c0.0053558-0.0471306,0.0407028-0.0878372,0.1049728-0.0878372h0.094265
			c0.0471268,0,0.0824776,0.0235672,0.099617,0.0589142l1.2886086,2.7646751h0.0171394l1.2886124-2.7646751
			c0.0171356-0.035347,0.0471268-0.0589142,0.099617-0.0589142h0.0931892c0.06427,0,0.099617,0.0407066,0.1049767,0.0878372
			l0.6908989,3.9365273c0.0171394,0.0824814-0.0289192,0.1349678-0.1049728,0.1349678h-0.5334396
			c-0.0524864,0-0.099617-0.0471344-0.1114044-0.0878372l-0.3459816-2.2194519h-0.0171394l-1.0251045,2.3019333
			c-0.0117836,0.035347-0.0471306,0.06427-0.099617,0.06427h-0.1049767c-0.0524864,0-0.0814095-0.028923-0.099617-0.06427
			l-1.0368881-2.3019333h-0.0182076l-0.3395615,2.2194519c-0.0053558,0.0407028-0.0524864,0.0878372-0.1049728,0.0878372h-0.5270119
			c-0.0760536,0-0.1231842-0.0524864-0.1114006-0.1349678l0.6973267-3.9365273H55.9112549z"/>
		<path style="fill:#6B6B6B;" d="M65.1639709,39.5625496l-0.5859299-1.2886086h-0.0182114l-0.5741425,1.2886086h1.1772079
			H65.1639709z M62.6338806,40.8093834l1.8220444-3.9418793c0.0171432-0.0353508,0.0471344-0.0642738,0.099617-0.0642738h0.0589218
			c0.0589066,0,0.0824738,0.028923,0.099617,0.0642738l1.8038406,3.9418793
			c0.035347,0.0760536-0.0117874,0.1521072-0.0996246,0.1521072h-0.5098724c-0.0878296,0-0.12854-0.035347-0.170311-0.1167564
			l-0.2870712-0.6330605h-1.751358l-0.2870712,0.6330605c-0.0235634,0.0589142-0.0760498,0.1167564-0.1692429,0.1167564h-0.5098724
			C62.6456604,40.9614906,62.5985298,40.885437,62.6338806,40.8093834z"/>
		<path style="fill:#6B6B6B;" d="M71.4067078,36.8032303c0.5912857,0,1.0186768,0.1874542,1.4171524,0.5452232
			c0.0524902,0.0471344,0.0524902,0.1167564,0.006424,0.1638908l-0.3577652,0.3695488
			c-0.0407104,0.0471306-0.099617,0.0471306-0.1467514,0c-0.2463684-0.2163734-0.5741425-0.3459854-0.9019165-0.3459854
			c-0.7498169,0-1.3068237,0.6266327-1.3068237,1.3646622c0,0.7380333,0.5623627,1.3528824,1.3121796,1.3528824
			c0.3513412,0,0.6501923-0.1349678,0.8965607-0.3342056c0.0471344-0.0407028,0.1114044-0.035347,0.1467514,0l0.363121,0.3749084
			c0.0471344,0.0407028,0.035347,0.1167564-0.0053558,0.1585312c-0.3984756,0.386692-0.9019165,0.5677185-1.4235764,0.5677185
			c-1.1718521,0-2.1144791-0.9319115-2.1144791-2.1026955C69.2922287,37.7469292,70.2348557,36.8032303,71.4067078,36.8032303z"/>
		<path style="fill:#6B6B6B;" d="M76.9510498,38.9884071l-1.3357391-1.9559364
			c-0.0471268-0.0760498,0-0.1703148,0.0942612-0.1703148h0.5977173c0.0471268,0,0.0760498,0.028923,0.0942612,0.0524864
			l0.9372635,1.3475151l0.9372711-1.3475151c0.0171356-0.0235634,0.0471268-0.0524864,0.0942612-0.0524864h0.6030655
			c0.0942612,0,0.1403198,0.094265,0.0942612,0.1703148l-1.3528824,1.9505806v1.8681107
			c0,0.0589142-0.0524826,0.1114006-0.1113968,0.1114006h-0.5387955c-0.06427,0-0.1114044-0.0524864-0.1114044-0.1114006v-1.8627548
			H76.9510498z"/>
		<path style="fill:#6B6B6B;" d="M31.4458714,48.7659912l-0.5859261-1.2886124h-0.0171375l-0.5741444,1.2886124H31.4458714z
			 M28.9157848,50.012825l1.8220482-3.9418831c0.0171375-0.035347,0.0471306-0.06427,0.099617-0.06427h0.0589142
			c0.0589142,0,0.0824814,0.028923,0.0996189,0.06427l1.8038406,3.9418831
			c0.035347,0.0760536-0.0117836,0.1521034-0.0996208,0.1521034h-0.5098724c-0.0878334,0-0.12854-0.035347-0.1703148-0.1167564
			l-0.2870712-0.6330566h-1.7513542L29.694521,50.048172c-0.0235653,0.0589142-0.0760517,0.1167564-0.1692429,0.1167564h-0.5098743
			C28.9275684,50.1649284,28.8804359,50.0888786,28.9157848,50.012825z"/>
		<path style="fill:#6B6B6B;" d="M35.6566162,46.1769867c0-0.0589142,0.0524864-0.1114006,0.1114006-0.1114006h0.5559349
			c0.06427,0,0.1114006,0.0524864,0.1114006,0.1114006v2.3951225c0,0.4980888,0.3395615,0.8901367,0.8494339,0.8901367
			s0.8547897-0.3920479,0.8547897-0.8847809v-2.4015503c0-0.0589142,0.0471306-0.1114006,0.1114006-0.1114006h0.557003
			c0.0589142,0,0.1114044,0.0524864,0.1114044,0.1114006v2.4369011c0,0.8901367-0.7091141,1.6110268-1.6345978,1.6110268
			c-0.9254875,0-1.62817-0.72089-1.62817-1.6110268v-2.4369011V46.1769867z"/>
		<path style="fill:#6B6B6B;" d="M42.1264458,49.5918579l0.2110214-0.3631248
			c0.0471306-0.0824814,0.1467476-0.0824814,0.199234-0.0407028c0.028923,0.0171356,0.5034485,0.363121,0.8847809,0.363121
			c0.3042107,0,0.5334396-0.199234,0.5334396-0.4509583c0-0.2988548-0.2517204-0.5034485-0.7444572-0.7026825
			c-0.5505791-0.222805-1.1011581-0.5741463-1.1011581-1.2650452c0-0.521656,0.386692-1.1247215,1.3175316-1.1247215
			c0.5977097,0,1.0540276,0.3042107,1.170784,0.3920441c0.0589142,0.0353508,0.0760536,0.1349678,0.035347,0.1928101
			l-0.2228012,0.3342018c-0.0471306,0.0706978-0.1349678,0.1167564-0.2045898,0.0706978
			c-0.0471344-0.0289192-0.4916687-0.3224182-0.8140869-0.3224182s-0.5152283,0.2228012-0.5152283,0.4102554
			c0,0.2752876,0.2163734,0.4627419,0.6908989,0.6555519c0.5677185,0.228157,1.2243423,0.5677147,1.2243423,1.3239594
			c0,0.6030617-0.5216599,1.1600685-1.3475266,1.1600685c-0.7380295,0-1.1718521-0.3459854-1.2886086-0.457386
			C42.1028824,49.7150421,42.0728874,49.6850471,42.1264458,49.5918579z"/>
		<path style="fill:#6B6B6B;" d="M48.5330772,46.7682686h-0.8965645c-0.06427,0-0.1114006-0.0524864-0.1114006-0.1114006v-0.4798813
			c0-0.0589142,0.0471306-0.1114006,0.1114006-0.1114006h2.5600815c0.06427,0,0.1114044,0.0524864,0.1114044,0.1114006v0.4798813
			c0,0.0589142-0.0471344,0.1114006-0.1114044,0.1114006h-0.8965645v3.2863312c0,0.0589142-0.0524864,0.1114006-0.1114006,0.1114006
			h-0.5452232c-0.0589142,0-0.1114006-0.0524864-0.1114006-0.1114006v-3.2863312H48.5330772z"/>
		<path style="fill:#6B6B6B;" d="M55.0811043,47.9336967c0.3106346,0,0.5794983-0.2699356,0.5794983-0.5977097
			c0-0.3106384-0.2699318-0.5677185-0.5794983-0.5677185h-0.9544106v1.1654282H55.0811043z M53.3586693,46.1769867
			c0-0.0589142,0.0471344-0.1114006,0.1114006-0.1114006h1.6753006c0.7026825,0,1.2768288,0.5623627,1.2768288,1.2596893
			c0,0.5387955-0.357769,0.9779739-0.8665733,1.1836357l0.8023033,1.4878464c0.0407028,0.0760536,0,0.1703148-0.099617,0.1703148
			h-0.6148491c-0.0524864,0-0.0824814-0.028923-0.0931931-0.0524864l-0.7787323-1.5521164h-0.6501999v1.4932022
			c0,0.0589142-0.0524864,0.1114006-0.1114006,0.1114006h-0.5387955c-0.06427,0-0.1114006-0.0524864-0.1114006-0.1114006v-3.8776131
			L53.3586693,46.1769867z"/>
		<path style="fill:#6B6B6B;" d="M61.6976814,48.7659912l-0.5859261-1.2886124H61.093544l-0.5741425,1.2886124h1.1772118H61.6976814
			z M59.1675911,50.012825l1.822052-3.9418831c0.0171394-0.035347,0.0471306-0.06427,0.099617-0.06427h0.0589142
			c0.0589142,0,0.0824814,0.028923,0.0996208,0.06427l1.8038368,3.9418831
			c0.035347,0.0760536-0.0117836,0.1521034-0.0996208,0.1521034h-0.5098686c-0.0878372,0-0.1285439-0.035347-0.1703148-0.1167564
			l-0.287075-0.6330566h-1.7513504l-0.287075,0.6330566c-0.0235672,0.0589142-0.0760536,0.1167564-0.1692429,0.1167564h-0.5098763
			C59.1793747,50.1649284,59.1322441,50.0888786,59.1675911,50.012825z"/>
		<path style="fill:#6B6B6B;" d="M66.0251846,46.1769867c0-0.0589142,0.0471268-0.1114006,0.1113968-0.1114006h0.5387955
			c0.0589142,0,0.1114044,0.0524864,0.1114044,0.1114006v3.2863312h1.4932022c0.06427,0,0.1114044,0.0524864,0.1114044,0.1114006
			v0.4798813c0,0.0589142-0.0471344,0.1114006-0.1114044,0.1114006h-2.1434021c-0.06427,0-0.1113968-0.0524864-0.1113968-0.1114006
			V46.1769867z"/>
		<path style="fill:#6B6B6B;" d="M72.0793991,46.0655861h-0.5441513c-0.0614853,0-0.1113968,0.0499153-0.1113968,0.1114006
			v3.8776131c0,0.0614853,0.0499115,0.1114006,0.1113968,0.1114006h0.5441513c0.0614853,0,0.1114044-0.0499153,0.1114044-0.1114006
			v-3.8776131C72.1908035,46.1155014,72.1408844,46.0655861,72.0793991,46.0655861z"/>
		<path style="fill:#6B6B6B;" d="M77.6955109,48.7659912l-0.5859222-1.2886124h-0.0182114l-0.5741425,1.2886124h1.1772079
			H77.6955109z M75.1654282,50.012825l1.8220444-3.9418831c0.0171356-0.035347,0.0471344-0.06427,0.099617-0.06427h0.0589142
			c0.0589142,0,0.0824814,0.028923,0.099617,0.06427l1.8038483,3.9418831
			c0.035347,0.0760536-0.0117874,0.1521034-0.0996246,0.1521034h-0.5098724c-0.0878372,0-0.12854-0.035347-0.1692429-0.1167564
			l-0.2870712-0.6330566h-1.751358l-0.2870712,0.6330566c-0.0235596,0.0589142-0.0760498,0.1167564-0.170311,0.1167564h-0.5098724
			C75.1772079,50.1649284,75.1300735,50.0888786,75.1654282,50.012825z"/>
		<defs>
			
				<filter id="Adobe_OpacityMaskFilter" filterUnits="userSpaceOnUse" x="83.2848434" y="27.4969616" width="22.7622318" height="22.7622318">
				<feColorMatrix  type="matrix" values="1 0 0 0 0  0 1 0 0 0  0 0 1 0 0  0 0 0 1 0"/>
			</filter>
		</defs>
		
			<mask maskUnits="userSpaceOnUse" x="83.2848434" y="27.4969616" width="22.7622318" height="22.7622318" id="mask0_1_990_00000158743766543776681380000000584603178830724777_">
			<path style="fill:#FFFFFF;filter:url(#Adobe_OpacityMaskFilter);" d="M91.5810089,38.599575
				c-1.6881561,3.5476952-3.6473083,6.9786301-5.8485489,10.236042c-0.2817154,0.4166832-0.5677261,0.8312225-0.8580017,1.2436218
				c-0.0096436,0.0139236-0.0117874,0.0310631-0.0064316,0.0449867h19.5594482
				c0.0053558-0.0149956,0.0032196-0.0332069-0.0085678-0.0471306c-0.4209671-0.5184441-2.74646-3.3527451-4.0929108-4.6991959
				c-2.629715-2.6297073-5.5325699-4.9037895-8.6742935-6.7986755c-0.0085602-0.0053558-0.0171356-0.0074997-0.0257034-0.0074997
				c-0.0192795,0-0.0374908,0.0107117-0.0460587,0.028923 M83.4144592,34.6866112v13.4484634
				c0.0192795,0.0064278,0.0439148,0.0021439,0.0578384-0.0192795c0.1263962-0.1831703,0.2528-0.3674126,0.3770523-0.5527229
				c2.1691055-3.2102776,4.0961304-6.5962257,5.7532196-10.0957184c0.0117874-0.0246353,0.0021439-0.0535583-0.0224915-0.0664139
				c-1.2050629-0.6426964-2.441185-1.2339783-3.7083664-1.7695618c-0.801239-0.3384857-1.6088943-0.6534081-2.4240494-0.944767
				c-0.0053558-0.00214-0.0117798-0.003212-0.0171356-0.003212S83.4198151,34.6833992,83.4144592,34.6866112z
				 M94.5931244,31.3563633c-0.4948807,1.3839436-1.0283203,2.7528934-1.6003189,4.1047001
				c-0.1371078,0.323494-0.2774353,0.6469841-0.4188232,0.9683342c-0.0107193,0.0235634-0.0010757,0.0503426,0.0203476,0.0631981
				c2.1433945,1.276825,4.1818237,2.7196846,6.1056366,4.3232155c0.0417709,0.0353508,0.1017532-0.0117798,0.0760498-0.0610542
				c-0.9051361-1.7567101-1.7449265-3.5455551-2.5129471-5.3601036c-0.5623627-1.3293152-1.0883026-2.6768379-1.5767593-4.03829
				c-0.0074921-0.0224934-0.0278473-0.033205-0.0471268-0.033205s-0.0396347,0.0107117-0.0471344,0.033205 M95.8731613,27.7519016
				c0.2485123,0.7283916,1.6185303,4.7099018,2.4840317,6.7568989c1.9013138,4.4946022,4.2514496,8.8146057,7.0386124,12.9707222
				c0.0246429,0.0374908,0.0824814,0.0257072,0.0921249-0.0171394c0.2688599-1.2371941,0.4059677-2.5129509,0.4059677-3.8090591
				c0-4.7516823-1.8498993-9.2184372-5.2101364-12.5776043c-1.398941-1.398941-3.0174713-2.5343704-4.7420425-3.3848743
				c-0.0074997-0.0032139-0.0149994-0.0053558-0.0224991-0.0053558c-0.0321274,0-0.0599823,0.032135-0.0482025,0.067482
				 M83.4305267,27.6362152c-0.0053558,0-0.0107117,0-0.0160675,0.002142v4.6317081
				c1.1257935,0.3791924,2.2408752,0.8012314,3.3420334,1.267189c1.2843246,0.5430794,2.5375824,1.1397171,3.760849,1.7867012
				c0.0257111,0.0139236,0.0578461,0.00214,0.0696259-0.0246391c0.1049805-0.2410088,0.2088776-0.4830933,0.3117142-0.7262459
				c0.9554749-2.2590866,1.7974091-4.5513763,2.5258026-6.8736572c0.0096359-0.032135-0.0139236-0.06534-0.0482025-0.06534
				H83.429451L83.4305267,27.6362152z M100.3377762,27.6362152c-0.0482025,0-0.0685577,0.0610561-0.0310593,0.0899773
				c0.6951828,0.5334396,1.3582306,1.1140079,1.9859314,1.7417107c1.4107208,1.4096508,2.5879288,2.9992599,3.515564,4.7377586
				c0.0246277,0.0460587,0.0953293,0.0289192,0.0953293-0.0235672v-6.4955349c0-0.0278492-0.0224915-0.0503445-0.0503464-0.0503445
				H100.3377762z"/>
		</mask>
		<g style="mask:url(#mask0_1_990_00000158743766543776681380000000584603178830724777_);">
			<defs>
				
					<filter id="Adobe_OpacityMaskFilter_00000055692980719525521660000001061380775824311204_" filterUnits="userSpaceOnUse" x="83.2848434" y="27.4969616" width="22.7622318" height="22.7622318">
					<feColorMatrix  type="matrix" values="1 0 0 0 0  0 1 0 0 0  0 0 1 0 0  0 0 0 1 0"/>
				</filter>
			</defs>
			
				<mask maskUnits="userSpaceOnUse" x="83.2848434" y="27.4969616" width="22.7622318" height="22.7622318" id="mask1_1_990_00000039100384057473793990000016582309267943775381_">
				<path style="fill:#FFFFFF;filter:url(#Adobe_OpacityMaskFilter_00000055692980719525521660000001061380775824311204_);" d="
					M106.0460052,27.4969616H83.2848434v22.7375927h22.7611618V27.4969616z"/>
			</mask>
			<g style="mask:url(#mask1_1_990_00000039100384057473793990000016582309267943775381_);">
				<rect x="83.2848434" y="27.4969616" style="fill:#6B6B6B;" width="22.7622318" height="22.7622318"/>
			</g>
		</g>
	</g>
</g>
<path style="fill:#6B6B6B;" d="M239.2156677,110.4760742c1.2094879,0.4780579,2.5787354-0.1152573,3.0564423-1.3247452
	c0.4783936-1.2094879-0.115097-2.5787277-1.3247528-3.0567856c-1.2093201-0.47789-2.5783844,0.1152649-3.0564423,1.3249207
	C237.4125214,108.6287766,238.0061798,109.9980164,239.2156677,110.4760742z M239.7701721,107.5663376
	c0.1906586-0.0828705,0.4064484-0.0865784,0.5998383-0.0103073c0.1935577,0.0762634,0.3486328,0.2266464,0.4308167,0.4177628
	c0.1739197,0.3963165-0.0063782,0.8585815-0.4026947,1.0324936s-0.8585815-0.0063858-1.0325012-0.4027023
	c-0.0009766-0.0022507-0.0019531-0.0045013-0.0029144-0.006752c-0.0833435-0.190567-0.0870514-0.4065399-0.0103149-0.5998535
	C239.4284973,107.80336,239.578949,107.6482697,239.7701721,107.5663376z M230.9983368,109.2220993
	c0.5170441,1.193512,1.905014,1.7421722,3.0981903,1.2249451c1.193512-0.5172195,1.7418213-1.905014,1.224762-3.098526
	c-0.5170441-1.1931686-1.9051819-1.7416534-3.0983429-1.2244339
	C231.0296021,106.6413116,230.4811096,108.0289307,230.9983368,109.2220993z M233.4477081,107.5565414
	c0.1933746,0.0764084,0.348587,0.2263184,0.4316864,0.4169083c0.0830841,0.1907806,0.0862274,0.4068985,0.0087585,0.6000214
	c-0.1567688,0.4034042-0.6108856,0.6033478-1.0142822,0.446579c-0.4034119-0.1567688-0.6033478-0.610878-0.4465942-1.0142899
	c0.0010986-0.0028152,0.0022125-0.0056305,0.0033417-0.0084381c0.1582794-0.4022064,0.6126404-0.5999451,1.0148468-0.4416656
	C233.4462128,107.5559464,233.4469604,107.5562439,233.4477081,107.5565414z M226.0743256,102.5251694
	c-0.4783936,1.2093201,0.115097,2.5783844,1.3247528,3.0566177c1.2093201,0.4780579,2.579071-0.1150894,3.0569611-1.3250961
	c0.4780579-1.2093124-0.115097-2.5783844-1.3247528-3.0566101c-1.2096558-0.4780579-2.5787354,0.1154327-3.0569611,1.3249207
	V102.5251694z M228.9844208,103.079155c0.0795288,0.1837997,0.089325,0.4002457,0.0102997,0.6001892
	c-0.0761871,0.1935196-0.2266235,0.3485184-0.4177551,0.430481c-0.190567,0.0834961-0.4066162,0.0873337-0.6000214,0.010643
	c-0.4024048-0.1583099-0.6002655-0.612854-0.4419556-1.0152512c0.0003357-0.0008392,0.0006561-0.0016861,0.0009918-0.0025253
	c0.0764618-0.1932755,0.2266235-0.3482056,0.4174194-0.4306488c0.3955078-0.1729202,0.8563232,0.007515,1.0292358,0.4030304
	C228.9832306,103.0764313,228.9838257,103.0777893,228.9844208,103.079155z M227.328476,94.3076706
	c-1.1933441,0.5170517-1.7418213,1.9048462-1.2247772,3.0983505c0.5170593,1.1931686,1.9046783,1.7418289,3.098526,1.2244339
	c1.1931763-0.5170517,1.7416534-1.9048386,1.2244415-3.0980072c-0.5170593-1.193512-1.9051971-1.7420044-3.0980225-1.2247772
	H227.328476z M228.9942017,96.7572174c-0.0763245,0.1935883-0.2265015,0.3488846-0.4174194,0.4316788
	c-0.1906281,0.08284-0.4064484,0.0861206-0.5995026,0.0091095c-0.1938782-0.075737-0.3494263-0.2258453-0.4320221-0.4169083
	c-0.1725159-0.3965073,0.0090485-0.8578033,0.4055634-1.0303345c0.0009155-0.0003967,0.0018311-0.0007935,0.0027618-0.0011902
	c0.1906891-0.0825577,0.4063873-0.0858307,0.5995026-0.0091019c0.1938171,0.0755234,0.3492889,0.2255554,0.4316711,0.4165573
	C229.0677338,96.347847,229.0711212,96.5638809,228.9942017,96.7572174z M234.025238,89.3836594
	c-1.2093201-0.4780579-2.5782166,0.1152649-3.0564423,1.3247528c-0.4780579,1.2094879,0.1150818,2.5787277,1.3247375,3.0567856
	c1.2093201,0.4784012,2.5787354-0.1152649,3.0567932-1.3247528C235.8285522,91.230957,235.234726,89.8617172,234.025238,89.3836594z
	 M233.4714203,92.2935791c-0.1907196,0.0828705-0.4065552,0.0865784-0.6000214,0.0103073
	c-0.1935425-0.0761185-0.3486023-0.2264862-0.4306488-0.4175949c-0.1721344-0.3970337,0.0101776-0.8584366,0.407196-1.0305786
	c0.3970337-0.172142,0.8584442,0.0101624,1.0305939,0.407196c0.0832977,0.1905518,0.0871277,0.4064636,0.0106506,0.5998459
	c-0.0763092,0.1934891-0.2266846,0.3485031-0.4177704,0.4306488V92.2935791z M242.2430725,90.6376419
	c-0.517395-1.1931686-1.905014-1.7418289-3.0983429-1.2246094c-1.1931763,0.5172272-1.7418365,1.9050217-1.2244415,3.0981827
	c0.5167084,1.193512,1.9044952,1.7420044,3.0980072,1.2247772
	C242.2118073,93.2189407,242.7602997,91.8308105,242.2430725,90.6376419z M239.7937012,92.3030243
	c-0.193512-0.0763168-0.3488617-0.2262344-0.4320221-0.4169083c-0.0827484-0.1907883-0.085907-0.4067154-0.0087585-0.5998459
	c0.0757446-0.1937943,0.2258606-0.3492355,0.4169006-0.4316788c0.3968964-0.1723404,0.8583679,0.009697,1.0307159,0.406601
	c0.0829773,0.1911011,0.0864258,0.4073944,0.0095673,0.6010513c-0.0756989,0.1936951-0.2256775,0.3491135-0.4165497,0.4316788
	C240.2028046,92.3767776,239.9868774,92.3800507,239.7937012,92.3030243z M247.166748,97.3349075
	c0.4780579-1.2094879-0.1152649-2.5787277-1.3247528-3.0567856c-1.2094879-0.4784012-2.5783844,0.1152649-3.0564423,1.3247528
	c-0.4785767,1.2093124,0.1152649,2.5787277,1.3247528,3.0567856S246.6890259,98.5443954,247.166748,97.3349075z
	 M244.2571716,96.7804108c-0.1723785-0.3964691,0.0092773-0.8576126,0.4057465-1.0299988
	c0.0005188-0.0002213,0.0010223-0.0004425,0.0015411-0.0006714c0.190567-0.0833359,0.4065247-0.0870514,0.5998535-0.0103073
	c0.4026337,0.1581955,0.6008148,0.6128387,0.442627,1.0154877c-0.0763855,0.1944275-0.2272644,0.3502884-0.4190979,0.4329453
	c-0.1905975,0.0831909-0.4065094,0.0868988-0.5998535,0.0103073
	C244.494278,97.1221542,244.3391113,96.9716873,244.2571716,96.7804108z M245.9131165,105.5522385
	c1.193161-0.5172195,1.7416534-1.905014,1.2245941-3.098526c-0.5172272-1.1931686-1.905014-1.7416534-3.098175-1.2244339
	c-1.193512,0.5170517-1.7420044,1.905014-1.2251282,3.0980148c0.5172272,1.193512,1.9051971,1.7421722,3.0987091,1.2247772
	V105.5522385z M244.2475586,103.1026917c0.0761108-0.193367,0.2257843-0.3486633,0.416214-0.4318542
	c0.190918-0.0828476,0.4070129-0.0861206,0.6003571-0.0091019c0.4024963,0.1590042,0.5998688,0.6141815,0.4408722,1.0166626
	c-0.1589966,0.4024887-0.6141815,0.5998764-1.0166626,0.4408722l0,0c-0.1937103-0.0756989-0.3491364-0.2256699-0.4316864-0.4165649
	c-0.0829468-0.1908417-0.0862274-0.4069214-0.0090942-0.6001892V103.1026917z M242.3439178,102.1041412l-0.0204468-1.2670288
	c-0.0019073-0.1176224,0.0918884-0.2145309,0.2095184-0.2164383c0.0000153,0,0.0000305,0,0.0000458,0l1.1450806-0.018898
	c0.1176147-0.0018845,0.211441-0.0987625,0.2095642-0.2163849c0-0.0000229,0-0.0000381,0-0.0000534l-0.0188904-1.1448975
	c-0.0017853-0.1175308-0.0985107-0.2113647-0.2160492-0.2095795c-0.0001373,0-0.0002594,0.0000076-0.0003967,0.0000076
	l-1.1448975,0.0183792c-0.1174316,0.0020981-0.214325-0.0913925-0.2164307-0.2088242
	c0-0.0002518-0.0000153-0.0004959-0.0000153-0.0007477l-0.0211182-1.2694321
	c-0.000473-0.056633-0.0238342-0.1106644-0.0647736-0.1497955l-0.9104156-0.8815613
	c-0.0844879-0.0818634-0.0866089-0.216713-0.0047302-0.3011932c0.0000305-0.0000381,0.000061-0.0000687,0.0000916-0.0001068
	l0.7963562-0.8228149c0.0814209-0.0848618,0.0790405-0.2195358-0.0053253-0.3014679l-0.8226318-0.7963638
	c-0.0845337-0.0816803-0.2192688-0.0793762-0.3009491,0.0051498c0,0-0.0000153,0-0.0000153,0.0000076l-0.7970428,0.8224716
	c-0.0816803,0.0845261-0.2164154,0.0868378-0.3009491,0.0051575c0,0,0-0.0000076,0-0.0000076l-0.9128265-0.8832779
	c-0.0404205-0.0393906-0.0949097-0.0609818-0.1513367-0.0599518l-1.2673798,0.0206146
	c-0.11763,0.0017242-0.2144623-0.0921097-0.2164459-0.2097397l-0.0188904-1.144722
	c-0.0018768-0.1177216-0.0988312-0.2116318-0.2165527-0.2097473c-0.0000763,0-0.0001526,0-0.0002289,0l-1.1443787,0.0187302
	c-0.1174469,0.0016861-0.2112732,0.098259-0.2095947,0.2156906c0.0000153,0.0002518,0.0000153,0.0004959,0.0000153,0.0007477
	l0.0185547,1.1448975c0.0017242,0.117836-0.0924225,0.2147217-0.2099152,0.2164383l-1.2694397,0.0211334
	c-0.0566864,0.0005112-0.1104431,0.0240479-0.1494446,0.0647583l-0.8817291,0.9105911
	c-0.0819397,0.084671-0.2170105,0.0868835-0.3016815,0.0049438c-0.0000458-0.0000458-0.0000916-0.0000916-0.0001373-0.0001297
	l-0.8228149-0.7963638c-0.0846558-0.0818253-0.2196045-0.0795364-0.3014374,0.0051117
	c0,0.0000153-0.0000153,0.0000305-0.0000305,0.0000381l-0.7956696,0.8224716
	c-0.0819244,0.0844269-0.079895,0.2192841,0.0045319,0.3012009c0.0000305,0.0000305,0.000061,0.0000687,0.0001068,0.0000992
	l0.8228149,0.7963638c0.0845184,0.0818176,0.0867157,0.2166672,0.0048981,0.3011932
	c-0.0001526,0.0001526-0.0002899,0.0002975-0.0004425,0.0004501l-0.8827667,0.9121399
	c-0.039505,0.0408783-0.0608063,0.0953369-0.0597687,0.1520233l0.0202637,1.2672043
	c0.0021057,0.117424-0.0913849,0.214325-0.2088165,0.216423c-0.0002594,0.0000076-0.0005035,0.0000076-0.0007477,0.0000153
	l-1.1448975,0.0188904c-0.1175995,0.001976-0.21138,0.0988388-0.2095642,0.2164459l0.0188904,1.1448975
	c0.0018768,0.1176224,0.0987549,0.2114487,0.2163849,0.2095718c0.0000153-0.0000076,0.0000305-0.0000076,0.000061-0.0000076
	l1.1448975-0.0185471c0.1175995-0.0018234,0.2144623,0.0919647,0.2164307,0.2095642l0.0206146,1.2696152
	c0.0010376,0.0566864,0.0245667,0.1106186,0.0649414,0.1497879l0.9105835,0.8813934
	c0.0846863,0.0821075,0.0867462,0.2167816,0.0051575,0.3014679l-0.7963562,0.8228149
	c-0.0819702,0.0843811-0.0800171,0.2192307,0.0043488,0.3012009c0.0001068,0.0000916,0.0001984,0.0001755,0.0002899,0.000267
	l0.8226318,0.7961884c0.0847168,0.08181,0.2196808,0.0795822,0.301651-0.004982l0.7963562-0.8226395
	c0.0817261-0.0844803,0.2164764-0.0867157,0.3009491-0.0049896c0,0,0,0.0000076,0,0.0000076l0.9128265,0.8834534
	c0.0407104,0.0391617,0.0953369,0.0606384,0.1516876,0.0597763l1.2673798-0.0206146
	c0.1174927-0.0018921,0.2147217,0.0920715,0.2164307,0.2097397l0.0185547,1.1447296
	c0.0019836,0.1177902,0.0989838,0.211731,0.2167816,0.2099152l1.1448975-0.018898
	c0.1175385-0.001976,0.2112122-0.0988541,0.2092285-0.2163773c0-0.0000229,0-0.0000458,0-0.000061l-0.0180359-1.1449051
	c-0.0021057-0.117424,0.0913849-0.214325,0.2088165-0.2164307c0.0001373,0,0.0002747-0.0000076,0.000412-0.0000076
	l1.2699432-0.0206146c0.0566864-0.00103,0.1102905-0.024559,0.1496277-0.0649261l0.8815613-0.9107666
	c0.0816345-0.0845718,0.2163696-0.0869598,0.3009338-0.0053329c0.000061,0.000061,0.0001221,0.0001221,0.0001831,0.0001831
	l0.8224792,0.7963562c0.0848541,0.0817642,0.2198792,0.0795364,0.3016357-0.004982l0.7963715-0.8226395
	c0.0819244-0.0844269,0.0798798-0.2192841-0.0045471-0.3012009c-0.0000305-0.0000305-0.000061-0.0000687-0.0000916-0.0000992
	l-0.8228149-0.7963638c-0.0843964-0.0818787-0.0867004-0.2165756-0.0051575-0.3012924l0.8836212-0.9124832
	c0.0391693-0.0407104,0.0604706-0.0953369,0.0596161-0.1520233V102.1041412z M238.3040466,104.0189514l-3.2328644,0.0525665
	c-0.0565033,0.0007935-0.1110535-0.0206757-0.1518402-0.0597839l-2.3227844-2.2487411
	c-0.0406799-0.0393066-0.0639954-0.0932236-0.0647583-0.1497879l-0.0527344-3.2325134
	c-0.0008698-0.0566864,0.0206146-0.1111374,0.0599518-0.1520233l2.2487335-2.3229523
	c0.0393219-0.0406799,0.0932159-0.0640411,0.1497955-0.0649261l3.2321625-0.0525665
	c0.0566864-0.00103,0.1113129,0.0206146,0.1520233,0.0601196l2.3233032,2.2485733
	c0.0405426,0.0391617,0.0635529,0.0929337,0.0649261,0.1496201l0.0525665,3.2328568
	c0.0010223,0.0563431-0.0206146,0.1109619-0.0601196,0.15168l-2.2485657,2.3231201
	C238.4143219,103.9949036,238.3605652,104.0180969,238.3040466,104.0189514z M250.1195984,101.7939148
	c-0.7754059,0-1.1668854-0.5541534-1.1668854-1.3369446s0.3914795-1.3369446,1.1668854-1.3369446
	c0.7755737,0,1.1632843,0.5541534,1.1632843,1.3369446S250.8951721,101.7939148,250.1195984,101.7939148z M250.9173431,100.4569702
	c0-0.6386719-0.2806854-1.0231094-0.7977448-1.0231094c-0.5168762,0-0.7975616,0.3842697-0.7975616,1.0231094
	c0,0.6386719,0.2806854,1.0231094,0.7975616,1.0231094C250.6366577,101.4800797,250.9173431,101.0956421,250.9173431,100.4569702z
	 M252.9554749,100.5196686c-0.0113373,0-0.0185394-0.0075607-0.0223236-0.0185547
	c-0.0810852-0.2181549-0.2583618-0.3361664-0.5096741-0.3361664c-0.350769,0-0.5613556,0.2731247-0.5613556,0.6575623
	c0,0.3840942,0.2105865,0.6572266,0.5613556,0.6572266c0.2513123,0,0.4285889-0.118187,0.5096741-0.336174
	c0.0037842-0.010994,0.0109863-0.0183792,0.0223236-0.0183792h0.3286133c0.0110016,0,0.0221558,0.0037766,0.0183868,0.0183792
	c-0.103241,0.4100342-0.4100342,0.6500092-0.8789978,0.6500092c-0.5797424,0-0.9121399-0.3950882-0.9121399-0.9710617
	c0-0.5799179,0.3323975-0.971405,0.9121399-0.971405c0.4689636,0,0.7793579,0.2437592,0.8789978,0.6500092
	c0.0037689,0.0147705-0.0073853,0.0185547-0.0183868,0.0185547
	C253.2840881,100.5196686,252.9554749,100.5196686,252.9554749,100.5196686z M254.9640808,100.5196686
	c-0.0113373,0-0.0185547-0.0075607-0.0223389-0.0185547c-0.0810699-0.2181549-0.2583466-0.3361664-0.5096588-0.3361664
	c-0.350769,0-0.5613708,0.2731247-0.5613708,0.6575623c0,0.3840942,0.2106018,0.6572266,0.5613708,0.6572266
	c0.2513123,0,0.4285889-0.118187,0.5096588-0.336174c0.0037842-0.010994,0.0110016-0.0183792,0.0223389-0.0183792h0.3286133
	c0.0109863,0,0.0221558,0.0037766,0.0183716,0.0183792c-0.103241,0.4100342-0.4100342,0.6500092-0.8789825,0.6500092
	c-0.5797577,0-0.9121399-0.3950882-0.9121399-0.9710617c0-0.5799179,0.3323822-0.971405,0.9121399-0.971405
	c0.4689484,0,0.7793579,0.2437592,0.8789825,0.6500092c0.0037842,0.0147705-0.0073853,0.0185547-0.0183716,0.0185547
	C255.2926941,100.5196686,254.9640808,100.5196686,254.9640808,100.5196686z M257.0243835,101.7569809
	c-0.0113525,0-0.0151062-0.0075531-0.0185547-0.0185471l-0.0369263-0.1659393
	c-0.0075684-0.0223312-0.0331421-0.0151138-0.0407104-0.0037842c-0.0664978,0.0958557-0.2475281,0.2252045-0.4837341,0.2252045
	c-0.6092987,0-0.8051147-0.391655-0.8051147-0.8714294v-1.0155487c0-0.0113373,0.0072174-0.0185547,0.0182037-0.0185547h0.3141785
	c0.0110016,0,0.0185547,0.0072174,0.0185547,0.0185547v1.0155487c0,0.2806854,0.1252289,0.5575943,0.4911041,0.5575943
	c0.3102417,0,0.4875183-0.2696915,0.4875183-0.5575943v-1.0155487c0-0.0113373,0.0072021-0.0185547,0.0183716-0.0185547H257.3013
	c0.0109863,0,0.0183716,0.0072174,0.0183716,0.0185547v1.8314896c0,0.010994-0.0073853,0.0185547-0.0183716,0.0185547
	C257.3013,101.7569809,257.0243835,101.7569809,257.0243835,101.7569809z M258.0320435,99.888382
	c0.0109863,0,0.0144043,0.0072174,0.0181885,0.0185547l0.0372925,0.1511612
	c0.0072021,0.0223312,0.0292053,0.0147781,0.0365906,0.0037842c0.0958252-0.1070175,0.3440552-0.2104263,0.5281982-0.2104263
	c0.539032,0,0.8786621,0.3950882,0.8786621,0.9710541c0,0.576149-0.3396301,0.971405-0.8786621,0.971405
	c-0.2583618,0-0.4838867-0.1587219-0.5281982-0.2104263c-0.0180359-0.0223312-0.0365906-0.0075607-0.0365906,0.0073853v0.8788147
	c0,0.0111618-0.0075684,0.0183792-0.0187378,0.0183792h-0.3139954c-0.0108337,0-0.0180359-0.0072174-0.0180359-0.0183792v-2.5629272
	c0-0.0111618,0.0072021-0.0183792,0.0180359-0.0183792H258.0320435z M258.6157227,100.1652908
	c-0.3361511,0-0.5281982,0.2731247-0.5281982,0.6572189s0.1920471,0.6575699,0.5281982,0.6575699
	c0.3542175,0,0.5648193-0.2734756,0.5648193-0.6575699S258.9699402,100.1652908,258.6157227,100.1652908z M261.6171875,101.7380905
	c0,0.0113373-0.007019,0.0185471-0.0183716,0.0185471h-0.0702515c-0.2104187,0-0.3432007-0.0702515-0.3911438-0.1882629
	c-0.0075378-0.0185547-0.0260925-0.0147781-0.0334778-0.0075607c-0.0884705,0.0886383-0.2992554,0.2327576-0.638855,0.2327576
	c-0.461731,0-0.7200928-0.239975-0.7200928-0.5909119c0-0.321228,0.2844543-0.561203,0.7941284-0.561203h0.394928
	c0.0814209,0,0.1219482-0.0700836,0.1219482-0.1219559c0-0.1515121-0.0185547-0.3545532-0.4581299-0.3545532
	c-0.317627,0-0.4428406,0.1479034-0.4428406,0.3361664c0.0004883,0.0097656-0.007019,0.0180664-0.0167847,0.0185547
	c-0.0005798,0.0000305-0.0011902,0.0000305-0.00177,0h-0.3141785c-0.0109863,0-0.018219-0.0075607-0.018219-0.0185547
	c0-0.4357986,0.3765564-0.6500015,0.7937927-0.6500015c0.5096741,0,0.8088989,0.2181549,0.8088989,0.6685562v0.8011703
	c0,0.0554886,0.0444946,0.1219635,0.1217957,0.1219635h0.0702515c0.0113525,0,0.0183716,0.0073853,0.0183716,0.0183792
	C261.6171875,101.4611816,261.6171875,101.7380905,261.6171875,101.7380905z M261.0559998,100.9369125
	c0-0.010994-0.0072021-0.0185471-0.0185547-0.0185471h-0.4983215c-0.3361816,0-0.4433594,0.1551132-0.4433594,0.284462
	c0,0.132782,0.129364,0.2769089,0.3693237,0.2769089c0.4468079,0,0.5909119-0.2659149,0.5909119-0.4912872
	C261.0559998,100.9884491,261.0559998,100.9369125,261.0559998,100.9369125z M262.7695007,101.7384338
	c0.0004578,0.009758-0.0070496,0.0180664-0.0168152,0.0185471c-0.0005798,0.0000305-0.0011597,0.0000305-0.0017395,0h-0.2844849
	c-0.3062744,0-0.483551-0.132782-0.483551-0.4357986v-1.1373367c0-0.0113373-0.0075684-0.0185547-0.0185547-0.0185547h-0.3286133
	c-0.011322,0-0.0185547-0.0075607-0.0185547-0.0183792v-0.239975c0-0.0113373,0.0072327-0.0185547,0.0185547-0.0185547h0.3286133
	c0.0097656,0.0004883,0.0180664-0.0070267,0.0185547-0.0167847c0.0000305-0.0005875,0.0000305-0.0011749,0-0.0017624v-0.4986725
	c0-0.010994,0.0072327-0.0183792,0.0183716-0.0183792h0.3140259c0.0108032,0,0.0183716,0.0073853,0.0183716,0.0183792v0.4986725
	c0,0.010994,0.0072327,0.0185471,0.018219,0.0185471h0.3990173c0.0110168,0,0.0185547,0.0072174,0.0185547,0.0185547v0.239975
	c0.0003967,0.0097656-0.0072021,0.0179977-0.0169678,0.0183868c-0.0005188,0.0000229-0.0010376,0.0000153-0.0015869-0.0000076
	h-0.3990173c-0.0109863,0-0.018219,0.0072174-0.018219,0.0185547v1.0744705c0,0.1145706,0.0516968,0.1848297,0.1992798,0.1848297
	h0.2179565c0.0110168,0,0.0185547,0.0070419,0.0185547,0.0183792v0.2769089H262.7695007z M263.1049805,99.5669861
	c-0.0110168,0-0.018219-0.0075531-0.018219-0.0185471v-0.3731003c0-0.0108261,0.0072021-0.0183868,0.018219-0.0183868h0.3696594
	c0.0109863,0,0.0180359,0.0075607,0.0180359,0.0183868v0.3731003c0,0.010994-0.0070496,0.0185471-0.0180359,0.0185471H263.1049805z
	 M263.4670715,101.7384338c0.0004883,0.009758-0.007019,0.0180664-0.0167847,0.0185471
	c-0.0005798,0.0000305-0.0011902,0.0000305-0.00177,0h-0.3138428c-0.011322,0-0.0183716-0.0075531-0.0183716-0.0185471v-1.8314972
	c0-0.0113373,0.0070496-0.0185547,0.0183716-0.0185547h0.3138428c0.0109863,0,0.0185547,0.0072174,0.0185547,0.0185547V101.7384338z
	 M264.7519836,101.7939148c-0.5797729,0-0.9159241-0.3952637-0.9159241-0.971405
	c0-0.5799179,0.3361511-0.9710541,0.9159241-0.9710541c0.5761414,0,0.9160767,0.3950882,0.9160767,0.9710541
	C265.6680603,101.3986588,265.328125,101.7939148,264.7519836,101.7939148z M264.7519836,100.1654587
	c-0.350769,0-0.5650024,0.2731323-0.5650024,0.6570511c0,0.3840942,0.2142334,0.6575699,0.5650024,0.6575699
	c0.3547058,0,0.5647888-0.2734756,0.5647888-0.6575699s-0.210083-0.6572189-0.5647888-0.6572189V100.1654587z
	 M266.3321533,99.8880386c0.0111694,0,0.0146179,0.0075607,0.0183716,0.0185547l0.0369568,0.1662827
	c0.0037537,0.0219879,0.0333252,0.0147705,0.040863,0.0034332c0.0735168-0.1106262,0.2362061-0.2251968,0.483551-0.2251968
	c0.5354309,0,0.8051453,0.3916473,0.8051453,0.8714218v1.0155563c0,0.0113373-0.0072327,0.0185471-0.0185547,0.0185471h-0.3138428
	c-0.0109863,0-0.0185547-0.0072098-0.0185547-0.0185471v-1.0155563c0-0.2803421-0.1252441-0.5575867-0.4911194-0.5575867
	c-0.3100586,0-0.4874878,0.2696915-0.4874878,0.5575867v1.0155563c0,0.0113373-0.0073853,0.0185471-0.0184021,0.0185471h-0.3138123
	c-0.0113525,0-0.0185547-0.0072098-0.0185547-0.0185471v-1.8314972c0-0.010994,0.0072021-0.0185547,0.0185547-0.0185547H266.3321533
	L266.3321533,99.8880386z M269.9142456,101.7380905c0,0.0113373-0.0072327,0.0185471-0.0185547,0.0185471h-0.0700989
	c-0.2106018,0-0.3433838-0.0702515-0.3912964-0.1882629c-0.0075684-0.0185547-0.0259399-0.0147781-0.0335083-0.0075607
	c-0.0882874,0.0886383-0.2992249,0.2327576-0.6388245,0.2327576c-0.4617615,0-0.7200928-0.239975-0.7200928-0.5909119
	c0-0.321228,0.2844543-0.561203,0.7941284-0.561203h0.3948975c0.081604,0,0.1219788-0.0700836,0.1219788-0.1219559
	c0-0.1515121-0.0185547-0.3545532-0.4579773-0.3545532c-0.3175964,0-0.4429932,0.1479034-0.4429932,0.3361664
	c0.0004883,0.0097656-0.0070496,0.0180664-0.0168152,0.0185547c-0.0005798,0.0000305-0.0011597,0.0000305-0.0017395,0h-0.3141785
	c-0.0108337,0-0.0180359-0.0075607-0.0180359-0.0185547c0-0.4357986,0.3765259-0.6500015,0.7937622-0.6500015
	c0.5096741,0,0.8087463,0.2181549,0.8087463,0.6685562v0.8011703c0,0.0554886,0.0444946,0.1219635,0.1219482,0.1219635h0.0700989
	c0.0113525,0,0.0185547,0.0073853,0.0185547,0.0183792V101.7380905L269.9142456,101.7380905z M269.3528748,100.9369125
	c0-0.010994-0.0072327-0.0185471-0.0185547-0.0185471h-0.4983215c-0.3361816,0-0.4433594,0.1551132-0.4433594,0.284462
	c0,0.132782,0.1295166,0.2769089,0.3693237,0.2769089c0.4467773,0,0.5909119-0.2659149,0.5909119-0.4912872
	C269.3528748,100.9884491,269.3528748,100.9369125,269.3528748,100.9369125z M270.2203369,99.1669159
	c0.0000916-0.0055542,0.0045776-0.0100403,0.0101318-0.0101318h0.3306885
	c0.0056152,0.0000916,0.0101318,0.0046844,0.0101318,0.0103073v2.5795822c0,0.0056305-0.0045166,0.0102158-0.0101318,0.0103073
	h-0.3306885c-0.0056152-0.0000916-0.0101318-0.0046768-0.0101318-0.0103073V99.1669159z M249.5431213,103.8598862
	c-0.0034332-0.0072174-0.0110016-0.0147705-0.018219-0.0147705h-0.705307c-0.0110016,0-0.0185547-0.0072174-0.0185547-0.0182114
	v-0.2739868c0-0.010994,0.0075531-0.0182114,0.0185547-0.0182114h1.7945557c0.0109863,0,0.0182037,0.0072174,0.0182037,0.0182114
	v0.2739868c0,0.010994-0.0072174,0.0182114-0.0182037,0.0182114h-0.7054901c-0.0109863,0-0.0183716,0.0075531-0.0183716,0.0185471
	v2.2258987c0,0.010994-0.0072174,0.0182114-0.018219,0.0182114h-0.3107452c-0.0109863,0-0.0182037-0.0072174-0.0182037-0.0182114
	C249.5431213,106.0895615,249.5431213,103.8598862,249.5431213,103.8598862z M251.1226196,103.5347137
	c0.0109863,0,0.0182037,0.0072098,0.0182037,0.0182037v0.8846588c0,0.0180359,0.025589,0.0257645,0.0400238,0.0070419
	c0.1099396-0.1386261,0.2887573-0.2226257,0.4789124-0.2226257c0.5666962,0,0.7967072,0.3871918,0.7967072,0.8623276v1.0052414
	c0,0.010994-0.0072174,0.0182114-0.017868,0.0182114h-0.3110809c-0.0110016,0-0.018219-0.0072174-0.018219-0.0182114v-1.0052414
	c0-0.27742-0.1240234-0.5519257-0.4857788-0.5519257c-0.307312,0-0.4826965,0.2669449-0.4826965,0.5519257v1.0052414
	c0,0.010994-0.0072174,0.0182114-0.018219,0.0182114h-0.3107452c-0.0109863,0-0.0185547-0.0072174-0.0185547-0.0182114v-2.536644
	c0-0.010994,0.0075684-0.0182037,0.0185547-0.0182037h0.3107452H251.1226196z M253.0339813,105.3071136
	c-0.0108185,0-0.0180359,0.0075607-0.0180359,0.0185547c0,0.2667694,0.1935883,0.5079422,0.5189362,0.5079422
	c0.2593842,0,0.3875275-0.1095886,0.464325-0.2559433c0.0072174-0.0146027,0.0144196-0.0180435,0.0254211-0.0180435h0.3253479
	c0.0109863,0,0.0219879,0.0034409,0.0182037,0.0182114c-0.0948181,0.3579865-0.4203339,0.5663528-0.8332977,0.5663528
	c-0.5481415,0-0.888092-0.3909683-0.888092-0.9610977c0-0.5739136,0.3213959-0.961441,0.888092-0.961441
	c0.5701294,0,0.8918762,0.3913116,0.8918762,0.961441c0,0.0362473-0.0037842,0.0730057-0.0110016,0.1023788
	c-0.0036011,0.0106506-0.0145874,0.0216446-0.025589,0.0216446H253.0339813z M253.5348816,104.5323944
	c-0.354538,0-0.5189362,0.3109207-0.5189362,0.4823532c0,0.010994,0.0110016,0.0182114,0.0180359,0.0182114h0.9944153
	c0.0108337,0,0.0180511-0.0072174,0.0180511-0.0182114C254.0464478,104.8065491,253.8968201,104.5323944,253.5348816,104.5323944z
	 M255.4723663,104.5323944c-0.3069611,0-0.4826965,0.2669449-0.4826965,0.5519257v1.0052414
	c0,0.0106506-0.0072174,0.0182037-0.0180359,0.0182037h-0.3107452c-0.0096741,0.0003891-0.0178223-0.0071335-0.0182037-0.0167999
	c-0.0000153-0.000473-0.0000153-0.0009384,0-0.0014038v-1.813118c-0.0005951-0.0094681,0.0066071-0.0176163,0.0160828-0.0182037
	c0.0007019-0.0000458,0.0014191-0.0000458,0.002121,0h0.2743378c0.0109863,0,0.0144196,0.0072098,0.0182037,0.0182037
	l0.0362396,0.164566c0.0075684,0.0218124,0.0295563,0.0146027,0.0405426,0.0037766
	c0.1243591-0.1245346,0.2593842-0.2231369,0.4421539-0.2231369h0.186554c0.0108185,0,0.0180359,0.0072174,0.0180359,0.0182114
	v0.2743301c0,0.010643-0.0072174,0.0182037-0.0180359,0.0182037
	C255.6589203,104.5323944,255.4723663,104.5323944,255.4723663,104.5323944z M257.588501,106.0895615
	c0,0.010994-0.0072327,0.0182114-0.018219,0.0182114h-0.0695496c-0.2082214,0-0.3397827-0.0692291-0.387207-0.1863785
	c-0.0073853-0.0182114-0.0255737-0.0144348-0.0328064-0.0072174c-0.0877686,0.0876083-0.2963257,0.2301788-0.6324768,0.2301788
	c-0.4567566,0-0.7127075-0.2373962-0.7127075-0.5847321c0-0.317955,0.2813721-0.5555267,0.7857056-0.5555267h0.3913269
	c0.0803833,0,0.120575-0.069397,0.120575-0.1205902c0-0.1499634-0.018219-0.350769-0.4533386-0.350769
	c-0.3141785,0-0.4385376,0.1460114-0.4385376,0.3323898c0.0003967,0.0097656-0.0072021,0.0179977-0.0169678,0.0183868
	c-0.0005188,0.0000229-0.0010376,0.0000229-0.0015869-0.0000076h-0.3103943c-0.0110016,0-0.0183868-0.0073853-0.0183868-0.0183792
	c0-0.4313354,0.372757-0.6431351,0.7858734-0.6431351c0.504364,0,0.8003235,0.2154083,0.8003235,0.6615143v0.7932663
	c0,0.0544586,0.0439758,0.1205902,0.1206055,0.1205902h0.0695496c0.0109863,0,0.018219,0.0072174,0.018219,0.0182114V106.0895615
	L257.588501,106.0895615z M257.0331421,105.296463c0-0.010994-0.0072021-0.0182114-0.018219-0.0182114h-0.4936829
	c-0.3327332,0-0.4385376,0.1535721-0.4385376,0.2813721c0,0.1315842,0.1281433,0.2739868,0.3655396,0.2739868
	c0.4423218,0,0.5848999-0.2629929,0.5848999-0.4857864v-0.0515366V105.296463z M258.1297607,104.2582397
	c0.0110168,0,0.0147705,0.0072098,0.0185547,0.0182037l0.0362549,0.1501389
	c0.0075684,0.0214691,0.029541,0.0144272,0.0367432,0.0034332c0.0948486-0.1059875,0.3397827-0.2083664,0.5223999-0.2083664
	c0.5338745,0,0.8700562,0.3913116,0.8700562,0.961441s-0.3361816,0.9610977-0.8700562,0.9610977
	c-0.2556152,0-0.4785767-0.1570053-0.5223999-0.2083664c-0.0181885-0.0219879-0.0367432-0.0072174-0.0367432,0.0075531v0.8698883
	c0,0.010994-0.0072327,0.0182037-0.0180359,0.0182037h-0.3107605c-0.0109863,0-0.0181885-0.0072098-0.0181885-0.0182037v-2.5368195
	c0-0.010994,0.0072021-0.0182037,0.0181885-0.0182037H258.1297607z M258.7074585,104.5323944
	c-0.3327332,0-0.5228882,0.2703781-0.5228882,0.6506958c0,0.3799744,0.190155,0.6505203,0.5228882,0.6505203
	c0.350769,0,0.5591431-0.270546,0.5591431-0.6505203C259.2666016,104.8027725,259.0582275,104.5323944,258.7074585,104.5323944z
	 M259.6397095,106.5391006c0-0.010994,0.0072021-0.0182037,0.0181885-0.0182037h0.4131165
	c0.2156067,0,0.2813721-0.1389694,0.2156067-0.3325653l-0.6506958-1.9115448
	c-0.0034485-0.0147705,0.0109863-0.0185471,0.0219727-0.0185471h0.3325806c0.0109863,0,0.0147705,0.0075531,0.0181885,0.0185471
	l0.4790955,1.4692154c0.0070496,0.0218201,0.0290222,0.0218201,0.0362549,0l0.4826965-1.4692154
	c0.003418-0.010994,0.0072021-0.0185471,0.0181885-0.0185471h0.3327332c0.0110168,0,0.0218201,0.0075531,0.0180359,0.0185471
	l-0.7310791,2.148941c-0.1020203,0.2959747-0.2153931,0.4059143-0.5115356,0.4059143h-0.4751587
	c-0.0109863,0-0.0181885-0.0073853-0.0181885-0.0183792V106.5391006L259.6397095,106.5391006z M250.1755981,107.885498
	c0.0113373,0,0.0185547,0.0075607,0.0219879,0.0185547l0.8516846,2.536293
	c0.0037689,0.010994-0.0072174,0.0185547-0.018219,0.0185547H250.6875c-0.0109863,0-0.0147705-0.0075607-0.0182037-0.0185547
	l-0.1681824-0.522377c-0.0037689-0.0147705-0.0147705-0.0182037-0.0257568-0.0182037h-1.0600433
	c-0.0109863,0-0.0182037,0.0072098-0.0219879,0.0182037l-0.1716003,0.522377
	c-0.0034332,0.010994-0.0072174,0.0185547-0.0183868,0.0185547h-0.3395996c-0.0110016,0-0.0257721-0.0037766-0.0223389-0.0185547
	l0.8626709-2.536293c0.0037842-0.010994,0.0110016-0.0185547,0.0219879-0.0185547H250.1755981L250.1755981,107.885498z
	 M250.3805237,109.6072235c0.0108337,0,0.0180359-0.0072098,0.0146027-0.0182037l-0.427887-1.3379822
	c-0.0072174-0.0218124-0.0290375-0.0218124-0.0365906,0l-0.4309998,1.3379822
	c-0.0037689,0.010994,0.0034485,0.0182037,0.0144348,0.0182037h0.8664551H250.3805237z M252.5918274,110.4589005
	c-0.0109863,0-0.0147705-0.0072174-0.0182037-0.0182114l-0.0367584-0.1643906
	c-0.0072174-0.0219879-0.0328217-0.0147705-0.0400238-0.0037766c-0.0657959,0.0949936-0.2449646,0.2229614-0.4789276,0.2229614
	c-0.6031036,0-0.7967072-0.3873596-0.7967072-0.8626633v-1.005249c0-0.010994,0.0072174-0.0182037,0.018219-0.0182037h0.3107452
	c0.0109863,0,0.0182037,0.0072098,0.0182037,0.0182037v1.005249c0,0.2779312,0.1243744,0.551918,0.4861298,0.551918
	c0.3069763,0,0.4823608-0.2667694,0.4823608-0.551918v-1.005249c0-0.010994,0.0072174-0.0182037,0.0185547-0.0182037h0.3103943
	c0.0110016,0,0.0185547,0.0072098,0.0185547,0.0182037v1.813118c0,0.010994-0.0075531,0.0182114-0.0185547,0.0182114H252.5918274
	L252.5918274,110.4589005z M254.4229736,109.2344666c-0.0108185,0-0.0180359-0.0075607-0.0180359-0.0182114
	c0-0.201149-0.1607819-0.3327332-0.4570923-0.3327332c-0.2741547,0-0.3947449,0.1205902-0.3947449,0.233963
	c0,0.2083664,0.263504,0.2118073,0.446106,0.2375717c0.3655396,0.0510178,0.8040924,0.0838242,0.8040924,0.551918
	c0,0.4165649-0.3473358,0.5883408-0.8040924,0.5883408c-0.5557098,0-0.8260803-0.292366-0.8260803-0.6431351
	c0-0.010994,0.0072174-0.0185547,0.0182037-0.0185547h0.3069611c0.0110016,0,0.0220032,0.0075607,0.0220032,0.0185547
	c0,0.1826019,0.1863708,0.3325577,0.4789124,0.3325577c0.1863708,0,0.4567566-0.0403671,0.4567566-0.2777634
	c0-0.2083664-0.3031921-0.2231369-0.4567566-0.2411728c-0.350769-0.0405426-0.7931061-0.0953369-0.7931061-0.548317
	c0-0.2997513,0.2887573-0.5447083,0.741745-0.5447083c0.4498749,0,0.8044281,0.2121506,0.8044281,0.643486
	c0,0.010643-0.0037842,0.0182037-0.0151215,0.0182037C254.7371521,109.2344666,254.4229736,109.2344666,254.4229736,109.2344666z
	 M255.954895,110.4403458c0,0.010994-0.0072174,0.0182114-0.018219,0.0182114h-0.2815399
	c-0.3035278,0-0.4790802-0.1315842-0.4790802-0.4313354v-1.1254883c0-0.010994-0.0072174-0.0185547-0.0180359-0.0185547H254.83284
	c-0.0110016,0-0.0185547-0.0072098-0.0185547-0.0182037v-0.2373962c0-0.010994,0.0075531-0.0183868,0.0185547-0.0183868h0.3251801
	c0.0108185,0,0.0180359-0.0072098,0.0180359-0.0182037v-0.4933472c0-0.010994,0.0075531-0.0185547,0.0185394-0.0185547h0.3104095
	c0.0113373,0,0.0185547,0.0075607,0.0185547,0.0185547v0.4933472c0,0.010994,0.0072174,0.0182037,0.0180359,0.0182037h0.3950806
	c0.0110016,0,0.018219,0.0073929,0.018219,0.0183868v0.2373962c0,0.010994-0.0072174,0.0182037-0.018219,0.0182037h-0.3950806
	c-0.0108185,0-0.0180359,0.0075607-0.0180359,0.0185547v1.0634766c0,0.1133728,0.0510101,0.1826019,0.1973724,0.1826019h0.215744
	c0.0110016,0,0.018219,0.0075607,0.018219,0.0185547V110.4403458L255.954895,110.4403458z M257.0735168,108.883522
	c-0.3069763,0-0.4826965,0.2669449-0.4826965,0.5519257v1.0052414c0.0005798,0.0094681-0.0066223,0.0176239-0.0160828,0.0182114
	c-0.0007019,0.0000458-0.0014343,0.0000458-0.0021362,0h-0.31073c-0.0096741,0.0003891-0.0178223-0.0071411-0.018219-0.0168076
	c-0.0000305-0.0004654-0.0000305-0.0009384,0-0.0014038v-1.8131104c-0.0005798-0.0094757,0.0066223-0.0176239,0.0160828-0.0182114
	c0.0007019-0.0000458,0.0014038-0.0000458,0.0021362,0h0.2741394c0.0111694,0,0.0146179,0.0072174,0.0183716,0.0182114
	l0.036438,0.1645584c0.0075378,0.0218201,0.0293579,0.0146027,0.0403442,0.0036087
	c0.1243896-0.1243668,0.2593994-0.2229691,0.4423523-0.2229691h0.1863708c0.0109863,0,0.018219,0.0072174,0.018219,0.0182114
	v0.2743301c0.0005798,0.0094681-0.0066223,0.0176239-0.0160828,0.0182114c-0.0007324,0.0000381-0.0014343,0.0000381-0.0021362,0
	h-0.1863708V108.883522z M259.1894531,110.4403458c0,0.010994-0.007019,0.0182114-0.0180359,0.0182114h-0.0695496
	c-0.208374,0-0.3399658-0.0692291-0.387207-0.1863785c-0.0075378-0.0182114-0.0257568-0.0144348-0.032959-0.0072174
	c-0.087616,0.0877762-0.2963257,0.2303543-0.6325073,0.2303543c-0.4565735,0-0.7125244-0.2375717-0.7125244-0.5848999
	c0-0.3179626,0.281189-0.5553589,0.785553-0.5553589h0.3912964c0.0805664,0,0.120575-0.0695724,0.120575-0.1205902
	c0-0.1501312-0.0181885-0.3509445-0.4533081-0.3509445c-0.3141785,0-0.4385376,0.1460114-0.4385376,0.3323898
	c0,0.010994-0.0073853,0.0185547-0.0184021,0.0185547h-0.3103943c-0.0097656,0.0004883-0.0180664-0.0070343-0.0185547-0.0167923
	c-0.0000305-0.0005875-0.0000305-0.0011749,0-0.0017624c0-0.4313278,0.3727722-0.6431351,0.7858887-0.6431351
	c0.5043335,0,0.8004761,0.2155838,0.8004761,0.6616898v0.7930984c0,0.054451,0.0438232,0.1205902,0.1206055,0.1205902h0.0695496
	c0.0110168,0,0.0180359,0.0072098,0.0180359,0.0182037V110.4403458z M258.6340942,109.6472473
	c0-0.010994-0.0072021-0.0182037-0.0181885-0.0182037h-0.4936829c-0.3325806,0-0.4385681,0.1535645-0.4385681,0.2813721
	c0,0.1315765,0.1281433,0.2741547,0.3655396,0.2741547c0.4423523,0,0.5849304-0.2631607,0.5849304-0.4859619v-0.0513611H258.6340942
	z M259.4385376,107.8956299c0-0.0054932,0.0044861-0.009964,0.0099792-0.009964h0.3270569
	c0.0054932,0,0.0099487,0.0044708,0.0099487,0.009964v2.5531311c0,0.0055084-0.0044556,0.009964-0.0099487,0.009964h-0.3270569
	c-0.0055237,0-0.0099792-0.0044556-0.0099792-0.009964V107.8956299z M260.2246094,108.2912369
	c-0.0110168,0-0.0185547-0.0072174-0.0185547-0.0182114v-0.3693237c0-0.010994,0.0075378-0.0182037,0.0185547-0.0182037h0.3655396
	c0.0094604-0.0005875,0.0176086,0.0066071,0.0181885,0.0160751c0.000061,0.0007095,0.000061,0.0014191,0,0.0021286v0.3693237
	c0.0006104,0.0094681-0.0065918,0.0176239-0.0160522,0.0182114c-0.0007324,0.0000458-0.0014343,0.0000458-0.0021362,0H260.2246094z
	 M260.5825806,110.4403458c0,0.010994-0.0072021,0.0182114-0.018219,0.0182114h-0.31073
	c-0.0109863,0-0.0180359-0.0072174-0.0180359-0.0182114v-1.812767c0-0.010994,0.0070496-0.0183792,0.0180359-0.0183792h0.31073
	c0.0110168,0,0.018219,0.0073853,0.018219,0.0183792V110.4403458z M262.7318726,110.4403458
	c0,0.010994-0.0072327,0.0182114-0.018219,0.0182114h-0.0695801c-0.2081909,0-0.3397522-0.0692291-0.3871765-0.1863785
	c-0.0073853-0.0182114-0.0256042-0.0144348-0.0328064-0.0072174c-0.0877686,0.0877762-0.2963257,0.2303543-0.6324768,0.2303543
	c-0.4567566,0-0.7130432-0.2375717-0.7130432-0.5848999c0-0.3179626,0.2817078-0.5553589,0.7860413-0.5553589h0.3912964
	c0.0804138,0,0.1206055-0.0695724,0.1206055-0.1205902c0-0.1501312-0.018219-0.3509445-0.4533386-0.3509445
	c-0.3141785,0-0.4385376,0.1460114-0.4385376,0.3323898c0.0004883,0.0097656-0.007019,0.0180664-0.0167847,0.0185547
	c-0.0005798,0.0000305-0.0011902,0.0000305-0.00177,0h-0.3103943c-0.0097656,0.0004883-0.0180664-0.0070343-0.0185547-0.0167923
	c-0.0000305-0.0005875-0.0000305-0.0011749,0-0.0017624c0-0.4313278,0.3729248-0.6431351,0.7860413-0.6431351
	c0.504364,0,0.8003235,0.2155838,0.8003235,0.6616898v0.7930984c0,0.054451,0.0439758,0.1205902,0.120575,0.1205902h0.0695801
	c0.0109863,0,0.018219,0.0072098,0.018219,0.0182037V110.4403458z M262.1765137,109.6472473
	c0-0.010994-0.0072327-0.0182037-0.018219-0.0182037h-0.4936829c-0.3327332,0-0.4385376,0.1535645-0.4385376,0.2813721
	c0,0.1315765,0.1281433,0.2741547,0.3655396,0.2741547c0.4423218,0,0.5848999-0.2631607,0.5848999-0.4859619V109.6472473
	L262.1765137,109.6472473z"/>
</svg>
