<?xml version="1.0" encoding="UTF-8"?><svg id="Layer_1" xmlns="http://www.w3.org/2000/svg" viewBox="0 0 300 134.98"><defs><style>.cls-1{fill:none;}.cls-1,.cls-2,.cls-3{stroke-width:0px;}.cls-2{fill:#444;}.cls-3{fill:#8f8f8f;}</style></defs><path class="cls-2" d="m69.03,44.15c-.05-.33-.1-.61-.14-.9-.06-.42-.12-.85-.14-1.28,0-.15.02-.24.19-.23.04,0,.07,0,.11-.02.34-.08.66-.08.71-.62.06-.59.3-1.18.42-1.78.13-.68.07-1.36.15-2.04.02-.14.03-.27.06-.41.07-.39.28-.62.67-.76.04.03,0,.05,0,.07-.02.08-.16.15-.1.22.07.08.19,0,.28-.03.24-.09.42-.28.6-.46.6-.55,1.21-.61,1.9-.18.85.53,1.39,1.31,1.67,2.26.4,1.36.41,2.73.03,4.11-.38,1.37-1.46,2.29-2.88,2.46-.7.09-1.39.06-2.08-.08-.17-.04-.2.02-.24.16-.32,1.2-.4,2.42-.29,3.65.04.41,0,.81-.15,1.2-.09.26-.25.46-.47.61-.19.13-.21.13-.25-.1-.14-.75-.18-1.51-.16-2.28.02-.76.11-1.51.17-2.26.02-.26,0-.52,0-.78,0-.14-.06-.16-.19-.15-.76.06-1.46-.13-2.07-.58-.37-.28-.66-.64-.87-1.05-.12-.23-.2-.24-.39-.05-.4.37-.67.86-1.03,1.27-.22.25-.42.5-.67.71-.85.72-1.66.09-1.84-.58-.09-.32-.13-.65-.16-.99-.12-1.46.2-2.81.88-4.1.32-.6.61-1.21.93-1.8.27-.5.64-.92,1.1-1.25.12-.08.24-.16.38-.21.48-.19.92-.05,1.18.4.36.63.5,1.33.52,2.05.02.82-.12,1.62-.17,2.43-.03.51-.01,1.02.15,1.51.15.44.41.78.81,1.02.45.27.9.53,1.38.82Zm6.06-4.07c.02-.53-.07-1.09-.22-1.63-.22-.76-.58-1.43-1.23-1.9-.61-.44-1.17-.38-1.66.19-.49.56-.75,1.24-.97,1.94-.3.96-.46,1.96-.67,2.95-.11.5-.21,1-.12,1.51.09.48.29.67.78.73.44.06.88.04,1.33,0,1.19-.12,2.02-.7,2.45-1.84.23-.61.33-1.25.32-1.95Zm-12.68,2.04c0,.85.24,1.55.69,2.18.08.11.13.13.23.02.09-.1.16-.23.3-.28.4-.16.69-.45.93-.79.45-.62.76-1.3.92-2.05.21-.95.54-1.87.6-2.85.03-.42,0-.84-.14-1.25-.15-.45-.49-.57-.89-.32-.23.14-.42.31-.58.53-.7.96-1.28,1.99-1.71,3.1-.22.57-.36,1.16-.37,1.71Z"/><path class="cls-2" d="m93.12,44.44c-.98.37-2.4-.02-3.1-.84-.19-.22-.35-.45-.48-.7-.1-.19-.19-.21-.35-.05-.17.16-.33.33-.46.52-.29.41-.6.8-.94,1.17-.08.09-.16.17-.25.25-.89.83-1.79.18-1.95-.63-.05-.25-.09-.51-.14-.8-.12.12-.24.23-.36.34-.42.37-.9.65-1.47.69-.87.06-1.48-.28-1.86-1.08-.28-.59-.35-1.23-.49-1.85-.11-.5-.16-1.01-.33-1.49-.06-.16-.13-.31-.22-.45-.26-.4-.61-.45-.97-.13-.23.2-.41.45-.58.71-.59.93-.96,1.95-1.18,3.02-.07.34-.14.68-.24,1.02-.16.56-.46,1.02-1.05,1.21-.26.09-.29.06-.27-.21.06-.86.12-1.72.18-2.59.06-.92-.09-1.83-.13-2.74-.03-.5-.04-1,.15-1.51.24.24.38.52.49.82.19.53.22,1.09.32,1.64.05.28.09.57.14.86.1-.03.1-.1.13-.15.35-.67.64-1.37,1.04-2.01.29-.46.64-.86,1.08-1.19.3-.23.58-.23.89,0,.34.24.53.59.71.95.4.83.61,1.72.72,2.63.05.38.11.76.31,1.1.32.53.93.81,1.57.71.45-.07.87-.21,1.3-.35.08-.02.13-.05.12-.14-.17-1.66.38-3.15,1.16-4.57.32-.58.56-1.2.97-1.73.27-.35.58-.65.96-.87.6-.35,1.15-.2,1.45.43.41.84.5,1.73.43,2.66-.07.85-.22,1.69-.14,2.54.07.78.4,1.39,1.11,1.78.58.31,1.14.67,1.72,1.01Zm-3.42-6.29c-.02-.35-.03-.72-.16-1.07-.15-.41-.47-.53-.85-.31-.19.1-.34.25-.48.4-.38.42-.65.91-.93,1.39-.55.94-1.04,1.9-1.21,2.99-.16,1,.05,1.92.63,2.75.08.11.13.14.23.02.14-.17.31-.3.52-.39.13-.06.24-.16.35-.26.35-.33.59-.74.82-1.15.33-.61.46-1.28.63-1.94.21-.79.42-1.59.46-2.43Z"/><path class="cls-3" d="m95.91,31.76c0-.56.43-.99,1-.99.55,0,1,.45.99,1,0,.54-.46,1-1.01,1-.54,0-.99-.45-.98-1.01Z"/><path class="cls-3" d="m86.75,31.64c-.55,0-1-.47-.99-1.01.02-.54.47-.98,1.01-.98.55,0,1.02.48,1.01,1.02-.02.56-.46.98-1.02.97Z"/><path class="cls-3" d="m108.03,44.51c0,.54-.45.99-.98.99-.55,0-1.01-.47-1.01-1.02,0-.54.47-.99,1.01-.99.55,0,.98.45.98,1.01Z"/><path class="cls-3" d="m104.72,29.89c-.56,0-.99-.44-.99-.99,0-.54.46-1,1-1,.55,0,.99.45.99,1.01,0,.56-.43.98-1,.98Z"/><path class="cls-3" d="m96.38,29.2c0,.55-.46,1-1,.99-.55,0-.99-.46-.99-1.01,0-.55.45-1,1-.99.55,0,1,.45.99,1Z"/><path class="cls-3" d="m107.92,35.73c-.56,0-1-.44-1-.99,0-.55.44-.99,1-1,.55,0,1,.44,1,.99,0,.55-.44,1-.99,1Z"/><path class="cls-3" d="m97.86,37.29c0,.54-.45,1-.99,1.01-.54,0-.99-.44-1-.97,0-.57.42-1.02.99-1.03.53-.01,1,.45,1,1Z"/><path class="cls-3" d="m105.89,34.04c-.55,0-.99-.45-.99-1,0-.55.45-.99,1-.99.55,0,1,.45.99,1,0,.55-.46.99-1.01.99Z"/><path class="cls-3" d="m110.51,43.55c.55,0,1,.45,1,1,0,.53-.47,1-1.01,1-.54,0-1-.46-1-1.01,0-.54.46-.99,1.01-.99Z"/><path class="cls-3" d="m108.79,41.99c0-.55.45-1,1-.99.55,0,1,.46,1,1,0,.55-.46.99-1.01.99-.55,0-.99-.44-.99-1Z"/><path class="cls-3" d="m108.34,41.82c0,.55-.45.99-1,.99-.55,0-1-.45-.99-1,0-.55.46-.99,1.01-.99.55,0,.99.46.99,1.01Z"/><path class="cls-3" d="m94.51,32.18c0,.55-.45.98-1.01.98-.54,0-.98-.45-.98-.99,0-.57.45-1.01,1.01-1,.55,0,.98.45.98,1.01Z"/><path class="cls-3" d="m107.78,36.88c-.01.54-.49,1-1.02.98-.54-.02-1-.5-.98-1.03.02-.55.49-.99,1.03-.97.55.02.98.48.97,1.03Z"/><path class="cls-3" d="m104.65,42.43c-.55,0-1-.46-.99-1,.01-.55.47-1,1.01-.99.54,0,1,.47.99,1.01,0,.55-.46.99-1.01.98Z"/><path class="cls-3" d="m101.15,37.93c0,.55-.45,1-1,.99-.55,0-.99-.45-.99-1,0-.55.45-.99,1-.99.55,0,.99.45.99,1Z"/><path class="cls-3" d="m86.87,32.97c0,.56-.43,1-.99,1-.54,0-1.01-.46-1-1,0-.54.47-1.01,1-1,.55,0,.99.45.99,1Z"/><path class="cls-3" d="m117.26,45.83c-.54-.01-.99-.46-.98-.99,0-.55.48-1.02,1.02-1,.55.02,1,.48.98,1.02-.02.56-.47.99-1.02.97Z"/><path class="cls-3" d="m114.85,44.55c0,.55-.45,1-1,1-.55,0-.99-.44-.99-1,0-.55.44-1,.99-.99.56,0,.99.44.99,1Z"/><path class="cls-3" d="m98.37,30.1c-.54,0-1.01-.48-.99-1.01.02-.56.45-.98,1.01-.98.57,0,1,.45.99,1.02,0,.53-.47.97-1.01.97Z"/><path class="cls-3" d="m109.71,37.88c-.56,0-.99-.43-1-.99,0-.55.44-1,.99-1,.54,0,.99.45.99,1,0,.56-.43.99-.99.99Z"/><path class="cls-3" d="m105.75,40.01c-.56,0-1-.43-1.01-.98,0-.55.44-1,.99-1.01.55,0,1.02.46,1.02,1.01,0,.53-.46.98-1,.98Z"/><path class="cls-3" d="m102.28,29.96c0,.55-.46.99-1.01.98-.54-.01-.98-.46-.98-.99,0-.57.44-1.01,1.01-1,.55,0,.98.45.97,1.01Z"/><path class="cls-3" d="m114.9,42.42c0-.55.46-.99,1.01-.99.55,0,.99.46.98,1.01,0,.56-.45.99-1.01.98-.55,0-.99-.46-.98-1.01Z"/><path class="cls-3" d="m100.01,42.24c0-.56.44-.99.99-.99.55,0,1,.46.99,1,0,.54-.47,1-1.01.99-.55,0-.98-.45-.98-1.01Z"/><path class="cls-3" d="m93.01,29.67c-.56,0-1.01-.44-1.01-.98,0-.54.45-1,.99-1.01.55,0,1,.44,1,.99,0,.57-.42,1-.98,1Z"/><path class="cls-3" d="m89.41,27.33c0-.55.45-1,1-1,.54,0,.99.46.99,1,0,.55-.45.99-1,.99-.55,0-.99-.44-.99-1Z"/><path class="cls-3" d="m114.38,38.48c.53,0,.99.44,1.01.97.02.54-.44,1.02-1,1.03-.52.01-1-.46-1.01-1,0-.54.45-1,1-1.01Z"/><path class="cls-3" d="m106.03,30.68c0-.56.44-1,.99-1,.56,0,1,.44.99,1.02,0,.54-.45.98-.99.98-.55,0-1-.45-1-.99Z"/><path class="cls-3" d="m100.97,32.44c0,.55-.45.99-1,.98-.53,0-.98-.47-.98-1,0-.55.45-1,.99-1,.58,0,.99.43.99,1.01Z"/><path class="cls-3" d="m109.57,39.42c0,.55-.44,1-.99,1-.55,0-1-.44-1-.99,0-.54.46-1.01.99-1,.55,0,1,.44,1,1Z"/><path class="cls-3" d="m98.69,40.81c-.56,0-.99-.43-.99-.99,0-.55.44-.99,1-.99.55,0,1,.45,1,1,0,.55-.45.99-1,.99Z"/><path class="cls-3" d="m112.85,40.85c.57,0,1,.42,1,.98,0,.55-.43,1-.99,1.01-.54,0-1-.45-1.01-.99,0-.54.44-.99.99-1Z"/><path class="cls-3" d="m112.74,36.18c.55,0,1,.45.99,1,0,.55-.46,1-1,1-.54,0-1.01-.47-1-1.01,0-.54.47-1,1.01-.99Z"/><path class="cls-3" d="m103.44,39.95c0,.55-.46,1.01-.99,1-.55,0-1-.46-1-1,0-.55.45-1,1-1,.55,0,.99.45.99,1Z"/><path class="cls-3" d="m101.46,36.92c-.54,0-1-.46-.99-1,0-.53.46-.98,1-.99.54,0,1.01.46,1.01.99,0,.57-.44,1-1.01,1Z"/><path class="cls-3" d="m96.26,34.48c0,.56-.44.99-1,.98-.55,0-.99-.45-.99-1,0-.55.45-.99,1.01-.98.56,0,.98.44.98,1Z"/><path class="cls-3" d="m103.67,38.58c-.57,0-1-.42-1.01-.98,0-.56.44-1.01,1.01-1.01.54,0,.99.46.99,1.01,0,.54-.44.97-.99.98Z"/><path class="cls-3" d="m104.68,31.38c0,.55-.45.99-1,.99-.54,0-.99-.46-.99-1.01,0-.55.45-.99,1.01-.98.56,0,.98.43.98,1Z"/><path class="cls-3" d="m102.14,26.53c.56,0,1,.43,1,.98,0,.55-.44.99-1,.99-.56,0-1-.43-1.01-.99,0-.55.44-.99,1-.99Z"/><path class="cls-3" d="m109.13,31.73c.56,0,.99.43.99.99,0,.55-.44.99-1,.98-.56,0-1-.44-.99-.99,0-.55.44-.98,1-.98Z"/><path class="cls-3" d="m104.81,43.9c0,.55-.46,1-1,.99-.55-.01-1.01-.48-1-1.01.01-.55.46-.99,1.01-.99.56,0,.99.44.98,1Z"/><path class="cls-3" d="m111.1,33.82c.56,0,.99.43.99.99,0,.55-.45,1-1,1-.54,0-1-.46-1-1,0-.54.45-.99,1-.99Z"/><path class="cls-3" d="m102.65,32.83c.56,0,.99.44.99,1,0,.55-.45,1-1,.99-.55,0-.99-.45-.99-1.01,0-.56.44-.98,1-.98Z"/><path class="cls-3" d="m112.32,39.57c0,.55-.45,1-1,1-.54,0-.99-.45-.99-1,0-.55.44-.99,1-.99.55,0,1,.45,1,.99Z"/><path class="cls-3" d="m94.07,26.22c0,.55-.45,1-.99,1-.56,0-.99-.44-1-.99,0-.54.43-.99.97-.99.57,0,1.02.43,1.02.99Z"/><path class="cls-3" d="m96.08,25.23c.55,0,.99.45.98,1,0,.53-.45.97-1,.97-.56,0-1-.44-1.01-.99,0-.56.44-.99,1.02-.99Z"/><path class="cls-3" d="m99.49,34.91c0,.56-.44,1-.99.99-.55,0-.99-.46-.99-1.01,0-.56.44-.98,1-.98.56,0,.98.43.98,1Z"/><path class="cls-3" d="m89.76,29.16c0,.56-.42.99-.98,1-.55,0-.99-.42-.99-.96,0-.59.41-1.02.98-1.02.56,0,.99.42,1,.99Z"/><path class="cls-3" d="m99.07,27.59c-.56,0-.98-.43-.98-1,0-.54.44-.98.99-.98.56,0,1.01.45,1.01,1.01,0,.54-.45.97-1.02.97Z"/><path class="cls-3" d="m91.2,31.47c-.55,0-1-.44-1-.99,0-.55.45-.99,1-.99.56,0,.99.44.99.99,0,.56-.43.98-1,.98Z"/><path class="cls-3" d="m105.73,35.25c0,.56-.44.98-1,.98-.55,0-.99-.45-.98-1,0-.56.44-.98,1.03-.97.55,0,.96.43.95,1Z"/><rect class="cls-1" x="197.67" y="30.17" width="65.66" height="17.51"/><path class="cls-2" d="m217.96,40.68c0,.17.04.35.12.5.08.15.21.28.36.37.34.2.73.3,1.12.28.7,0,1.43-.18,1.43-.85,0-1.53-6.97-.31-6.97-3.97,0-2.42,3.02-3.12,5.39-3.12s5.39.47,5.65,2.98h-4.12c-.02-.14-.07-.27-.14-.39-.08-.12-.18-.22-.3-.29-.27-.17-.59-.25-.91-.24-.78,0-1.28.2-1.28.67,0,1.31,7.19.44,7.19,3.97,0,1.96-1.96,3.3-6.13,3.3-2.61,0-5.47-.67-5.71-3.21h4.31Z"/><path class="cls-2" d="m225.32,30.17h4.53v5.18c.43-.48.97-.86,1.56-1.12.6-.25,1.24-.37,1.89-.35,3,0,4.41,1.46,4.41,4.06v5.67h-4.53v-5c0-.94-.3-1.77-1.59-1.77-1.39,0-1.75.74-1.75,1.95v4.82h-4.53v-13.45Z"/><path class="cls-3" d="m241.74,34.17v1.41h.04c.63-1.16,2.26-1.68,3.56-1.68,3.43,0,5.08,2.33,5.08,4.93,0,3.71-2.78,5.07-5.32,5.07-.54.02-1.09-.08-1.59-.29-.5-.21-.95-.52-1.32-.92v5h-4.48l-.03-13.53h4.05Zm4.17,4.71c0-1.5-.78-2.2-1.97-2.2-1.09,0-1.83.87-1.83,2.13s.67,2.22,1.85,2.22,1.95-.85,1.95-2.15Z"/><path class="cls-2" d="m258.66,43.62l-.22-1.01c-1.28.99-2.59,1.28-4.28,1.28-2.15,0-4.06-.87-4.06-2.85,0-4.3,8.1-2.35,8.1-4.11,0-.69-1-.78-1.48-.78-.63,0-1.48.11-1.59.92h-4.34c0-2,1.72-3.18,6.21-3.18,5.39,0,5.71,1.66,5.71,3.93v4.41c0,.54.02.81.61,1.21v.18h-4.67Zm-.46-4.19c-1.48.6-3.43.31-3.43,1.53,0,.47.54.79,1.43.79,1.59,0,2.11-1.02,2-2.32Z"/><path class="cls-2" d="m206.77,30.17h-4.54v4.52h4.54v-4.52Z"/><path class="cls-2" d="m202.22,34.69h-4.54v4.52h4.54v-4.52Z"/><path class="cls-2" d="m206.76,39.24h-4.54v4.52h4.54v-4.52Z"/><path class="cls-3" d="m211.3,34.69h-4.54v4.52h4.54v-4.52Z"/><path class="cls-2" d="m232.88,112.59c.37-.22.65-.54.84-.96.2-.41.3-.9.3-1.45,0-.82-.22-1.48-.65-1.96-.44-.49-1.03-.73-1.77-.73-.49,0-.91.11-1.27.33-.36.22-.64.53-.84.94-.2.41-.3.88-.3,1.43s.1,1.04.3,1.45c.2.41.48.73.84.96.36.22.79.34,1.27.34s.92-.11,1.29-.34m-3.35,1.21c-.6-.34-1.07-.82-1.41-1.44-.34-.62-.5-1.35-.5-2.18s.16-1.51.49-2.12c.32-.62.79-1.1,1.39-1.44.6-.34,1.3-.52,2.1-.52s1.48.17,2.08.5c.6.34,1.07.81,1.41,1.43.34.62.5,1.33.5,2.14s-.16,1.52-.49,2.14c-.32.62-.79,1.11-1.39,1.46-.6.35-1.31.52-2.12.52s-1.46-.17-2.07-.5"/><polygon class="cls-2" points="241.5 114.12 239.96 114.12 239.96 107.67 237.39 107.67 237.39 106.29 244.07 106.29 244.07 107.67 241.5 107.67 241.5 114.12"/><path class="cls-2" d="m249.59,108.3l-1.09,2.69h2.17l-1.09-2.69Zm-2.36,5.82h-1.6l3.19-7.84h1.53l3.2,7.84h-1.6l-.72-1.78h-3.29l-.72,1.78Z"/><path class="cls-2" d="m221.5,98.83l-3.66.06c-.06,0-.13-.02-.17-.07l-2.63-2.55s-.07-.11-.07-.17l-.06-3.66c0-.06.02-.13.07-.17l2.55-2.63s.11-.07.17-.07l3.66-.06c.06,0,.13.02.17.07l2.63,2.55s.07.11.07.17l.06,3.66c0,.06-.02.13-.07.17l-2.55,2.63s-.11.07-.17.07m4.58-2.17l-.02-1.44c0-.13.1-.24.24-.25l1.3-.02c.13,0,.24-.11.24-.25l-.02-1.3c0-.13-.11-.24-.25-.24l-1.3.02c-.13,0-.24-.1-.25-.24l-.02-1.44c0-.06-.03-.13-.07-.17l-1.03-1c-.1-.09-.1-.25,0-.34l.9-.93c.09-.1.09-.25,0-.34l-.93-.9c-.1-.09-.25-.09-.34,0l-.9.93c-.09.1-.25.1-.34,0l-1.03-1s-.11-.07-.17-.07l-1.44.02c-.13,0-.24-.1-.25-.24l-.02-1.3c0-.13-.11-.24-.25-.24l-1.3.02c-.13,0-.24.11-.24.25l.02,1.3c0,.13-.1.24-.24.25l-1.44.02c-.06,0-.13.03-.17.07l-1,1.03c-.09.1-.25.1-.34,0l-.93-.9c-.1-.09-.25-.09-.34,0l-.9.93c-.09.1-.09.25,0,.34l.93.9c.1.09.1.25,0,.34l-1,1.03s-.07.11-.07.17l.02,1.44c0,.13-.1.24-.24.25l-1.3.02c-.13,0-.24.11-.24.25l.02,1.3c0,.13.11.24.25.24l1.3-.02c.13,0,.24.1.25.24l.02,1.44c0,.06.03.13.07.17l1.03,1c.1.09.1.25,0,.34l-.9.93c-.09.1-.09.25,0,.34l.93.9c.1.09.25.09.34,0l.9-.93c.09-.1.25-.1.34,0l1.03,1s.11.07.17.07l1.44-.02c.13,0,.24.1.25.24l.02,1.3c0,.13.11.24.25.24l1.3-.02c.13,0,.24-.11.24-.25l-.02-1.3c0-.13.1-.24.24-.25l1.44-.02c.06,0,.13-.03.17-.07l1-1.03c.09-.1.25-.1.34,0l.93.9c.1.09.25.09.34,0l.9-.93c.09-.1.09-.25,0-.34l-.93-.9c-.1-.09-.1-.25,0-.34l1-1.03s.07-.11.07-.17m2.16,1.13c.08-.21.25-.39.47-.49.23-.1.47-.09.68-.01.21.08.39.25.49.47.19.45,0,.97-.46,1.17-.22.1-.47.09-.68.01-.21-.08-.39-.25-.49-.47-.1-.23-.09-.47-.01-.68m1.89,2.78c1.35-.59,1.97-2.16,1.39-3.51-.59-1.35-2.16-1.97-3.51-1.39s-1.97,2.16-1.39,3.51c.59,1.35,2.16,1.97,3.51,1.39m-1.88-9.94c-.09-.21-.1-.45-.01-.68.09-.23.27-.4.47-.49.21-.09.45-.1.68-.01.46.18.68.69.5,1.15-.09.23-.26.4-.47.49-.21.09-.45.1-.68.01-.23-.09-.4-.26-.49-.47m3.3.63c.54-1.37-.13-2.92-1.5-3.46-1.37-.54-2.92.13-3.46,1.5-.54,1.37.13,2.92,1.5,3.46,1.37.54,2.92-.13,3.46-1.5m-8.35-5.7c-.21-.08-.39-.25-.49-.47-.1-.23-.09-.47-.01-.68.08-.21.25-.39.47-.49.45-.19.97,0,1.17.46.1.22.09.47.01.68-.08.21-.25.39-.47.49-.23.1-.47.09-.68.01m2.78-1.89c-.59-1.35-2.16-1.97-3.51-1.39-1.35.59-1.97,2.16-1.39,3.51.59,1.35,2.16,1.97,3.51,1.39s1.97-2.16,1.39-3.51m-9.94,1.88c-.21.09-.45.1-.68.01-.23-.09-.4-.26-.49-.47-.09-.21-.1-.45-.01-.68.18-.46.69-.68,1.15-.5.23.09.4.27.49.47.09.21.1.45.01.68-.09.23-.27.4-.47.49m.63-3.3c-1.37-.54-2.92.13-3.46,1.5-.54,1.37.13,2.92,1.5,3.46,1.37.54,2.92-.13,3.46-1.5.54-1.37-.13-2.92-1.5-3.46m-5.7,8.35c-.08.21-.25.39-.47.49-.23.1-.47.09-.68.01s-.39-.25-.49-.47c-.19-.45,0-.97.46-1.17.22-.1.47-.09.68-.01.21.08.39.25.49.47.1.23.09.47.01.68m-1.89-2.78c-1.35.59-1.97,2.16-1.39,3.51.59,1.35,2.16,1.97,3.51,1.39s1.97-2.16,1.39-3.51c-.59-1.35-2.16-1.97-3.51-1.39m1.88,9.94c.09.21.1.45.01.68-.09.23-.27.4-.47.49-.21.09-.45.1-.68.01-.46-.18-.68-.69-.5-1.15.09-.23.27-.4.47-.49.21-.09.45-.1.68-.01.23.09.4.27.49.47m-3.3-.63c-.54,1.37.13,2.92,1.5,3.46,1.37.54,2.92-.13,3.46-1.5.54-1.37-.13-2.92-1.5-3.46-1.37-.54-2.92.13-3.46,1.5m8.35,5.7c.21.08.39.25.49.47.1.23.09.47.01.68-.08.21-.25.39-.47.49-.45.19-.97,0-1.17-.46-.1-.22-.09-.47-.01-.68.08-.21.25-.39.47-.49.23-.1.47-.09.68-.01m-2.78,1.89c.59,1.35,2.16,1.97,3.51,1.39,1.35-.59,1.97-2.16,1.39-3.51-.59-1.35-2.16-1.97-3.51-1.39-1.35.59-1.97,2.16-1.39,3.51m9.94-1.88c.21-.09.45-.1.68-.01.23.09.4.27.49.47.09.21.1.45.01.68-.18.46-.69.68-1.15.5-.23-.09-.4-.26-.49-.47-.09-.21-.1-.45-.01-.68.09-.23.27-.4.47-.49m-.63,3.3c1.37.54,2.92-.13,3.46-1.5.54-1.37-.13-2.92-1.5-3.46-1.37-.54-2.92.13-3.46,1.5-.54,1.37.13,2.92,1.5,3.46"/><path class="cls-2" d="m55.33,104.63h3.23v-16.76h-3.23v16.76Zm14.51-2.43v-6.65c0-.56-.06-1.08-.18-1.56-.12-.48-.34-.89-.67-1.23-.33-.35-.79-.61-1.39-.8-.6-.19-1.38-.28-2.35-.28-.61,0-1.19.07-1.73.2-.54.13-1.01.35-1.41.66-.4.31-.72.7-.95,1.2-.24.49-.35,1.11-.35,1.85v.3h2.91v-.35c0-.5.13-.91.38-1.2.25-.3.63-.45,1.13-.45.55,0,.94.14,1.16.41.23.27.34.65.34,1.14,0,.42-.09.75-.28.96s-.52.39-1.01.52l-1.83.49c-.56.16-1.04.34-1.44.54-.4.21-.73.46-.99.76-.26.31-.45.68-.58,1.11-.13.43-.19.94-.19,1.54,0,.42.06.85.17,1.28.11.43.28.82.52,1.16.23.35.55.62.94.81.39.2.87.29,1.43.29.78,0,1.42-.1,1.91-.29.49-.19.93-.62,1.3-1.27h.05c.05.22.1.44.15.66.06.22.14.44.25.64h3.1c-.16-.36-.26-.72-.32-1.05-.06-.33-.08-.79-.08-1.39m-3.11-1.38c0,.35-.06.64-.19.9-.13.25-.28.46-.48.61-.19.16-.41.27-.64.34-.23.07-.46.11-.68.11-.44,0-.75-.17-.94-.52-.19-.35-.28-.76-.28-1.25,0-.57.14-1.01.42-1.34.28-.33.75-.57,1.4-.71.2-.05.43-.12.68-.22.25-.1.48-.24.7-.41v2.5Zm17.59-8.81l-1.53,8.96h-.05l-1.67-8.96h-3.52l-1.57,8.96h-.05l-1.48-8.96h-3.24l2.75,12.62h3.76l1.57-8.96h.05l1.67,8.96h3.69l2.72-12.62h-3.1Z"/><path class="cls-3" d="m51.69,88.39h-3.23v3.62h-1.64v2.2h1.64v7.23c0,.64.04,1.17.12,1.6.08.42.22.76.43,1.02.21.26.52.43.91.52.4.09.91.13,1.53.13.38,0,.73-.01,1.07-.04.34-.02.68-.04,1.04-.04v-2.25c-.11.02-.23.03-.35.04-.13,0-.25.01-.38.01-.47,0-.78-.11-.93-.32-.15-.21-.22-.57-.22-1.07v-6.83h1.88v-2.2h-1.88v-3.62Zm-16.09,13.81v-6.65c0-.56-.06-1.09-.18-1.56-.12-.48-.34-.89-.67-1.23-.33-.35-.79-.61-1.39-.8-.6-.19-1.38-.28-2.35-.28-.61,0-1.19.07-1.73.2-.54.13-1.01.35-1.41.66-.4.31-.72.7-.95,1.2-.24.49-.35,1.11-.35,1.85v.31h2.91v-.35c0-.5.13-.9.38-1.2.25-.3.63-.45,1.13-.45.55,0,.94.14,1.16.41.23.27.34.65.34,1.14,0,.42-.09.75-.28.96-.19.22-.52.39-1.01.52l-1.83.49c-.56.16-1.04.34-1.44.54-.4.2-.73.46-.98.76-.26.31-.45.68-.58,1.11-.13.43-.19.94-.19,1.54,0,.42.06.85.17,1.28.11.43.28.82.52,1.16.23.34.55.62.94.81.39.2.87.29,1.43.29.78,0,1.42-.1,1.91-.29.49-.2.93-.62,1.3-1.27h.05c.05.22.1.44.15.66.06.22.14.44.25.64h3.1c-.16-.36-.26-.72-.32-1.05-.06-.33-.08-.79-.08-1.39m-3.11-1.38c0,.35-.06.64-.19.9-.13.25-.28.46-.48.61-.19.16-.41.27-.64.34-.23.07-.46.11-.68.11-.44,0-.75-.17-.94-.52-.19-.35-.28-.76-.28-1.25,0-.57.14-1.01.42-1.34.28-.33.75-.56,1.4-.71.2-.05.43-.12.68-.22.25-.1.48-.24.7-.41v2.5Zm7.87-5.73c.13-.35.32-.62.57-.8.25-.18.58-.27.97-.27.32,0,.57.07.76.22.19.15.33.34.44.59.1.24.17.51.21.81.04.3.06.6.06.92h3.11c0-1.5-.38-2.69-1.14-3.57-.76-.88-1.89-1.32-3.4-1.32-.75,0-1.44.1-2.07.31-.63.2-1.17.56-1.62,1.07-.45.51-.81,1.19-1.06,2.04-.25.85-.38,1.93-.38,3.23s.1,2.33.31,3.18c.2.85.5,1.54.91,2.05.4.51.9.86,1.5,1.06.6.2,1.31.29,2.13.29,1.72,0,2.96-.43,3.7-1.3.74-.87,1.12-2.13,1.12-3.79h-3.11c0,1.03-.13,1.79-.38,2.25-.25.47-.65.7-1.2.7-.36,0-.66-.08-.88-.25-.23-.16-.41-.43-.53-.79-.13-.36-.21-.82-.26-1.38-.05-.56-.07-1.23-.07-2.01,0-.74.02-1.38.07-1.92.05-.54.13-.99.26-1.34m54.33,2.28l-1.95-.66c-.55-.17-.92-.38-1.12-.63-.2-.25-.29-.53-.29-.85,0-.45.15-.8.46-1.02.31-.23.66-.34,1.07-.34.53,0,.91.15,1.12.46.21.31.32.79.32,1.45h2.91v-.52c0-1.14-.35-2.03-1.06-2.65-.71-.63-1.79-.94-3.27-.94-.83,0-1.54.1-2.13.31-.59.2-1.07.48-1.45.82-.38.35-.65.75-.82,1.21-.17.46-.26.95-.26,1.47,0,.89.23,1.63.68,2.2.45.57,1.13,1.02,2.02,1.33l2.28.82c.31.13.59.29.82.51.24.21.35.52.35.93,0,.5-.15.88-.45,1.13-.3.25-.7.38-1.2.38-.55,0-.97-.17-1.26-.51-.29-.34-.44-.79-.44-1.34v-.43h-2.91v.45c0,.61.07,1.17.21,1.66.14.49.39.91.74,1.26.35.35.83.6,1.44.78.6.17,1.36.26,2.27.26.69,0,1.32-.07,1.89-.21.57-.14,1.07-.38,1.48-.71.42-.33.74-.74.98-1.23.24-.49.35-1.08.35-1.75,0-.96-.21-1.71-.63-2.27-.42-.56-1.15-1.01-2.16-1.35m12.9-4.06c-.38-.56-.89-.98-1.53-1.26-.64-.27-1.45-.4-2.42-.39-.92,0-1.7.14-2.34.43-.63.29-1.15.71-1.54,1.27-.39.56-.67,1.25-.85,2.08-.17.83-.26,1.79-.26,2.87s.08,2.06.23,2.9c.16.84.42,1.54.8,2.09.37.56.88.96,1.53,1.22.64.26,1.45.38,2.42.36.92,0,1.7-.13,2.34-.4.63-.27,1.15-.68,1.54-1.23.39-.56.67-1.25.85-2.08.17-.83.26-1.79.26-2.87s-.08-2.08-.24-2.91c-.16-.83-.42-1.53-.8-2.09m-2.58,8.42c-.25.69-.71,1.04-1.37,1.04-.39,0-.71-.11-.95-.33-.24-.22-.41-.53-.53-.92-.12-.39-.19-.86-.22-1.41-.03-.55-.05-1.15-.05-1.79s.02-1.24.05-1.79c.03-.55.1-1.02.22-1.41.12-.39.29-.7.53-.92.24-.22.55-.33.95-.33.66,0,1.12.35,1.37,1.04.25.69.38,1.83.38,3.42s-.13,2.73-.38,3.42m8.43-6.65c.13-.35.32-.62.57-.8.25-.18.57-.27.97-.27.32,0,.57.07.76.22.19.15.33.34.44.59.1.24.17.51.21.81.04.3.06.6.06.92h3.11c0-1.5-.38-2.69-1.14-3.57-.76-.88-1.89-1.32-3.4-1.32-.75,0-1.44.1-2.07.31-.63.2-1.17.56-1.62,1.07-.46.51-.81,1.19-1.06,2.05-.25.85-.38,1.93-.38,3.23s.1,2.33.31,3.19c.2.85.5,1.54.9,2.04.4.51.9.86,1.5,1.06.6.19,1.31.29,2.13.29,1.72,0,2.96-.43,3.7-1.3.74-.87,1.12-2.13,1.12-3.79h-3.11c0,1.03-.13,1.79-.38,2.25-.25.47-.65.7-1.2.7-.36,0-.66-.08-.89-.25-.23-.17-.41-.43-.53-.79-.13-.36-.21-.82-.26-1.38-.05-.56-.07-1.23-.07-2.01,0-.74.02-1.38.07-1.92s.13-.99.26-1.34m7.9-4.64h3.23v-2.76h-3.23v2.76Zm0,14.19h3.23v-12.62h-3.23v12.62Zm13.82-11.21c-.34-.56-.82-.99-1.42-1.29-.6-.3-1.37-.46-2.31-.46-1.1,0-1.98.18-2.63.54-.66.36-1.16.85-1.52,1.46-.35.61-.59,1.31-.71,2.09-.12.78-.18,1.6-.18,2.44,0,.8.03,1.6.11,2.4.07.8.26,1.52.57,2.16.31.64.8,1.16,1.46,1.55.66.39,1.57.59,2.75.59,1.55,0,2.69-.38,3.41-1.15.72-.77,1.11-1.88,1.17-3.35h-2.91c-.09.8-.27,1.39-.52,1.79-.25.39-.65.59-1.2.59-.3,0-.55-.08-.76-.25-.2-.17-.37-.39-.5-.66-.13-.28-.21-.59-.27-.94-.06-.35-.08-.72-.08-1.1v-1.01h6.43v-.73c0-.97-.06-1.85-.19-2.64-.13-.79-.36-1.46-.71-2.02m-5.54,3.46v-.49c0-.3.03-.59.08-.89.06-.3.14-.57.27-.81.13-.24.3-.44.51-.59.21-.15.48-.22.81-.22s.6.07.81.2c.21.13.38.33.5.59.12.26.2.57.25.94.05.37.08.8.09,1.28h-3.33Zm12.05-8.49h-3.23v3.62h-1.64v2.2h1.64v7.23c0,.64.04,1.17.12,1.6.08.42.22.76.43,1.02.21.26.51.43.91.52.4.09.91.13,1.53.13.38,0,.73-.01,1.07-.04.34-.02.69-.04,1.04-.04v-2.25c-.11.02-.23.03-.35.03-.13,0-.25.01-.38.01-.47,0-.78-.11-.93-.32-.15-.21-.22-.57-.22-1.07v-6.83h1.88v-2.2h-1.88v-3.62Zm9,3.62l-1.64,8.73h-.05l-1.88-8.73h-3.38l3.55,12.62c-.05.52-.2.93-.46,1.24-.26.31-.68.47-1.28.47-.28,0-.56-.02-.85-.07v2.42h1.32c.75,0,1.37-.06,1.87-.16.49-.11.92-.34,1.27-.69.35-.35.66-.85.92-1.5.26-.65.53-1.5.81-2.55l3.05-11.78h-3.24Z"/></svg>