<?xml version="1.0" encoding="UTF-8"?><svg id="Layer_1" xmlns="http://www.w3.org/2000/svg" xmlns:xlink="http://www.w3.org/1999/xlink" viewBox="0 0 300 134.98"><defs><style>.cls-1{clip-path:url(#clippath);}.cls-2{fill:none;}.cls-2,.cls-3,.cls-4,.cls-5,.cls-6,.cls-7,.cls-8,.cls-9{stroke-width:0px;}.cls-3{fill:url(#linear-gradient);}.cls-10{clip-path:url(#clippath-1);}.cls-4{fill:url(#linear-gradient-2);}.cls-5{fill:url(#linear-gradient-3);}.cls-6{fill:#262626;}.cls-7{fill:#444;}.cls-8{fill:#8f8f8f;}.cls-9{fill:#fff;}</style><clipPath id="clippath"><rect class="cls-2" x="232.55" y="26.1" width="20.13" height="19.45"/></clipPath><linearGradient id="linear-gradient" x1="245.51" y1="590.56" x2="245.51" y2="570.63" gradientTransform="translate(0 617.83) scale(1 -1)" gradientUnits="userSpaceOnUse"><stop offset="0" stop-color="#787878"/><stop offset="1" stop-color="#3f3f3f"/></linearGradient><linearGradient id="linear-gradient-2" x1="240.69" y1="585.68" x2="240.69" y2="572.28" gradientTransform="translate(0 617.83) scale(1 -1)" gradientUnits="userSpaceOnUse"><stop offset=".33" stop-color="#a6a6a6"/><stop offset=".91" stop-color="#8e8e8e"/></linearGradient><linearGradient id="linear-gradient-3" x1="232.55" y1="585.1" x2="245.88" y2="585.1" gradientTransform="translate(0 617.83) scale(1 -1)" gradientUnits="userSpaceOnUse"><stop offset="0" stop-color="#929292"/><stop offset="1" stop-color="#c6c6c6"/></linearGradient><clipPath id="clippath-1"><rect class="cls-2" x="183.66" y="87.41" width="62.55" height="21.55"/></clipPath></defs><g id="rcPyeF.tif"><path class="cls-7" d="m69.91,110.73c-.39,0-.77,0-1.16,0-.27,0-.54,0-.81-.03-.15-.01-.31-.03-.46-.07-.1-.03-.2-.02-.3-.05-.18-.04-.37-.06-.55-.11-.26-.07-.52-.11-.78-.2-.15-.05-.31-.09-.46-.14-.23-.08-.46-.15-.69-.24-.34-.14-.69-.28-1.02-.45-.48-.24-.94-.52-1.38-.83-.32-.23-.62-.47-.9-.73-.42-.39-.8-.81-1.15-1.27-.37-.49-.68-1.02-.93-1.57-.12-.27-.23-.54-.32-.82-.07-.21-.14-.43-.2-.64-.04-.14-.07-.28-.09-.42-.03-.14-.05-.27-.08-.41-.03-.13-.04-.27-.05-.4-.06-.59-.06-1.19-.03-1.78.01-.25.04-.51.08-.76.04-.26.09-.52.15-.78.06-.26.12-.52.19-.78.08-.29.18-.57.28-.85.11-.31.24-.61.37-.9.14-.32.3-.64.47-.95.23-.42.47-.84.74-1.24.43-.63.89-1.24,1.4-1.82.34-.39.7-.76,1.07-1.13.46-.45.94-.87,1.45-1.27.64-.51,1.31-.98,2.01-1.41.57-.35,1.14-.67,1.74-.97.41-.2.82-.39,1.24-.57.39-.17.78-.32,1.18-.46.28-.1.57-.2.86-.28.22-.07.44-.14.67-.2.2-.05.39-.1.59-.15.2-.04.4-.1.61-.14.14-.03.27-.06.41-.08.2-.03.4-.07.59-.1.14-.02.27-.05.41-.06.29-.03.59-.07.88-.06.05,0,.11,0,.16,0,.82,0,1.64,0,2.46,0,.21,0,.43,0,.64.03.17.02.35.04.52.07.18.03.37.06.56.09.12.02.24.05.36.07.14.03.27.06.41.1.3.08.6.16.89.26.29.1.58.19.86.31.7.29,1.37.64,1.99,1.07.43.3.83.62,1.21.97.3.28.58.59.83.91.34.42.63.88.89,1.36.2.38.37.78.52,1.19.08.24.15.48.22.72.07.24.11.48.15.72.06.36.11.73.11,1.1,0,.1.02.2.02.29,0,.33-.02.66-.03.98,0,.17-.02.34-.05.51-.05.28-.09.56-.15.83-.06.27-.12.54-.19.81-.06.21-.13.42-.2.63-.1.29-.2.57-.32.85-.23.55-.5,1.09-.8,1.61-.41.72-.88,1.39-1.39,2.04-.5.64-1.05,1.23-1.63,1.8-.48.47-.99.91-1.52,1.33-.58.46-1.19.89-1.82,1.28-.47.3-.96.58-1.45.84-.43.23-.87.44-1.32.64-.41.18-.83.36-1.26.51-.31.11-.63.23-.95.32-.25.07-.5.15-.75.22-.18.05-.36.1-.54.15-.3.07-.6.14-.9.2-.11.02-.23.04-.35.07-.1.03-.21.04-.31.05-.24.03-.48.07-.72.1-.3.04-.6.05-.91.05-.43,0-.86,0-1.29,0Zm0-.33c.34,0,.69,0,1.03-.02.28-.02.55-.06.83-.06.01,0,.03,0,.04,0,.19-.05.4-.05.59-.08.19-.03.39-.06.58-.09.14-.03.29-.05.43-.08.21-.05.43-.08.64-.14.19-.05.38-.1.57-.15.23-.06.46-.12.69-.2.32-.1.63-.21.95-.32.33-.12.65-.24.97-.37.41-.17.82-.36,1.22-.56.53-.27,1.05-.54,1.55-.85.36-.22.71-.44,1.06-.68.33-.23.66-.46.98-.71.49-.37.95-.77,1.4-1.19.43-.4.83-.82,1.22-1.26.43-.49.83-1,1.21-1.54.26-.37.5-.75.72-1.13.24-.41.45-.84.65-1.27.18-.4.34-.81.48-1.23.09-.28.17-.56.25-.85.06-.24.12-.48.16-.72.03-.19.06-.38.09-.57.04-.2.06-.41.07-.61.02-.51.04-1.02-.03-1.52-.03-.23-.06-.47-.1-.7-.04-.23-.09-.46-.15-.68-.08-.31-.18-.62-.3-.92-.13-.33-.28-.65-.45-.96-.31-.56-.67-1.07-1.09-1.55-.51-.57-1.09-1.06-1.73-1.49-.3-.2-.62-.39-.95-.56-.25-.13-.5-.25-.76-.36-.2-.08-.39-.16-.59-.23-.19-.07-.39-.14-.59-.2-.24-.08-.49-.14-.74-.2-.14-.04-.28-.07-.42-.1-.13-.02-.26-.04-.38-.07-.19-.04-.39-.06-.58-.1-.27-.04-.54-.06-.82-.08-.4-.03-.8-.05-1.2-.05-.31,0-.61,0-.92.03-.31.02-.62.04-.93.06,0,0-.02,0-.02,0-.28.04-.56.08-.84.12-.22.03-.44.06-.65.11-.24.05-.47.1-.71.15-.27.06-.53.13-.8.19-.23.05-.45.14-.68.2-.35.1-.69.22-1.03.35-.41.15-.82.31-1.22.49-.56.25-1.11.52-1.65.82-.47.26-.93.53-1.38.82-.32.21-.63.42-.94.65-.6.44-1.18.91-1.73,1.42-.64.59-1.24,1.22-1.79,1.9-.3.37-.59.76-.87,1.16-.27.4-.53.81-.76,1.24-.23.43-.45.86-.64,1.32-.11.27-.22.53-.31.81-.09.27-.18.55-.25.83-.05.21-.11.43-.16.64-.03.15-.07.3-.09.46-.02.16-.04.32-.06.49-.04.32-.05.64-.06.97,0,.23,0,.46.01.69.01.35.06.69.12,1.04.04.22.09.45.15.67.09.33.19.66.32.97.19.47.42.93.69,1.36.3.47.65.92,1.04,1.32.41.42.85.8,1.33,1.13.35.24.72.47,1.1.67.33.17.67.33,1.02.47.28.11.57.21.85.3.29.1.59.18.89.25.22.05.45.1.67.14.4.07.8.14,1.2.17.02,0,.04,0,.06,0,.24.05.49.04.73.06.26.02.53,0,.79,0Z"/><path class="cls-7" d="m59.46,101.24c0-.26,0-.53.03-.79.03-.23.04-.46.09-.69.05-.25.09-.5.15-.74.05-.18.09-.36.14-.54.06-.21.13-.41.2-.62.09-.28.21-.55.32-.82.11-.27.24-.53.37-.78.33-.66.72-1.28,1.15-1.88.28-.39.57-.76.88-1.13.41-.47.84-.93,1.29-1.36.34-.32.69-.63,1.05-.92.37-.31.76-.59,1.15-.87.52-.36,1.05-.7,1.6-1.01.48-.28.98-.53,1.48-.77.48-.23.97-.43,1.46-.62.35-.13.7-.26,1.06-.36.22-.06.44-.15.66-.2.19-.05.38-.1.57-.14.22-.05.44-.11.67-.15.12-.03.25-.05.37-.07.19-.03.37-.07.56-.09.17-.02.33-.06.5-.07.18,0,.35-.05.52-.06.17-.01.34-.03.51-.04.65-.05,1.3-.03,1.94-.01.21,0,.43.02.64.06.02,0,.03,0,.05,0,.2,0,.4.05.6.07.19.02.38.07.57.1.12.02.24.05.36.07.2.04.4.09.59.15.16.05.32.09.48.14.48.15.95.33,1.41.55.44.21.87.45,1.28.72.6.41,1.16.88,1.64,1.43.39.44.72.91,1.01,1.43.2.36.36.73.5,1.11.1.27.18.56.25.84.04.16.07.33.1.49.02.13.03.27.06.4,0,.02.01.05.02.07.04.51.09,1.02.04,1.53-.01.14-.01.29-.03.43-.03.17-.04.34-.07.51-.03.17-.06.34-.09.51-.04.21-.09.42-.15.63-.06.23-.13.46-.21.69-.07.2-.14.41-.23.61-.14.33-.28.67-.45.99-.41.81-.89,1.58-1.44,2.31-.4.53-.83,1.03-1.29,1.51-.32.34-.66.66-1,.97-.35.32-.72.62-1.1.92-.49.38-.99.73-1.51,1.06-.57.36-1.15.69-1.75,1-.38.19-.76.37-1.15.54-.31.13-.62.26-.93.37-.18.06-.35.13-.53.19-.15.05-.31.11-.47.15-.14.03-.27.09-.41.13-.2.06-.41.11-.61.17-.28.08-.56.14-.85.2-.37.08-.74.14-1.11.2-.18.03-.36.05-.55.07-.24.04-.49.04-.73.07-.24.03-.48.01-.72.03-.21.02-.43.02-.64.01-.46-.01-.92-.02-1.37-.07-.23-.02-.46-.05-.69-.09-.18-.03-.36-.05-.53-.09-.12-.03-.25-.05-.37-.08-.2-.05-.4-.09-.59-.15-.16-.05-.31-.09-.47-.14-.39-.12-.77-.27-1.14-.43-.33-.14-.65-.3-.96-.48-.53-.31-1.04-.66-1.5-1.08-.53-.48-1-1-1.39-1.6-.26-.4-.48-.81-.66-1.25-.12-.29-.22-.58-.31-.88-.05-.19-.11-.39-.15-.58-.03-.14-.05-.29-.08-.43-.03-.17-.04-.35-.06-.52-.04-.26-.03-.53-.03-.8Zm13.78-4.96c.12,0,.24,0,.36,0,.1,0,.1,0,.1-.1,0-.15-.05-.29-.09-.43-.12-.43-.39-.74-.78-.95-.36-.19-.74-.25-1.13-.28-.25-.02-.5-.01-.75.03-.33.05-.65.14-.93.31-.3.18-.54.41-.66.74-.1.27-.13.53-.07.82.06.32.22.57.46.77.19.16.41.26.64.34.37.13.75.21,1.14.29.24.05.49.1.72.18.16.05.31.12.45.22.27.21.35.53.23.86-.07.19-.22.31-.4.4-.26.12-.53.15-.81.17-.28.02-.57-.02-.84-.1-.24-.07-.46-.19-.62-.4-.12-.15-.17-.33-.2-.52,0-.06-.02-.09-.09-.09-.25,0-.5,0-.75,0-.07,0-.08.03-.08.09,0,.18.04.35.1.52.12.39.36.69.7.91.41.27.88.36,1.36.39.46.03.91-.02,1.36-.16.31-.1.6-.24.83-.47.18-.18.31-.38.39-.63.09-.26.09-.53.06-.79-.03-.26-.15-.5-.34-.69-.22-.22-.48-.35-.77-.46-.21-.07-.42-.13-.63-.18-.22-.05-.44-.1-.66-.15-.23-.05-.45-.1-.67-.18-.18-.07-.35-.15-.49-.3-.2-.23-.19-.57,0-.78.16-.18.37-.25.59-.29.27-.05.55-.07.83-.01.14.03.28.06.41.12.23.11.41.27.5.52.02.07.03.14.06.21.02.06.04.07.09.07.12,0,.25,0,.37,0Zm5.33,2.94c.02.07.01.13,0,.19,0,.15,0,.3.05.45.05.19.16.32.34.39.16.06.32.06.48.05.24-.02.24.02.23-.27,0,0,0,0,0-.01,0-.07-.02-.09-.09-.08-.09.01-.18.01-.27,0-.13,0-.23-.09-.28-.22-.04-.11-.03-.22-.03-.33,0-1.05,0-2.1,0-3.15,0-.18,0-.35-.03-.53-.04-.28-.16-.51-.35-.71-.25-.25-.56-.37-.89-.43-.29-.05-.59-.08-.89-.06-.27.02-.54.05-.79.14-.28.1-.53.25-.73.47-.22.24-.34.53-.4.84-.02.11-.05.21-.05.33,0,.06.02.09.09.09.08,0,.16,0,.23,0,.09,0,.1-.01.11-.1,0-.14.04-.28.08-.42.07-.21.19-.4.35-.55.27-.26.61-.39.97-.42.28-.03.56-.03.83.03.35.08.65.23.86.52.11.14.2.3.2.49,0,.17,0,.34-.01.5-.02.22-.12.38-.33.48-.19.09-.39.12-.59.15-.28.04-.57.06-.85.09-.38.03-.76.07-1.12.19-.25.08-.47.2-.67.37-.24.22-.37.5-.42.82-.05.34-.03.67.1.99.13.33.37.56.69.71.33.15.68.17,1.03.21.1,0,.19-.02.28-.02.28-.02.54-.08.79-.19.44-.19.8-.49,1.02-.93.02-.03.02-.07.07-.09Zm-10.91,0s.02,0,.03,0c0,.08,0,.15,0,.23,0,.16.01.32.07.47.07.21.23.32.44.36.17.03.33.02.5,0,.06,0,.09-.04.09-.09,0-.05,0-.11,0-.16,0-.09,0-.09-.09-.09-.09,0-.17,0-.26,0-.14,0-.24-.1-.29-.22-.04-.12-.05-.24-.05-.36,0-1.12,0-2.23,0-3.35,0-.17-.02-.33-.07-.5-.07-.23-.19-.41-.37-.56-.23-.2-.51-.31-.81-.36-.3-.05-.6-.09-.9-.06-.28.02-.55.05-.82.14-.27.1-.51.24-.7.45-.23.25-.36.54-.42.87-.02.1-.05.21-.05.32,0,.06.01.09.07.08.09,0,.17,0,.26,0,.06,0,.08-.02.09-.08.02-.15.04-.29.09-.43.09-.26.24-.48.46-.65.25-.2.55-.31.87-.34.28-.03.56-.03.84.03.34.08.63.23.84.51.11.14.19.29.21.48.02.19,0,.39-.02.57-.03.19-.13.34-.32.43-.19.09-.39.13-.59.16-.29.04-.59.06-.88.08-.38.03-.75.07-1.11.19-.26.09-.5.21-.69.4-.22.23-.35.49-.39.81-.04.33-.02.65.1.96.13.33.37.56.68.7.33.15.68.2,1.04.21.31,0,.62-.04.92-.15.27-.1.51-.23.73-.41.21-.19.38-.41.5-.67Zm2.74,5.83c0,.09,0,.19,0,.28-.01.1-.11.18-.21.2-.09.02-.18.02-.26,0-.08-.01-.14-.05-.16-.11-.02-.06-.06-.07-.11-.07-.04,0-.08,0-.12,0-.07,0-.08.02-.06.08.03.13.11.21.23.26.17.08.35.1.54.06.33-.07.46-.26.47-.53.01-.4,0-.8,0-1.21,0-.02,0-.06,0-.07-.06-.07-.15-.03-.22-.03-.04,0-.07.02-.07.07,0,.02,0,.05-.03.07-.05-.03-.08-.08-.14-.11-.23-.13-.56-.03-.71.18-.16.23-.15.48-.08.74.11.4.67.52.91.22,0,0,.01-.02.04-.01Zm3.19.06c.06,0,.07.03.09.05.3.22.75.13.88-.28.05-.17.06-.33.03-.5-.04-.22-.15-.41-.38-.48-.21-.07-.4-.06-.57.1-.02.02-.03.04-.06.04,0,0-.01-.01-.01-.02q-.02-.12-.15-.12s-.04,0-.06,0c-.04,0-.06.02-.06.06,0,.04,0,.07,0,.11,0,.29,0,.58,0,.87,0,.23,0,.45,0,.68,0,.11,0,.12.11.12.2,0,.19.01.19-.19,0-.14,0-.28,0-.43Zm1.5-1.08s0-.08,0-.12c0-.14,0-.29,0-.43,0-.03,0-.08-.03-.08-.07-.01-.15-.02-.22,0-.03,0-.04.03-.04.06,0,.03,0,.07,0,.1,0,.5,0,.99,0,1.49,0,.21-.03.19.19.19.1,0,.1,0,.1-.11,0-.21,0-.43,0-.64,0-.07.01-.14.04-.2.06-.14.2-.21.36-.18.12.02.19.12.19.28,0,.03,0,.06,0,.09,0,.19,0,.39,0,.58,0,.21-.04.19.2.19.07,0,.08-.03.08-.09,0-.28,0-.57,0-.85,0-.14-.05-.28-.18-.35-.2-.11-.39-.11-.59.03-.03.02-.05.06-.1.06Zm-2.13.52h0c0-.1,0-.2,0-.3,0-.17-.07-.27-.23-.34-.18-.08-.36-.07-.54-.03-.17.04-.29.15-.35.32-.03.07-.01.12.07.11.04,0,.07,0,.11,0,.06,0,.1-.01.11-.07,0-.04.03-.07.06-.09.1-.08.31-.08.42-.01.05.03.07.06.07.12,0,.1-.04.16-.16.18-.12.01-.23.04-.35.05-.07,0-.14.03-.2.06-.19.1-.26.28-.17.49.06.15.2.21.35.24.17.02.33,0,.47-.1.05-.04.07-.02.11.02.07.08.23.12.32.08.05-.02.07-.06.07-.12,0-.04,0-.08-.05-.08-.09,0-.11-.08-.11-.15,0-.12,0-.24,0-.36Zm4.42.29c-.08-.02-.15-.01-.21-.01-.03,0-.05,0-.07.04-.07.17-.31.23-.5.12-.1-.05-.16-.15-.16-.28,0-.04.02-.07.07-.07.03,0,.06,0,.09,0,.23,0,.45,0,.68,0,.14,0,.14,0,.14-.13,0-.18-.06-.33-.18-.46-.22-.25-.63-.27-.87-.04-.24.23-.27.51-.19.8.11.41.57.55.92.38.15-.07.26-.18.28-.36Zm-11.74.43c.41,0,.69-.28.68-.7,0-.45-.24-.71-.68-.71-.43,0-.66.27-.67.71,0,.39.27.71.67.7Zm2.91,0c.28,0,.5-.13.61-.39.07-.16.09-.33.04-.51-.06-.23-.19-.39-.42-.47-.05-.02-.1-.02-.16-.03-.19-.02-.38.01-.52.15-.2.18-.25.42-.22.69.04.32.31.59.67.57Zm10.55,0c.18.01.32-.04.46-.13.21-.14.21-.5-.04-.61-.04-.02-.07-.03-.11-.05-.12-.04-.24-.05-.36-.09-.06-.02-.11-.03-.16-.07-.07-.06-.07-.14.01-.2.12-.09.35-.06.43.07.03.05.07.07.12.06.04,0,.08,0,.12,0,.08,0,.1-.03.07-.1-.04-.09-.1-.18-.2-.22-.25-.12-.51-.12-.75.03-.22.14-.2.43.02.57.06.04.12.05.18.07.12.04.25.05.37.09.09.03.14.08.14.16,0,.09-.02.12-.13.15-.03.01-.07.02-.11.03-.15.02-.27-.04-.34-.18-.02-.04-.05-.06-.1-.06-.04,0-.07,0-.11,0-.08,0-.1.02-.08.11.03.11.09.2.18.25.12.07.25.12.39.1Zm-14.87,0s.08,0,.12,0c.14-.02.28-.06.38-.18.16-.19.12-.42-.06-.53-.1-.06-.21-.1-.32-.11-.1-.02-.2-.04-.3-.08-.1-.04-.13-.16-.05-.22.12-.09.35-.06.44.06.02.03.04.06.08.06.07,0,.13,0,.2,0,.04,0,.05-.02.04-.06-.04-.13-.12-.23-.25-.28-.21-.09-.43-.08-.63.01-.13.06-.22.16-.22.31,0,.13.06.23.17.3.11.07.24.09.36.12.1.02.2.03.28.1.09.07.07.2-.03.24-.06.02-.14.05-.2.04-.12,0-.25-.02-.3-.16-.01-.03-.03-.07-.07-.07-.06,0-.12,0-.18,0-.04,0-.06.02-.05.07.03.12.08.22.19.29.12.07.25.11.4.1Zm2.59-1.22s-.01-.03-.02-.04q-.02-.1-.13-.1s-.02,0-.04,0c-.12,0-.12,0-.12.13,0,.34,0,.67,0,1.01,0,.21-.04.19.2.19.1,0,.1,0,.1-.1,0-.24,0-.48,0-.71,0-.14.07-.23.19-.29.17-.09.33-.01.39.17.02.05.02.1.02.16,0,.2,0,.4,0,.6,0,.2-.04.18.2.18.06,0,.08-.03.08-.08,0-.31,0-.61,0-.92,0-.04-.01-.08-.03-.12-.11-.26-.5-.32-.72-.15-.04.03-.06.07-.12.09Zm-2.27-1.06c.06.17.18.22.32.17.06-.02.05-.07.05-.11,0-.04-.02-.06-.06-.06-.07,0-.08-.04-.08-.1,0-.03,0-.06,0-.09,0-.21,0-.42,0-.63,0-.16-.06-.3-.21-.35-.21-.07-.44-.07-.64.03-.1.05-.17.14-.2.25-.01.04-.02.09.03.12.06.04.16,0,.18-.07.03-.1.1-.16.2-.17.08-.01.16-.01.23,0,.05,0,.1.03.13.06.06.05.07.12.06.19-.01.06-.06.09-.12.11-.08.02-.17.04-.25.05-.12.02-.24.05-.35.1-.21.09-.23.5-.02.62.11.06.24.08.37.07.15-.02.27-.08.38-.18Zm5.5,0s.02.05.03.07c.06.11.17.14.28.1.05-.02.05-.05.05-.09,0-.03.01-.08-.03-.08-.11,0-.1-.07-.1-.14,0-.24,0-.48,0-.71,0-.17-.1-.29-.27-.33-.15-.04-.3-.03-.45,0-.18.04-.29.16-.34.33-.01.03-.01.07.02.09.04.03.1.01.14.01.04,0,.04-.04.05-.06.04-.13.14-.19.28-.2.08,0,.16,0,.24.03.08.03.13.12.12.21-.01.08-.07.11-.14.13-.08.02-.17.03-.25.04-.12.02-.23.05-.34.1-.22.11-.23.47-.05.6.12.09.25.11.39.09.15-.01.27-.07.38-.18Zm-5.49,4.17c.01.09.03.15.1.18.06.02.13.01.2,0,.06,0,.06-.06.06-.1,0-.05-.02-.07-.07-.07-.06,0-.08-.03-.08-.09,0-.03,0-.06,0-.09,0-.21,0-.43,0-.64,0-.18-.08-.31-.23-.35-.21-.06-.42-.07-.62.03-.11.05-.17.15-.21.26-.01.03-.02.07.01.09.05.03.1.02.16.01.04,0,.04-.03.05-.06.02-.06.06-.12.12-.14.12-.04.25-.05.37-.01.09.03.13.1.13.2,0,.08-.04.11-.14.14-.14.05-.28.04-.42.08-.26.07-.35.2-.34.42.01.16.14.31.3.32.22.02.43,0,.61-.18Zm10.57-4.7h0c0-.11,0-.23,0-.34.01-.16-.12-.28-.25-.31-.16-.04-.32-.04-.49,0-.15.04-.25.13-.31.27-.02.04-.04.1.01.14.04.03.1.02.14.01.04,0,.04-.04.05-.07.02-.09.08-.14.16-.17.1-.03.2-.03.3,0,.04,0,.08.03.11.06.08.08.07.25-.03.28-.08.02-.15.05-.24.06-.12,0-.24.05-.36.08-.17.05-.22.19-.23.33,0,.14.05.26.19.33.1.05.21.06.32.05.11-.01.21-.05.3-.11.08-.06.09-.05.14.03.06.1.2.1.27.06.04-.02.04-.06.04-.1,0-.03,0-.07-.04-.07-.11,0-.1-.09-.11-.16,0-.12,0-.25,0-.37Zm-2.98.04c0-.11,0-.21,0-.32.02-.21-.14-.35-.34-.37-.1,0-.2,0-.3,0-.13,0-.24.06-.32.16-.04.05-.08.1-.09.17,0,.04-.02.09.04.1.08.02.16,0,.17-.06.01-.06.04-.1.08-.13.1-.08.36-.08.47-.01.1.07.1.23-.01.3-.04.03-.08.04-.13.04-.12,0-.22.04-.34.06-.07.01-.15.05-.21.09-.19.13-.2.46,0,.59.08.05.17.08.27.08.16,0,.3-.04.42-.13.06-.05.06-.04.1.03.06.1.15.14.26.1.04-.02.07-.04.07-.09,0-.04,0-.08-.04-.09-.1-.01-.1-.08-.1-.15,0-.12,0-.24,0-.36Zm-.41,4.69s.02.06.04.09c.01.03.03.06.07.07.07.02.14.02.21,0,.05-.01.05-.06.05-.1,0-.04,0-.07-.05-.07-.08,0-.09-.05-.09-.12,0-.02,0-.05,0-.07,0-.21,0-.41,0-.62,0-.23-.09-.34-.31-.39-.16-.03-.32-.03-.47.03-.14.06-.24.16-.28.32,0,.02-.01.05.02.07.05.02.11.01.16,0,.04,0,.04-.04.05-.07.02-.06.06-.12.12-.14.12-.04.25-.05.37,0,.08.03.13.11.13.2,0,.07-.05.11-.15.14-.14.04-.29.04-.43.08-.24.07-.35.21-.32.46.02.14.14.26.27.28.22.02.43.02.6-.15,0,0,.01,0,.03,0Zm-3.51.17c.31.02.53-.17.61-.43.04-.13.04-.26.02-.4-.06-.5-.55-.66-.93-.49-.19.09-.3.25-.34.46-.03.16-.02.31.03.46.08.22.26.42.61.4Zm5.83,0s.06,0,.09,0c.23,0,.39-.13.49-.33.1-.21.09-.43.02-.66-.14-.42-.7-.49-.98-.27-.13.1-.19.24-.24.4-.05.18-.02.34.04.49.1.26.3.4.59.38Zm-1.12-5.54c-.11,0-.24,0-.35.09-.16.11-.21.27-.12.45.04.08.12.12.2.16.11.05.23.07.35.09.08.01.15.04.21.09.11.08.07.26-.03.29-.16.06-.32.07-.47-.02-.05-.03-.08-.06-.1-.11-.04-.09-.05-.09-.14-.09-.08,0-.1.02-.08.1.03.15.13.25.27.3.19.07.38.07.56,0,.16-.06.28-.19.29-.35,0-.15-.08-.28-.24-.35-.09-.04-.19-.07-.29-.08-.09-.01-.18-.04-.27-.09-.06-.03-.07-.09-.07-.15,0-.06.03-.1.09-.12.1-.04.21-.05.31-.02.07.02.14.05.17.14.02.07.17.09.22.04,0,0,.01-.02,0-.03-.04-.11-.07-.21-.18-.28-.11-.06-.21-.07-.35-.08Zm-6.08-.03c-.12,0-.23.02-.33.07-.14.07-.2.18-.2.32,0,.15.09.24.22.29.09.04.18.06.27.08.08.02.17.04.25.07.08.03.13.08.13.18,0,.09-.05.14-.13.17-.13.04-.26.04-.38,0-.07-.03-.12-.07-.15-.14-.03-.11-.07-.09-.16-.09-.06,0-.07.03-.07.08.02.1.06.19.14.26.1.08.21.11.33.11.19.01.37,0,.52-.13.18-.14.17-.45-.02-.56-.09-.06-.19-.09-.3-.11-.1-.02-.2-.05-.3-.08-.04-.01-.07-.03-.09-.06-.06-.06-.05-.18.02-.22.14-.07.28-.07.43,0,.04.02.08.05.08.09.02.1.08.09.16.09.05,0,.07-.02.07-.07,0-.06-.02-.12-.06-.17-.12-.14-.28-.17-.44-.18Zm-1.32,5.57c.15,0,.27,0,.38-.05.12-.07.22-.16.23-.31.01-.19-.08-.31-.25-.37-.12-.04-.25-.06-.37-.09-.06-.02-.13-.03-.18-.07-.1-.08-.09-.21.02-.26.11-.04.22-.04.33-.01.09.02.13.08.17.15.03.05.16.08.21.05.02-.01.02-.03.02-.05-.04-.11-.08-.22-.2-.28-.17-.09-.35-.08-.53-.05-.09.02-.17.06-.23.13-.13.14-.11.38.05.48.07.05.14.08.22.09.11.03.22.05.33.08.1.02.18.11.19.19,0,.08-.06.16-.17.19-.12.03-.23.03-.35,0-.09-.03-.15-.09-.17-.18-.01-.05-.04-.06-.08-.06-.03,0-.06,0-.09,0-.04,0-.06.02-.06.06,0,.11.06.2.15.27.12.1.26.12.37.11Zm1.29,0c.26,0,.32-.02.45-.1.22-.15.2-.51-.04-.61-.08-.03-.16-.07-.25-.08-.12-.02-.24-.05-.35-.11-.07-.04-.08-.09-.07-.16,0-.07.05-.1.11-.12.08-.02.17-.03.26-.02.09.01.18.04.2.13.03.08.08.09.14.08.08,0,.09-.02.08-.1-.02-.1-.06-.18-.15-.23-.23-.12-.47-.13-.71,0-.23.12-.23.42-.02.57.06.04.13.07.2.08.12.03.23.05.35.08.09.02.17.11.18.18,0,.08-.05.14-.15.18-.1.04-.21.03-.31.01-.09-.02-.17-.06-.21-.16-.04-.1-.05-.1-.16-.1-.06,0-.07.03-.06.08.01.09.05.17.11.23.12.12.28.15.41.14Zm8.27-1.19s0-.06-.01-.09c0-.02,0-.05-.02-.06-.05-.02-.1-.02-.14,0-.05,0-.05.05-.05.09,0,.38,0,.76,0,1.15,0,.1.02.11.12.11.09,0,.09,0,.09-.1,0-.2,0-.4,0-.6,0-.07,0-.13.03-.19.06-.19.17-.28.37-.28.19,0,.29.1.29.29,0,.25,0,.51,0,.76,0,.13,0,.13.13.12.07,0,.09-.03.09-.09,0-.3,0-.6,0-.9,0-.13-.06-.24-.16-.32-.13-.1-.5-.11-.63.05-.02.03-.05.07-.1.07Zm.57-4.19s0-.07-.01-.11c0-.02-.01-.04-.03-.04-.1-.03-.16,0-.16.11,0,.37,0,.74,0,1.11,0,.02,0,.05,0,.07,0,.02,0,.03.02.04.08.05.18,0,.18-.1,0-.2,0-.39,0-.59,0-.07,0-.14.02-.21.04-.21.3-.35.5-.26.11.05.15.13.15.25,0,.26,0,.53,0,.79,0,.13,0,.13.13.13.06,0,.08-.02.08-.08,0-.31.01-.62,0-.94,0-.14-.08-.26-.2-.31-.2-.09-.42-.08-.6.09-.02.02-.04.06-.08.05Zm-9.77,1.02s.03.06.03.09c0,.06.03.08.09.08.11,0,.13,0,.13-.12,0-.37,0-.74,0-1.11,0-.02,0-.04,0-.06,0-.02,0-.04-.02-.04-.06-.02-.11-.02-.17,0-.05.01-.03.06-.03.1,0,.23,0,.46,0,.69,0,.08-.02.15-.06.21-.09.16-.26.2-.43.17-.13-.03-.19-.13-.19-.31,0-.02,0-.05,0-.07,0-.22,0-.43,0-.65,0-.03,0-.06,0-.09,0-.02-.01-.04-.04-.05-.1-.04-.17,0-.17.11,0,.26,0,.52,0,.79,0,.05,0,.11.02.16.03.15.14.26.29.29.21.04.4,0,.55-.18Zm3.39,3.69s0-.07,0-.11c.01-.27.19-.42.45-.4.12,0,.22.06.26.17.03.08.08.1.16.09.07,0,.09-.03.07-.09-.02-.1-.07-.17-.14-.24-.13-.11-.29-.14-.46-.13-.15,0-.27.05-.38.16-.17.17-.21.38-.22.6,0,.06.02.11.04.17.02.1.07.19.13.27.2.24.59.23.78.12.14-.08.23-.21.26-.37,0-.03.01-.06-.02-.07-.07-.03-.17,0-.2.08-.02.05-.04.11-.08.15-.19.18-.5.12-.61-.11-.04-.09-.04-.19-.04-.29Zm8.62-2.56s-.02-.08-.02-.11c0-.06-.03-.09-.09-.09-.02,0-.04,0-.06,0-.13,0-.13,0-.13.13,0,.34,0,.68,0,1.02,0,.19-.02.18.18.17.11,0,.11,0,.11-.11,0-.18,0-.37,0-.55,0-.12.04-.24.13-.33.08-.08.17-.1.28-.09.06,0,.09-.02.09-.08,0-.02,0-.04,0-.06,0-.12-.05-.16-.17-.13-.14.03-.23.12-.32.23Zm-9.87-.95h0s.07,0,.11,0c.03,0,.05,0,.06-.04.03-.1,0-.16-.11-.17,0,0,0,0-.01,0-.13,0-.14-.01-.14-.14,0-.21,0-.43,0-.64,0-.16-.01-.18.17-.17,0,0,.02,0,.02,0,.06,0,.08-.03.08-.08,0-.1,0-.1-.1-.1-.02,0-.04,0-.06,0-.1,0-.1,0-.11-.1,0-.06,0-.12,0-.18,0-.11,0-.11-.11-.11-.1,0-.11,0-.11.1,0,.04,0,.08,0,.12,0,.05.02.11-.02.15-.04.04-.09.02-.14.02-.06,0-.08.03-.08.08,0,.08.01.1.09.1.02,0,.05,0,.07,0,.05,0,.08.03.08.08,0,.03,0,.07,0,.1,0,.25,0,.5,0,.75,0,.12.11.23.23.23.03,0,.06,0,.09,0Zm4.29,3.51s0,.1,0,.15c0,.12-.01.24.01.36.02.07.05.11.11.14.08.04.17.03.25.04.08,0,.11-.02.1-.11,0-.07-.02-.09-.11-.09-.15-.01-.16-.02-.16-.17,0-.2,0-.4,0-.6,0-.18-.03-.19.17-.18.09,0,.1-.01.1-.09,0-.08-.01-.09-.09-.1-.03,0-.06,0-.09,0-.08,0-.09-.02-.09-.1,0-.07,0-.15,0-.22,0-.08-.02-.09-.1-.09-.08,0-.11.01-.11.1,0,.07,0,.15,0,.22,0,.08-.02.09-.1.09-.02,0-.05,0-.07,0-.02,0-.04,0-.05.03-.04.08,0,.15.09.16.01,0,.02,0,.04,0,.08,0,.09,0,.09.1,0,.13,0,.25,0,.38Zm-1.13-2.57s0-.08-.01-.12c0-.05-.03-.07-.07-.07-.06,0-.13-.03-.18.03,0,0,0,.02,0,.04,0,.02,0,.04,0,.06,0,.36,0,.71,0,1.07,0,.02,0,.05,0,.07,0,.05.04.06.08.05.06-.01.14.04.19-.04.01-.02,0-.05,0-.07,0-.13,0-.25,0-.38,0-.11,0-.23.04-.34.03-.13.2-.26.32-.26.15,0,.15,0,.15-.16,0,0,0,0,0-.01,0-.09-.05-.13-.13-.11-.12.02-.22.07-.29.16-.02.02-.03.06-.07.07Zm-2.6-2.03c0-.08,0-.12,0-.17,0-.02,0-.05-.03-.06-.05-.02-.11-.02-.16,0-.05.02-.03.06-.03.1,0,.37,0,.75,0,1.12,0,.02,0,.05,0,.07,0,.02.01.03.03.04.05.01.11.02.16,0,.04-.02.03-.07.03-.11,0-.19,0-.38,0-.57,0-.27.14-.41.4-.45.05,0,.08-.03.08-.07,0-.03,0-.07,0-.1,0-.05-.03-.07-.08-.07-.1.02-.2.04-.27.12-.04.04-.07.08-.13.15Zm2.2.16c0-.27,0-.55,0-.82,0-.1,0-.1-.1-.1-.01,0-.02,0-.04,0-.05,0-.08.02-.08.07,0,.02,0,.05,0,.07,0,.52,0,1.05,0,1.57,0,.03,0,.06,0,.09,0,.03.02.05.06.05.14.02.16,0,.16-.14,0-.26,0-.52,0-.79Zm3.06.29c0-.17,0-.34,0-.52,0-.05-.01-.1-.04-.14-.05-.07-.12-.07-.17,0-.03.04-.04.09-.04.14,0,.15,0,.3,0,.45,0,.2,0,.39,0,.59,0,.03,0,.07.02.09.06.04.12.02.18.01.05,0,.04-.06.04-.1,0-.18,0-.35,0-.53Zm-3.2,4.18c0-.18,0-.35,0-.53,0-.03,0-.07-.01-.1-.03-.04-.06-.08-.12-.07-.06,0-.08.05-.09.1,0,.03,0,.07,0,.1,0,.33,0,.66,0,.98,0,.03,0,.07,0,.1,0,.02,0,.04.03.05.09.05.19,0,.19-.11,0-.18,0-.35,0-.53Zm2.35-.01c0,.07,0,.13,0,.2,0,.12,0,.25,0,.37,0,.03,0,.07.04.08.1.04.17,0,.17-.11,0,0,0,0,0-.01,0-.35,0-.71,0-1.06,0-.02,0-.05,0-.07-.01-.05-.05-.08-.1-.08-.05,0-.09.03-.1.07,0,.03,0,.06,0,.1,0,.17,0,.34,0,.52Z"/><path class="cls-7" d="m78.59,97.79c0,.13,0,.25,0,.38-.05.77-.38,1.37-1.08,1.72-.25.12-.51.19-.79.19-.14,0-.28,0-.42,0-.3,0-.58-.09-.83-.26-.22-.15-.36-.37-.44-.63-.07-.26-.06-.52.02-.77.09-.29.29-.5.56-.63.23-.11.46-.17.71-.21.3-.05.61-.07.92-.1.29-.02.59-.05.87-.12.14-.03.27-.09.39-.17.02-.02.04-.05.07-.03.03.02.02.05.02.08,0,.18,0,.37,0,.55Z"/><path class="cls-7" d="m67.67,97.13c.04.06.03.1.03.14,0,.28,0,.57,0,.85,0,.54-.2,1.01-.56,1.41-.19.2-.43.33-.69.43-.38.14-.78.15-1.18.11-.32-.03-.61-.14-.84-.38-.14-.15-.24-.31-.29-.51-.04-.14-.04-.28-.04-.43.02-.46.23-.79.65-.98.23-.1.47-.17.71-.2.3-.04.59-.07.89-.09.29-.02.58-.05.86-.12.16-.04.32-.1.45-.22Z"/><path class="cls-7" d="m70.41,104.54c0,.09,0,.19-.05.28-.08.14-.23.21-.39.18-.12-.02-.24-.16-.25-.3-.01-.1-.02-.2,0-.29.05-.31.33-.39.54-.26.1.06.15.16.16.28,0,.04,0,.08,0,.12Z"/><path class="cls-7" d="m73.96,104.09c.12,0,.22.05.28.15.08.14.13.3.07.47-.02.07-.03.13-.08.19-.09.11-.2.17-.34.14-.14-.03-.25-.12-.29-.27-.04-.13-.04-.26,0-.4.05-.19.17-.29.36-.28Z"/><path class="cls-7" d="m72.69,104.73c.01.12-.03.22-.14.27-.14.07-.29.08-.42-.01-.06-.04-.07-.11-.05-.18.02-.08.07-.12.15-.15.13-.04.27-.03.4-.07.04-.01.06,0,.06.05,0,.03,0,.06,0,.09Z"/><path class="cls-7" d="m76.8,104.09c.17-.02.3.14.32.27,0,.07,0,.09-.06.09-.18,0-.36,0-.54,0-.06,0-.08-.02-.07-.09.02-.17.18-.29.35-.28Z"/><path class="cls-7" d="m65.27,104.57c0-.15.03-.27.13-.38.14-.15.47-.15.58.12.07.17.08.33.01.5-.06.15-.19.25-.36.24-.16,0-.29-.12-.33-.26-.02-.07-.04-.15-.03-.22Z"/><path class="cls-7" d="m68.17,104.57c-.02-.1.02-.19.06-.27.07-.16.2-.22.38-.2.15.02.24.12.29.26.06.18.05.34-.04.51-.07.13-.19.19-.33.19-.15,0-.26-.09-.31-.22-.03-.08-.08-.16-.05-.26Z"/><path class="cls-7" d="m64.55,102.62c0,.23-.11.35-.34.36-.04,0-.09,0-.14,0-.09,0-.15-.06-.18-.14-.03-.08,0-.17.07-.23.05-.04.1-.07.16-.07.12-.01.24-.03.35-.06.06-.01.07,0,.07.06,0,.03,0,.06,0,.09Z"/><path class="cls-7" d="m70.05,102.46c.01.09.02.18,0,.26-.02.12-.12.22-.28.26-.07.02-.15.01-.22,0-.09-.01-.16-.08-.18-.16-.02-.08.03-.19.11-.22.05-.03.11-.05.17-.05.13,0,.25-.04.39-.07Z"/><path class="cls-7" d="m64.55,106.82c.03.22-.14.33-.35.35-.08,0-.16.01-.24-.04-.11-.07-.12-.27.01-.35.1-.06.22-.06.33-.08.05,0,.1-.01.16-.03.07-.02.08-.02.09.06,0,.03,0,.06,0,.09Z"/><path class="cls-7" d="m74.92,102.61c0,.25-.12.37-.37.38-.08,0-.15,0-.22-.05-.09-.07-.11-.21-.03-.29.05-.06.12-.1.2-.1.11,0,.23-.04.34-.06.08-.01.08-.02.09.06,0,.02,0,.04,0,.06Z"/><path class="cls-7" d="m71.94,102.64c.03.3-.29.41-.5.36-.14-.03-.18-.09-.17-.24,0-.09.06-.13.13-.16.06-.03.13-.04.2-.05.08,0,.16-.02.24-.04.09-.03.1-.01.1.07,0,.02,0,.04,0,.06Z"/><path class="cls-7" d="m71.33,107.17s-.06,0-.09,0c-.08-.02-.16-.05-.18-.13-.02-.08-.02-.17.06-.23.05-.04.1-.06.16-.08.12-.02.25-.02.37-.07.05-.02.08,0,.08.06.02.21-.08.46-.42.45Z"/><path class="cls-7" d="m67.81,106.63c0-.1.02-.23.11-.34.14-.19.55-.22.68.11.08.19.08.4-.04.59-.08.14-.21.19-.37.18-.14-.01-.24-.09-.31-.2-.06-.09-.06-.2-.06-.34Z"/><path class="cls-7" d="m74.47,106.64c.01.12-.01.22-.06.32-.09.17-.27.23-.45.2-.15-.03-.28-.19-.31-.35-.03-.16-.03-.32.05-.47.08-.15.21-.21.38-.2.16,0,.27.09.34.23.04.09.07.18.05.26Z"/></g><path class="cls-7" d="m189.13,38.98c-.04,1.01.08,2.26-.06,3.5-.16,1.42-.87,2.46-2.16,3.06-1.52.71-3.15.77-4.78.66-.91-.06-1.8-.24-2.63-.65-1.74-.85-2.41-2.31-2.29-4.19.11-1.72.99-2.89,2.55-3.54,1.01-.42,2.08-.55,3.17-.56.76,0,1.53-.02,2.27-.25.73-.23,1.04-.66,1-1.38-.03-.59-.3-.95-.95-1.16-.99-.32-2.01-.31-3.04-.23-.46.04-.92.1-1.34.29-.41.19-.71.45-.74.94-.02.25-.14.3-.37.3-.72-.01-1.44-.03-2.16,0-.38.02-.43-.15-.4-.46.13-1.45.78-2.55,2.06-3.24,1.37-.74,2.86-.82,4.37-.79.84.02,1.67.12,2.47.36,2.03.63,3.01,1.95,3.03,4.11,0,.99,0,1.99,0,3.22h0Zm-2.93.82c-1.35.46-2.72.42-4.08.48-.43.02-.86.11-1.26.28-.5.2-.73.58-.74,1.12-.01.55.14,1,.68,1.25.49.23,1.01.31,1.55.34.97.07,1.92.06,2.86-.21.53-.15.96-.46.99-1.07.04-.71,0-1.43,0-2.19h0Z"/><path class="cls-7" d="m212.16,38.74v2.94c0,2.27-1.03,3.65-3.21,4.21-1.92.49-3.86.51-5.76-.1-1.95-.62-2.98-2.09-2.96-4.09.02-2.01,1.11-3.47,3.06-4.07.93-.29,1.89-.38,2.86-.38.71,0,1.41-.03,2.09-.25.73-.23,1.02-.6,1.01-1.28,0-.69-.28-1.07-1.02-1.27-1.33-.36-2.68-.35-4.01-.02-.57.14-1,.46-1.05,1.12-.01.18-.08.22-.24.22-.81,0-1.61-.01-2.42,0-.29,0-.28-.15-.26-.36.13-1.73.98-2.97,2.58-3.56,2.25-.83,4.56-.81,6.81-.01,1.68.6,2.52,1.94,2.52,3.74,0,1.05,0,2.11,0,3.16h0Zm-2.91,2.25c0-.31,0-.61,0-.92,0-.17-.02-.28-.24-.21-1.12.34-2.27.37-3.42.39-.55,0-1.09.08-1.61.28-.56.21-.81.57-.82,1.16-.01.77.28,1.18,1.05,1.38,1.28.34,2.57.33,3.85.04.95-.21,1.19-.59,1.19-1.59v-.53h0Z"/><path class="cls-7" d="m225.98,35.83c-.13,0-.26-.01-.39,0-.65.06-1.21,0-1.62-.66-.29-.46-.84-.65-1.37-.78-.99-.25-1.99-.26-3-.04-1.29.29-2.07,1.1-2.34,2.4-.28,1.33-.28,2.67,0,4.01.28,1.32,1.09,2.13,2.4,2.4,1.03.22,2.06.21,3.08-.1.65-.2,1.21-.56,1.57-1.16.13-.21.28-.25.49-.25.78,0,1.56.02,2.34,0,.33,0,.42.05.31.4-.67,2.07-2.01,3.41-4.11,3.92-1.57.38-3.15.38-4.71-.01-2.17-.55-3.53-1.97-4.1-4.14-.55-2.11-.55-4.23.06-6.32.7-2.42,2.39-3.73,4.8-4.08,1.63-.24,3.25-.2,4.81.41,1.71.67,2.74,1.97,3.28,3.71.07.23.05.31-.21.31-.43-.01-.87,0-1.3,0Z"/><path class="cls-7" d="m191.22,38.15c0-2.39,0-4.77,0-7.16,0-2.8,1.25-4.46,3.91-5.2,1.04-.29,2.09-.38,3.16-.4.29,0,.36.1.36.38-.02.72-.02,1.43,0,2.15,0,.3-.06.4-.38.4-.85,0-1.7.08-2.52.34-1.13.36-1.63,1.08-1.61,2.29,0,.28.1.34.35.33,1.24-.01,2.48,0,3.72-.01.34,0,.44.09.43.44-.03.69-.03,1.38,0,2.06.02.36-.11.43-.44.43-1.2-.02-2.39,0-3.59-.02-.37,0-.48.07-.48.47.02,3.7,0,7.41.02,11.11,0,.4-.1.49-.48.47-.69-.03-1.38-.03-2.08,0-.32.01-.41-.07-.41-.4.02-2.56,0-5.12,0-7.68Z"/><g class="cls-1"><path class="cls-3" d="m252.68,31.87c-.11.46-.2.92-.32,1.37-.51,1.87-1.39,3.57-2.4,5.22-.57.94-1.19,1.84-1.89,2.7-.1.12-.2.24-.33.39-.06-.14-.02-.24,0-.33.45-1.57.8-3.15.84-4.79.04-1.88-.21-3.72-1.6-5.12-1.54-1.57-3.44-2.21-5.62-1.6-1.21.34-2.05,1.2-2.74,2.22-.06.09-.13.19-.19.28,0,0-.02,0-.09,0,.14-.31.26-.62.41-.91.76-1.47,1.96-2.47,3.49-3.05,2.35-.89,4.78-1.17,7.27-.84.95.13,1.81.51,2.44,1.28.34.42.53.9.65,1.42.01.06-.01.14.08.17v1.58h0Z"/><path class="cls-4" d="m241.99,45.55c-.23-.15-.5-.1-.74-.18-1.25-.39-2.23-1.17-3.09-2.11-2-2.19-3.45-4.73-4.57-7.46-.03-.06-.05-.13-.07-.19,0-.02,0-.04.01-.09.6.55,1.18,1.1,1.78,1.62,1.31,1.13,2.72,2.08,4.4,2.59,1.73.52,3.37.38,4.88-.67,1.24-.87,2.15-1.97,2.4-3.51.19-1.2-.13-2.31-.7-3.38.16-.05.21.09.28.17.92,1.2,1.36,2.57,1.28,4.07-.15,2.7-1.16,5.12-2.69,7.32-.67.96-1.55,1.66-2.78,1.77-.01,0-.02.03-.04.05h-.35Z"/><path class="cls-5" d="m242.98,39.15c-1.47.37-2.89.25-4.26-.4-1.02-.48-1.89-1.16-2.66-1.96-1.17-1.21-2.18-2.54-2.94-4.04-.32-.63-.53-1.29-.57-2-.07-1.36.59-2.33,1.69-3.03,1.38-.87,2.94-1.2,4.52-1.42,1.78-.24,3.57-.25,5.36-.13.58.04,1.16.09,1.75.25-.38.12-.77.23-1.15.36-1.69.53-3.32,1.2-4.75,2.28-1.23.93-2.18,2.06-2.51,3.62-.39,1.85.25,4.55,2.25,5.72,1.01.59,2.11.78,3.26.76h0Z"/></g><rect class="cls-2" x="32.23" y="26.18" width="82.78" height="26.07"/><path class="cls-7" d="m45.27,26.96l-12.25,12.25,12.25,12.25,12.25-12.25-12.25-12.25Z"/><path class="cls-9" d="m45.27,52.24l-13.03-13.03,13.03-13.03,13.03,13.03-13.03,13.03Zm-11.48-13.03l11.48,11.48,11.48-11.48-11.47-11.48-11.48,11.48Z"/><path class="cls-8" d="m56.93,26.96l-12.25,12.25,12.25,12.25,12.25-12.25-12.25-12.25Z"/><path class="cls-9" d="m56.93,52.24l-13.03-13.03,13.03-13.03,13.03,13.03-13.03,13.03Zm-11.48-13.03l11.48,11.48,11.48-11.48-11.48-11.48-11.48,11.48h0Z"/><path class="cls-7" d="m57.52,39.21l-6.12,6.12,6.12,6.12,6.12-6.12-6.12-6.12Z"/><path class="cls-9" d="m57.52,52.23l-6.9-6.9,6.9-6.9,6.9,6.9-6.9,6.9Zm-5.34-6.9l5.34,5.34,5.34-5.34-5.34-5.34-5.34,5.34Z"/><path class="cls-7" d="m73.79,38.48c0,.4.2.5.69.5h.38c.59,0,.84-.4,1.3-1.25h.21l-.24,1.52h-3.84v-.22c.53-.07.62-.11.62-.53v-3.7c0-.41-.09-.46-.62-.53v-.22h2.12v.22c-.53.07-.62.11-.62.53v3.68h0Z"/><path class="cls-7" d="m80,38.43c0,.3.06.45.27.45.12,0,.22-.04.32-.08l.04.13c-.19.26-.46.39-.77.39-.38,0-.61-.25-.67-.66-.25.3-.65.65-1.17.65-.59,0-.97-.37-.97-.94,0-.63.46-.89,1.04-1.1l1.09-.4v-.56c0-.47-.17-.81-.61-.81-.39,0-.56.27-.56.64,0,.13.02.26.06.41l-.49.07c-.19-.06-.31-.21-.31-.43,0-.58.61-.9,1.38-.9.89,0,1.35.36,1.35,1.17v1.96h0Zm-.83.07v-1.39l-.78.32c-.35.13-.55.33-.55.73s.2.67.61.67c.26,0,.45-.12.71-.33Z"/><path class="cls-7" d="m85.72,36.03c.03-.07.04-.13.04-.19,0-.19-.17-.22-.49-.26v-.21h1.22v.21c-.27.07-.32.12-.38.27l-1.37,3.46h-.24l-.89-2.46-.96,2.46h-.24l-1.41-3.46c-.07-.16-.11-.21-.38-.27v-.21h1.76v.21c-.31.04-.47.07-.47.25,0,.06,0,.12.04.19l.84,2.21.68-1.78-.22-.6c-.05-.16-.11-.21-.36-.27v-.21h1.69v.21c-.33.04-.5.07-.5.26,0,.05.01.11.04.19l.76,2.18.84-2.18h0Z"/><path class="cls-7" d="m92.9,34.42v1.13s-.23,0-.23,0c-.17-.85-.64-1.3-1.38-1.3-1.07,0-1.59,1.04-1.59,2.31,0,1.38.58,2.48,1.66,2.48.74,0,1.21-.43,1.45-1.49h.26l-.1,1.35c-.44.27-.97.42-1.65.42-1.57,0-2.55-1.04-2.55-2.55,0-1.7,1.09-2.79,2.52-2.79.64,0,1.19.16,1.61.44h0Z"/><path class="cls-7" d="m93.81,37.4c0-1.27.8-2.1,1.84-2.1s1.8.78,1.8,1.92c0,1.27-.8,2.11-1.84,2.11s-1.8-.77-1.8-1.92h0Zm2.76.04c0-1.04-.3-1.89-.96-1.89-.61,0-.92.66-.92,1.64s.3,1.89.95,1.89c.61,0,.93-.66.93-1.64Z"/><path class="cls-7" d="m101.56,38.5c0,.25.01.32.33.35h.19v.21l-1.22.27h-.15l.03-.7c-.34.36-.73.7-1.28.7-.64,0-1.04-.36-1.04-1.18v-1.99c0-.26-.06-.35-.38-.4h-.12v-.21l1.24-.24h.12l-.04.84v1.87c0,.5.19.79.62.79.35,0,.61-.16.87-.36v-2.29c0-.26-.05-.35-.38-.4h-.11v-.21l1.22-.24h.12l-.03.81v2.38h0Z"/><path class="cls-7" d="m105.45,36.52c0-.5-.2-.72-.62-.72-.35,0-.67.18-.93.38v2.49c0,.27.12.33.48.35v.21h-1.8v-.21c.37-.02.49-.07.49-.35v-2.64l-.47-.26v-.1l1.2-.38h.13l-.03.71c.33-.38.76-.71,1.35-.71.69,0,1.03.39,1.03,1.19v2.2c0,.27.12.33.49.35v.21h-1.81v-.21c.37-.02.49-.07.49-.35v-2.16h0Z"/><path class="cls-7" d="m109.23,38.71c.48,0,.81-.21,1.06-.58l.11.05c-.23.75-.74,1.15-1.45,1.15-.98,0-1.67-.75-1.67-1.88,0-1.23.72-2.15,1.85-2.15.7,0,1.16.3,1.16.81,0,.21-.11.39-.26.47h-.49c.01-.1.03-.2.03-.33,0-.37-.13-.7-.58-.7-.61,0-.98.67-.98,1.52,0,.98.46,1.64,1.21,1.64Z"/><path class="cls-7" d="m112.21,38.69c0,.27.12.33.49.35v.21h-1.81v-.21c.37-.02.49-.07.49-.35v-2.64l-.47-.26v-.1l1.18-.38h.12v3.39h0Zm-.96-4.43c0-.29.22-.53.53-.53s.53.24.53.53-.23.52-.53.52-.53-.24-.53-.52Z"/><path class="cls-7" d="m114.53,38.69c0,.27.12.33.49.35v.21h-1.81v-.21c.37-.02.49-.07.49-.35v-4.51l-.47-.25v-.11l1.17-.36h.13v5.23h0Z"/><path class="cls-7" d="m72.18,43.54c0-.72.46-1.18,1.06-1.18.66,0,1.02.51,1.02,1.09,0,.72-.46,1.18-1.06,1.18-.67,0-1.02-.51-1.02-1.09Zm1.59-.03c0-.53-.17-1.03-.56-1.03-.37,0-.53.48-.53.99s.17,1.03.56,1.03c.37,0,.53-.48.53-.99Z"/><path class="cls-7" d="m76.07,44.25c0,.18.08.22.38.24v.11h-1.09v-.11c.22-.03.25-.04.25-.22v-1.55c0-.17-.03-.19-.25-.22v-.11h1.68l.02.59h-.09c-.14-.35-.25-.46-.5-.46h-.4v.9h.35c.14,0,.18-.09.21-.29h.11v.73h-.11c-.03-.2-.07-.29-.21-.29h-.35v.69h0Z"/><path class="cls-7" d="m80.95,43.87h-.85l-.14.35s-.03.09-.03.12c0,.1.08.14.27.14v.11h-.65v-.11c.09-.01.15-.03.19-.12l.69-1.76-.1-.24h.49l.81,2c.03.08.1.1.19.12v.11h-.96v-.11c.19,0,.26-.04.26-.14,0-.03,0-.08-.03-.12l-.14-.36h0Zm-.8-.14h.74l-.38-.95-.36.95Z"/><path class="cls-7" d="m83.36,43.8c0,.38.17.62.51.62s.59-.18.59-.64v-1.06c0-.17-.04-.2-.3-.22v-.11h.72v.11c-.22.03-.25.05-.25.22v1.12c0,.54-.37.79-.84.79-.56,0-.89-.26-.89-.8v-1.11c0-.17-.03-.19-.25-.22v-.11h.96v.11c-.22.03-.25.04-.25.22v1.08h0Z"/><path class="cls-7" d="m85.94,44.42l-.03-.54h.13c.08.37.28.62.59.62.25,0,.42-.14.42-.36,0-.23-.14-.33-.51-.47-.37-.13-.61-.3-.61-.67s.29-.65.73-.65c.26,0,.5.07.65.19v.47h-.12c-.06-.33-.24-.53-.54-.53-.22,0-.36.14-.36.33,0,.22.12.31.46.43.42.15.68.31.68.71,0,.44-.36.67-.8.67-.3,0-.56-.09-.7-.21h0Z"/><path class="cls-7" d="m90.45,42.39l.05.73h-.1c-.2-.47-.28-.61-.52-.61h-.17v1.78c0,.17.07.18.28.21v.11h-1.03v-.11c.21-.03.28-.03.28-.21v-1.78h-.17c-.24,0-.32.14-.52.61h-.1l.05-.73h1.94,0Z"/><path class="cls-7" d="m92.25,44.27c0,.17.03.19.25.22v.11h-.97v-.11c.22-.03.25-.04.25-.22v-1.55c0-.17-.03-.19-.25-.22v-.11h1c.52,0,.82.25.82.61,0,.34-.28.52-.51.58l.48.64c.14.19.22.25.38.26v.11h-.6c-.09-.07-.17-.17-.26-.31l-.43-.64h-.16v.62h0Zm0-1.75v1h.15c.33,0,.49-.19.49-.52,0-.28-.17-.49-.5-.49h-.14Z"/><path class="cls-7" d="m96.02,43.87h-.85l-.14.35s-.03.09-.03.12c0,.1.08.14.27.14v.11h-.65v-.11c.09-.01.15-.03.19-.12l.69-1.76-.1-.24h.49l.81,2c.03.08.1.1.19.12v.11h-.96v-.11c.19,0,.26-.04.26-.14,0-.03,0-.08-.03-.12l-.14-.36h0Zm-.8-.14h.74l-.38-.95-.36.95Z"/><path class="cls-7" d="m98.62,44.26c0,.17.08.21.27.21h.13c.24,0,.35-.15.57-.56h.11l-.11.68h-1.7v-.11c.22-.03.25-.04.25-.22v-1.55c0-.17-.03-.19-.25-.22v-.11h.97v.11c-.22.03-.25.04-.25.22v1.54h0Z"/><path class="cls-7" d="m101.46,44.27c0,.17.03.19.25.22v.11h-.97v-.11c.22-.03.25-.04.25-.22v-1.55c0-.17-.03-.19-.25-.22v-.11h.97v.11c-.22.03-.25.04-.25.22v1.55Z"/><path class="cls-7" d="m104.11,43.87h-.85l-.13.35s-.03.09-.03.12c0,.1.08.14.27.14v.11h-.65v-.11c.09-.01.15-.03.19-.12l.69-1.76-.1-.24h.49l.81,2c.03.08.1.1.19.12v.11h-.96v-.11c.19,0,.26-.04.26-.14,0-.03,0-.08-.03-.12l-.14-.36h0Zm-.8-.14h.74l-.38-.95-.36.95Z"/><g class="cls-10"><path class="cls-8" d="m246.21,87.41h-62.55v21.3h62.55v-21.3Z"/><path class="cls-9" d="m246.21,87.41h-20.95v21.23h20.95v-21.23Z"/><path class="cls-7" d="m245.84,87.54c.13,1.84-1.52,3.07-2.16,3.49-.17.11-.79.68-3.2,1.88-.51.25-1,.5-1.43.71l-2.77-1.4c.63-.31,1.9-.94,3.18-1.6,1.18-.61,2.19-1.21,2.41-1.36.36-.26,1.26-.63,1.21-1.72h2.77,0Zm-7.12,0c-.3,1.53-1.57,2.68-3.09,2.68s-2.78-1.15-3.09-2.68h6.17Zm-6.84,3.08c1.8.93,3.57,1.8,3.6,1.81,1.25.68,2.73,1.3,3.28,1.6,1,.54,3.67,2.44.84,5.27l-2.49-1.07s.88-.21.9-1.05c.02-.81-2.28-1.9-3.94-2.67-.22-.1-1.61-.79-3.22-1.6-2.41-1.2-3.03-1.77-3.2-1.88-.64-.42-2.29-1.64-2.16-3.49h2.77c-.05,1.09.84,1.46,1.21,1.72.21.15,1.22.76,2.41,1.36m.02,14.43l2.49,1.07s-.88.21-.9,1.05c-.01.43.65.95,1.51,1.46h-4.07c-.49-.9-.49-2.11.97-3.58m6.11,3.11c.03-1.08-4.07-2.65-5.27-3.32-1-.56-3.67-2.44-.84-5.27l2.49,1.07s-.88.21-.9,1.05c-.03,1.08,4.23,2.76,5.27,3.32.79.43,2.62,1.71,1.95,3.62h-2.83c.07-.13.12-.29.13-.47m-4.52-11.96c-.03,1.08,4.23,2.76,5.27,3.32,1,.54,3.67,2.44.84,5.27l-2.49-1.07s.88-.21.9-1.05c.03-1.08-4.07-2.65-5.27-3.32-1-.56-3.67-2.44-.84-5.27l2.49,1.07s-.88.21-.9,1.05m12.71-8.79h-21.22v21.3h21.23v-21.3Z"/><path class="cls-9" d="m192.55,92.97l-1.6,4.23h3.21l-1.61-4.23Zm-2.58,6.83c-.37.95-.08,1.34,1.2,1.34v.37h-3.6v-.37c1.29,0,1.37-.3,1.84-1.53l3.38-8.94h.2l3.4,8.94c.48,1.23.55,1.53,1.83,1.53v.37h-4.26v-.37c1.28,0,1.57-.37,1.2-1.34l-.74-1.95h-3.72l-.74,1.95h0Z"/><path class="cls-9" d="m200.25,99.08c0,1.76.2,2.06,1.48,2.06v.37h-3.5v-.37c1.28,0,1.46-.3,1.46-2.06v-5.71c0-1.76-.18-2.04-1.46-2.04v-.37h2.61l3.26,8.55,3.24-8.55h2.41v.37c-1.29,0-1.48.28-1.48,2.04v5.71c0,1.76.18,2.06,1.48,2.06v.37h-4.15v-.37c1.28,0,1.46-.3,1.46-2.06v-5.73l-3.2,8.45h-.2l-3.41-8.98v6.25h0Z"/><path class="cls-9" d="m214.71,92.97l-1.6,4.23h3.21l-1.61-4.23Zm-2.58,6.83c-.37.95-.08,1.34,1.2,1.34v.37h-3.6v-.37c1.29,0,1.37-.3,1.84-1.53l3.38-8.94h.2l3.4,8.94c.48,1.23.55,1.53,1.83,1.53v.37h-4.26v-.37c1.28,0,1.57-.37,1.2-1.34l-.74-1.95h-3.72l-.74,1.95h0Z"/><path class="cls-6" d="m208.35,105.69h-.3l-.75-2.98h.45l.34,1.49c.03.15.11.52.13.63.02-.11.1-.47.13-.63l.33-1.49h.43l-.76,2.98h0Z"/><path class="cls-6" d="m209.93,102.71h-.41v2.98h.41v-2.98Z"/><path class="cls-6" d="m211.29,105.74c-.63,0-.86-.69-.86-1.53s.25-1.54.87-1.54c.49,0,.69.3.76.73l-.41.11c-.05-.27-.13-.41-.36-.41-.35,0-.44.59-.44,1.11s.11,1.12.47,1.12c.2,0,.29-.14.37-.46l.38.12c-.09.45-.3.75-.78.75"/><path class="cls-6" d="m213.3,103.12v2.57h-.41v-2.57h-.54v-.41h1.49v.41h-.54Z"/><path class="cls-6" d="m214.91,103.08c-.35,0-.45.56-.45,1.12s.12,1.12.47,1.12.46-.56.46-1.12-.12-1.12-.47-1.12m0,2.66c-.62,0-.88-.67-.88-1.53s.26-1.54.88-1.54.88.67.88,1.53-.27,1.54-.89,1.54"/><path class="cls-6" d="m217.07,103.11h-.38v.88h.38c.26,0,.42-.13.42-.44s-.18-.43-.42-.43m.4,2.58l-.44-1.3h-.34v1.3h-.41v-2.98h.82c.42,0,.81.23.81.83,0,.43-.18.67-.46.78l.47,1.37h-.46Z"/><path class="cls-6" d="m218.84,102.71h-.41v2.98h.41v-2.98Z"/><path class="cls-6" d="m220.3,104.01c-.04-.2-.1-.54-.13-.65-.02.11-.08.45-.13.65l-.11.5h.47l-.11-.5Zm.36,1.69l-.17-.79h-.63l-.17.79h-.43l.72-2.98h.42l.71,2.98h-.45,0Z"/></g><path class="cls-7" d="m246.21,108.96h-62.55v-21.55h62.55v21.55Zm-61.88-.67h61.2v-20.2h-61.2v20.2Z"/></svg>