<?xml version="1.0" encoding="UTF-8"?><svg id="Layer_1" xmlns="http://www.w3.org/2000/svg" xmlns:xlink="http://www.w3.org/1999/xlink" viewBox="0 0 300 134.98"><defs><style>.cls-1{clip-path:url(#clippath);}.cls-2{fill:none;}.cls-2,.cls-3,.cls-4,.cls-5,.cls-6,.cls-7,.cls-8{stroke-width:0px;}.cls-3{fill:url(#linear-gradient);}.cls-4{fill:#6b6b6b;}.cls-5{fill:#8f8f8f;}.cls-6{fill:url(#linear-gradient-2);}.cls-7{fill:url(#linear-gradient-3);}.cls-8{fill:#fff;}</style><clipPath id="clippath"><rect class="cls-2" x="154.91" y="95.94" width="14.09" height="13.62"/></clipPath><linearGradient id="linear-gradient" x1="163.99" y1="521.07" x2="163.99" y2="507.12" gradientTransform="translate(0 617.83) scale(1 -1)" gradientUnits="userSpaceOnUse"><stop offset="0" stop-color="#787878"/><stop offset="1" stop-color="#3f3f3f"/></linearGradient><linearGradient id="linear-gradient-2" x1="160.61" y1="517.66" x2="160.61" y2="508.28" gradientTransform="translate(0 617.83) scale(1 -1)" gradientUnits="userSpaceOnUse"><stop offset=".33" stop-color="#a6a6a6"/><stop offset=".91" stop-color="#8e8e8e"/></linearGradient><linearGradient id="linear-gradient-3" x1="154.91" y1="517.25" x2="164.25" y2="517.25" gradientTransform="translate(0 617.83) scale(1 -1)" gradientUnits="userSpaceOnUse"><stop offset="0" stop-color="#929292"/><stop offset="1" stop-color="#c6c6c6"/></linearGradient></defs><path class="cls-4" d="M36.16,109.21c-.05-.33-.1-.62-.14-.9-.06-.43-.12-.85-.14-1.29,0-.15.02-.24.19-.23.04,0,.07,0,.11-.02.34-.08.66-.08.72-.62.06-.6.3-1.18.42-1.79.13-.68.07-1.37.15-2.05.02-.14.03-.28.06-.41.08-.39.28-.63.67-.76.04.03,0,.05,0,.07-.02.08-.16.15-.1.22.07.08.19,0,.28-.03.25-.1.42-.29.61-.46.6-.55,1.22-.62,1.91-.18.86.54,1.39,1.32,1.68,2.28.4,1.37.41,2.75.03,4.13-.38,1.38-1.47,2.31-2.9,2.48-.7.09-1.4.06-2.09-.09-.17-.04-.2.02-.24.16-.32,1.21-.4,2.43-.29,3.67.04.41,0,.82-.15,1.21-.09.26-.25.46-.47.61-.2.14-.21.13-.26-.1-.14-.76-.18-1.52-.16-2.29.02-.76.11-1.52.18-2.27.02-.26,0-.52,0-.79,0-.14-.06-.16-.19-.15-.76.06-1.46-.13-2.08-.59-.38-.28-.66-.64-.88-1.05-.12-.23-.2-.24-.39-.05-.41.38-.67.87-1.03,1.28-.22.25-.42.5-.68.72-.85.72-1.67.09-1.86-.59-.09-.33-.13-.66-.16-.99-.12-1.46.2-2.83.88-4.12.32-.6.61-1.21.93-1.81.27-.5.64-.92,1.11-1.26.12-.09.25-.16.38-.21.49-.19.92-.06,1.19.4.37.64.5,1.34.52,2.06.02.82-.12,1.63-.17,2.45-.03.51-.01,1.02.16,1.52.15.44.42.78.82,1.02.45.27.9.54,1.39.83ZM42.26,105.12c.02-.53-.07-1.09-.23-1.64-.22-.76-.58-1.44-1.24-1.91-.61-.44-1.18-.38-1.67.19-.49.56-.75,1.25-.97,1.95-.31.97-.46,1.98-.68,2.97-.11.5-.21,1-.12,1.52.09.49.29.67.78.74.45.06.89.04,1.33,0,1.19-.12,2.03-.71,2.46-1.85.23-.62.33-1.25.32-1.96ZM29.5,107.18c0,.85.24,1.56.7,2.2.08.11.13.13.23.02.09-.1.16-.23.3-.28.4-.16.69-.45.94-.8.45-.62.76-1.31.93-2.06.21-.95.55-1.88.61-2.86.03-.43,0-.85-.14-1.25-.15-.45-.49-.57-.89-.32-.23.14-.42.32-.58.53-.7.97-1.29,2-1.72,3.12-.22.58-.36,1.17-.37,1.72Z"/><path class="cls-4" d="M60.39,109.5c-.98.37-2.41-.02-3.11-.84-.19-.22-.35-.45-.48-.7-.1-.2-.19-.21-.35-.05-.17.16-.33.33-.47.52-.29.41-.6.81-.95,1.18-.08.09-.16.17-.25.25-.9.83-1.8.18-1.96-.63-.05-.26-.09-.52-.14-.8-.13.12-.24.23-.36.34-.43.38-.91.65-1.48.7-.87.06-1.49-.29-1.87-1.08-.28-.59-.35-1.23-.49-1.86-.11-.5-.16-1.01-.33-1.5-.06-.16-.13-.31-.22-.45-.27-.4-.61-.45-.98-.13-.23.2-.41.45-.58.71-.6.94-.97,1.96-1.19,3.04-.07.34-.14.69-.24,1.02-.16.57-.46,1.02-1.06,1.22-.26.09-.29.06-.27-.21.06-.87.13-1.73.18-2.6.06-.92-.09-1.84-.13-2.76-.03-.5-.04-1.01.15-1.52.24.24.38.53.49.83.19.53.23,1.1.33,1.65.05.28.09.57.14.87.1-.03.1-.1.13-.16.35-.67.65-1.38,1.05-2.02.29-.46.65-.87,1.08-1.2.3-.23.58-.23.9,0,.34.24.54.59.71.96.4.84.61,1.73.73,2.65.05.38.11.77.31,1.11.32.53.93.81,1.58.71.45-.07.88-.21,1.31-.35.08-.02.13-.05.12-.14-.17-1.67.38-3.17,1.16-4.6.32-.58.56-1.21.97-1.74.27-.35.58-.66.97-.88.61-.35,1.15-.2,1.46.43.41.84.5,1.74.43,2.67-.07.85-.22,1.7-.14,2.56.07.78.4,1.4,1.12,1.79.58.32,1.14.67,1.73,1.01ZM56.95,103.18c-.02-.35-.03-.73-.17-1.08-.15-.41-.47-.53-.85-.31-.19.11-.34.25-.49.41-.39.42-.65.92-.93,1.4-.55.94-1.04,1.91-1.22,3.01-.16,1.01.05,1.93.64,2.76.08.11.13.14.23.02.14-.17.32-.3.52-.39.13-.06.24-.16.35-.26.35-.33.59-.74.82-1.16.34-.61.46-1.29.64-1.95.21-.8.43-1.6.47-2.45Z"/><path class="cls-5" d="M63.2,96.74c0-.57.43-.99,1-.99.55,0,1,.45,1,1.01,0,.55-.46,1-1.01,1-.55,0-.99-.45-.99-1.01Z"/><path class="cls-5" d="M53.98,96.62c-.56,0-1.01-.47-.99-1.02.02-.54.48-.99,1.01-.98.56,0,1.03.48,1.01,1.03-.02.56-.46.98-1.03.98Z"/><path class="cls-5" d="M75.39,109.57c0,.54-.45,1-.99.99-.56,0-1.02-.47-1.01-1.02,0-.54.47-1,1.02-.99.56,0,.98.45.98,1.02Z"/><path class="cls-5" d="M72.07,94.86c-.56,0-1-.44-1-1,0-.55.46-1.01,1.01-1,.55,0,.99.45.99,1.01,0,.56-.43.99-1,.99Z"/><path class="cls-5" d="M63.67,94.17c0,.55-.46,1.01-1.01,1-.55,0-1-.46-1-1.01,0-.55.46-1,1.01-1,.56,0,1,.46,1,1.01Z"/><path class="cls-5" d="M75.28,100.74c-.56,0-1-.44-1.01-1,0-.55.45-1,1-1,.55,0,1.01.45,1,1,0,.56-.45,1-1,1Z"/><path class="cls-5" d="M65.16,102.31c0,.55-.45,1.01-1,1.01-.54,0-1-.44-1-.98,0-.58.43-1.03.99-1.04.54-.01,1,.45,1.01,1Z"/><path class="cls-5" d="M73.24,99.03c-.56,0-1-.45-1-1.01,0-.56.45-1,1.01-1,.55,0,1.01.46,1,1.01,0,.55-.46,1-1.01.99Z"/><path class="cls-5" d="M77.89,108.61c.55,0,1,.45,1,1.01,0,.54-.47,1.01-1.01,1-.55,0-1-.46-1-1.01,0-.54.46-1,1.01-1Z"/><path class="cls-5" d="M76.15,107.03c0-.56.45-1,1-1,.55,0,1.01.46,1,1.01,0,.55-.46,1-1.01,1-.56,0-1-.45-1-1.01Z"/><path class="cls-5" d="M75.7,106.87c0,.55-.46,1-1.01.99-.56,0-1-.46-1-1.01,0-.55.46-1,1.01-1,.55,0,1,.46.99,1.01Z"/><path class="cls-5" d="M61.79,97.17c0,.56-.45.99-1.01.98-.55,0-.99-.45-.99-.99,0-.57.45-1.02,1.02-1.01.55,0,.99.45.98,1.02Z"/><path class="cls-5" d="M75.14,101.9c-.01.55-.49,1-1.03.98-.55-.02-1-.5-.98-1.04.02-.55.5-1,1.04-.98.56.02.99.48.98,1.03Z"/><path class="cls-5" d="M71.99,107.47c-.56,0-1.01-.46-1-1.01.01-.55.47-1,1.02-1,.54,0,1.01.48,1,1.02,0,.55-.46.99-1.02.99Z"/><path class="cls-5" d="M68.47,102.96c0,.56-.45,1-1,1-.56,0-1-.45-1-1.01,0-.55.45-1,1.01-1,.55,0,1,.45,1,1.01Z"/><path class="cls-5" d="M54.1,97.97c0,.57-.43,1-.99,1.01-.54,0-1.01-.47-1.01-1.01,0-.54.47-1.02,1.01-1.01.56,0,1,.45,1,1.01Z"/><path class="cls-5" d="M84.67,110.9c-.55-.01-.99-.46-.99-1,0-.56.48-1.02,1.03-1.01.55.02,1,.48.98,1.02-.02.56-.47.99-1.03.98Z"/><path class="cls-5" d="M82.25,109.61c0,.55-.45,1-1,1-.55,0-1-.45-1-1.01,0-.56.44-1,1-1,.56,0,1,.44,1,1Z"/><path class="cls-5" d="M65.67,95.08c-.55,0-1.01-.48-1-1.01.02-.57.45-.99,1.01-.99.57,0,1,.45,1,1.03,0,.53-.48.98-1.01.98Z"/><path class="cls-5" d="M77.09,102.9c-.56,0-1-.43-1-.99,0-.56.44-1,1-1.01.55,0,1,.45,1,1.01,0,.56-.43,1-1,1Z"/><path class="cls-5" d="M73.1,105.04c-.56,0-1.01-.43-1.01-.99,0-.55.44-1.01.99-1.01.55,0,1.03.47,1.02,1.01,0,.54-.46.98-1,.99Z"/><path class="cls-5" d="M69.61,94.94c0,.56-.46,1-1.01.99-.55-.01-.99-.46-.98-1,0-.58.45-1.01,1.02-1.01.55,0,.99.46.98,1.02Z"/><path class="cls-5" d="M82.3,107.47c0-.55.46-1,1.01-.99.55,0,1,.46.99,1.02,0,.56-.45,1-1.01.99-.55,0-.99-.46-.99-1.02Z"/><path class="cls-5" d="M67.33,107.29c0-.56.44-1,1-1,.55,0,1.01.46,1,1.01,0,.55-.47,1-1.01,1-.56,0-.99-.45-.99-1.01Z"/><path class="cls-5" d="M60.28,94.64c-.56,0-1.02-.44-1.02-.99,0-.55.45-1.01,1-1.02.55,0,1,.44,1.01.99,0,.57-.42,1-.99,1.01Z"/><path class="cls-5" d="M56.67,92.28c0-.55.45-1,1-1,.54,0,1,.46,1,1.01,0,.55-.45,1-1.01,1-.56,0-1-.45-1-1Z"/><path class="cls-5" d="M81.78,103.5c.53,0,1,.44,1.02.98.02.55-.44,1.03-1,1.04-.53.01-1.01-.46-1.02-1,0-.54.45-1,1-1.01Z"/><path class="cls-5" d="M73.38,95.66c0-.56.44-1,1-1.01.57,0,1.01.45,1,1.02,0,.54-.45.98-.99.98-.55,0-1-.45-1-1Z"/><path class="cls-5" d="M68.29,97.43c0,.55-.46,1-1.01.99-.53,0-.99-.47-.99-1,0-.56.45-1.01,1-1,.58,0,1,.43,1,1.02Z"/><path class="cls-5" d="M76.94,104.45c0,.56-.44,1.01-1,1.01-.56,0-1-.44-1.01-1,0-.54.46-1.01,1-1.01.56,0,1,.45,1.01,1Z"/><path class="cls-5" d="M66,105.85c-.56,0-1-.44-1-1,0-.56.44-1,1-1,.55,0,1,.45,1,1,0,.55-.45,1-1.01.99Z"/><path class="cls-5" d="M80.24,105.89c.57,0,1,.42,1.01.99,0,.56-.44,1.01-.99,1.01-.54,0-1.01-.45-1.01-1,0-.55.45-1,1-1Z"/><path class="cls-5" d="M80.14,101.19c.56,0,1,.46,1,1.01,0,.55-.46,1.01-1.01,1-.54,0-1.01-.48-1-1.01,0-.55.47-1,1.01-1Z"/><path class="cls-5" d="M70.77,104.99c0,.55-.46,1.02-1,1.01-.55,0-1-.46-1-1.01,0-.55.45-1.01,1-1.01.56,0,1,.45,1,1.01Z"/><path class="cls-5" d="M68.79,101.94c-.55,0-1.01-.47-1-1.01,0-.53.47-.99,1-1,.54,0,1.01.46,1.01,1,0,.57-.44,1.01-1.02,1.01Z"/><path class="cls-5" d="M63.55,99.48c0,.56-.45.99-1.01.99-.56,0-1-.46-.99-1.01,0-.56.46-.99,1.01-.99.56,0,.99.44.99,1.01Z"/><path class="cls-5" d="M71.01,103.61c-.57,0-1-.42-1.01-.98,0-.56.45-1.02,1.01-1.01.54,0,1,.47.99,1.02,0,.55-.44.98-.99.98Z"/><path class="cls-5" d="M72.02,96.36c0,.55-.45,1-1,1-.54,0-1-.47-1-1.02,0-.55.45-.99,1.01-.99.56,0,.99.44.99,1.01Z"/><path class="cls-5" d="M69.47,91.48c.57,0,1.01.43,1.01.99,0,.56-.44,1-1,1-.56,0-1-.43-1.01-.99,0-.55.44-1,1-1Z"/><path class="cls-5" d="M76.5,96.71c.57,0,1,.44,1,1,0,.56-.45.99-1.01.99-.56,0-1-.44-1-1,0-.56.44-.99,1.01-.99Z"/><path class="cls-5" d="M72.16,108.96c0,.55-.46,1.01-1,1-.55-.01-1.01-.48-1-1.01.01-.55.46-.99,1.02-.99.56,0,.99.44.99,1.01Z"/><path class="cls-5" d="M78.48,98.82c.56,0,1,.44,1,1,0,.55-.45,1.01-1,1.01-.54,0-1-.46-1.01-1.01,0-.55.45-1,1.01-1Z"/><path class="cls-5" d="M69.98,97.82c.56,0,.99.44.99,1,0,.55-.46,1-1.01,1-.56,0-1-.46-.99-1.01,0-.56.44-.99,1.01-.99Z"/><path class="cls-5" d="M79.71,104.61c0,.55-.46,1-1.01,1.01-.55,0-1-.45-1-1.01,0-.56.44-1,1-1,.55,0,1.01.45,1,1Z"/><path class="cls-5" d="M61.35,91.17c0,.55-.45,1.01-1,1-.56,0-1-.44-1-1,0-.55.43-1,.97-1,.58,0,1.02.43,1.03,1Z"/><path class="cls-5" d="M63.37,90.17c.56,0,.99.45.99,1.01,0,.54-.45.98-1,.98-.56,0-1.01-.44-1.01-.99,0-.56.45-1,1.03-.99Z"/><path class="cls-5" d="M66.8,99.92c0,.56-.44,1-1,1-.55,0-1-.46-.99-1.01,0-.56.44-.99,1.01-.99.56,0,.98.43.98,1Z"/><path class="cls-5" d="M57.01,94.13c0,.56-.43,1-.99,1.01-.55,0-.99-.42-1-.97,0-.59.41-1.02.98-1.03.57,0,1,.43,1,.99Z"/><path class="cls-5" d="M66.37,92.55c-.57,0-.99-.43-.98-1,0-.55.44-.98.99-.98.57,0,1.02.45,1.01,1.01,0,.55-.45.98-1.02.98Z"/><path class="cls-5" d="M58.46,96.46c-.56,0-1.01-.45-1.01-.99,0-.55.45-.99,1.01-.99.56,0,1,.44,1,1,0,.56-.44.99-1.01.99Z"/><path class="cls-5" d="M73.08,100.25c0,.56-.44.99-1.01.98-.55,0-.99-.45-.99-1.01,0-.56.45-.98,1.04-.98.55,0,.96.44.96,1Z"/><path class="cls-4" d="M124.51,104.95c-.03.71.05,1.58-.04,2.45-.11.99-.61,1.72-1.51,2.14-1.07.5-2.2.54-3.35.46-.64-.04-1.26-.17-1.84-.45-1.21-.6-1.69-1.62-1.6-2.93.08-1.2.69-2.02,1.78-2.48.71-.3,1.46-.39,2.22-.39.53,0,1.07-.02,1.59-.18.51-.16.73-.46.7-.97-.02-.41-.21-.67-.66-.81-.7-.22-1.41-.22-2.13-.16-.32.03-.64.07-.94.21-.29.13-.5.32-.52.66-.01.17-.1.21-.26.21-.5,0-1.01-.02-1.51,0-.27.01-.3-.1-.28-.32.09-1.01.55-1.79,1.44-2.27.96-.52,2-.58,3.06-.55.59.01,1.17.08,1.73.26,1.42.44,2.1,1.37,2.12,2.88,0,.7,0,1.39,0,2.25h0ZM122.46,105.52c-.95.32-1.91.3-2.86.34-.3.01-.6.08-.88.19-.35.14-.51.41-.52.78,0,.39.1.7.47.88.35.16.71.21,1.08.24.68.05,1.35.04,2.01-.15.37-.11.67-.33.69-.75.03-.5,0-1,0-1.53h0Z"/><path class="cls-4" d="M140.63,104.79v2.06c0,1.59-.72,2.56-2.25,2.95-1.34.34-2.7.36-4.03-.07-1.36-.44-2.09-1.46-2.07-2.86.01-1.41.77-2.43,2.14-2.85.65-.2,1.32-.27,2-.27.49,0,.99-.02,1.47-.17.51-.16.71-.42.71-.9,0-.48-.2-.75-.72-.89-.93-.25-1.87-.24-2.81-.01-.4.1-.7.32-.73.78,0,.12-.06.15-.17.15-.57,0-1.13,0-1.7,0-.21,0-.19-.11-.18-.26.09-1.21.69-2.08,1.8-2.49,1.58-.58,3.19-.57,4.77,0,1.17.42,1.76,1.36,1.77,2.62,0,.74,0,1.48,0,2.21h0ZM138.6,106.36c0-.21,0-.43,0-.65,0-.12-.01-.2-.17-.15-.78.24-1.59.26-2.4.27-.39,0-.76.06-1.13.19-.39.15-.56.4-.57.81,0,.54.2.83.74.97.89.24,1.8.23,2.69.03.66-.15.83-.41.83-1.11v-.37h0Z"/><path class="cls-4" d="M150.31,102.75c-.09,0-.18,0-.27,0-.45.04-.84,0-1.13-.46-.2-.32-.59-.45-.96-.55-.7-.18-1.4-.18-2.1-.03-.9.2-1.45.77-1.64,1.68-.2.93-.19,1.87,0,2.8.2.92.77,1.49,1.68,1.68.72.15,1.44.15,2.15-.07.46-.14.85-.39,1.1-.81.09-.15.19-.18.35-.18.55,0,1.09.01,1.64,0,.23,0,.3.03.22.28-.47,1.45-1.41,2.39-2.88,2.74-1.1.27-2.2.27-3.3-.01-1.52-.38-2.47-1.38-2.87-2.9-.39-1.47-.39-2.96.04-4.43.49-1.69,1.67-2.61,3.36-2.86,1.14-.17,2.27-.14,3.37.29,1.2.47,1.92,1.38,2.29,2.6.05.16.04.22-.14.21-.3-.01-.61,0-.91,0Z"/><path class="cls-4" d="M125.98,104.37c0-1.67,0-3.34,0-5.01,0-1.96.88-3.12,2.74-3.64.72-.2,1.47-.27,2.22-.28.21,0,.26.07.25.26-.01.5-.01,1,0,1.51,0,.21-.04.28-.26.28-.6,0-1.19.06-1.76.24-.79.25-1.14.76-1.13,1.6,0,.2.07.24.25.23.87,0,1.74,0,2.6,0,.24,0,.31.06.3.31-.02.48-.02.96,0,1.44.01.25-.08.3-.31.3-.84-.01-1.68,0-2.51-.01-.26,0-.34.05-.33.33.01,2.59,0,5.19.01,7.78,0,.28-.07.34-.33.33-.48-.02-.97-.02-1.45,0-.22,0-.29-.05-.29-.28.01-1.79,0-3.59,0-5.38Z"/><g class="cls-1"><path class="cls-3" d="M169.01,99.98c-.07.32-.14.64-.23.96-.36,1.31-.97,2.5-1.68,3.65-.4.65-.84,1.29-1.32,1.89-.07.09-.14.17-.23.28-.04-.1-.02-.17,0-.23.31-1.1.56-2.21.58-3.35.03-1.32-.15-2.6-1.12-3.59-1.08-1.1-2.41-1.54-3.93-1.12-.85.24-1.44.84-1.92,1.56-.04.07-.09.13-.13.2,0,0-.02,0-.06,0,.1-.22.18-.43.29-.64.53-1.03,1.37-1.73,2.44-2.13,1.64-.63,3.35-.82,5.09-.58.67.09,1.27.36,1.71.9.24.29.37.63.45,1,0,.04,0,.1.05.12v1.11h0Z"/><path class="cls-6" d="M161.52,109.55c-.16-.11-.35-.07-.52-.13-.87-.27-1.56-.82-2.16-1.48-1.4-1.53-2.41-3.31-3.2-5.22-.02-.04-.03-.09-.05-.14,0-.01,0-.03,0-.06.42.38.82.77,1.25,1.13.91.79,1.91,1.46,3.08,1.81,1.21.37,2.36.27,3.42-.47.87-.61,1.51-1.38,1.68-2.46.13-.84-.09-1.62-.49-2.37.11-.04.15.06.19.12.64.84.95,1.8.9,2.85-.11,1.89-.81,3.58-1.88,5.12-.47.67-1.09,1.16-1.95,1.24,0,0-.02.02-.03.04h-.24Z"/><path class="cls-7" d="M162.22,105.08c-1.03.26-2.02.18-2.98-.28-.71-.34-1.32-.81-1.87-1.37-.82-.85-1.52-1.78-2.06-2.83-.22-.44-.37-.9-.4-1.4-.05-.95.41-1.63,1.19-2.12.96-.61,2.06-.84,3.17-.99,1.25-.17,2.5-.17,3.75-.09.41.03.82.06,1.22.18-.27.08-.54.16-.81.25-1.18.37-2.33.84-3.33,1.6-.86.65-1.52,1.45-1.75,2.53-.27,1.29.17,3.19,1.57,4,.71.41,1.48.55,2.28.53h0Z"/></g><rect class="cls-2" x="188.58" y="26.18" width="83.28" height="26.22"/><path class="cls-4" d="M201.69,26.96l-12.33,12.33,12.33,12.33,12.33-12.33-12.33-12.33Z"/><path class="cls-8" d="M201.69,52.4l-13.11-13.11,13.11-13.11,13.11,13.11-13.11,13.11ZM190.15,39.29l11.54,11.54,11.54-11.54-11.54-11.54-11.54,11.54Z"/><path class="cls-5" d="M213.43,26.96l-12.33,12.33,12.33,12.33,12.33-12.33-12.33-12.33Z"/><path class="cls-8" d="M213.43,52.4l-13.11-13.11,13.11-13.11,13.11,13.11-13.11,13.11ZM201.88,39.29l11.54,11.54,11.54-11.54-11.54-11.54-11.54,11.54h0Z"/><path class="cls-4" d="M214.02,39.29l-6.16,6.16,6.16,6.16,6.16-6.16-6.16-6.16Z"/><path class="cls-8" d="M214.02,52.39l-6.94-6.94,6.94-6.94,6.94,6.94-6.94,6.94ZM208.65,45.44l5.37,5.37,5.37-5.37-5.37-5.37-5.37,5.37Z"/><path class="cls-4" d="M230.39,38.55c0,.4.2.51.69.51h.39c.6,0,.85-.4,1.31-1.26h.22l-.25,1.53h-3.87v-.22c.54-.07.63-.11.63-.53v-3.72c0-.42-.09-.46-.63-.53v-.22h2.13v.22c-.54.07-.63.11-.63.53v3.7h0Z"/><path class="cls-4" d="M236.64,38.5c0,.3.06.45.27.45.12,0,.22-.04.32-.08l.04.13c-.19.26-.46.39-.77.39-.39,0-.62-.25-.68-.66-.25.31-.66.66-1.18.66-.6,0-.98-.37-.98-.95,0-.63.46-.89,1.04-1.11l1.09-.4v-.57c0-.47-.17-.81-.62-.81-.39,0-.56.28-.56.65,0,.13.02.26.06.42l-.49.07c-.19-.06-.31-.21-.31-.43,0-.59.61-.91,1.39-.91.89,0,1.36.36,1.36,1.18v1.97h0ZM235.8,38.57v-1.4l-.78.32c-.35.13-.55.33-.55.73s.2.68.62.68c.26,0,.45-.12.71-.33Z"/><path class="cls-4" d="M242.39,36.09c.03-.07.04-.13.04-.19,0-.19-.17-.22-.49-.26v-.22h1.23v.22c-.27.07-.32.12-.38.28l-1.38,3.48h-.25l-.89-2.47-.97,2.47h-.24l-1.42-3.48c-.07-.16-.11-.21-.38-.28v-.22h1.77v.22c-.31.04-.47.07-.47.25,0,.06,0,.12.04.19l.84,2.23.68-1.79-.22-.6c-.05-.16-.11-.22-.36-.28v-.22h1.71v.22c-.33.04-.5.07-.5.26,0,.05.01.11.04.19l.77,2.2.84-2.2h0Z"/><path class="cls-4" d="M249.62,34.46v1.14s-.23,0-.23,0c-.17-.86-.64-1.3-1.38-1.3-1.08,0-1.6,1.05-1.6,2.32,0,1.39.59,2.49,1.67,2.49.74,0,1.22-.43,1.46-1.5h.26l-.1,1.36c-.44.27-.98.42-1.66.42-1.58,0-2.57-1.04-2.57-2.57,0-1.71,1.09-2.81,2.54-2.81.65,0,1.2.16,1.62.44h0Z"/><path class="cls-4" d="M250.53,37.46c0-1.27.8-2.12,1.85-2.12s1.81.78,1.81,1.93c0,1.28-.8,2.12-1.85,2.12s-1.81-.77-1.81-1.94h0ZM253.31,37.5c0-1.04-.3-1.91-.97-1.91-.61,0-.92.66-.92,1.65s.3,1.91.96,1.91c.61,0,.93-.66.93-1.65Z"/><path class="cls-4" d="M258.33,38.57c0,.25.01.32.33.35h.19v.21l-1.23.27h-.15l.03-.71c-.34.36-.74.71-1.29.71-.65,0-1.04-.36-1.04-1.18v-2c0-.26-.06-.35-.38-.4h-.12v-.22l1.24-.24h.12l-.04.85v1.88c0,.51.19.8.63.8.35,0,.61-.16.88-.36v-2.31c0-.26-.05-.35-.38-.4h-.11v-.22l1.23-.24h.12l-.03.82v2.4h0Z"/><path class="cls-4" d="M262.24,36.58c0-.5-.2-.72-.63-.72-.35,0-.68.18-.94.39v2.51c0,.28.12.33.48.35v.22h-1.81v-.22c.37-.02.49-.07.49-.35v-2.66l-.47-.26v-.1l1.21-.39h.13l-.03.71c.34-.38.77-.71,1.36-.71.69,0,1.04.39,1.04,1.2v2.21c0,.28.12.33.49.35v.22h-1.82v-.22c.37-.02.49-.07.49-.35v-2.17h0Z"/><path class="cls-4" d="M266.04,38.78c.48,0,.82-.22,1.06-.59l.11.05c-.23.75-.74,1.15-1.46,1.15-.98,0-1.68-.75-1.68-1.89,0-1.24.72-2.16,1.86-2.16.71,0,1.17.3,1.17.82,0,.22-.11.39-.26.48h-.49c.01-.1.03-.2.03-.34,0-.37-.13-.71-.58-.71-.62,0-.99.67-.99,1.53,0,.98.46,1.65,1.22,1.65Z"/><path class="cls-4" d="M269.04,38.76c0,.28.12.33.49.35v.22h-1.82v-.22c.37-.02.49-.07.49-.35v-2.66l-.47-.26v-.1l1.18-.39h.12v3.41h0ZM268.07,34.3c0-.29.22-.53.53-.53s.54.24.54.53-.23.52-.54.52-.53-.24-.53-.52Z"/><path class="cls-4" d="M271.37,38.76c0,.28.12.33.49.35v.22h-1.82v-.22c.37-.02.49-.07.49-.35v-4.54l-.47-.25v-.11l1.18-.36h.13v5.26h0Z"/><path class="cls-4" d="M228.77,43.64c0-.72.46-1.19,1.07-1.19.67,0,1.03.52,1.03,1.1,0,.72-.46,1.19-1.07,1.19-.67,0-1.03-.52-1.03-1.1ZM230.37,43.61c0-.53-.17-1.03-.57-1.03-.37,0-.54.48-.54.99s.17,1.03.57,1.03c.37,0,.54-.48.54-.99Z"/><path class="cls-4" d="M232.68,44.35c0,.18.09.22.38.24v.11h-1.1v-.11c.22-.03.25-.04.25-.22v-1.56c0-.17-.03-.19-.25-.22v-.11h1.69l.02.59h-.09c-.15-.35-.25-.46-.5-.46h-.4v.91h.35c.14,0,.18-.09.21-.29h.11v.73h-.11c-.03-.2-.07-.29-.21-.29h-.35v.7h0Z"/><path class="cls-4" d="M237.59,43.97h-.85l-.14.35s-.03.09-.03.12c0,.1.08.14.27.14v.11h-.65v-.11c.09-.01.15-.03.19-.12l.69-1.77-.1-.24h.49l.81,2.01c.03.09.1.1.19.12v.11h-.97v-.11c.19,0,.27-.04.27-.14,0-.03,0-.08-.03-.12l-.15-.36h0ZM236.79,43.84h.75l-.38-.95-.37.95Z"/><path class="cls-4" d="M240.02,43.9c0,.39.17.62.52.62s.59-.18.59-.64v-1.07c0-.17-.04-.2-.3-.22v-.11h.72v.11c-.22.03-.25.05-.25.22v1.12c0,.54-.37.8-.84.8-.56,0-.9-.26-.9-.8v-1.12c0-.17-.03-.19-.25-.22v-.11h.97v.11c-.22.03-.25.04-.25.22v1.09h0Z"/><path class="cls-4" d="M242.61,44.53l-.03-.54h.13c.08.38.28.62.6.62.26,0,.42-.14.42-.36,0-.23-.14-.33-.52-.47-.37-.13-.61-.3-.61-.67s.29-.66.74-.66c.27,0,.5.07.66.19v.47h-.12c-.06-.34-.24-.53-.54-.53-.22,0-.36.14-.36.34,0,.22.12.31.46.44.42.15.68.32.68.72,0,.44-.36.67-.8.67-.3,0-.56-.09-.7-.21h0Z"/><path class="cls-4" d="M247.15,42.48l.05.73h-.1c-.2-.47-.28-.62-.52-.62h-.17v1.79c0,.17.07.18.29.21v.11h-1.03v-.11c.21-.03.28-.03.28-.21v-1.79h-.17c-.24,0-.32.15-.53.62h-.1l.05-.73h1.95,0Z"/><path class="cls-4" d="M248.96,44.38c0,.17.03.19.25.22v.11h-.97v-.11c.22-.03.25-.04.25-.22v-1.56c0-.17-.03-.19-.25-.22v-.11h1.01c.53,0,.83.25.83.62,0,.35-.28.53-.52.59l.48.65c.14.19.22.26.39.26v.11h-.6c-.09-.07-.17-.17-.27-.31l-.44-.64h-.16v.62h0ZM248.96,42.61v1.01h.15c.33,0,.5-.19.5-.52,0-.29-.17-.49-.5-.49h-.15Z"/><path class="cls-4" d="M252.76,43.97h-.85l-.14.35s-.03.09-.03.12c0,.1.08.14.27.14v.11h-.65v-.11c.09-.01.15-.03.19-.12l.69-1.77-.1-.24h.49l.81,2.01c.03.09.1.1.19.12v.11h-.97v-.11c.19,0,.27-.04.27-.14,0-.03,0-.08-.03-.12l-.15-.36h0ZM251.96,43.84h.75l-.38-.95-.37.95Z"/><path class="cls-4" d="M255.37,44.36c0,.17.08.22.28.22h.14c.24,0,.35-.15.58-.56h.11l-.11.69h-1.71v-.11c.22-.03.25-.04.25-.22v-1.56c0-.17-.03-.19-.25-.22v-.11h.97v.11c-.22.03-.25.04-.25.22v1.55h0Z"/><path class="cls-4" d="M258.23,44.38c0,.17.03.19.25.22v.11h-.97v-.11c.22-.03.25-.04.25-.22v-1.56c0-.17-.03-.19-.25-.22v-.11h.97v.11c-.22.03-.25.04-.25.22v1.56Z"/><path class="cls-4" d="M260.89,43.97h-.85l-.14.35s-.03.09-.03.12c0,.1.08.14.27.14v.11h-.65v-.11c.09-.01.15-.03.19-.12l.69-1.77-.1-.24h.49l.81,2.01c.03.09.1.1.19.12v.11h-.97v-.11c.19,0,.27-.04.27-.14,0-.03,0-.08-.03-.12l-.15-.36h0ZM260.09,43.84h.75l-.38-.95-.37.95Z"/><rect class="cls-2" x="202.71" y="93.94" width="66.06" height="17.62"/><path class="cls-4" d="M223.12,104.51c0,.18.04.35.12.5.08.15.21.28.36.37.34.2.73.3,1.13.29.7,0,1.44-.18,1.44-.85,0-1.54-7.02-.31-7.02-3.99,0-2.43,3.04-3.14,5.42-3.14s5.42.47,5.68,3h-4.14c-.02-.14-.07-.27-.14-.39-.08-.12-.18-.22-.3-.3-.28-.17-.6-.25-.92-.24-.79,0-1.29.2-1.29.67,0,1.32,7.24.44,7.24,3.99,0,1.98-1.97,3.32-6.17,3.32-2.62,0-5.5-.67-5.75-3.23h4.33Z"/><path class="cls-4" d="M230.53,93.94h4.56v5.21c.43-.49.97-.87,1.57-1.12.6-.25,1.25-.37,1.9-.35,3.02,0,4.44,1.47,4.44,4.08v5.71h-4.56v-5.03c0-.94-.31-1.78-1.6-1.78-1.4,0-1.76.74-1.76,1.96v4.85h-4.55v-13.53Z"/><path class="cls-5" d="M247.05,97.95v1.42h.04c.63-1.16,2.27-1.69,3.58-1.69,3.45,0,5.12,2.34,5.12,4.96,0,3.73-2.8,5.1-5.36,5.1-.55.02-1.09-.08-1.6-.29-.51-.21-.96-.53-1.33-.93v5.03h-4.5l-.03-13.61h4.07ZM251.25,102.69c0-1.51-.79-2.21-1.98-2.21-1.1,0-1.84.88-1.84,2.14s.68,2.23,1.86,2.23,1.96-.85,1.96-2.16Z"/><path class="cls-4" d="M264.07,107.47l-.22-1.02c-1.29,1-2.6,1.29-4.31,1.29-2.16,0-4.09-.88-4.09-2.87,0-4.32,8.15-2.36,8.15-4.14,0-.69-1.01-.78-1.49-.78-.63,0-1.49.11-1.6.93h-4.36c0-2.01,1.73-3.2,6.25-3.2,5.42,0,5.75,1.67,5.75,3.95v4.44c0,.54.02.82.61,1.22v.18h-4.7ZM263.61,103.26c-1.49.6-3.45.31-3.45,1.54,0,.47.55.8,1.44.8,1.6,0,2.12-1.03,2.01-2.34Z"/><path class="cls-4" d="M211.87,93.94h-4.57v4.54h4.57v-4.54Z"/><path class="cls-4" d="M207.28,98.48h-4.57v4.54h4.57v-4.54Z"/><path class="cls-4" d="M211.85,103.06h-4.57v4.54h4.57v-4.54Z"/><path class="cls-5" d="M216.42,98.48h-4.57v4.54h4.57v-4.54Z"/><path class="cls-4" d="M108.08,26.87c.36-.2.73-.38,1.12-.51-3.11-.68-6.98.84-7.7,1.3h0c-2.04-2.71-6.24-3.16-6.24-3.16l-.24-.04c-3.3-.35-5.64.56-7.37,1.68-.01,0-.03.02-.04.03-1.09.71-1.92,1.5-2.59,2.11.28-.19.57-.36.85-.52,0,.05,0,.1,0,.16.03.17.14.28.25.25.11-.03.17-.19.14-.36-.01-.09-.05-.16-.1-.2.16-.08.32-.15.48-.22.06.19.2.31.34.27.15-.04.24-.25.21-.48.15-.05.3-.09.44-.14.07.06.15.09.23.07.08-.02.14-.09.18-.17.19-.04.39-.08.57-.1-.02.1-.02.22,0,.33.07.37.31.62.55.55.24-.07.38-.42.31-.8-.01-.06-.03-.11-.05-.17.01,0,.02,0,.03,0,.11.24.31.38.5.33.03,0,.06-.02.08-.04-.11.14-.17.37-.12.62.06.35.29.57.51.51.22-.06.35-.39.29-.74-.06-.35-.29-.57-.51-.51-.02,0-.04.02-.07.03.05-.05.08-.12.11-.2.13,0,.26.02.39.03,0,.06,0,.12.02.19.07.41.34.68.61.61,0,0,0,0,0,0-.06.14-.07.31-.04.49.06.36.3.6.53.54.23-.07.37-.41.3-.77-.06-.35-.29-.59-.52-.54.05-.1.07-.23.08-.37.14.03.28.06.42.1-.02.12-.02.26,0,.4.07.4.32.67.58.63-.05.14-.07.31-.03.49.06.37.31.62.55.55.24-.07.38-.42.31-.79-.06-.34-.27-.58-.49-.56.05-.11.07-.25.07-.4.13.05.26.1.38.16-.03.13-.04.28-.01.44.07.38.32.65.56.6-.05.13-.07.29-.04.46.06.34.29.57.5.51.22-.06.35-.39.29-.73-.06-.32-.25-.53-.46-.51.04-.08.06-.17.07-.28.1.07.2.14.3.22,0,.06,0,.12.02.17.08.44.37.74.65.66-.05.12-.06.28-.03.44.06.32.27.54.48.48.17-.05.29-.28.28-.54.16.17.32.35.47.54.06.29.22.51.4.57.05.07.09.15.13.22-.02.11-.02.23,0,.35.05.28.2.5.38.57,0,0-.32.65-.89,1.49.11.04.2.18.24.37.05.25-.03.48-.18.52-.14.04-.3-.13-.34-.37,0-.03,0-.06-.01-.09-.11.15-.22.3-.34.46.08,0,.16.08.18.21.02.14-.03.28-.13.31-.1.03-.19-.07-.22-.21,0-.03,0-.07,0-.1-.94,1.16-2.22,2.33-3.66,2.61,1.63.03,3.34.02,4.84-.31.54-.12,1.01-.29,1.48-.51-.02.12-.03.25,0,.38.02.12.06.23.11.32,0,.2.02.4.02.6-.04,0-.07,0-.11,0-.01,0-.03,0-.04.01.05-.13.06-.28.03-.45-.06-.34-.28-.57-.5-.51-.22.06-.35.39-.29.73.06.34.28.56.5.51-.07.16-.09.36-.06.57.05.33.24.57.44.62h0c-.04.14-.05.28-.04.44-.1-.09-.21-.14-.32-.12.04-.13.05-.29.03-.45-.06-.37-.3-.62-.54-.56-.23.06-.38.41-.31.78.06.34.26.57.48.56-.05.15-.07.33-.04.52,0,0,0,.01,0,.02-.11-.14-.26-.21-.41-.18-.05.01-.09.03-.13.06.09-.13.13-.33.1-.54-.05-.32-.26-.54-.47-.49-.21.05-.33.36-.28.68.05.32.27.54.47.49.03,0,.06-.02.09-.04-.12.16-.18.42-.13.7.06.35.26.6.47.64-.03.11-.05.24-.05.37-.1-.1-.22-.16-.35-.15.03-.12.03-.25.01-.38-.06-.37-.3-.63-.54-.57-.24.06-.38.4-.33.78.05.33.24.56.45.58-.04.14-.06.31-.04.48-.11-.12-.25-.18-.38-.15,0,0,0,0,0,0,.06-.13.08-.3.05-.47-.05-.35-.28-.59-.5-.54-.22.05-.36.38-.3.73.05.33.26.56.48.54-.09.16-.12.39-.09.63,0,.06.02.11.04.16-.11-.19-.27-.29-.43-.26-.24.05-.39.4-.34.78.05.33.25.58.46.6-.06.15-.08.33-.06.52-.11-.12-.25-.19-.38-.16-.04,0-.08.03-.12.05.1-.14.15-.35.12-.58-.05-.35-.28-.59-.5-.55-.22.05-.37.37-.31.72.05.35.28.6.5.55.03,0,.06-.02.09-.03-.13.16-.19.43-.14.71,0,.05.02.1.03.15-.11-.21-.29-.34-.46-.3-.25.05-.4.41-.35.8.06.37.28.63.52.61-.07.17-.1.38-.07.61,0,.01,0,.02,0,.03-.11-.16-.25-.24-.4-.21-.24.05-.39.4-.34.78.06.38.3.64.54.59.02,0,.04-.01.05-.02-.12.16-.18.41-.14.68.02.16.08.31.16.42-.02.03-.05.05-.07.08,0,0,0,0,0-.01-.05-.35-.27-.59-.5-.54-.22.05-.36.37-.31.71.03.2.12.36.23.46-.28.28-.45.43-.45.43,0,0,3.7-.7,7.55-6.29,2.15-3.48,3.32-8.29,2.43-13.11,0,0,1.72-2.58,4.16-4.22.14-.1.68-.41.71-.43M94.75,36.2c-.08.02-.16-.06-.18-.18-.02-.12.02-.23.1-.25.08-.02.16.06.18.18.02.12-.02.23-.1.25M95.2,35.17c-.02-.12.02-.23.1-.25.08-.02.16.06.18.18.02.12-.02.23-.1.25-.08.02-.16-.06-.18-.18M95.59,36.15c-.08.02-.16-.06-.18-.18-.02-.12.02-.23.1-.25.08-.02.16.06.18.18.02.12-.02.23-.1.26M96.02,35.27c-.03-.14.03-.28.13-.31.1-.03.19.07.22.21.03.14-.03.28-.13.31-.1.03-.19-.07-.22-.21M96.51,36.39c-.1.03-.19-.07-.22-.21-.03-.14.03-.28.13-.31.09-.03.19.07.22.21.02.14-.03.28-.13.31M94.83,48.63c-.09-.08-.2-.11-.3-.09-.02,0-.05.01-.07.02.11-.14.16-.38.13-.63.07.12.17.21.27.25-.03.14-.04.29-.02.45M95.13,46.67c-.09-.06-.19-.09-.29-.07.05-.14.07-.31.04-.49,0-.05-.02-.09-.03-.13.08.16.2.28.33.32-.04.11-.06.24-.05.37M96.29,44.2c-.1-.09-.21-.14-.33-.14.04-.12.05-.27.03-.43,0-.04-.02-.09-.03-.12.09.16.22.28.36.3-.03.12-.04.25-.03.39M98.74,30.14s0-.02,0-.03c.1.13.23.21.36.21-.04.15-.05.33-.02.51,0,.01,0,.02,0,.03-.11-.14-.24-.21-.38-.18.06-.16.08-.35.04-.55M98.2,28.95c.1.14.23.22.37.23-.04.15-.05.32-.02.49,0,.01,0,.03,0,.04-.12-.15-.27-.22-.43-.18,0,0,0,0-.01,0,.08-.15.11-.37.08-.58M98.35,31.91c.05.29-.06.56-.26.62-.19.05-.39-.14-.43-.42-.05-.29.06-.56.25-.62.19-.05.39.14.43.42M96.94,29.06c.04-.15.05-.32.01-.49,0,0,0-.01,0-.02.09.13.2.21.31.23-.02.12-.03.26,0,.4.01.08.03.15.06.21-.09-.19-.23-.31-.38-.33M97.35,30.26s0,0,0,0c.08-.16.11-.38.07-.6-.01-.08-.03-.15-.06-.21.12.24.31.37.5.32,0,0,0,0,0,0-.09.17-.12.4-.08.64,0,.04.02.07.02.1-.11-.19-.28-.29-.45-.25M97.17,32.38c.17-.05.35.12.39.38.04.26-.06.51-.23.55-.17.05-.35-.12-.39-.38-.04-.26.06-.51.23-.55M97.04,35.09c-.13.04-.27-.12-.31-.34-.04-.22.03-.43.16-.47s.27.12.31.34c.04.22-.03.43-.16.47M97.52,36.17c-.14.04-.3-.13-.34-.37-.05-.25.03-.48.18-.52.14-.04.3.13.34.37.05.25-.03.48-.18.52M97.79,34.42c-.17.05-.35-.12-.39-.38-.05-.26.06-.5.23-.55.17-.05.35.12.39.38.05.26-.06.51-.23.55M98.33,35.58c-.17.05-.35-.12-.39-.38s.06-.51.23-.55c.17-.05.35.12.39.38.04.26-.06.51-.23.55M98.6,33.75c-.19.05-.39-.14-.43-.42-.05-.29.06-.56.26-.62.19-.05.38.14.43.42.05.29-.07.56-.25.62M99.2,35.04c-.19.05-.39-.14-.43-.42-.05-.29.06-.56.26-.62.19-.05.38.14.43.42.05.29-.07.56-.26.62M99.2,31.84s0,0,0,0c.07-.16.1-.36.06-.57,0,0,0,0,0,0,.1.14.23.22.36.22-.03.14-.03.29,0,.45.01.06.02.11.04.16-.11-.2-.28-.31-.45-.26M99.71,32.95s-.03,0-.04.02c.08-.15.11-.36.08-.58,0-.04-.02-.09-.03-.13.1.19.25.31.4.33-.03.14-.03.29,0,.45,0,.03.01.05.02.08-.12-.14-.27-.21-.41-.17"/><path class="cls-4" d="M94.94,41.98c-.2.05-.33.35-.28.67.05.32.26.54.46.49.21-.05.33-.35.28-.67-.05-.32-.26-.54-.46-.49"/><path class="cls-4" d="M92.84,49.26c-.04-.28-.22-.47-.4-.44-.18.04-.29.3-.25.57.04.28.22.47.4.44.18-.04.29-.29.25-.58"/><path class="cls-4" d="M95.45,41.19c.13-.03.21-.23.18-.44-.03-.21-.17-.35-.3-.32-.13.03-.21.23-.18.44.03.21.17.35.3.31"/><path class="cls-4" d="M91.73,30.99c.03.17.14.29.26.26.11-.03.18-.2.15-.37-.03-.17-.14-.29-.26-.26-.11.03-.18.2-.15.37"/><path class="cls-4" d="M91.77,48.19c.03.23.18.39.33.36.15-.03.24-.24.21-.48-.03-.23-.18-.39-.33-.36-.15.03-.24.24-.2.47"/><path class="cls-4" d="M92.12,50.61c-.13.03-.22.22-.19.43.03.21.16.36.3.33.13-.02.22-.21.19-.42-.03-.21-.16-.36-.3-.33"/><path class="cls-4" d="M94.16,42.72c-.17.04-.27.29-.23.55.04.27.21.45.38.41.17-.04.27-.29.23-.55-.04-.26-.21-.45-.38-.41"/><path class="cls-4" d="M93.39,43.53c-.13.03-.22.22-.18.44.03.21.17.35.3.32.13-.03.22-.23.18-.44-.03-.21-.17-.35-.3-.32"/><path class="cls-4" d="M93.05,45.19c-.17.03-.27.27-.23.53.04.26.21.44.37.41.17-.04.27-.27.23-.53-.04-.26-.2-.44-.37-.4"/><path class="cls-4" d="M92.74,46.95c-.19.04-.31.31-.26.6.04.29.23.5.42.46.19-.04.3-.31.26-.6-.04-.29-.23-.5-.42-.46"/><path class="cls-4" d="M93.84,44.45c-.2.04-.33.33-.28.64.05.31.25.53.45.49.2-.04.33-.33.28-.64-.05-.31-.25-.53-.45-.49"/><path class="cls-4" d="M93.23,48.11c-.21.04-.34.34-.29.67.05.32.26.55.46.51.21-.05.34-.34.29-.67-.05-.32-.26-.55-.46-.51"/><path class="cls-4" d="M93.34,50.42c-.04-.28-.22-.47-.39-.44-.18.03-.29.29-.25.56.04.28.22.47.39.44.18-.03.29-.29.25-.56"/><path class="cls-4" d="M94.04,46.75c-.05-.34-.27-.57-.48-.53-.22.05-.35.36-.3.69.05.34.27.57.48.53.22-.05.35-.36.3-.69"/><path class="cls-4" d="M88.65,27.61c-.06-.34-.28-.56-.49-.5-.21.06-.34.38-.28.72.06.34.28.56.49.5.21-.06.34-.38.28-.72"/><path class="cls-4" d="M89.1,28.83c-.05-.28-.23-.47-.41-.42-.18.05-.28.32-.24.6.05.28.23.47.41.42.18-.05.28-.32.23-.6"/><path class="cls-4" d="M87.94,29.17c-.14.04-.22.24-.18.46.04.22.18.36.32.32.14-.04.22-.24.18-.46-.04-.21-.18-.36-.31-.32"/><path class="cls-4" d="M89.25,29.67c-.13.04-.21.23-.17.43.04.2.17.34.3.3.13-.04.21-.23.17-.43-.04-.2-.17-.34-.3-.3"/><path class="cls-4" d="M89.94,28.14c-.05-.31-.26-.52-.46-.47-.2.06-.32.36-.26.67.05.31.26.52.46.47.2-.06.32-.36.26-.67"/><path class="cls-4" d="M87.8,28.32c-.05-.3-.25-.49-.43-.44-.19.05-.3.34-.25.63.05.3.25.49.44.44.19-.05.3-.34.25-.63"/><path class="cls-4" d="M85.31,28.37c-.09.02-.13.15-.11.28.02.13.11.22.2.2.08-.02.13-.15.11-.28-.02-.13-.11-.22-.2-.19"/><path class="cls-4" d="M86.62,28.7c-.14.04-.23.25-.19.47.04.22.18.37.33.33.14-.04.22-.25.18-.47-.04-.22-.18-.37-.32-.33"/><path class="cls-4" d="M91.21,28.56c-.05-.3-.25-.49-.44-.44-.19.05-.3.34-.25.63.05.3.25.5.44.44.19-.05.3-.34.25-.63"/><path class="cls-4" d="M90.02,28.88c-.16.04-.25.28-.21.53.04.25.21.41.37.37.16-.05.25-.28.21-.53-.04-.25-.21-.41-.37-.37"/><path class="cls-4" d="M91.37,51.16c-.08.02-.14.14-.12.27.02.13.1.23.19.21.09-.02.14-.13.12-.27-.02-.13-.1-.23-.19-.21"/><path class="cls-4" d="M92.12,28.58c-.19.05-.3.34-.25.64.05.3.25.5.44.45.19-.05.3-.34.25-.64-.05-.3-.25-.5-.44-.45"/><path class="cls-4" d="M91.99,49.9c-.03-.2-.16-.35-.29-.32-.13.03-.22.22-.18.42.03.2.16.35.29.32.13-.03.21-.22.18-.42"/><path class="cls-4" d="M90.61,30.22c-.1.03-.16.18-.14.34.03.16.13.27.24.24.1-.03.16-.18.14-.34-.03-.16-.13-.27-.24-.24"/><path class="cls-4" d="M91.47,30.23c.14-.04.22-.24.18-.46-.04-.21-.18-.36-.32-.32-.14.04-.22.24-.18.46.04.21.18.35.31.32"/><path class="cls-4" d="M92.42,30.39c.05.25.21.42.37.37.16-.05.26-.29.21-.54-.04-.25-.21-.42-.37-.37-.16.04-.25.29-.21.54"/><path class="cls-4" d="M94.61,41.29c-.08.02-.13.15-.11.28.02.13.11.22.19.2.09-.02.14-.15.11-.28-.02-.13-.11-.22-.19-.2"/><path class="cls-4" d="M94.58,31.64c-.08.02-.13.15-.11.28.02.13.11.22.19.2.08-.02.13-.15.11-.28-.02-.13-.11-.22-.19-.2"/><path class="cls-4" d="M96.06,29.95c-.2.06-.31.35-.26.66.05.31.26.52.46.46.2-.06.31-.35.26-.66-.05-.31-.26-.52-.46-.46"/><path class="cls-4" d="M96.08,39.63c-.17.05-.28.3-.23.57.04.27.22.45.39.41.17-.04.28-.3.23-.57s-.22-.45-.4-.41"/><path class="cls-4" d="M95.7,32.45c.04.2.16.33.29.29.13-.04.2-.22.17-.42-.04-.2-.17-.33-.29-.29-.13.03-.2.22-.16.42"/><path class="cls-4" d="M96.4,31.74c.05.25.21.42.37.37.16-.05.26-.29.21-.54-.04-.25-.21-.42-.37-.38-.16.05-.26.29-.21.54"/><path class="cls-4" d="M96.52,38.72c.13-.04.21-.24.18-.45-.04-.21-.17-.35-.31-.31-.13.04-.21.24-.17.45.04.21.17.35.31.31"/><path class="cls-4" d="M95.47,31.65c.16-.04.26-.29.21-.54-.05-.25-.21-.42-.37-.38-.16.05-.26.29-.21.54.05.25.21.42.37.37"/><path class="cls-4" d="M93.12,31.49c.02.13.11.22.19.2s.13-.15.11-.28c-.02-.13-.11-.22-.19-.2-.08.02-.13.15-.11.28"/><path class="cls-4" d="M94.73,29.46c-.2.06-.32.35-.26.66.05.31.26.52.46.46.2-.06.31-.35.26-.66-.05-.31-.26-.52-.46-.46"/><path class="cls-4" d="M93.7,30.84c.05.26.22.43.38.38.17-.05.26-.29.22-.55-.05-.26-.22-.43-.38-.38-.16.05-.26.29-.22.55"/><path class="cls-4" d="M97.29,38.15c.18-.05.28-.31.23-.59-.05-.28-.23-.46-.41-.41-.18.05-.28.31-.23.59.05.28.23.46.41.41"/><path class="cls-4" d="M93.42,29.05c-.2.06-.31.35-.26.66.05.31.26.52.46.46.2-.06.31-.35.26-.66-.05-.31-.26-.52-.46-.46"/><path class="cls-4" d="M28.93,38.11c0-2.26,1.76-3.92,3.95-3.92s3.95,1.66,3.95,3.92-1.75,3.92-3.95,3.92-3.95-1.67-3.95-3.92M29.79,38.11c0,1.74,1.38,3.13,3.08,3.13s3.08-1.39,3.08-3.13-1.38-3.13-3.08-3.13-3.08,1.39-3.08,3.13"/><path class="cls-4" d="M41.34,38.5c-.43-.55-1.06-.7-1.48-.7-.88,0-1.67.61-1.67,1.76s.82,1.75,1.66,1.75c.49,0,1.09-.22,1.52-.74v.98c-.51.38-1.06.49-1.5.49-1.47,0-2.52-1.05-2.52-2.47s1.07-2.5,2.52-2.5c.75,0,1.24.3,1.47.45v.98Z"/><path class="cls-4" d="M46.04,38.5c-.43-.55-1.06-.7-1.48-.7-.88,0-1.67.61-1.67,1.76s.82,1.75,1.66,1.75c.49,0,1.09-.22,1.52-.74v.98c-.51.38-1.06.49-1.5.49-1.47,0-2.52-1.05-2.52-2.47s1.07-2.5,2.52-2.5c.75,0,1.24.3,1.47.45v.98Z"/><path class="cls-4" d="M47.86,39.93c0,.33,0,.72.23,1.01.12.16.38.36.83.36s.71-.2.83-.36c.23-.3.23-.68.23-1.01v-2.75h.82v2.84c0,.58-.06,1.01-.43,1.42-.42.44-.98.59-1.44.59s-1.02-.15-1.44-.59c-.38-.41-.43-.84-.43-1.42v-2.84h.82v2.75Z"/><path class="cls-4" d="M52.64,44.51h-.82v-7.33h.82v.66c.56-.69,1.27-.77,1.61-.77,1.48,0,2.3,1.23,2.3,2.5s-.83,2.47-2.26,2.47c-.76,0-1.3-.34-1.65-.8v3.27ZM55.71,39.57c0-1.16-.78-1.77-1.55-1.77s-1.57.63-1.57,1.76c0,.97.61,1.75,1.58,1.75s1.53-.8,1.53-1.74"/><path class="cls-4" d="M61.13,37.18h.82v4.72h-.82v-.66c-.27.35-.78.8-1.61.8-1.19,0-2.3-.84-2.3-2.5s1.09-2.47,2.3-2.47c.91,0,1.4.5,1.61.78v-.67ZM58.06,39.53c0,1.01.57,1.77,1.55,1.77s1.57-.83,1.57-1.76c0-1.22-.84-1.75-1.57-1.75-.81,0-1.55.59-1.55,1.74"/><polygon class="cls-4" points="64.06 37.93 64.06 41.9 63.24 41.9 63.24 37.93 62.74 37.93 62.74 37.18 63.24 37.18 63.24 35.47 64.06 35.47 64.06 37.18 64.87 37.18 64.87 37.93 64.06 37.93"/><rect class="cls-4" x="65.59" y="37.18" width=".82" height="4.72"/><path class="cls-4" d="M66,35.21c-.29,0-.53.24-.53.52s.24.53.53.53.53-.24.53-.53-.24-.52-.53-.52"/><path class="cls-4" d="M67.15,39.56c0-1.43,1.06-2.49,2.5-2.49s2.5,1.06,2.5,2.49-1.07,2.48-2.5,2.48-2.5-1.05-2.5-2.48M67.99,39.56c0,1.16.82,1.75,1.66,1.75s1.66-.6,1.66-1.75-.8-1.76-1.66-1.76-1.66.61-1.66,1.76"/><path class="cls-4" d="M72.89,37.18h.82v.55c.15-.19.57-.66,1.35-.66.56,0,1.07.23,1.35.65.24.35.27.74.27,1.26v2.92h-.82v-2.9c0-.28-.02-.61-.22-.86-.16-.2-.41-.34-.77-.34-.28,0-.59.08-.83.36-.32.37-.34.93-.34,1.27v2.47h-.82v-4.72Z"/><path class="cls-4" d="M81.34,37.18h.82v4.72h-.82v-.66c-.27.35-.78.8-1.61.8-1.19,0-2.3-.84-2.3-2.5s1.09-2.47,2.3-2.47c.91,0,1.4.5,1.61.78v-.67ZM78.27,39.53c0,1.01.57,1.77,1.55,1.77s1.57-.83,1.57-1.76c0-1.22-.84-1.75-1.57-1.75-.81,0-1.55.59-1.55,1.74"/><rect class="cls-4" x="83.42" y="34.31" width=".82" height="7.58"/><polygon class="cls-4" points="33.11 44.8 33.11 51.59 32.27 51.59 32.27 44.8 30.43 44.8 30.43 44 34.95 44 34.95 44.8 33.11 44.8"/><path class="cls-4" d="M35.69,44h.82v3.41c.15-.19.57-.66,1.35-.66.56,0,1.07.23,1.35.65.24.35.27.74.27,1.26v2.92h-.82v-2.9c0-.28-.02-.61-.22-.86-.16-.2-.41-.34-.77-.34-.28,0-.59.08-.83.36-.32.37-.34.93-.34,1.27v2.47h-.82v-7.58Z"/><path class="cls-4" d="M44.59,50.38c-.14.26-.34.55-.58.76-.43.39-.97.58-1.57.58-1.14,0-2.33-.72-2.33-2.47,0-1.41.86-2.5,2.29-2.5.92,0,1.5.45,1.79.86.3.42.47,1.15.44,1.77h-3.67c.01.98.68,1.6,1.5,1.6.39,0,.69-.11.97-.34.22-.18.39-.42.49-.65l.68.37ZM43.79,48.71c-.14-.74-.69-1.23-1.39-1.23s-1.26.52-1.39,1.23h2.77Z"/><path class="cls-4" d="M45.37,46.87h.82v.51c.08-.12.43-.62,1.07-.62.25,0,.52.09.73.19l-.39.74c-.18-.12-.35-.16-.48-.16-.33,0-.53.14-.66.3-.14.18-.27.5-.27,1.27v2.49h-.82v-4.72Z"/><path class="cls-4" d="M51.82,46.87h.82v4.72h-.82v-.66c-.27.35-.78.8-1.61.8-1.19,0-2.3-.84-2.3-2.5s1.09-2.47,2.3-2.47c.91,0,1.4.5,1.61.78v-.67ZM48.75,49.22c0,1.01.57,1.77,1.55,1.77s1.57-.83,1.57-1.76c0-1.22-.84-1.75-1.57-1.75-.81,0-1.55.59-1.55,1.74"/><path class="cls-4" d="M54.49,54.2h-.82v-7.33h.82v.66c.56-.69,1.27-.77,1.61-.77,1.48,0,2.3,1.23,2.3,2.5s-.83,2.47-2.26,2.47c-.76,0-1.3-.34-1.65-.8v3.27ZM57.56,49.26c0-1.16-.79-1.77-1.55-1.77s-1.57.63-1.57,1.76c0,.97.61,1.75,1.58,1.75s1.53-.8,1.53-1.74"/><polygon class="cls-4" points="60.63 51.14 58.46 46.87 59.39 46.87 61.07 50.24 62.6 46.87 63.51 46.87 60.04 54.2 59.13 54.2 60.63 51.14"/><path class="cls-4" d="M65.47,51.02h-1.1l-.24.57h-.57l1.17-2.72h.42l1.14,2.72h-.57l-.24-.57ZM65.32,50.58l-.39-.98-.39.98h.77Z"/><path class="cls-4" d="M67.15,48.87v1.71c0,.21.07.33.13.4.08.09.22.19.43.19s.35-.09.43-.19c.06-.07.13-.2.13-.4v-1.71h.53v1.66c0,.26-.04.52-.2.73-.2.26-.54.39-.89.39s-.69-.13-.89-.39c-.16-.21-.2-.47-.2-.73v-1.66h.53Z"/><path class="cls-4" d="M70.87,49.49c-.16-.21-.35-.23-.45-.23-.29,0-.37.18-.37.32,0,.07.02.13.09.18.07.06.15.09.33.16.21.07.41.15.55.27.12.11.23.29.23.57,0,.53-.38.89-.95.89-.5,0-.79-.31-.94-.51l.35-.33c.13.26.38.36.57.36.24,0,.42-.15.42-.37,0-.1-.03-.18-.11-.24-.1-.09-.26-.15-.42-.2-.14-.05-.31-.11-.45-.24-.09-.08-.22-.23-.22-.5,0-.4.27-.8.87-.8.17,0,.49.03.77.32l-.28.36Z"/><polygon class="cls-4" points="72.62 49.32 72.62 51.59 72.09 51.59 72.09 49.32 71.48 49.32 71.48 48.87 73.23 48.87 73.23 49.32 72.62 49.32"/><path class="cls-4" d="M74.46,48.87c.37,0,.57.1.69.2.21.18.27.41.27.61,0,.26-.11.5-.32.64-.07.05-.17.09-.3.12l.85,1.14h-.66l-.73-1.09h-.07v1.09h-.53v-2.72h.79ZM74.2,50.12h.15c.1,0,.52-.01.52-.41s-.42-.41-.51-.41h-.16v.82Z"/><path class="cls-4" d="M77.72,51.02h-1.1l-.24.57h-.57l1.17-2.72h.42l1.14,2.72h-.57l-.24-.57ZM77.57,50.58l-.39-.98-.39.98h.77Z"/><polygon class="cls-4" points="79.49 48.87 79.49 51.13 80.33 51.13 80.33 51.59 78.96 51.59 78.96 48.87 79.49 48.87"/><rect class="cls-4" x="80.8" y="48.87" width=".53" height="2.72"/><path class="cls-4" d="M83.66,51.02h-1.1l-.24.57h-.57l1.17-2.72h.42l1.14,2.72h-.57l-.24-.57ZM83.5,50.58l-.39-.98-.39.98h.77Z"/></svg>