<?xml version="1.0" encoding="UTF-8"?><svg id="Layer_1" xmlns="http://www.w3.org/2000/svg" viewBox="0 0 400 400"><defs><style>.cls-1{fill:none;stroke:#000;stroke-linecap:round;stroke-linejoin:round;stroke-width:.75px;}.cls-2{fill:#e8d6b6;}.cls-3{fill:#1d8fb8;}.cls-4{fill:#3ea9c6;}.cls-5{fill:#827c74;}</style></defs><path class="cls-2" d="m286.6,220.69c.58,2.3.31,4.67-.05,6.99-.27,1.77-.7,3.48-1.14,5.23-.77,3.15-1.91,6.22-3.41,9.15-1.14,2.23-2.44,4.43-3.85,6.56-2.03,3.05-4.21,6.02-6.85,8.66-.9.9-1.81,1.74-2.83,2.54-1.89,1.52-3.97,2.83-6.7,2.88-1.48.05-2.86-.12-4.09-.94-1.57-1.06-2.13-2.54-2.37-4.16-.22-1.5-.22-3-.02-4.52.31-2.93.8-5.83,1.89-8.61,2.03-5.32,5.01-10.28,8.32-15.07,1.69-2.42,3.46-4.77,5.54-6.94.68-.73,1.4-1.43,2.15-2.11,2.03-1.84,4.16-3.63,7.26-4.09h.07c3.85-.02,5.4,1.77,6.07,4.45Z"/><path class="cls-2" d="m250.09,227.68v.07c0,1.79-.99,3.12-2.56,4.16-2.01,1.28-4.26,1.77-6.73,1.69-2.71-.07-5.08-.8-6.9-2.56-1.91-1.84-2.15-3.87-.53-5.95,1.62-2.08,4.14-2.93,6.9-3.15,1.89-.17,3.73.1,5.49.8,2.47.99,4.11,2.47,4.33,4.94Z"/><path class="cls-2" d="m219.07,165.86c.02.75.22,1.52.17,2.3-.1,1.43-.6,2.61-1.72,3.63-2.81,2.52-6.39,3.44-10.28,3.68-2.47.15-4.82-.34-7.07-1.16-1.91-.7-3.48-1.79-4.72-3.29-1.09-1.33-.53-2.9-.97-4.31.17-.27.24-.53.24-.8l.22.02c.29.24.63.44.87.7,2.25,2.69,5.54,3.68,9.12,4.04,1.77.17,3.56.1,5.32-.27,3-.6,5.69-1.67,7.69-3.77.29-.31.51-.65.97-.77h.15Z"/><path class="cls-2" d="m122.36,171.08c3.53,2.13,3.46,5.86,0,7.86-2.42,1.4-5.03,1.79-7.79,1.19-3.05-.68-5.4-2.3-5.66-5.06v-.07c.15-1.19.63-2.27,1.6-3.15,2.73-2.49,8.2-3,11.86-.77Z"/><path class="cls-4" d="m180.86,210.11c-.9.53-2.08.46-3.1-.29-.65-.48-1.19-1.14-1.86-1.62-.07-.1-.17-.15-.27-.22-.15-.07-.22-.19-.24-.31l-.1.02c-.99.12-2.01.31-2.86-.39-.27-.24-.53-.53-.87-.68-.19-.07-.34-.22-.48-.36-.29-.24-.56-.51-1.11-.44-1.02.15-1.89-.19-2.78-.73-.19-.12-.39-.29-.6-.46-.31-.22-.65-.44-1.11-.41-1.52.12-2.61-.53-3.65-1.38-.22-.17-.44-.34-.68-.48-.48-.31-1.02-.53-1.69-.56-.9-.02-1.67-.41-2.4-.9-.34-.22-.68-.44-1.04-.6-.58-.27-1.21-.44-1.98-.27-.53.12-1.09-.07-1.57-.34-.58-.34-1.16-.65-1.67-1.04v-.02c-.12-.07-.24-.17-.36-.27l-.73.02c-1.26.12-2.44-.12-3.44-.94-.29-.27-.63-.48-.99-.63-.22-.07-.46-.12-.7-.1-.9.12-1.65-.07-2.4-.44-.44-.19-.85-.53-1.33-.68-2.86-.9-5.73-1.69-8.57-2.64-3.19-1.04-6.41-2.06-9.58-3.19-3.05-1.09-6.1-2.2-9.1-3.39-3.36-1.31-6.65-2.73-9.82-4.33-1.94-.97-3.19-2.37-3.65-4.28-.1-.44-.05-.92-.51-1.23l-.75-.36c.53-1.14,1.26-2.2,2.32-3.12,2.56-2.23,4.94-4.62,7.45-6.9,1.86-1.67,3.68-3.39,5.49-5.08.9-.82,1.81-.92,3-.39.9.41,1.74.92,2.66,1.31,1.48.58,2.73,1.52,4.31,1.96,0-.02.02-.02.02-.05l.17.1c1.62,1.02,3.56,1.52,5.32,2.27,2.69,1.14,5.44,2.13,8.15,3.24,3.77,1.52,7.6,2.93,11.4,4.4,1.91.73,3.82,1.48,5.66,2.32.58.27,1.04.22,1.33-.12,1.26-1.5,2.66-1.04,4.19-.36,2.47,1.06,5.01,2.11,7.5,3.15,5.18,2.18,10.33,4.38,15.51,6.53,6.36,2.66,12.68,5.42,19.09,8.01,4.11,1.67,8.15,3.44,12.24,5.15,3.39,1.43,6.78,2.88,10.16,4.31,3.85,1.6,7.6,3.31,11.52,4.77,3.12,1.14,6.44,1.69,9.82,1.77.39,0,.77.05,1.14.07.53.02,1.02-.07,1.43-.39l.05-.1c.7.41,1.57.34,2.35.36,2.03.1,4.09-.12,6.1-.44,2.64-.41,5.2-1.06,7.6-2.08.36-.15.73-.31,1.09-.48,4.04-1.84,7.57-4.21,9.9-7.79,1.45-2.27,1.98-4.72,1.6-7.31-.44-2.86-1.96-5.3-4.09-7.45-3.36-3.46-7.72-5.71-12.46-7.48-2.06-.75-4.07-1.57-6.1-2.37-3.31-1.28-6.61-2.56-9.92-3.85-2.54-.99-5.08-1.94-7.62-2.93-3.36-1.33-6.78-2.64-10.16-3.94-2.18-.85-4.38-1.69-6.56-2.61-.46-.19-.94-.24-1.43-.36l-.19.07c-.39-.99-1.48-1.89-2.54-2.61-.46-.31-.94-.6-1.43-.85l2.47-4.91c2.11,1.09,4.23,2.11,6.39,3.07,6.27,2.83,12.73,5.23,19.41,7.21,4.09,1.21,8.23,2.25,12.46,3.02,5.27.99,10.33,2.59,15.34,4.36,5.03,1.79,9.94,3.77,14.76,5.95,3.7,1.67,7.43,3.36,10.99,5.27.73.39,1.5.68,2.2,1.09.94.53,1.36,1.33,1.5,2.25.1.63.17,1.26.22,1.89l-.22.02c-1.06.05-1.52.85-2.08,1.4-1.65,1.57-3.15,3.22-4.72,4.82-2.11,2.13-4.19,4.26-6.29,6.39-1.55,1.57-3.15,3.12-4.69,4.69-2.64,2.69-5.23,5.4-7.89,8.08-2.32,2.37-4.72,4.69-7.07,7.07l-.29.29c-2.15,2.2-4.28,4.43-6.44,6.63-1.98,2.01-4.04,3.99-6,6-.85.87-1.67,1.74-2.52,2.59-2.03,2.03-4.52,3.48-7.6,3.92-1.5.22-3,.1-4.52-.1-3.75-.44-6.97-1.96-10.26-3.41-4.52-1.96-9.12-3.85-13.62-5.86-3-1.36-6.1-2.54-9.05-3.97-1.14-.56-2.35-.99-3.53-1.48-.92-.39-1.86-.77-2.56-1.48-.19-.17-.36-.39-.7-.39l-.17-.02c.05-.51-.1-.97-.36-1.43l-.05-.15c-.15.1-.36.15-.65.17-1.52.1-2.59-.73-3.8-1.26,0,0-.02,0-.02-.02-.15-.07-.24-.29-.24-.44,0-.36-.22-.63-.39-.97-1.45.39-2.52-.19-3.44-1.09-.05-.07-.17-.07-.27-.1l-.17-.02c.1-.53-.15-.99-.36-1.48-.29.02-.51.02-.7.05-1.55.1-2.86-.44-4.07-1.16l-.19-.02c.17-.65-.34-1.21-1.14-1.28-.39-.02-.68-.17-.97-.31-.8-.36-1.33-1.02-2.03-1.45-.12-.1-.24-.17-.36-.24l-.36-.02Zm69.23,17.64v-.07c-.22-2.47-1.86-3.94-4.33-4.94-1.77-.7-3.61-.97-5.49-.8-2.76.22-5.27,1.06-6.9,3.15s-1.38,4.11.53,5.95c1.81,1.77,4.19,2.49,6.9,2.56,2.47.07,4.72-.41,6.73-1.69,1.57-1.04,2.56-2.37,2.56-4.16Zm-127.73-48.8c3.46-2.01,3.53-5.73,0-7.86-3.65-2.23-9.12-1.72-11.86.77-.97.87-1.45,1.96-1.6,3.15v.07c.27,2.76,2.61,4.38,5.66,5.06,2.76.6,5.37.22,7.79-1.19Z"/><path class="cls-2" d="m213.19,166.66l-.02-.1c.02-.24-.07-.44-.24-.63-.48-.51-.75-1.09-.99-1.69-.36-.87-.12-1.62.53-2.3.65-.7,1.6-1.02,2.4-1.55l.07-.05s-.05-.05-.07-.1c-.34-.85-1.21-1.33-1.77-2.01-.27-.34-.6-.24-.9-.12-.27.07-.46.31-.7.44-1.55.75-3.17,1.09-4.86.46-.9-.34-1.67-.85-2.3-1.48-.29-.29-.65-.29-.9-.12-1.06.7-2.35,1.16-3.34,2.13.48.41,1.02.8,1.48,1.26.53.53.48,1.14-.1,1.67-.63.6-1.4,1.04-2.3,1.31-.46.15-.92.34-1.28.65.63.73,1.21,1.38,1.81,2.03.68.75.82.77,1.77.31.97-.48,1.96-.87,3.12-.85.1,0,.17-.02.19-.05l.15.02c2.06-.07,3.56.87,4.94,2.06,1.11-.44,2.18-.99,3.32-1.31Zm5.73-6.22c.51,1.33.75,2.86.29,4.36-.12.36-.15.7-.15,1.06h-.15c-.46.12-.68.46-.97.77-2.01,2.11-4.69,3.17-7.69,3.77-1.77.36-3.56.44-5.32.27-3.58-.36-6.87-1.36-9.12-4.04-.24-.27-.58-.46-.87-.7l-.22-.02c.05-.53-.17-1.06-.24-1.6-.22-1.43-.1-2.86.92-4.07,2.23-2.61,5.35-3.99,9-4.55.56-.1,1.21-.05,1.69-.46l.19-.34c.63.31,1.31.36,2.01.41.6.05,1.19.07,1.77.15,1.77.22,3.36.7,4.86,1.48.48.24.97.53,1.43.85,1.06.73,2.15,1.62,2.54,2.61,0,.02.02.02.02.05Z"/><path class="cls-4" d="m217.4,152.02l-2.47,4.91c-1.5-.77-3.1-1.26-4.86-1.48-.58-.07-1.16-.1-1.77-.15-.7-.05-1.38-.1-2.01-.41-.17-.07-.34-.17-.51-.29-.9-.63-2.08-.94-3.15-1.36-2.61-1.04-5.25-2.06-7.89-3.07-3.87-1.5-7.79-2.98-11.66-4.48-1.96-.75-3.9-1.55-5.86-2.3-2.98-1.14-5.98-2.25-8.93-3.39-3.53-1.36-7.02-2.81-10.55-4.14-2.13-.8-4.23-1.65-6.36-2.47-1.36-.48-2.76-.51-4.16-.15-.05,0-.1.02-.15.05l-.02-.07c-.12-.34-.29-.7-.36-1.06-.05-.29.02-.53.34-.77,1.91-1.55,3.82-3.1,5.66-4.69,1.45-1.23,3.15-1.72,5.15-1.69,1.65,0,3.27.05,4.86.34.9.17,1.69.68,2.56.99,6.39,2.35,12.68,4.91,18.85,7.67,4.48,2.01,8.95,3.97,13.16,6.34,2.86,1.62,5.47,3.53,8.28,5.2,3.85,2.3,7.79,4.45,11.83,6.46Z"/><path class="cls-2" d="m204.79,165.88s-.1.05-.19.05c-1.16-.02-2.15.36-3.12.85-.94.46-1.09.44-1.77-.31-.6-.65-1.19-1.31-1.81-2.03.36-.31.82-.51,1.28-.65.9-.27,1.67-.7,2.3-1.31.58-.53.63-1.14.1-1.67-.46-.46-.99-.85-1.48-1.26.99-.97,2.27-1.43,3.34-2.13.24-.17.6-.17.9.12.63.63,1.4,1.14,2.3,1.48,1.69.63,3.31.29,4.86-.46.24-.12.44-.36.7-.44.29-.12.63-.22.9.12.56.68,1.43,1.16,1.77,2.01.02.05.05.07.07.1l-.07.05c-.8.53-1.74.85-2.4,1.55-.65.68-.9,1.43-.53,2.3.24.6.51,1.19.99,1.69.17.19.27.39.24.63l.02.1c-1.14.31-2.2.87-3.31,1.31-1.38-1.19-2.88-2.13-4.94-2.06l-.15-.02Z"/><path class="cls-2" d="m277.43,191.31c.39,2.59-.15,5.03-1.6,7.31-2.32,3.58-5.86,5.95-9.9,7.79l-.1-.19c-.58-.58-1.45-.75-2.2-1.06-2.4-.94-4.79-1.89-7.19-2.86-4.11-1.62-8.25-3.27-12.39-4.91-2.15-.87-4.28-1.79-6.46-2.61-4.74-1.81-9.44-3.73-14.16-5.57-4.89-1.94-9.8-3.87-14.69-5.83-3.51-1.43-7.04-2.81-10.55-4.23l1.96-4.84c2.25.82,4.6,1.31,7.07,1.16,3.9-.24,7.48-1.16,10.28-3.68,1.11-1.02,1.62-2.2,1.72-3.63.05-.77-.15-1.55-.17-2.3,0-.36.02-.7.15-1.06.46-1.5.22-3.02-.29-4.36,0-.02-.02-.02-.02-.05l.19-.07c.48.12.97.17,1.43.36,2.18.92,4.38,1.77,6.56,2.61,3.39,1.31,6.8,2.61,10.16,3.94,2.54.99,5.08,1.94,7.62,2.93,3.31,1.28,6.61,2.56,9.92,3.85,2.03.8,4.04,1.62,6.1,2.37,4.74,1.77,9.1,4.02,12.46,7.48,2.13,2.15,3.65,4.6,4.09,7.45Z"/><path class="cls-2" d="m248.81,209.05l-.05.1c-.41.31-.9.41-1.43.39-.36-.02-.75-.07-1.14-.07-3.39-.07-6.7-.63-9.82-1.77-3.92-1.45-7.67-3.17-11.52-4.77-3.39-1.43-6.78-2.88-10.16-4.31-4.09-1.72-8.13-3.48-12.24-5.15-6.41-2.59-12.73-5.35-19.09-8.01-5.18-2.15-10.33-4.36-15.51-6.53-2.49-1.04-5.03-2.08-7.5-3.15-1.52-.68-2.93-1.14-4.19.36-.29.34-.75.39-1.33.12-1.84-.85-3.75-1.6-5.66-2.32-3.8-1.48-7.62-2.88-11.4-4.4-2.71-1.11-5.47-2.11-8.15-3.24-1.77-.75-3.7-1.26-5.32-2.27l-.17-.1c.92-1.48,1.5-3.02,2.23-4.52l.12-.15c.92.31,1.79.73,2.69,1.09,4.36,1.72,8.69,3.46,13.02,5.2,4.62,1.86,9.22,3.75,13.82,5.61,2.47,1.02,4.96,2.01,7.43,3,3,1.21,5.98,2.4,8.95,3.63,4.69,1.91,9.39,3.85,14.08,5.76,4.4,1.79,8.83,3.58,13.26,5.37,2.78,1.14,5.54,2.27,8.32,3.39,4.74,1.94,9.51,3.85,14.25,5.78,4.11,1.65,8.2,3.31,12.32,4.98l12.2,4.94c.63.24,1.26.48,1.79.9.07.05.15.1.22.15Z"/><path class="cls-5" d="m265.84,206.22l.1.19c-.36.17-.73.34-1.09.48-2.4,1.02-4.96,1.67-7.6,2.08-2.01.31-4.07.53-6.1.44-.77-.02-1.65.05-2.35-.36-.07-.05-.15-.1-.22-.15-.53-.41-1.16-.65-1.79-.9-4.07-1.65-8.13-3.29-12.2-4.94-4.11-1.67-8.2-3.34-12.32-4.98-4.74-1.94-9.51-3.85-14.25-5.78-2.78-1.11-5.54-2.25-8.32-3.39-4.43-1.79-8.86-3.58-13.26-5.37-4.69-1.91-9.39-3.85-14.08-5.76-2.98-1.23-5.95-2.42-8.95-3.63-2.47-.99-4.96-1.98-7.43-3-4.6-1.86-9.19-3.75-13.82-5.61-4.33-1.74-8.66-3.48-13.02-5.2-.9-.36-1.77-.77-2.69-1.09-.82-.31-1.57-1.04-2.27-1.62.29-1.33.46-2.61.85-3.85.24-.8.22-1.72,1.02-2.4.36-.34.8-.58,1.16-.92h.02l.41.46c.99.73,2.25.99,3.39,1.45,4.31,1.79,8.66,3.51,12.99,5.25,5.2,2.06,10.4,4.09,15.58,6.15,4.26,1.69,8.49,3.39,12.75,5.08,3.75,1.48,7.5,2.98,11.23,4.45,2.66,1.06,5.35,2.08,7.98,3.17,2.2.92,4.4,1.79,6.63,2.66,3.51,1.43,7.04,2.81,10.55,4.23,4.89,1.96,9.8,3.9,14.69,5.83,4.72,1.84,9.41,3.75,14.16,5.57,2.18.82,4.31,1.74,6.46,2.61,4.14,1.65,8.28,3.29,12.39,4.91,2.4.97,4.79,1.91,7.19,2.86.75.31,1.62.48,2.2,1.06Z"/><path class="cls-2" d="m205.79,154.61c.17.12.34.22.51.29l-.19.34c-.48.41-1.14.36-1.69.46-3.65.56-6.78,1.94-9,4.55-1.02,1.21-1.14,2.64-.92,4.07.07.53.29,1.06.24,1.6,0,.27-.07.53-.24.8.44,1.4-.12,2.98.97,4.31,1.23,1.5,2.81,2.59,4.72,3.29l-1.96,4.84c-2.23-.87-4.43-1.74-6.63-2.66-2.64-1.09-5.32-2.11-7.98-3.17-3.73-1.48-7.48-2.98-11.23-4.45-4.26-1.69-8.49-3.39-12.75-5.08-5.18-2.06-10.38-4.09-15.58-6.15-4.33-1.74-8.69-3.46-12.99-5.25-1.14-.46-2.4-.73-3.39-1.45l-.41-.46c2.56-2.32,5.11-4.6,7.67-6.92,2.54-2.27,5.13-4.52,7.6-6.85,1.33-1.26,2.98-2.13,4.36-3.29.05-.05.15-.07.22-.1.05-.02.1-.05.15-.05,1.4-.36,2.81-.34,4.16.15,2.13.82,4.23,1.67,6.36,2.47,3.53,1.33,7.02,2.78,10.55,4.14,2.95,1.14,5.95,2.25,8.93,3.39,1.96.75,3.9,1.55,5.86,2.3,3.87,1.5,7.79,2.98,11.66,4.48,2.64,1.02,5.27,2.03,7.89,3.07,1.06.41,2.25.73,3.15,1.35Z"/><path class="cls-3" d="m171.09,206.27l-.05.19c-.34.44-.36.94-.36,1.45v40.07c0,.48.24.97,0,1.45v.02c-.15-.05-.29-.05-.44,0-1.45.44-2.44-.22-3.34-1.02-.29-.27-.56-.41-.87-.46v-.02l.05-.12c.29-1.09.17-2.2.17-3.31.02-12.9,0-25.79.02-38.67,0-.34-.12-.7.17-1.02l.15-.19c.22.17.41.34.6.46.9.53,1.77.87,2.78.73.56-.07.82.19,1.11.44Z"/><path class="cls-3" d="m195.55,218.66l-.07.1c-.29.27-.27.6-.27.94v4.45c0,11.2,0,22.41-.02,33.61,0,1.04.31,2.11-.19,3.17-.02.02-.02.05,0,.07l-.15-.02c-1.55.17-2.76-.19-3.46-1.52-.22-.41-.36-.8-.46-1.21-.07-.36-.1-.73-.1-1.11.05-13.31.02-26.59.05-39.9,0-.27-.07-.56.05-.77.07-.15.1-.29.12-.41l.17.02c.1.02.22.02.27.1.92.9,1.98,1.48,3.44,1.09.17.34.39.6.39.97,0,.14.1.36.24.44Z"/><path class="cls-3" d="m161.14,202.37l-.1.17c-.24.31-.24.68-.17.99.07.31.07.63.07.92v39.85c-.02.41-.12.82-.02,1.23l-.24.07c-1.4,0-2.78-.29-3.77-1.11-.44-.39-.87-.65-1.36-.77l.07-.19c.17-.94.07-1.91.07-2.86.05-11.78.02-23.57.02-35.38,0-.24-.05-.51-.07-.77-.02-1.33-.07-2.66.24-3.99l.12-.22c.36.17.7.39,1.04.6.73.48,1.5.87,2.4.9.68.02,1.21.24,1.69.56Z"/><path class="cls-3" d="m166.59,204.65l-.15.19c-.29.31-.17.68-.17,1.02-.02,12.87,0,25.77-.02,38.67,0,1.11.12,2.23-.17,3.31l-.05.12c-.24-.05-.48-.07-.75-.05-1.57.07-2.59-.8-3.75-1.6-.36-.24-.53-.51-.6-.77-.1-.41,0-.82.02-1.23v-39.85c0-.29,0-.6-.07-.92s-.07-.68.17-.99l.1-.17c.24.15.46.31.68.48,1.04.85,2.13,1.5,3.65,1.38.46-.02.8.19,1.11.41Z"/><path class="cls-3" d="m150.79,198.64v.02l-.1.1c-.41.36-.31.82-.27,1.23.1.7.07,1.38.07,2.08v37.99c0,.39.02.75-.07,1.14-.05.24-.05.46.07.65l-.07.05c-1.67.41-3.17.19-4.33-.94-.34-.34-.65-.51-.99-.58v-.17c-.02-.36-.07-.73-.07-1.06-.02-13.77-.02-27.54,0-41.3,0-.29-.07-.6.17-.85l.07-.17c.36.15.7.36.99.63.99.82,2.18,1.06,3.44.94l.73-.02c.12.1.24.19.36.27Z"/><path class="cls-3" d="m156.01,200.31l-.12.22c-.31,1.33-.27,2.66-.24,3.99.02.27.07.53.07.77,0,11.81.02,23.59-.02,35.38,0,.94.1,1.91-.07,2.86l-.07.19c-.44-.15-.94-.15-1.52.02-.12.05-.34-.02-.51-.05-1.23-.15-1.94-.9-2.76-1.55-.12-.1-.19-.19-.27-.29-.12-.19-.12-.41-.07-.65.1-.39.07-.75.07-1.14v-37.99c0-.7.02-1.38-.07-2.08-.05-.41-.15-.87.27-1.23l.1-.1c.51.39,1.09.7,1.67,1.04.48.27,1.04.46,1.57.34.77-.17,1.4,0,1.98.27Z"/><path class="cls-3" d="m190.69,214.57c.22.48.46.94.36,1.48-.02.12-.05.27-.12.41-.12.22-.05.51-.05.77-.02,13.31,0,26.59-.05,39.9,0,.39.02.75.1,1.11l-.34.05c-.63-.02-1.31,0-1.94-.1-1.06-.15-1.91-.53-2.61-1.36-.27-.31-.41-.65-.46-.97-.07-.39-.05-.77-.05-1.19.02-13.36.02-26.71.02-40.07,0-.34,0-.68.15-1.02.02-.07.05-.12.02-.17l.19.02c1.21.73,2.52,1.26,4.07,1.16.19-.02.41-.02.7-.05Z"/><path class="cls-3" d="m175.64,207.98c.1.07.19.12.27.22l-.07.1c-.31.31-.36.68-.36,1.09,0,13.48.02,26.96-.02,40.43-.02.53.07.99.29,1.43l-.27.05c-1.57.41-2.9.12-3.9-1.09-.17-.19-.36-.36-.53-.53-.12-.12-.24-.19-.36-.22v-.02c.24-.48,0-.97,0-1.45v-40.07c0-.51.02-1.02.36-1.45l.05-.19c.15.15.29.29.48.36.34.15.6.44.87.68.85.7,1.86.51,2.86.39l.1-.02c.02.12.1.24.24.31Z"/><path class="cls-3" d="m145.27,196.83l-.07.17c-.24.24-.17.56-.17.85-.02,13.77-.02,27.54,0,41.3,0,.34.05.7.07,1.06v.17c-.39-.05-.77,0-1.23.12-1.11.29-2.25.27-3.36-.05-1.21-.31-2.3-.85-3.46-1.23-5.35-1.84-10.57-3.92-15.75-6.1-5.88-2.47-11.69-5.06-17.52-7.6-1.09-.46-1.84-1.14-2.42-2.06-.82-1.38-.82-2.88-.92-4.33-.12-2.11-.31-4.19-.36-6.29-.07-3.61-.24-7.19-.48-10.77-.17-2.23-.17-4.48-.46-6.7-.31-2.18-.31-4.4-.41-6.61-.1-2.61-.17-5.23-.27-7.84,0-.19-.05-.39-.05-.53,0-1.23-.34-2.54.19-3.68.07-.17.17-.36.27-.53l.75.36c.46.31.41.8.51,1.23.46,1.91,1.72,3.31,3.65,4.28,3.17,1.6,6.46,3.02,9.82,4.33,3,1.19,6.05,2.3,9.1,3.39,3.17,1.14,6.39,2.15,9.58,3.19,2.83.94,5.71,1.74,8.57,2.64.48.15.9.48,1.33.68.75.36,1.5.56,2.4.44.24-.02.48.02.7.1Z"/><path class="cls-3" d="m184.59,212.15c.8.07,1.31.63,1.14,1.28.02.05,0,.1-.02.17-.15.34-.15.68-.15,1.02,0,13.36,0,26.71-.02,40.07,0,.41-.02.8.05,1.19l-.29.02c-.82.02-1.48-.24-2.13-.68-.63-.41-1.11-.85-1.43-1.38-.34-.53-.51-1.14-.48-1.94.1-12.7.05-25.43.05-38.13,0-.46-.02-.92-.05-1.38-.05-.63-.22-1.28.24-1.86l.1-.15c.7.44,1.23,1.09,2.03,1.45.29.15.58.29.97.31Z"/><path class="cls-3" d="m180.26,253.91c-.87.34-1.62.17-2.3-.31-.51-.39-.99-.8-1.43-1.23-.34-.36-.63-.7-.8-1.11-.22-.44-.31-.9-.29-1.43.05-13.48.02-26.96.02-40.43,0-.41.05-.77.36-1.09l.07-.1c.68.48,1.21,1.14,1.86,1.62,1.02.75,2.2.82,3.1.29l.36.02c.12.07.24.15.36.24l-.1.15c-.46.58-.29,1.23-.24,1.86.02.46.05.92.05,1.38,0,12.7.05,25.43-.05,38.13-.02.8.15,1.4.48,1.94l-1.48.07Z"/><path class="cls-3" d="m301.7,229.52c.02.44-.07.82-.36,1.16-1.36,1.55-2.69,3.1-4.09,4.6-2.08,2.25-4.21,4.43-6.36,6.63-1.4,1.43-2.9,2.81-4.33,4.23-2.49,2.44-4.94,4.94-7.43,7.38-1.96,1.91-3.94,3.8-5.9,5.73l-1.91-1.98c2.64-2.64,4.82-5.61,6.85-8.66,1.4-2.13,2.71-4.33,3.85-6.56,1.5-2.93,2.64-6,3.41-9.15.44-1.74.87-3.46,1.14-5.23.36-2.32.63-4.69.05-6.99-.68-2.69-2.23-4.48-6.07-4.45h-.07c-3.1.46-5.23,2.25-7.26,4.09-.75.68-1.48,1.38-2.15,2.11l-3.63-3.53.29-.29c2.35-2.37,4.74-4.69,7.07-7.07,2.66-2.69,5.25-5.4,7.89-8.08,1.55-1.57,3.15-3.12,4.69-4.69,2.11-2.13,4.19-4.26,6.29-6.39,1.57-1.6,3.07-3.24,4.72-4.82.56-.56,1.02-1.36,2.08-1.4l.22-.02c.22,2.54.07,5.08.17,7.65.17,5.64.29,11.28.34,16.91.02,2.3.07,4.62.19,6.92.15,2.64.05,5.27.19,7.91.1,1.33.07,2.66.15,3.99Z"/><path class="cls-3" d="m200.44,221.34l.17.02c.34,0,.51.22.7.39.7.7,1.65,1.09,2.56,1.48,1.19.48,2.4.92,3.53,1.48,2.95,1.43,6.05,2.61,9.05,3.97,4.5,2.01,9.1,3.9,13.62,5.86,3.29,1.45,6.51,2.98,10.26,3.41,1.52.19,3.02.31,4.52.1,3.07-.44,5.57-1.89,7.6-3.92.85-.85,1.67-1.72,2.52-2.59,1.96-2.01,4.02-3.99,6-6,2.15-2.2,4.28-4.43,6.44-6.63l3.63,3.53c-2.08,2.18-3.85,4.52-5.54,6.94-3.31,4.79-6.29,9.75-8.32,15.07-1.09,2.78-1.57,5.69-1.89,8.61-.19,1.52-.19,3.02.02,4.52.24,1.62.8,3.1,2.37,4.16,1.23.82,2.61.99,4.09.94,2.73-.05,4.82-1.36,6.7-2.88,1.02-.8,1.94-1.65,2.83-2.54l1.91,1.98c-.7.63-1.38,1.28-2.06,1.96-3.22,3.12-6.36,6.27-9.58,9.36-2.3,2.25-4.67,4.45-6.97,6.7-1.43,1.38-2.71,2.88-4.36,4.07-2.4,1.74-5.23,2.44-8.32,2.15-4.21-.39-8.03-1.79-11.78-3.44-4.5-2.01-9-3.97-13.43-6.1-4.91-2.37-9.7-4.94-14.35-7.69-1.04-.63-1.79-1.48-2.2-2.52-.05-.1-.1-.19-.1-.27l-.1.02c-1.86.34-3.27-.36-4.5-1.48-.27-.27-.58-.75-.48-1.04-.02-.02-.02-.05,0-.07.51-1.06.19-2.13.19-3.17.02-11.2.02-22.41.02-33.61v-4.45c0-.34-.02-.68.27-.94l.07-.1s.02.02.02.02c1.21.53,2.27,1.36,3.8,1.26.29-.02.51-.07.65-.17l.05.15c.27.46.41.92.36,1.43Z"/><path class="cls-1" d="m204.94,165.91c2.06-.07,3.56.87,4.94,2.06,1.11-.44,2.18-.99,3.31-1.31.12-.05.22-.07.34-.1"/><path class="cls-1" d="m161.05,202.54c-.24.31-.24.68-.17.99.07.31.07.63.07.92v39.85c-.02.41-.12.82-.02,1.23.07.27.24.53.6.77,1.16.8,2.18,1.67,3.75,1.6.27-.02.51,0,.75.05v.02c.31.05.58.19.87.46.9.8,1.89,1.45,3.34,1.02.15-.05.29-.05.44,0,.12.02.24.1.36.22.17.17.36.34.53.53.99,1.21,2.32,1.5,3.9,1.09"/><path class="cls-1" d="m200.29,234.14c-.02,2.49-.02,4.98-.05,7.45,0,.22-.12.53.36.46"/><path class="cls-1" d="m214.86,160.39c-.8.53-1.74.85-2.4,1.55-.65.68-.9,1.43-.53,2.3.24.6.51,1.19.99,1.69.17.19.27.39.24.63"/><path class="cls-1" d="m124.29,164.02c1.62,1.02,3.56,1.52,5.32,2.27,2.69,1.14,5.44,2.13,8.15,3.24,3.77,1.52,7.6,2.93,11.4,4.4,1.91.73,3.82,1.48,5.66,2.32.58.27,1.04.22,1.33-.12,1.26-1.5,2.66-1.04,4.19-.36,2.47,1.06,5.01,2.11,7.5,3.15,5.18,2.18,10.33,4.38,15.51,6.53,6.36,2.66,12.68,5.42,19.09,8.01,4.11,1.67,8.15,3.44,12.24,5.15,3.39,1.43,6.78,2.88,10.16,4.31,3.85,1.6,7.6,3.31,11.52,4.77,3.12,1.14,6.44,1.69,9.82,1.77.39,0,.77.05,1.14.07.53.02,1.02-.07,1.43-.39"/><path class="cls-1" d="m175.83,208.3c-.31.31-.36.68-.36,1.09,0,13.48.02,26.96-.02,40.43-.02.53.07.99.29,1.43.17.41.46.75.8,1.11.44.44.92.85,1.43,1.23.68.48,1.43.65,2.3.31.27-.12.58-.22.87-.31"/><path class="cls-1" d="m99.61,176.55c.46.31.41.8.51,1.23.46,1.91,1.72,3.31,3.65,4.28,3.17,1.6,6.46,3.02,9.82,4.33,3,1.19,6.05,2.3,9.1,3.39,3.17,1.14,6.39,2.15,9.58,3.19,2.83.94,5.71,1.74,8.57,2.64.48.15.9.48,1.33.68.75.36,1.5.56,2.4.44.24-.02.48.02.7.1.36.15.7.36.99.63.99.82,2.18,1.06,3.44.94.19-.02.41-.07.63-.1.05,0,.05-.1.1-.15"/><path class="cls-1" d="m145.2,197c-.24.24-.17.56-.17.85-.02,13.77-.02,27.54,0,41.3,0,.34.05.7.07,1.06"/><path class="cls-1" d="m155.89,200.53c-.31,1.33-.27,2.66-.24,3.99.02.27.07.53.07.77,0,11.81.02,23.59-.02,35.38,0,.94.1,1.91-.07,2.86"/><path class="cls-1" d="m200.08,219.91c.27.46.41.92.36,1.43.02.15,0,.34-.05.51-.19.8.02,1.69-.07,2.52-.19,2.23.1,4.43.05,6.63-.02.41-.27.82-.02,1.23"/><path class="cls-1" d="m181.49,210.53c-.46.58-.29,1.23-.24,1.86.02.46.05.92.05,1.38,0,12.7.05,25.43-.05,38.13-.02.8.15,1.4.48,1.94.31.53.8.97,1.43,1.38.65.44,1.31.7,2.13.68"/><path class="cls-1" d="m181.23,210.14c.12.07.24.15.36.24.7.44,1.23,1.09,2.03,1.45.29.15.58.29.97.31.8.07,1.31.63,1.14,1.28.02.05,0,.1-.02.17-.15.34-.15.68-.15,1.02,0,13.36,0,26.71-.02,40.07,0,.41-.02.8.05,1.19.05.31.19.65.46.97.7.82,1.55,1.21,2.61,1.36.63.1,1.31.07,1.94.1"/><path class="cls-1" d="m150.69,198.77c-.41.36-.31.82-.27,1.23.1.7.07,1.38.07,2.08v37.99c0,.39.02.75-.07,1.14-.05.24-.05.46.07.65.07.1.15.19.27.29.82.65,1.52,1.4,2.76,1.55.17.02.39.1.51.05.58-.17,1.09-.17,1.52-.02.48.12.92.39,1.36.77.99.82,2.37,1.11,3.77,1.11"/><path class="cls-1" d="m195.48,218.75c-.29.27-.27.6-.27.94v4.45c0,11.2,0,22.41-.02,33.61,0,1.04.31,2.11-.19,3.17-.02.02-.02.05,0,.07-.1.29.22.77.48,1.04,1.23,1.11,2.64,1.81,4.5,1.48"/><path class="cls-1" d="m181.23,209.85c-.12.1-.24.19-.36.27-.9.53-2.08.46-3.1-.29-.65-.48-1.19-1.14-1.86-1.62-.07-.1-.17-.15-.27-.22-.15-.07-.22-.19-.24-.31-.05-.15-.02-.31.07-.51"/><path class="cls-1" d="m166.44,204.84c-.29.31-.17.68-.17,1.02-.02,12.87,0,25.77-.02,38.67,0,1.11.12,2.23-.17,3.31"/><path class="cls-1" d="m126.35,159.4c-.73,1.5-1.31,3.05-2.23,4.52,0,.02-.02.02-.02.05-1.57-.44-2.83-1.38-4.31-1.96-.92-.39-1.77-.9-2.66-1.31-1.19-.53-2.11-.44-3,.39-1.81,1.69-3.63,3.41-5.49,5.08-2.52,2.27-4.89,4.67-7.45,6.9-1.06.92-1.79,1.98-2.32,3.12-.1.17-.19.36-.27.53-.53,1.14-.19,2.44-.19,3.68,0,.15.05.34.05.53.1,2.61.17,5.23.27,7.84.1,2.2.1,4.43.41,6.61.29,2.23.29,4.48.46,6.7.24,3.58.41,7.16.48,10.77.05,2.11.24,4.19.36,6.29.1,1.45.1,2.95.92,4.33.58.92,1.33,1.6,2.42,2.06,5.83,2.54,11.64,5.13,17.52,7.6,5.18,2.18,10.4,4.26,15.75,6.1,1.16.39,2.25.92,3.46,1.23,1.11.31,2.25.34,3.36.05.46-.12.85-.17,1.23-.12.34.07.65.24.99.58,1.16,1.14,2.66,1.36,4.33.94"/><path class="cls-1" d="m150.42,198.38c.12.1.24.19.36.27v.02c.51.39,1.09.7,1.67,1.04.48.27,1.04.46,1.57.34.77-.17,1.4,0,1.98.27.36.17.7.39,1.04.6.73.48,1.5.87,2.4.9.68.02,1.21.24,1.69.56.24.15.46.31.68.48,1.04.85,2.13,1.5,3.65,1.38.46-.02.8.19,1.11.41.22.17.41.34.6.46.9.53,1.77.87,2.78.73.56-.07.82.19,1.11.44.15.15.29.29.48.36.34.15.6.44.87.68.85.7,1.86.51,2.86.39"/><path class="cls-1" d="m171.04,206.46c-.34.44-.36.94-.36,1.45v40.07c0,.48.24.97,0,1.45"/><path class="cls-1" d="m185.92,213.45c1.21.73,2.52,1.26,4.07,1.16.19-.02.41-.02.7-.05.22.48.46.94.36,1.48-.02.12-.05.27-.12.41-.12.22-.05.51-.05.77-.02,13.31,0,26.59-.05,39.9,0,.39.02.75.1,1.11.1.41.24.8.46,1.21.7,1.33,1.91,1.69,3.46,1.52"/><path class="cls-1" d="m191.22,216.07c.1.02.22.02.27.1.92.9,1.98,1.48,3.44,1.09.17.34.39.6.39.97,0,.15.1.36.24.44,0,.02.02.02.02.02,1.21.53,2.27,1.36,3.8,1.26.29-.02.51-.07.65-.17.22-.12.31-.31.31-.63"/><path class="cls-1" d="m206.1,155.24c-.48.41-1.14.36-1.69.46-3.65.56-6.78,1.94-9,4.55-1.02,1.21-1.14,2.64-.92,4.07.07.53.29,1.06.24,1.6,0,.27-.07.53-.24.8.44,1.4-.12,2.98.97,4.31,1.23,1.5,2.81,2.59,4.72,3.29,2.25.82,4.6,1.31,7.07,1.16,3.9-.24,7.48-1.16,10.28-3.68,1.11-1.02,1.62-2.2,1.72-3.63.05-.77-.15-1.55-.17-2.3,0-.36.02-.7.15-1.06.46-1.5.22-3.02-.29-4.36,0-.02-.02-.02-.02-.05-.39-.99-1.48-1.89-2.54-2.61-.46-.31-.94-.6-1.43-.85-1.5-.77-3.1-1.26-4.86-1.48-.58-.07-1.16-.1-1.77-.15-.7-.05-1.38-.1-2.01-.41-.17-.07-.34-.17-.51-.29-.9-.63-2.08-.94-3.15-1.36-2.61-1.04-5.25-2.06-7.89-3.07-3.87-1.5-7.79-2.98-11.66-4.48-1.96-.75-3.9-1.55-5.86-2.3-2.98-1.14-5.98-2.25-8.93-3.39-3.53-1.36-7.02-2.81-10.55-4.14-2.13-.8-4.23-1.65-6.36-2.47-1.36-.48-2.76-.51-4.16-.15-.05,0-.1.02-.15.05-.07.02-.17.05-.22.1-1.38,1.16-3.02,2.03-4.36,3.29-2.47,2.32-5.06,4.57-7.6,6.85-2.56,2.32-5.11,4.6-7.67,6.92h-.02c-.36.34-.8.58-1.16.92-.8.68-.77,1.6-1.02,2.4-.39,1.23-.56,2.52-.85,3.85.7.58,1.45,1.31,2.27,1.62.92.31,1.79.73,2.69,1.09,4.36,1.72,8.69,3.46,13.02,5.2,4.62,1.86,9.22,3.75,13.82,5.61,2.47,1.02,4.96,2.01,7.43,3,3,1.21,5.98,2.4,8.95,3.63,4.69,1.91,9.39,3.85,14.08,5.76,4.4,1.79,8.83,3.58,13.26,5.37,2.78,1.14,5.54,2.27,8.32,3.39,4.74,1.94,9.51,3.85,14.25,5.78,4.11,1.65,8.2,3.31,12.32,4.98,4.07,1.65,8.13,3.29,12.2,4.94.63.24,1.26.48,1.79.9.07.05.15.1.22.15.7.41,1.57.34,2.35.36,2.03.1,4.09-.12,6.1-.44,2.64-.41,5.2-1.06,7.6-2.08.36-.15.73-.31,1.09-.48,4.04-1.84,7.57-4.21,9.9-7.79,1.45-2.27,1.98-4.72,1.6-7.31-.44-2.86-1.96-5.3-4.09-7.45-3.36-3.46-7.72-5.71-12.46-7.48-2.06-.75-4.07-1.57-6.1-2.37-3.31-1.28-6.61-2.56-9.92-3.85-2.54-.99-5.08-1.94-7.62-2.93-3.36-1.33-6.78-2.64-10.16-3.94-2.18-.85-4.38-1.69-6.56-2.61-.46-.19-.94-.24-1.43-.36"/><path class="cls-1" d="m300.44,186.16c-1.06.05-1.52.85-2.08,1.4-1.65,1.57-3.15,3.22-4.72,4.82-2.11,2.13-4.19,4.26-6.29,6.39-1.55,1.57-3.15,3.12-4.69,4.69-2.64,2.69-5.23,5.4-7.89,8.08-2.32,2.37-4.72,4.69-7.07,7.07l-.29.29c-2.15,2.2-4.28,4.43-6.44,6.63-1.98,2.01-4.04,3.99-6,6-.85.87-1.67,1.74-2.52,2.59-2.03,2.03-4.52,3.48-7.6,3.92-1.5.22-3,.1-4.52-.1-3.75-.44-6.97-1.96-10.26-3.41-4.52-1.96-9.12-3.85-13.62-5.86-3-1.36-6.1-2.54-9.05-3.97-1.14-.56-2.35-.99-3.53-1.48-.92-.39-1.86-.77-2.56-1.48-.19-.17-.36-.39-.7-.39"/><path class="cls-1" d="m200.29,244.59c.02,2.11.02,4.21.05,6.32,0,.41.05.82-.07,1.23-.07.19-.05.44.34.39"/><path class="cls-1" d="m218.92,165.86c-.46.12-.68.46-.97.77-2.01,2.11-4.69,3.17-7.69,3.77-1.77.36-3.56.44-5.32.27-3.58-.36-6.87-1.36-9.12-4.04-.24-.27-.58-.46-.87-.7"/><path class="cls-1" d="m280.46,216.24c-3.1.46-5.23,2.25-7.26,4.09-.75.68-1.48,1.38-2.15,2.11-2.08,2.18-3.85,4.52-5.54,6.94-3.31,4.79-6.29,9.75-8.32,15.07-1.09,2.78-1.57,5.69-1.89,8.61-.19,1.52-.19,3.02.02,4.52.24,1.62.8,3.1,2.37,4.16,1.23.82,2.61.99,4.09.94,2.73-.05,4.82-1.36,6.7-2.88,1.02-.8,1.94-1.65,2.83-2.54,2.64-2.64,4.82-5.61,6.85-8.66,1.4-2.13,2.71-4.33,3.85-6.56,1.5-2.93,2.64-6,3.41-9.15.44-1.74.87-3.46,1.14-5.23.36-2.32.63-4.69.05-6.99-.68-2.69-2.23-4.48-6.07-4.45"/><path class="cls-1" d="m147.06,133.24c-.12-.34-.29-.7-.36-1.06-.05-.29.02-.53.34-.77,1.91-1.55,3.82-3.1,5.66-4.69,1.45-1.23,3.15-1.72,5.15-1.69,1.65,0,3.27.05,4.86.34.9.17,1.69.68,2.56.99,6.39,2.35,12.68,4.91,18.85,7.67,4.48,2.01,8.95,3.97,13.16,6.34,2.86,1.62,5.47,3.53,8.28,5.2,3.85,2.3,7.79,4.45,11.83,6.46,2.11,1.09,4.23,2.11,6.39,3.07,6.27,2.83,12.73,5.23,19.41,7.21,4.09,1.21,8.23,2.25,12.46,3.02,5.27.99,10.33,2.59,15.34,4.36,5.03,1.79,9.94,3.77,14.76,5.95,3.7,1.67,7.43,3.36,10.99,5.27.73.39,1.5.68,2.2,1.09.94.53,1.36,1.33,1.5,2.25.1.63.17,1.26.22,1.89.22,2.54.07,5.08.17,7.65.17,5.64.29,11.28.34,16.91.02,2.3.07,4.62.19,6.92.15,2.64.05,5.27.19,7.91.1,1.33.07,2.66.15,3.99.02.44-.07.82-.36,1.16-1.36,1.55-2.69,3.1-4.09,4.6-2.08,2.25-4.21,4.43-6.36,6.63-1.4,1.43-2.9,2.81-4.33,4.23-2.49,2.44-4.94,4.94-7.43,7.38-1.96,1.91-3.94,3.8-5.9,5.73-.7.63-1.38,1.28-2.06,1.96-3.22,3.12-6.36,6.27-9.58,9.36-2.3,2.25-4.67,4.45-6.97,6.7-1.43,1.38-2.71,2.88-4.36,4.07-2.4,1.74-5.23,2.44-8.32,2.15-4.21-.39-8.03-1.79-11.78-3.44-4.5-2.01-9-3.97-13.43-6.1-4.91-2.37-9.7-4.94-14.35-7.69-1.04-.63-1.79-1.48-2.2-2.52-.05-.1-.1-.19-.1-.27v-.05c.36-1.48.12-2.98.17-4.45.05-1.72.07-3.44.1-5.15,0-.41-.02-.82-.05-1.23"/><path class="cls-1" d="m204.84,165.62c.02.12.02.22-.05.27-.02.02-.1.05-.19.05-1.16-.02-2.15.36-3.12.85-.94.46-1.09.44-1.77-.31-.6-.65-1.19-1.31-1.81-2.03.36-.31.82-.51,1.28-.65.9-.27,1.67-.7,2.3-1.31.58-.53.63-1.14.1-1.67-.46-.46-.99-.85-1.48-1.26.99-.97,2.27-1.43,3.34-2.13.24-.17.6-.17.9.12.63.63,1.4,1.14,2.3,1.48,1.69.63,3.31.29,4.86-.46.24-.12.44-.36.7-.44.29-.12.63-.22.9.12.56.68,1.43,1.16,1.77,2.01.02.05.05.07.07.1.1.07.24.05.36.05"/><path class="cls-1" d="m108.9,175.08c.27,2.76,2.61,4.38,5.66,5.06,2.76.6,5.37.22,7.79-1.19,3.46-2.01,3.53-5.73,0-7.86-3.65-2.23-9.12-1.72-11.86.77-.97.87-1.45,1.96-1.6,3.15"/><path class="cls-1" d="m127.65,150.93c.99.73,2.25.99,3.39,1.45,4.31,1.79,8.66,3.51,12.99,5.25,5.2,2.06,10.4,4.09,15.58,6.15,4.26,1.69,8.49,3.39,12.75,5.08,3.75,1.48,7.5,2.98,11.23,4.45,2.66,1.06,5.35,2.08,7.98,3.17,2.2.92,4.4,1.79,6.63,2.66,3.51,1.43,7.04,2.81,10.55,4.23,4.89,1.96,9.8,3.9,14.69,5.83,4.72,1.84,9.41,3.75,14.16,5.57,2.18.82,4.31,1.74,6.46,2.61,4.14,1.65,8.28,3.29,12.39,4.91,2.4.97,4.79,1.91,7.19,2.86.75.31,1.62.48,2.2,1.06"/><path class="cls-1" d="m250.09,227.68c-.22-2.47-1.86-3.94-4.33-4.94-1.77-.7-3.61-.97-5.49-.8-2.76.22-5.27,1.06-6.9,3.15s-1.38,4.11.53,5.95c1.81,1.77,4.19,2.49,6.9,2.56,2.47.07,4.72-.41,6.73-1.69,1.57-1.04,2.56-2.37,2.56-4.16"/></svg>