<?xml version="1.0" encoding="UTF-8"?><svg id="Layer_1" xmlns="http://www.w3.org/2000/svg" viewBox="0 0 400 400"><defs><style>.cls-1{fill:#ff9600;}.cls-1,.cls-2,.cls-3,.cls-4{stroke:#000;stroke-miterlimit:10;stroke-width:.75px;}.cls-2{fill:#f6d3b6;}.cls-3{fill:#eaaf84;}.cls-4{fill:#e22922;}</style></defs><path class="cls-3" d="m262.5,142.57c2.22.94,4.46,1.85,6.14,3.7.59,1.44,1.72,1.92,3.17,2.48,2.93,1.13,6.16,2.57,1.13,5.72-4.33,2.71-5.51,6.71-3.49,11.53.06.13-.4.49-.62.74-1.33-.17-2.77-.84-3.03-1.94-1.48-6.27-8.42-5.29-11.79-9.02-.47-.53-2.55-.54-2.97-.03-2.94,3.54-5.05.69-7.19-.84-3.74-2.67-7.35-5.54-11.01-8.31-.44.4-.88.81-1.32,1.21,15.6,23.13,29.01,47.53,43.32,71.44-14.36-16.27-23.62-36.54-40.79-51.2-.66,8.04,10.51,9.96,7.88,18.41-2.91-.93-2.63-4.76-5.31-5.54-1.07,1.05-.26,1.78,0,2.56,3.9,11.63,11.88,21.13,16.6,32.41,6.22,14.88,15.18,28.39,23.25,42.32,1.26,2.18,2.45,4.39,4.65,5.81.71,1.5,2.97,3.19,1.28,4.58-1.88,1.54-2.86-1.2-4.13-2.25-.69-.57-1.47-1.13-1.91-1.87-2.63-4.54-5.96-3.55-10.12-2.11-7.93,2.73-12.49,8.93-17.27,15.03-3.76,4.8-7.77,4.98-11.97.69-4.86-4.95-18.57-6.9-23.74-.46-3.1,3.86-7.61,6.2-10.03,10.83-1.44,2.75-4.72,5.47-7.65.46-.47-.81-1.89-1-2.63-1.74-3.1-3.08-7.24-4.28-9.13-9.63-2.99-8.44-3.62-9.25-12.87-5.88-5.49,2-8.94,5.21-12.3,9.47-4.28,5.41-7.89,5.07-11.03-.5,1.87-.77,2.51-2.37,2.98-4.18,2.78-10.56,5.38-21.17,9.02-31.49,4.27-12.12,8.66-24.21,12.46-36.48,2.97-9.56,9.33-18.15,8.43-28.88-.1-1.25.74-3.04,1.74-3.83,5.19-4.11,5.73-10.52,8.27-15.93,1.11-2.38.74-5.42,3.18-7.22,1.55-.87,3.11-1.74,4.66-2.61,4.42.24,5.45,2.4,3.71,6.33-.62,1.41-.88,2.98-1.3,4.48-1.58,1.91-2.15,4.16-2.27,6.58-5,5.23-2.58,11.5-2.44,17.45-1.48,1.87-2.64,3.61.92,4.53,1.74.45,1.04,1.93.99,3.08-1.44,2.66-5.47,5.14-.37,8.22.59.35.43,1.97.61,3.01.06,2.66-.17,5.37,1.31,8.69,1.36-2.65,2.45-4.46,3.23-6.39.85-2.11.73-5.54,2.94-5.96,5.14-.97,4.57-4.92,5.68-8.27.61-1.85-.54-4.22,1.72-6.02,1.29,3.05,2.44,5.78,3.58,8.51.02,5.36-.84,10.97,4.1,14.99,2.56,4.52,8.53,6.21,9.8,11.76.57,2.49,1.33,4.79,4.54,3.52,3.75-1.49-.32-3.39.08-5.1.86-5.53-.99-10.55-2.95-15.54-.25-4.45-3.12-8.9,1.12-13.36,1.04-1.1.43-5.53-2.89-6.91-4.03-1.41-6.43-3.95-5.85-8.52.18-1.43-.78-2.24-1.62-3.13-1.71-4.01-3.42-8.02-5.13-12.03.38-1.74-.89-2.97-1.39-4.43-2.15-6.34-.49-9.75,4.98-10.34,2.05,1.78,4.09,3.57,6.14,5.35,1.49,2.62,2.97,5.25,4.48,7.86.61,1.04,1.69,1.54,2.7,1.04,1.41-.7.52-1.79,0-2.65-1.56-2.57-3.19-5.11-4.78-7.66-4.95-3.57-5.9-10.15-10.52-13.96-1.06-1.96.39-2.73,1.7-3.57,1.5-.59,1.43-1.73,1.03-2.97,1.2-.14,2.8.26,3.34-1.1,2.33-5.83,5.83-2.45,8.48-.8,5.7,3.56,11.27,7.3,17.6,9.69.83,2.18,1.45,2.51,4.6,2.95.57.08,1.1.8,1.53,1.33,1.22,1.54,2.94,1.81,4.75,1.9Z"/><path class="cls-2" d="m193.67,152.62c-2.44,1.81-2.07,4.84-3.18,7.22-2.53,5.41-3.08,11.82-8.27,15.93-1,.79-1.85,2.59-1.74,3.83.9,10.74-5.47,19.32-8.43,28.88-3.8,12.27-8.2,24.36-12.46,36.48-3.64,10.32-6.23,20.93-9.02,31.49-.47,1.81-1.11,3.41-2.98,4.18-2.04-3.36-4.11-6.7-6.12-10.07-1.86-3.12-4.57-5.11-8.2-4.78-7.37.66-14.22,2.78-19.83,8.06-2.16,2.03-7.68-.15-8.42-3.04-1.06-4.16.55-8.64-2.82-12.68-2.71-3.24-5.44-6-9.5-6.32-6.06-.47-12.12.49-18.05,1.77-3.59.77-7-2.03-6.4-5.58.23-1.38.58-2.9,1.38-3.99,2.88-3.9,2.15-7.59-.16-11.35-.46-.75-1.15-1.8-.93-2.44,1.63-4.77-1.2-2.76-3.43-2.58-6.98.56-13.98.81-21.35,1.21.45-.88.51-1.18.71-1.36,4.68-4.23,9.74-8.05,13.16-13.53,1.07-1.72,1.7-3.32-.98-3.06-4.72.46-9.47,1.23-14.03,2.52-2.56.73-4.7.93-7.02-.06,3.49-5.11,9.2-3.17,13.78-4.54,3.72-1.1,7.19-3.3,6.72-6.11-.45-2.73-4.93-3.19-8.23-2.71-.51-1.95.39-2.26,2.21-2.55,6.69-1.09,12.94-4.09,19.73-4.8,5.13-.8,10.14-1.95,14.51-4.95,5.69-1.78,11.93-1.58,17.19-4.85,5.27-.72,8.94-4.65,13.55-6.69,10.71-3.53,21.3-7.4,31.57-12.12,5.27-.39,9.55-3.61,14.47-5.01,5.63-3.9,11.78-4.61,18.32-3.01,5.14.45,9.58-1.36,13.69-4.24.16.31.35.58.55.84Z"/><path class="cls-1" d="m47.87,200c3.3-.47,7.78-.02,8.23,2.71.47,2.82-3,5.01-6.72,6.11-4.57,1.36-10.29-.58-13.78,4.54,2.31.99,4.46.79,7.02.06,4.55-1.29,9.31-2.07,14.03-2.52,2.68-.26,2.06,1.34.98,3.06-3.42,5.48-8.49,9.31-13.16,13.53-.19.17-.26.48-.71,1.36,7.37-.39,14.37-.64,21.35-1.21,2.23-.18,5.06-2.19,3.43,2.58-.22.64.47,1.69.93,2.44,2.31,3.77,3.04,7.45.16,11.35-.8,1.08-1.15,2.61-1.38,3.99-.59,3.55,2.82,6.36,6.4,5.58,5.95-1.28,12-2.25,18.05-1.77,4.07.32,6.79,3.08,9.5,6.32,3.38,4.03,1.76,8.52,2.82,12.68.73,2.89,6.25,5.07,8.42,3.04,5.6-5.28,12.45-7.4,19.83-8.06,3.63-.32,6.33,1.66,8.2,4.78,2.01,3.38,4.08,6.72,6.12,10.07,3.14,5.58,6.74,5.92,11.03.5,3.37-4.26,6.82-7.48,12.3-9.47,9.26-3.37,9.88-2.56,12.87,5.88,1.89,5.35,6.03,6.55,9.13,9.63.73.73,2.15.92,2.63,1.74,2.93,5,6.22,2.3,7.65-.46,2.42-4.64,6.93-6.96,10.03-10.83,5.17-6.44,18.88-4.49,23.74.46,4.2,4.28,8.21,4.11,11.97-.69,4.78-6.1,9.34-12.31,17.27-15.03,4.16-1.44,7.49-2.42,10.12,2.11.43.74,1.22,1.3,1.91,1.87,1.26,1.05,2.24,3.79,4.13,2.25,1.7-1.4-.57-3.08-1.28-4.58,2.84-.02,4.97-2.1,5.62-4.05,1.7-5.11,6.56-8.06,8.15-13.09,3.88-1.34,6.63-4.11,9.06-7.26,3.04,2.33,6.3,1.53,9.36.32,1.98-.79,1.88-2.7.98-4.46,5.02-2.18,10.14-4.63,9.33-11.22-.46-3.72-.31-7.34-.29-11.02,3.31-2.71,5.02-6.95,8.86-9.15,2.03-1.1,4.24-1.44,6.49-1.85,8.64-1.59,11.21-9.11,5.66-16.27-.16-1.92-1.49-3.29-2.33-4.89.69-2.91-.19-5.64-.98-8.38,2.18-4.11,6.76-6.05,9.04-10.11,2.74-4.87,8.07-8.28,8.26-14.61.06-2.5.6-5.17-3.25-5.47-2.06-.16-2.43-1.72-2.3-3.56.31-4.02,1.53-7.8,4.54-10.43,6.29-5.51,7.87-13.38,10.96-20.5.43-.99.19-1.59-1.06-1.81-5.58-1.01-8.45-4.34-8.31-10.1,2.35-1.76,4.8-2.33,7.42-.57.75,3.35,2.22,5.04,5.81,2.89,3-1.78,4.97,2.12,7.8,1.69,5.13,3.96,5.06,6.01-.46,14.14-2.96.65-2.61,2.6-1.85,4.72-.35,1.96-.91,3.44-3.42,3.72-2.89.32-4.87,2.18-5.54,5.17-2.86,5.32-2.21,10.3,1.84,13.99,2.15,4.82,7.15,7.27,9.72,11.74,4.47,5.25.77,8.49-2.94,11.6-1.47,1.24-3.24,2.14-4.87,3.19-5.52,2.26-9,6.29-10.41,12.09-.86.91-.06,1.66.24,2.47-.77,5.99,4.33,10.06,5.13,15.55-.7,1.17.17,2,.67,2.86,3.59,6.26,2.08,10.06-4.84,12.22-.48.15-.87.58-1.3.88-5.26.43-10.25,1.74-14.65,4.79-5.58,2.96-7.61,7.05-6.85,13.86-1.61,3.32.73,6.3.8,9.48.13.77,1.17,1.81,0,2.26-1.45.57-3.44-.37-1.34,2.71,2.14,3.12-.62,5.67-3.82,6.53-1.95.52-4.14.13-6.22.16-5.99-1.84-11.73-.71-17.36,1.55-5.88,1.43-9.48,6.4-10.3,14.09-.34,3.15-.59,6.33-1.34,9.39-1.1,4.48-4.73,5.79-10.77,4.24-.47-.13-.94-.25-1.4-.38-6.33-2.31-11.57-6.95-19.03-7.04-5.95-.06-9.72,1.96-12.51,6.77-1.58.68-1.51,2.12-1.64,3.48-2.36,3.55-3.81,7.61-6.85,10.83-1.62,1.7-3.04,2.67-5.3,2.44-3.09-1.12-6.18-2.23-9.28-3.35-3.84-5.19-8.83-7.75-15.39-6.74-4.95,1.89-8.38,5.73-11.96,9.37-1.75,1.69-3.48,3.4-5.26,5.05-3.34,3.1-7.06,2.49-10.07-1.04-3.86-4.52-7.13-9.55-11.66-13.5-.48-1.15-.93-1.95-2.52-2.26-5.14-1.03-8.18,2.74-12,4.73-5.47,2.16-9.2,6.95-14.4,9.53-5.65,3.61-10.4,2.39-12.03-5.54-1.11-3.91-2.41-7.81-5.21-10.83-4.82-5.21-10.67-5.69-18.29-1.66-3.27,1.73-6.78,2.64-10.27,3.69-3.99.91-7.54.17-10.49-2.8-1.63-2.97-2.77-6.07-2.82-9.53-.04-2.82-1.1-5.21-3.45-6.91-3.54-3.92-8.7-3.49-13.17-4.9-4.22.13-8.44.25-12.66.37-4.86-1.25-7.36-3.82-5.45-9.19.43-1.22.06-2.73.06-4.11-.12-9.58-1.77-12.11-9.46-14.46-3.15-1.29-6.27-2.74-9.84-1.83-1.44-1.44-4.83-.05-5-2.91-.13-2.17,2.25-3.35,3.58-4.87,1.46-1.66,5.28-1.78,3.55-5.34-1.54-3.15-4.52-1.97-7.07-1.76-1.55.13-3.09.39-4.64.58-2.3-.88-3.43,1.55-5.24,1.87-2.67.47-5.92,1.82-6.59-2.74,3.94-4.25,9.65-6.01,15.05-10.26-4.02-.35-7,.78-9.9-.31-2.37-.89-.95-1.49-.11-2.28,4.5-2.76,9.84-2.97,14.64-4.81,4.05.88,7.94-.36,11.89-.88Z"/><path class="cls-2" d="m342.02,181.05c.84,1.6,2.18,2.97,2.33,4.89-1.97,1.1-3.75.4-5.58-.48-3.04-1.47-6.05-3.08-9.23-4.19-3.69-1.29-7.49-3.3-12.31-.51,5.56,3.34,11.62,4.87,15.53,10.06-5.69-.78-5.88-.4-4.56,5.13.73,3.07,2.6,5.44,4.01,8.12-3.83,2.2-5.54,6.44-8.86,9.15-4.71.99-9.46,1.57-13.85,3.98-6.42,3.53-12.3,2.12-17.58-2.87-11.17-10.57-21.3-22.08-30.98-34.01-5.31-6.54-10.26-13.41-17.31-19.26.02,1.21-.16,1.8.06,2.12,8.02,12,15.84,24.14,23.74,36.2,7.57,11.56,14.9,23.44,24.45,33.6,2.78,2.95,5.78,5.46,2.35,9.87-.92,1.19-.2,2.77.67,4.01-1.59,5.03-6.45,7.98-8.15,13.09-.65,1.95-2.78,4.04-5.62,4.05-2.2-1.42-3.39-3.63-4.65-5.81-8.08-13.94-17.02-27.45-23.25-42.32-4.72-11.28-12.7-20.78-16.6-32.41-.26-.77-1.07-1.5,0-2.56,2.67.78,2.4,4.61,5.31,5.54,2.63-8.46-8.54-10.37-7.88-18.41,17.17,14.66,26.44,34.93,40.79,51.2-14.31-23.91-27.72-48.33-43.32-71.44.44-.4.88-.81,1.32-1.21,3.66,2.78,7.27,5.64,11.01,8.31,2.14,1.53,4.24,4.39,7.19.84.42-.5,2.49-.49,2.97.03,3.38,3.73,10.31,2.76,11.79,9.02.26,1.1,1.7,1.77,3.03,1.94.22-.26.69-.61.62-.74-2.03-4.83-.84-8.82,3.49-11.53,5.03-3.15,1.81-4.59-1.13-5.72-1.45-.56-2.58-1.05-3.17-2.48,1.33-.67,2.66-1.34,3.99-2.01.56.35,1.13.69,1.69,1.04,4.74,5.75,12.1,7.67,17.91,12.07,12.9,9.74,29,14.11,43.25,21.78,1.92,1.04,4.03,2.39,6.52,1.91Zm-75.28,46.94c-2.69,6.41,3.59,8.3,5.13,12.34,1.83,4.76,3.47,9.16,9.68,10.9-3.64-9.08-8.12-16.69-14.81-23.24Z"/><path class="cls-4" d="m214.64,156.63c-1.06-4.57-4.19-8.39-4.75-13.14.23-.99.46-1.97.69-2.96,1.46-1.51,2.46-3.78,5.21-3.15,1.7,2.72,4.6,4.57,5.65,7.76-5.47.59-7.13,4-4.98,10.34.5,1.47,1.77,2.69,1.39,4.43-1.79-.39-2.07-2.25-3.21-3.28Z"/></svg>