<?xml version="1.0" encoding="UTF-8"?><svg id="Layer_1" xmlns="http://www.w3.org/2000/svg" viewBox="0 0 400 400"><defs><style>.cls-1{fill:none;stroke:#000;stroke-linecap:round;stroke-linejoin:round;stroke-width:.75px;}.cls-2{fill:#f86d94;}.cls-3{fill:#f6d3b6;}.cls-4{fill:#f6b117;}.cls-5{fill:#a0968b;}</style></defs><path class="cls-2" d="m372.04,176.39c.82,2.81,2.18,6.72,1.3,8.56-.87,1.85-4.31,4.58-6.14,6.5-1.83,1.93-6.11,2.26-6.11,2.26l-6.01,1.45s1.13-7.98-.42-14.22c-1.42-5.77-6.52-10.28-7.27-10.93,5.48-1.36,10.97-2.72,16.45-4.1,0,0,3.18,1.09,4.7,2.92s2.71,4.75,3.51,7.55Z"/><path class="cls-5" d="m355.07,195.17l-14.09,3.45c.09-.62.37-3.12.37-6.21,0-2.46-.17-5.31-.8-7.86-.53-2.15-1.56-4.12-2.69-5.79-2.16-3.18-4.68-5.23-4.68-5.23,4.74-1.17,9.47-2.35,14.19-3.52.76.64,5.86,5.16,7.27,10.93,1.56,6.26.43,14.23.43,14.23Z"/><path class="cls-4" d="m340.99,198.62l-263.08,64.57c.66-2.02,1.33-4.04,2-6.07l.34-.52c14.53-3.62,29.34-7.33,44.16-11,28.25-6.99,56.52-13.92,84.77-20.91,29.83-7.37,59.64-14.79,89.46-22.18,13.1-3.25,26.21-6.47,39.31-9.69.63-.16,1.27-.29,1.92-.43h1.47c.01,3.12-.27,5.63-.36,6.23Z"/><path class="cls-4" d="m341.36,192.42h-1.47c-.64.13-1.27.26-1.92.42-13.1,3.24-26.21,6.46-39.31,9.69-29.81,7.39-59.63,14.81-89.46,22.18-28.25,6.99-56.52,13.92-84.77,20.91-14.82,3.67-29.63,7.37-44.16,11-2.41-1.66-4.74-3.26-7.06-4.87.6-2.36,2.15-4.25,3.12-6.42.21-.49.42-.83.7-1.09.36-.33.83-.54,1.63-.73,29.5-7.23,58.94-14.71,88.43-22.05,31.09-7.75,62.18-15.38,93.28-23.07,25.56-6.32,51.14-12.63,76.71-18.96l.79-.66c1.13,1.66,2.16,3.64,2.69,5.79.63,2.53.82,5.38.8,7.86Z"/><path class="cls-4" d="m337.87,178.77l-.79.66c-25.58,6.33-51.15,12.64-76.71,18.96-31.1,7.69-62.21,15.32-93.28,23.07-29.48,7.33-58.93,14.82-88.43,22.05-.8.2-1.27.4-1.63.73l-.46-.6c-1.63-1.47-3.26-2.96-4.91-4.45l-.79-.54c.52-.19,1.03-.36,1.56-.49,13.89-3.77,27.94-6.95,41.93-10.37,32.62-8,65.24-15.97,97.85-24.04,26.65-6.6,53.27-13.36,79.9-20,13.69-3.41,27.38-6.79,41.07-10.18,0-.01,2.51,2.03,4.68,5.21Z"/><path class="cls-3" d="m80.25,256.6l-.34.52c-.67,2.02-1.33,4.05-2,6.07l-51.57.34c7.5-3.95,26.68-15.54,34.18-19.5,3.42-1.82,6.76-4.08,10.35-5.38l.79.54c1.63,1.49,3.26,2.96,4.91,4.45l.46.6c-.27.26-.49.6-.7,1.09-.99,2.16-2.53,4.05-3.12,6.42,2.31,1.59,4.64,3.21,7.05,4.85Z"/><path class="cls-1" d="m76.56,243.62c-1.63-1.47-3.26-2.96-4.91-4.45"/><path class="cls-1" d="m337.08,179.43c-25.58,6.33-51.15,12.64-76.71,18.96-31.1,7.69-62.21,15.32-93.28,23.07-29.48,7.33-58.93,14.82-88.43,22.05-.8.2-1.27.4-1.63.73-.27.26-.49.6-.7,1.09-.99,2.16-2.53,4.05-3.12,6.42,2.32,1.6,4.65,3.21,7.06,4.87,14.53-3.62,29.34-7.33,44.16-11,28.25-6.99,56.52-13.92,84.77-20.91,29.83-7.37,59.64-14.79,89.46-22.18,13.1-3.25,26.21-6.47,39.31-9.69.63-.16,1.27-.29,1.92-.43"/><path class="cls-1" d="m363.83,165.93c-5.48,1.37-10.97,2.74-16.45,4.1-4.74,1.17-9.47,2.35-14.19,3.52-13.69,3.39-27.38,6.77-41.07,10.18-26.63,6.64-53.24,13.42-79.9,20-32.59,8.08-65.23,16.04-97.85,24.04-13.99,3.42-28.04,6.6-41.93,10.37-.52.14-1.05.3-1.56.49-3.59,1.3-6.93,3.57-10.35,5.38-7.49,3.98-26.68,15.57-34.18,19.5l51.57-.34c.66-2.02,1.33-4.04,2-6.07"/><path class="cls-1" d="m333.19,173.54s2.51,2.05,4.68,5.23c1.13,1.66,2.16,3.64,2.69,5.79.63,2.55.82,5.4.8,7.86,0,3.09-.3,5.6-.37,6.21-.01.1-.01.14-.01.14"/><path class="cls-1" d="m367.21,191.47c-1.83,1.93-6.11,2.26-6.11,2.26l-6.01,1.45s1.13-7.98-.42-14.22c-1.42-5.77-6.52-10.28-7.27-10.93-.06-.06-.1-.09-.1-.09"/><path class="cls-1" d="m363.83,165.93s3.18,1.09,4.7,2.92,2.69,4.75,3.51,7.55c.82,2.81,2.18,6.72,1.3,8.56-.87,1.85-4.31,4.58-6.14,6.5"/><polyline class="cls-1" points="355.07 195.17 340.99 198.62 77.91 263.19"/><path d="m26.34,263.53l17.23-9.82s2.61-.21,3.48,4.34c.9,4.7-.4,5.36-.4,5.36l-20.31.13Z"/></svg>