<?xml version="1.0" encoding="UTF-8"?><svg id="Layer_1" xmlns="http://www.w3.org/2000/svg" viewBox="0 0 400 400"><defs><style>.cls-1{fill:#f6d3b6;}.cls-1,.cls-2,.cls-3{stroke:#000;stroke-miterlimit:10;stroke-width:.75px;}.cls-2{fill:#eaaf84;}.cls-3{fill:#f26e93;}</style></defs><path class="cls-2" d="m145.1,181.6c-.63-2.24-1.28-4.48-.91-6.86.72-1.32.41-2.45-.03-3.88-.91-2.9-1.76-6.19,3.64-4.3,4.66,1.63,8.38.12,10.8-4.31.07-.13.61.02.94.02.67,1.1,1.04,2.6.36,3.46-3.83,4.89,1.07,9.53.28,14.32-.12.67,1.12,2.25,1.76,2.25,4.44.08,3.55,3.39,3.69,5.92.23,4.43.25,8.87.35,13.3.58.08,1.14.18,1.71.26,8.06-25.67,18.4-50.44,27.83-75.62-3.64,20.6-13.36,39.77-14.09,61.55,6.47-4.33,1.2-13.91,9.15-17.02,1.05,2.75-2.01,4.85-.99,7.34,1.43.18,1.5-.87,1.93-1.53,6.42-9.92,8.79-21.66,14.47-31.99,7.47-13.63,12.29-28.5,17.94-42.97.89-2.25,1.83-4.49,1.58-6.99.71-1.43.61-4.16,2.68-3.72,2.29.49.82,2.88.79,4.46-.02.86.03,1.79-.26,2.57-1.84,4.71.91,6.62,4.49,8.9,6.83,4.34,14.25,4.05,21.72,3.98,5.87-.05,8.43,2.86,7.72,8.61-.81,6.63,5.96,18.15,13.92,18.18,4.77.02,9.25,2.01,14.2,1.05,2.95-.58,6.96.28,4.95,5.5-.33.84.38,2.04.28,3.03-.46,4.2,1.12,8.03-1.78,12.67-4.57,7.32-4.81,8.29,3.31,13.25,4.81,2.95,9.3,3.6,14.55,3.59,6.66-.02,8.57,2.9,6.25,8.62-1.71-.95-3.29-.46-4.95.26-9.63,4.25-19.19,8.67-29.16,12.13-11.7,4.06-23.47,8.03-35,12.54-8.99,3.52-19.29,3.87-26.84,11.01-.87.82-2.73,1.27-3.93.99-6.22-1.45-11.39,2.01-16.98,3.34-2.47.59-4.54,2.7-7.36,1.94-1.6-.64-3.18-1.3-4.77-1.94-2.47-3.47-1.46-5.55,2.53-6.6,1.43-.38,2.78-1.12,4.16-1.71,2.39.05,4.43-.87,6.32-2.24,6.94.63,10.22-4.97,14.63-8.64,2.3,0,4.31-.18,2.86-3.41-.71-1.58.82-1.94,1.73-2.6,2.86-.51,7.16,1.04,6.42-4.66-.08-.66,1.23-1.51,1.91-2.27,1.96-1.65,4.15-3.09,5.76-6.2-2.81.58-4.84.84-6.75,1.42-2.11.63-4.62,2.78-6.27,1.37-3.82-3.29-6.45-.49-9.66.69-1.76.66-2.86,2.95-5.58,2.32,1.53-2.8,2.9-5.32,4.26-7.82,4.03-3.24,8.79-5.96,8.84-12.11,1.88-4.64-.44-10.15,2.98-14.47,1.53-1.93,2.81-3.88-.08-5.53-3.37-1.93-2.37,2.27-3.88,3-4.69,2.68-7.36,7.08-9.94,11.57-3.21,2.86-4.84,7.7-10.75,7.19-1.45-.13-4.43,3-3.47,6.34,1.37,3.88.89,7.22-2.9,9.53-1.18.72-1.22,1.94-1.4,3.09-1.99,3.7-4,7.41-5.99,11.09-1.55.76-1.7,2.45-2.5,3.72-3.49,5.43-7.06,6.24-10.8,2.47.12-2.62.23-5.23.35-7.85,1.09-2.7,2.17-5.4,3.23-8.1.43-1.09.15-2.21-.84-2.67-1.38-.64-1.66.69-1.99,1.6-1,2.73-1.94,5.48-2.9,8.21.28,5.87-4.11,10.55-4.2,16.32-.84,1.97-2.29,1.33-3.7.86-1.35-.77-2.16-.05-2.86,1-.82-.82-1.5-2.27-2.85-1.86-5.79,1.74-5.35-2.93-5.69-5.91-.74-6.43-1.27-12.89-3.27-19.09,1.15-1.94,1.02-2.6-.54-5.25-.28-.48-.05-1.32.08-1.96.38-1.88-.44-3.34-1.46-4.76Z"/><path class="cls-1" d="m194.04,227.46c2.83.76,4.89-1.35,7.36-1.94,5.61-1.35,10.76-4.79,16.98-3.34,1.2.28,3.06-.16,3.93-.99,7.55-7.14,17.86-7.49,26.84-11.01,11.54-4.51,23.29-8.46,35-12.54,9.97-3.47,19.53-7.88,29.16-12.13,1.65-.72,3.24-1.22,4.95-.26-1.3,3.55-2.58,7.13-3.92,10.66-1.23,3.27-1.1,6.52,1.32,9.05,4.94,5.17,10.65,9.05,18,10.1,2.83.41,4.51,5.87,2.78,8.18-2.5,3.31-6.86,4.77-7.87,9.74-.81,4-1.25,7.7.95,10.96,3.29,4.85,7.65,8.84,12.19,12.56,2.75,2.24,2.68,6.5-.36,8.18-1.18.66-2.53,1.32-3.83,1.37-4.67.16-7.01,2.93-8.46,6.94-.28.79-.67,1.94-1.28,2.17-4.59,1.63-1.37,2.57.12,4.13,4.62,4.92,9.02,10.05,13.74,15.37-.92.18-1.2.33-1.45.28-6.01-.99-11.93-2.5-18.12-1.79-1.94.23-3.52.71-1.71,2.58,3.19,3.29,6.63,6.4,10.33,9.07,2.09,1.5,3.52,3,4.18,5.33-5.96.44-7.93-5.04-11.7-7.67-3.08-2.14-6.8-3.44-8.64-1.4-1.79,1.97.56,5.63,2.9,7.83-1.17,1.56-1.94,1.05-3.24-.13-4.84-4.39-10.86-7.29-15.47-12-3.69-3.39-7.57-6.47-12.46-7.96-4.76-3.21-8.36-8.05-13.99-10.05-3.7-3.54-8.89-3.95-13.2-6.19-9.1-5.96-18.38-11.62-28.11-16.52-3.46-3.74-8.46-5.04-12.47-7.9-6.32-1.91-10.57-6.12-13.28-12.01-2.75-4.15-6.8-6.4-11.44-7.78.08-.28.18-.58.25-.89Z"/><path class="cls-3" d="m317.43,308.92c-2.34-2.21-4.69-5.86-2.9-7.83,1.84-2.04,5.58-.76,8.64,1.4,3.77,2.63,5.74,8.1,11.7,7.67-.64-2.34-2.09-3.83-4.18-5.33-3.72-2.65-7.16-5.78-10.33-9.07-1.81-1.86-.23-2.35,1.71-2.58,6.19-.71,12.11.81,18.12,1.79.25.03.53-.1,1.45-.28-4.72-5.32-9.12-10.45-13.74-15.37-1.48-1.58-4.71-2.5-.12-4.13.61-.21.99-1.37,1.28-2.17,1.45-4,3.79-6.78,8.46-6.94,1.3-.05,2.67-.71,3.83-1.37,3.03-1.7,3.09-5.94.36-8.18-4.54-3.72-8.9-7.7-12.19-12.56-2.21-3.26-1.76-6.98-.95-10.96,1-4.97,5.36-6.45,7.87-9.74,1.73-2.29.07-7.77-2.78-8.18-7.36-1.05-13.07-4.94-18-10.1-2.42-2.53-2.57-5.78-1.32-9.05,1.33-3.54,2.62-7.11,3.92-10.66,2.32-5.73.41-8.64-6.25-8.62-5.23.02-9.74-.64-14.55-3.59-8.1-4.95-7.87-5.92-3.31-13.25,2.9-4.64,1.32-8.49,1.78-12.67.12-.99-.59-2.19-.28-3.03,2.01-5.22-2.01-6.06-4.95-5.5-4.95.95-9.41-1.04-14.2-1.05-7.96-.02-14.73-11.54-13.92-18.18.71-5.74-1.84-8.67-7.72-8.61-7.47.07-14.89.36-21.72-3.98-3.59-2.29-6.34-4.2-4.49-8.9.3-.77.25-1.7.26-2.57.03-1.58,1.51-3.97-.79-4.46-2.07-.44-1.99,2.27-2.68,3.72-1.71-2.14-4.57-2.48-6.43-1.79-4.87,1.79-10.02-.1-14.78,1.73-3.34-2.12-7.08-2.52-10.91-2.47-.07-3.69-2.63-5.68-5.4-7.24-1.78-1.02-3.16.21-3.95,1.94-4.66-2.47-9.59-4.85-14.07-.28-2.53,2.58-5.35,4.64-8.13,6.85-4.03-.87-8.26.39-12.23-1.18-2.04-.87-3.64-2.34-5.3-3.78-6.4-5.56-13.61-2.98-15.67,5.51-1.37,1.27-1.58,3.09-2.29,4.69-2.62,1.23-4.13,3.54-5.73,5.78-4.41.82-8.62-1.46-13.05-.74-5.32.87-11.09-1.1-15.98,2.55-1.93,1.45-4.26,2.67-2.17,5.74,1.12,1.65.16,2.86-1.3,3.87-3.21,2.19-6.8,3.54-10.6,2.85-7.93-1.43-14.83,2.11-22.05,4.05-1,.26-1.3.81-.72,1.89,2.6,4.82,1.81,8.99-2.62,12.34-2.75-.71-4.64-2.21-4.89-5.25,2.07-2.58,2.47-4.69-1.32-6.12-3.14-1.18-1.4-5.02-3.42-6.9-.1-6.25,1.48-7.44,10.94-8.16,2.27,1.84,3.54.41,4.67-1.45,1.7-.91,3.14-1.38,4.87.35,1.99,1.99,4.57,2.35,7.22,1.07,5.73-1.04,9.1-4.53,9.45-9.79,2.35-4.51,1.18-9.76,3.01-14.38,1.27-6.53,5.94-5.68,10.52-4.76,1.83.36,3.55,1.15,5.33,1.76,5.02,2.8,10.15,3.01,15.37.58,1.2.1,1.3-.95,1.71-1.66,4.99-3.03,4.99-9.31,8.64-13.21,1.3-.16,1.4-1.33,1.74-2.22,2.57-6.47,6.34-7.62,12.13-3.69.39.26.95.31,1.45.44,3.49,3.7,7.47,6.68,12.41,8.18,5.6,2.44,9.89,1.5,14.56-3.16,3.47-.79,4.31-4.33,6.66-6.3.51-.56.66-1.97,1.71-1.37,1.3.76,1.79,2.81,2.85-.61,1.07-3.49,4.64-2.95,7.22-1.05,1.56,1.15,2.58,3.04,3.87,4.59,2.22,5.63,6.52,9.26,11.6,12.16,4.61,3.59,10.53,3.31,16.82-.69,2.57-1.65,5.13-3.36,7.88-4.64,4.05-1.86,7.21.1,9.66,5.58.18.43.38.86.56,1.28,2.06,6.15,1.71,12.9,6.14,18.58,3.52,4.53,7.32,6.15,12.62,5.36,1.45.79,2.52-.13,3.6-.86,4.1-.36,8.03-1.7,12.28-1.35,2.25.2,3.85.69,5.02,2.53,1.02,3,2.04,6.01,3.04,9-1.61,6.02-.53,11.32,4.16,15.65,4.41,2.6,9.35,2.88,14.25,3.39,2.32.31,4.66.58,6.98.94,4.34.66,6.12,3.82,5.27,8.23-1.09,5.63-2.91,11.12-3.16,16.9-.58,1.05-.91,1.88-.2,3.26,2.3,4.49,6.98,4.53,10.78,6.2,4.92,2.83,10.78,2.76,15.83,5.13,6.12,2.09,8.05,6.4,3.04,12.41-2.27,3.19-4.44,6.52-5.04,10.43-1.04,6.76,2.14,11.47,9.74,14.79,3.26,1.43,6.07,3.52,8.95,5.53,3.09,2.45,4.66,5.58,4.2,9.59-1.25,3.01-2.91,5.74-5.5,7.85-2.11,1.73-3.26,3.97-3.13,6.75-.82,5.04,2.6,8.66,4.23,12.89,2.63,3.11,5.27,6.22,7.9,9.33,1.97,4.41,1.55,7.85-3.65,9.63-1.18.41-2.09,1.6-3.13,2.42-7.16,5.84-8.06,8.61-5.22,15.81.92,3.16,1.71,6.37,4.53,8.51-.21,1.96,2.86,3.67.81,5.53-1.56,1.4-3.88.33-5.83.23-2.12-.1-4.53-2.91-6.15.53-1.45,3.06,1.22,4.59,2.93,6.39,1.04,1.09,2.16,2.11,3.23,3.14.72,2.25,3.23,1.66,4.56,2.83,1.96,1.73,4.94,3.37,1.89,6.62-5.58-.43-10.33-3.67-16.79-5.17,2.16,3.24,4.79,4.81,5.71,7.65.76,2.32-.54,1.61-1.65,1.46-4.79-1.73-8.15-5.63-12.42-8.15-1.68-3.65-4.95-5.84-7.7-8.51Z"/><path class="cls-1" d="m126.31,98.51c.69-1.6.92-3.42,2.29-4.69,2.01.82,2.57,2.58,3,4.51.71,3.18,1.32,6.42,2.39,9.48,1.25,3.55,2.01,7.64,7.01,9.59-.82-6.2-3.31-11.68-1.74-17.76,2.83,4.76,3.23,4.67,6.6.35,1.88-2.4,2.53-5.23,3.72-7.9,3.97,1.56,8.2.31,12.23,1.18,3.59,2.95,6.88,6.19,11.32,8.05,6.52,2.72,9,8,8.41,14.98-1.25,14.78-3.85,29.34-7.03,43.81-1.74,7.93-3.93,15.8-4.11,24.64.91-.74,1.45-.97,1.56-1.32,4.23-13.26,8.67-26.45,13.03-39.66,4.16-12.65,8.72-25.33,10.63-38.64.56-3.87.64-7.64,6.02-7.7,1.45-.02,2.21-1.51,2.62-2.91,4.76-1.83,9.89.07,14.78-1.73,1.86-.69,4.72-.33,6.43,1.79.25,2.5-.69,4.74-1.58,6.99-5.64,14.47-10.47,29.34-17.94,42.97-5.66,10.33-8.03,22.07-14.47,31.99-.43.66-.49,1.71-1.93,1.53-1.02-2.48,2.04-4.57.99-7.34-7.95,3.09-2.68,12.67-9.15,17.02.74-21.77,10.45-40.94,14.09-61.55-9.43,25.16-19.78,49.94-27.83,75.62-.58-.08-1.14-.18-1.71-.26-.1-4.43-.12-8.87-.35-13.3-.13-2.53.76-5.84-3.69-5.92-.64-.02-1.88-1.58-1.76-2.25.79-4.79-4.11-9.43-.28-14.32.67-.86.31-2.34-.36-3.46-.33-.02-.87-.15-.94-.02-2.42,4.43-6.14,5.94-10.8,4.31-5.4-1.89-4.54,1.4-3.64,4.3.44,1.43.76,2.57.03,3.88-1.3-.59-2.62-1.2-3.92-1.79-.08-.63-.15-1.27-.23-1.89,1.48-7.03-1.48-13.74-1.66-20.77-.41-15.58-6.8-30.35-9.58-45.72-.35-2.11-.61-4.49-2.47-6.09Zm80.65,28.54c6.45-1.83,4.1-7.69,6.22-11.29,2.48-4.25,4.82-8.11,2.4-13.86-4.66,8.21-7.7,16.18-8.62,25.15Z"/></svg>